<?xml version="1.0" encoding="utf-8"?>
<!-- Generator: Adobe Illustrator 16.0.3, SVG Export Plug-In . SVG Version: 6.00 Build 0)  -->
<!DOCTYPE svg PUBLIC "-//W3C//DTD SVG 1.1//EN" "http://www.w3.org/Graphics/SVG/1.1/DTD/svg11.dtd">
<svg version="1.1" id="Слой_1" xmlns="http://www.w3.org/2000/svg" xmlns:xlink="http://www.w3.org/1999/xlink" x="0px" y="0px"
	 width="44.128px" height="46.878px" viewBox="0 0 44.128 46.878" enable-background="new 0 0 44.128 46.878" xml:space="preserve">
<g>
	<defs>
		<rect id="SVGID_1_" y="0" width="44.128" height="46.878"/>
	</defs>
	<clipPath id="SVGID_2_">
		<use xlink:href="#SVGID_1_"  overflow="visible"/>
	</clipPath>
	<path clip-path="url(#SVGID_2_)" fill="#FFFFFF" d="M35.552,9.507c-0.313-1.365-0.802-2.606-1.411-3.597
		c-1.376-2.239-3.168-3.904-5.652-4.699c-4.589-1.468-7.564,0.659-8.553,1.01C19.237,2.467,18.522,2,17.402,2.752
		c-0.479,0.322-2.372,0.385-3.707,0.532c-1.1,0.123-0.762,1.506-0.653,1.8c0.115,0.306,0.308,0.527,0.308,0.527
		s-0.027-0.425,0.138-0.424c0.2,0.001,1.032,0.665,1.032,0.665s0.225-0.664,0.75-0.668c0.745-0.007,1.744,0.108,2.237,0.083
		c0.882-0.047-0.592,1.005-0.592,1.005s-1.79,0.936-1.697,1.381c0.095,0.46,1.276,0.43,1.523,0.385
		c0.982-0.177,3.861-1.945,4.222-3.248c0.329-1.193,2.401-1.978,4.143-1.822c3.216,0.289,5.023,1.62,6.813,4.97
		c0.263,0.488,0.438,1.017,0.596,1.569H35.552z"/>
	
		<path clip-path="url(#SVGID_2_)" fill="none" stroke="#AEAEAE" stroke-width="1.4" stroke-linecap="round" stroke-linejoin="round" stroke-miterlimit="10" d="
		M35.552,9.507c-0.313-1.365-0.802-2.606-1.411-3.597c-1.376-2.239-3.168-3.904-5.652-4.699c-4.589-1.468-7.564,0.659-8.553,1.01
		C19.237,2.467,18.522,2,17.402,2.752c-0.479,0.322-2.372,0.385-3.707,0.532c-1.1,0.123-0.762,1.506-0.653,1.8
		c0.115,0.306,0.308,0.527,0.308,0.527s-0.027-0.425,0.138-0.424c0.2,0.001,1.032,0.665,1.032,0.665s0.225-0.664,0.75-0.668
		c0.745-0.007,1.744,0.108,2.237,0.083c0.882-0.047-0.592,1.005-0.592,1.005s-1.79,0.936-1.697,1.381
		c0.095,0.46,1.276,0.43,1.523,0.385c0.982-0.177,3.861-1.945,4.222-3.248c0.329-1.193,2.401-1.978,4.143-1.822
		c3.216,0.289,5.023,1.62,6.813,4.97c0.263,0.488,0.438,1.017,0.596,1.569H35.552z"/>
	<path clip-path="url(#SVGID_2_)" fill="#FFFFFF" d="M22.063,10.388H0.7c0,0,1.321,5.506,16.775,7.966
		c2.739,0.435,2.827,2.303,2.827,2.716v1.202c1.317-0.165,2.469-0.327,3.533-0.54c0.055-0.64,0.423-2.997,2.817-3.378
		c15.453-2.461,16.775-7.966,16.775-7.966H22.063z"/>
	
		<path clip-path="url(#SVGID_2_)" fill="none" stroke="#AEAEAE" stroke-width="1.4" stroke-linecap="round" stroke-linejoin="round" stroke-miterlimit="10" d="
		M22.063,10.388H0.7c0,0,1.321,5.506,16.775,7.966c2.739,0.435,2.827,2.303,2.827,2.716v1.202c1.317-0.165,2.469-0.327,3.533-0.54
		c0.055-0.64,0.423-2.997,2.817-3.378c15.453-2.461,16.775-7.966,16.775-7.966H22.063z"/>
	<path clip-path="url(#SVGID_2_)" fill="#FFFFFF" d="M31.058,18.425c-0.648,0.695-1.432,1.307-2.44,1.801
		c-2.754,1.349-5.286,1.711-8.755,2.138c-0.562,0.069-8.948,1.101-8.948,5.478c0,3.789,6.699,4.855,8.502,5.074v-3.254
		c-1.229-0.161-4.583-0.705-4.583-1.875c0-1.431,4.355-2.038,5.029-2.12c4.831-0.578,8.067-1.527,10.649-2.926
		c2.401-1.301,3.883-3.275,4.678-5.484C33.925,17.689,32.546,18.079,31.058,18.425"/>
	
		<path clip-path="url(#SVGID_2_)" fill="none" stroke="#AEAEAE" stroke-width="1.4" stroke-linecap="round" stroke-linejoin="round" stroke-miterlimit="10" d="
		M31.058,18.425c-0.648,0.695-1.432,1.307-2.44,1.801c-2.754,1.349-5.286,1.711-8.755,2.138c-0.562,0.069-8.948,1.101-8.948,5.478
		c0,3.789,6.699,4.855,8.502,5.074v-3.254c-1.229-0.161-4.583-0.705-4.583-1.875c0-1.431,4.355-2.038,5.029-2.12
		c4.831-0.578,8.067-1.527,10.649-2.926c2.401-1.301,3.883-3.275,4.678-5.484C33.925,17.689,32.546,18.079,31.058,18.425z"/>
	<path clip-path="url(#SVGID_2_)" fill="#FFFFFF" d="M24.719,30.331v3.202c0.68,0.13,1.896,0.447,1.896,1.056
		c0,0.843-4.588,1.716-7.671,3.185c-3.084,1.468-4.112,3.67-4.112,3.67s1.138-0.954,3.598-1.615
		c2.459-0.661,11.453-1.441,11.453-5.529C29.883,31.375,26.051,30.535,24.719,30.331"/>
	
		<path clip-path="url(#SVGID_2_)" fill="none" stroke="#AEAEAE" stroke-width="1.4" stroke-linecap="round" stroke-linejoin="round" stroke-miterlimit="10" d="
		M24.719,30.331v3.202c0.68,0.13,1.896,0.447,1.896,1.056c0,0.843-4.588,1.716-7.671,3.185c-3.084,1.468-4.112,3.67-4.112,3.67
		s1.138-0.954,3.598-1.615c2.459-0.661,11.453-1.441,11.453-5.529C29.883,31.375,26.051,30.535,24.719,30.331z"/>
	<path clip-path="url(#SVGID_2_)" fill="#FFFFFF" d="M32.746,44.223c-2.241-0.744-5.611-1.011-7.507-1.973
		c-0.982-0.499-1.423-1.262-1.413-2.212c0.001-0.072,0.002-1.126,0.002-1.315c-1.184,0.292-2.348,0.51-3.341,0.697
		c-0.07,0.012-0.134,0.025-0.201,0.037c-0.087,0.797-0.531,2.354-1.396,2.793c-1.895,0.962-5.266,1.229-7.507,1.973
		C9.045,45,8.409,46.178,8.409,46.178h13.656H35.72C35.72,46.178,35.082,45,32.746,44.223"/>
	
		<path clip-path="url(#SVGID_2_)" fill="none" stroke="#AEAEAE" stroke-width="1.4" stroke-linecap="round" stroke-linejoin="round" stroke-miterlimit="10" d="
		M32.746,44.223c-2.241-0.744-5.611-1.011-7.507-1.973c-0.982-0.499-1.423-1.262-1.413-2.212c0.001-0.072,0.002-1.126,0.002-1.315
		c-1.184,0.292-2.348,0.51-3.341,0.697c-0.07,0.012-0.134,0.025-0.201,0.037c-0.087,0.797-0.531,2.354-1.396,2.793
		c-1.895,0.962-5.266,1.229-7.507,1.973C9.045,45,8.409,46.178,8.409,46.178h13.656H35.72C35.72,46.178,35.082,45,32.746,44.223z"/>
	<path clip-path="url(#SVGID_2_)" fill="#FFFFFF" d="M20.299,25.648c-0.001,3.101-0.003,8.653-0.002,11.444
		c0.89-0.334,1.801-0.637,2.648-0.912c0.277-0.092,0.582-0.191,0.886-0.294c0.001-2.811-0.001-8.02-0.003-10.8
		C22.741,25.304,21.57,25.489,20.299,25.648"/>
	
		<path clip-path="url(#SVGID_2_)" fill="none" stroke="#AEAEAE" stroke-width="1.4" stroke-linecap="round" stroke-linejoin="round" stroke-miterlimit="10" d="
		M20.299,25.648c-0.001,3.101-0.003,8.653-0.002,11.444c0.89-0.334,1.801-0.637,2.648-0.912c0.277-0.092,0.582-0.191,0.886-0.294
		c0.001-2.811-0.001-8.02-0.003-10.8C22.741,25.304,21.57,25.489,20.299,25.648z"/>
</g>
</svg>
