<?xml version="1.0" encoding="utf-8"?>
<!-- Generator: Adobe Illustrator 16.0.0, SVG Export Plug-In . SVG Version: 6.00 Build 0)  -->
<!DOCTYPE svg PUBLIC "-//W3C//DTD SVG 1.1//EN" "http://www.w3.org/Graphics/SVG/1.1/DTD/svg11.dtd">
<svg version="1.1" id="Layer_1" xmlns="http://www.w3.org/2000/svg" xmlns:xlink="http://www.w3.org/1999/xlink" x="0px" y="0px"
	 width="52.135px" height="48.336px" viewBox="0 0 52.135 48.336" enable-background="new 0 0 52.135 48.336" xml:space="preserve">
<path fill="none" stroke="#FFFFFF" stroke-width="2" stroke-miterlimit="10" d="M45.938,45.79l-11.42-9.145l-22.898,0.037
	c-5.833,0.01-10.587-4.73-10.597-10.564L1,11.642C0.989,5.808,5.729,1.055,11.562,1.046L40.516,1
	c5.833-0.009,10.586,4.729,10.597,10.562l0.022,14.476c0.007,4.701-3.067,8.699-7.313,10.082L45.938,45.79z"/>
<path fill="#FFFFFF" d="M31.47,18.28l-6.312,2.662l-0.009-5.304L31.47,18.28z M38.122,20.471l-0.007-4.399L17.712,7.468l0.008,5.064
	l3.639,1.521l0.014,8.486l-3.634,1.533l0.008,5.064L38.122,20.471z"/>
</svg>
