<?xml version="1.0" encoding="utf-8"?>
<!-- Generator: Adobe Illustrator 16.0.0, SVG Export Plug-In . SVG Version: 6.00 Build 0)  -->
<!DOCTYPE svg PUBLIC "-//W3C//DTD SVG 1.1//EN" "http://www.w3.org/Graphics/SVG/1.1/DTD/svg11.dtd">
<svg version="1.1" id="Layer_1" xmlns="http://www.w3.org/2000/svg" xmlns:xlink="http://www.w3.org/1999/xlink" x="0px" y="0px"
	 width="86.007px" height="90.093px" viewBox="0 0 86.007 90.093" enable-background="new 0 0 86.007 90.093" xml:space="preserve">
<g>
	<defs>
		<rect id="SVGID_1_" width="86.007" height="90.093"/>
	</defs>
	<clipPath id="SVGID_2_">
		<use xlink:href="#SVGID_1_"  overflow="visible"/>
	</clipPath>
	<g clip-path="url(#SVGID_2_)">
		<defs>
			<rect id="SVGID_3_" y="0" width="86.006" height="90.093"/>
		</defs>
		<clipPath id="SVGID_4_">
			<use xlink:href="#SVGID_3_"  overflow="visible"/>
		</clipPath>
		<g clip-path="url(#SVGID_4_)">
			<g>
				<defs>
					<rect id="SVGID_5_" width="86.007" height="79.543"/>
				</defs>
				<clipPath id="SVGID_6_">
					<use xlink:href="#SVGID_5_"  overflow="visible"/>
				</clipPath>
				<path clip-path="url(#SVGID_6_)" fill="#FFFFFF" d="M77.911,79.543L56.691,62.5h-37.89C8.435,62.5,0,54.063,0,43.695V18.8
					C0,8.434,8.435,0,18.802,0h48.403c10.367,0,18.802,8.433,18.802,18.8v24.895c0,7.842-4.81,14.774-12.07,17.557L77.911,79.543z
					 M18.802,2.23C9.664,2.23,2.231,9.665,2.231,18.8v24.895c0,9.139,7.433,16.573,16.571,16.573h38.675l16.916,13.591l-3.057-14.08
					l0.96-0.312c6.867-2.223,11.479-8.562,11.479-15.772V18.8c0-9.136-7.433-16.57-16.57-16.57H18.802z"/>
			</g>
		</g>
	</g>
	<path clip-path="url(#SVGID_2_)" fill="#FFFFFF" d="M52.038,30.981l-10.56,4.433v-8.867L52.038,30.981z M63.153,34.659v-7.355
		L29.066,12.867v8.467l6.079,2.554v14.186l-6.079,2.554v8.467L63.153,34.659z"/>
	<g clip-path="url(#SVGID_2_)">
		<defs>
			<rect id="SVGID_7_" y="0" width="86.006" height="90.093"/>
		</defs>
		<clipPath id="SVGID_8_">
			<use xlink:href="#SVGID_7_"  overflow="visible"/>
		</clipPath>
		<path clip-path="url(#SVGID_8_)" fill="#FFFFFF" d="M11.738,84.891c0.915-0.273,1.616-1.032,1.616-2.142
			c0-1.187-0.954-2.413-2.959-2.413H4.013v9.4h6.559c2.005,0,2.997-1.188,2.997-2.569C13.568,86.019,12.811,85.105,11.738,84.891
			 M7.009,82.653h2.686c0.39,0,0.642,0.233,0.642,0.584c0,0.33-0.252,0.583-0.642,0.583H7.009V82.653z M9.813,87.42H7.009v-1.304
			h2.803c0.448,0,0.739,0.292,0.739,0.662C10.551,87.167,10.241,87.42,9.813,87.42"/>
		<polygon clip-path="url(#SVGID_8_)" fill="#FFFFFF" points="23.226,84.11 20.165,80.348 20.126,80.301 17.784,80.301 
			17.784,89.866 20.422,89.866 20.422,84.413 23.025,87.606 23.064,87.653 23.25,87.653 25.809,84.421 25.809,89.866 28.446,89.866 
			28.446,80.301 26.165,80.301 		"/>
		<path clip-path="url(#SVGID_8_)" fill="#FFFFFF" d="M37.382,80.073c-2.975,0-5.053,2.06-5.053,5.011
			c0,2.996,2.064,5.01,5.135,5.01c1.419,0,2.747-0.433,3.642-1.188l0.072-0.062l-0.785-1.923l-0.136,0.109
			c-0.49,0.396-1.416,0.819-2.545,0.819c-1.42,0-2.396-0.712-2.638-1.913h6.665l0.027-0.092c0.109-0.367,0.151-0.736,0.151-1.319
			C41.917,81.987,39.967,80.073,37.382,80.073 M37.278,82.316c0.624,0,1.145,0.194,1.504,0.562c0.303,0.308,0.476,0.733,0.495,1.208
			H35C35.289,82.927,36.073,82.316,37.278,82.316"/>
		<path clip-path="url(#SVGID_8_)" fill="#FFFFFF" d="M52.679,86.527c-0.659,0.727-1.434,1.095-2.303,1.095
			c-1.241,0-2.56-0.89-2.56-2.539c0-1.635,1.266-2.518,2.455-2.518c0.905,0,1.612,0.278,2.228,0.874l0.118,0.114l1.251-2.109
			l-0.07-0.072c-0.852-0.85-2.178-1.3-3.836-1.3c-2.821,0-4.949,2.154-4.949,5.011c0,2.997,2.08,5.011,5.176,5.011
			c1.607,0,3.03-0.621,3.808-1.665l0.053-0.072l-1.256-1.954L52.679,86.527z"/>
		<polygon clip-path="url(#SVGID_8_)" fill="#FFFFFF" points="56.579,82.937 59.641,82.937 59.641,89.866 62.278,89.866 
			62.278,82.937 65.319,82.937 65.319,80.301 56.579,80.301 		"/>
		<path clip-path="url(#SVGID_8_)" fill="#FFFFFF" d="M73.013,80.073c-2.975,0-5.053,2.06-5.053,5.011
			c0,2.996,2.063,5.01,5.135,5.01c1.419,0,2.747-0.433,3.641-1.188l0.072-0.062l-0.785-1.923l-0.135,0.109
			c-0.49,0.396-1.415,0.819-2.544,0.819c-1.421,0-2.397-0.712-2.639-1.913h6.665l0.026-0.092c0.108-0.367,0.15-0.736,0.15-1.319
			C77.547,81.987,75.598,80.073,73.013,80.073 M72.909,82.316c0.623,0,1.145,0.194,1.504,0.562c0.303,0.308,0.476,0.733,0.494,1.208
			H70.63C70.919,82.927,71.704,82.316,72.909,82.316"/>
		<rect x="81.905" y="75.13" clip-path="url(#SVGID_8_)" fill="#FFFFFF" width="2.781" height="9.729"/>
		<path clip-path="url(#SVGID_8_)" fill="#FFFFFF" d="M83.357,86.526c-1.103,0-1.783,0.861-1.783,1.66
			c0,0.865,0.625,1.783,1.783,1.783c1.014,0,1.641-0.926,1.641-1.783C84.998,87.401,84.324,86.526,83.357,86.526"/>
	</g>
</g>
</svg>
