<?xml version="1.0" encoding="utf-8"?>
<!-- Generator: Adobe Illustrator 16.0.0, SVG Export Plug-In . SVG Version: 6.00 Build 0)  -->
<!DOCTYPE svg PUBLIC "-//W3C//DTD SVG 1.1//EN" "http://www.w3.org/Graphics/SVG/1.1/DTD/svg11.dtd">
<svg version="1.1" id="Layer_1" xmlns="http://www.w3.org/2000/svg" xmlns:xlink="http://www.w3.org/1999/xlink" x="0px" y="0px"
	 width="62.532px" height="68.146px" viewBox="0 0 62.532 68.146" enable-background="new 0 0 62.532 68.146" xml:space="preserve">
<path fill="#FFFFFF" d="M5.844,67.457v-6.359h4.318c1.356,0,2.002,0.83,2.002,1.633c0,0.75-0.475,1.264-1.094,1.447
	c0.724,0.145,1.238,0.764,1.238,1.541c0,0.934-0.671,1.738-2.027,1.738H5.844z M10.124,63.058c0-0.236-0.172-0.395-0.435-0.395
	H7.872v0.789h1.817C9.952,63.453,10.124,63.283,10.124,63.058 M10.268,65.455c0-0.25-0.197-0.447-0.5-0.447H7.872v0.883h1.896
	C10.058,65.89,10.268,65.718,10.268,65.455"/>
<polygon fill="#FFFFFF" points="15.247,61.16 16.702,61.16 18.843,63.791 20.872,61.16 22.285,61.16 22.285,67.457 20.676,67.457 
	20.676,63.609 18.815,65.958 18.773,65.958 16.856,63.609 16.856,67.457 15.247,67.457 "/>
<path fill="#FFFFFF" d="M30.879,66.826c-0.629,0.531-1.524,0.783-2.406,0.783c-2.029,0-3.386-1.313-3.386-3.301
	c0-1.834,1.259-3.303,3.33-3.303c1.623,0,2.98,1.162,2.98,2.926c0,0.391-0.028,0.629-0.098,0.867h-4.547
	c0.14,0.951,0.896,1.469,1.889,1.469c0.769,0,1.413-0.281,1.777-0.574L30.879,66.826z M26.696,63.72h3.092
	c0.014-0.77-0.517-1.371-1.441-1.371C27.381,62.349,26.864,62.894,26.696,63.72"/>
<path fill="#FFFFFF" d="M39.585,66.519c-0.532,0.713-1.483,1.09-2.504,1.09c-2.043,0-3.414-1.313-3.414-3.301
	c0-1.834,1.343-3.303,3.26-3.303c1.035,0,1.945,0.266,2.531,0.854l-0.754,1.273c-0.477-0.461-0.994-0.615-1.568-0.615
	c-0.895,0-1.749,0.686-1.749,1.791c0,1.119,0.868,1.805,1.819,1.805c0.686,0,1.218-0.32,1.623-0.77L39.585,66.519z"/>
<polygon fill="#FFFFFF" points="41.49,61.16 47.226,61.16 47.226,62.769 45.17,62.769 45.17,67.457 43.562,67.457 43.562,62.769 
	41.49,62.769 "/>
<path fill="#FFFFFF" d="M54.981,66.826c-0.63,0.531-1.524,0.783-2.406,0.783c-2.028,0-3.386-1.313-3.386-3.301
	c0-1.834,1.26-3.303,3.33-3.303c1.623,0,2.979,1.162,2.979,2.926c0,0.391-0.028,0.629-0.098,0.867h-4.547
	c0.14,0.951,0.896,1.469,1.889,1.469c0.769,0,1.413-0.281,1.776-0.574L54.981,66.826z M50.798,63.72h3.092
	c0.014-0.77-0.518-1.371-1.441-1.371C51.483,62.349,50.966,62.894,50.798,63.72"/>
<path fill="none" stroke="#FFFFFF" stroke-width="3" stroke-miterlimit="10" d="M53.544,53.447L40.32,42.822H13.767
	C7.004,42.822,1.5,37.318,1.5,30.554V13.768C1.5,7.003,7.004,1.5,13.767,1.5h33.572c6.765,0,12.268,5.503,12.268,12.268v16.786
	c0,5.448-3.57,10.081-8.498,11.674L53.544,53.447z"/>
<path fill="#FFFFFF" d="M61.412,65.783c0.659,0,1.12,0.6,1.12,1.137c0,0.629-0.461,1.227-1.12,1.227
	c-0.768,0-1.229-0.598-1.229-1.227C60.183,66.382,60.644,65.783,61.412,65.783 M60.429,57.324h1.873v7.031h-1.873V57.324z"/>
<path fill="#FFFFFF" d="M35.064,22.291l-7.333,3.079v-6.158L35.064,22.291z M42.782,24.845v-5.106L19.113,9.713v5.88l4.221,1.772
	v9.852l-4.221,1.773v5.878L42.782,24.845z"/>
<path fill="none" stroke="#FFFFFF" stroke-width="0.323" stroke-miterlimit="10" d="M35.064,22.291l-7.333,3.079v-6.158
	L35.064,22.291z M42.782,24.845v-5.106L19.113,9.713v5.88l4.221,1.772v9.852l-4.221,1.773v5.878L42.782,24.845z"/>
</svg>
