<svg xmlns="http://www.w3.org/2000/svg" x="0px" y="0px" viewBox="25.6 19.2 27.999999 32.700001" width="28" height="32.700001" > <path d="m 45.825106,19.199993 c -1.764565,0.110285 -3.804842,1.213353 -4.962837,2.702204 -1.102852,1.323423 -1.985134,3.25363 -1.654279,5.183622 1.87485,0 3.859769,-1.103499 5.017764,-2.592349 1.04771,-1.378566 1.875065,-3.308342 1.599352,-5.293477 z m -11.910592,7.665041 c -2.481418,0 -5.183622,1.543993 -6.8379,4.135696 -2.371134,3.639414 -1.98492,10.531596 1.875064,16.431856 1.378565,2.09542 3.197842,4.467414 5.624117,4.467414 2.150562,0 2.757777,-1.378565 5.625194,-1.378565 2.922559,0 3.47377,1.378565 5.569189,1.378565 2.426276,0 4.356483,-2.647707 5.735049,-4.743127 0.992567,-1.488851 1.377919,-2.260417 2.094773,-3.969838 -5.514262,-2.150563 -6.396329,-10.035743 -0.882067,-13.013444 -1.709421,-2.09542 -4.025626,-3.308557 -6.286474,-3.308557 -2.922559,0 -4.190193,1.378565 -6.23047,1.378565 -2.095419,0 -3.694772,-1.378565 -6.286475,-1.378565 z" fill="#ffffff" /> </svg>
