<?xml version="1.0" encoding="UTF-8" standalone="no"?>
<!-- Created with Inkscape (http://www.inkscape.org/) -->

<svg
   xmlns:dc="http://purl.org/dc/elements/1.1/"
   xmlns:cc="http://creativecommons.org/ns#"
   xmlns:rdf="http://www.w3.org/1999/02/22-rdf-syntax-ns#"
   xmlns:svg="http://www.w3.org/2000/svg"
   xmlns="http://www.w3.org/2000/svg"
   xmlns:sodipodi="http://sodipodi.sourceforge.net/DTD/sodipodi-0.dtd"
   xmlns:inkscape="http://www.inkscape.org/namespaces/inkscape"
   id="svg2"
   version="1.1"
   inkscape:version="0.91 r13725"
   xml:space="preserve"
   width="61.000004"
   height="62"
   viewBox="0 0 61.000004 62"
   sodipodi:docname="building-01-white.svg"><metadata
     id="metadata8"><rdf:RDF><cc:Work
         rdf:about=""><dc:format>image/svg+xml</dc:format><dc:type
           rdf:resource="http://purl.org/dc/dcmitype/StillImage" /><dc:title></dc:title></cc:Work></rdf:RDF></metadata><defs
     id="defs6"><clipPath
       clipPathUnits="userSpaceOnUse"
       id="clipPath16"><path
         d="m 0,4.937 4.861,0 L 4.861,0 0,0 0,4.937 Z"
         id="path18"
         inkscape:connector-curvature="0" /></clipPath></defs><sodipodi:namedview
     pagecolor="#ffffff"
     bordercolor="#666666"
     borderopacity="1"
     objecttolerance="10"
     gridtolerance="10"
     guidetolerance="10"
     inkscape:pageopacity="0"
     inkscape:pageshadow="2"
     inkscape:window-width="1118"
     inkscape:window-height="480"
     id="namedview4"
     showgrid="false"
     inkscape:zoom="3.3801338"
     inkscape:cx="-6.6600469"
     inkscape:cy="37.607932"
     inkscape:window-x="0"
     inkscape:window-y="0"
     inkscape:window-maximized="0"
     inkscape:current-layer="g10"
     fit-margin-top="0"
     fit-margin-left="0"
     fit-margin-right="0"
     fit-margin-bottom="0" /><g
     id="g10"
     inkscape:groupmode="layer"
     inkscape:label="Vector Smart Object"
     transform="matrix(1.25,0,0,-1.25,0,62)"><g
       id="g12"
       style="fill:#ffffff"
       transform="scale(10.039087,10.046587)"><g
         id="g14"
         clip-path="url(#clipPath16)"
         style="fill:#ffffff"><g
           id="g20"
           transform="translate(0.667,1.061)"
           style="fill:#ffffff"><path
             d="m 0,0 0,0 0.629,0 c 0.063,0 0.114,0.05 0.114,0.113 0,0.063 -0.051,0.115 -0.114,0.115 L 0,0.228 C -0.063,0.228 -0.114,0.176 -0.114,0.113 -0.114,0.05 -0.063,0 0,0 m 1.714,1.817 0,0 0.629,0 c 0.063,0 0.113,0.051 0.113,0.114 0,0.063 -0.05,0.114 -0.113,0.114 l -0.629,0 C 1.651,2.045 1.6,1.994 1.6,1.931 1.6,1.868 1.651,1.817 1.714,1.817 m 0,-0.909 0,0 0.629,0 c 0.063,0 0.113,0.051 0.113,0.114 0,0.063 -0.05,0.114 -0.113,0.114 l -0.629,0 C 1.651,1.136 1.6,1.085 1.6,1.022 1.6,0.959 1.651,0.908 1.714,0.908 M 2.892,0 l 0,0 0.628,0 c 0.063,0 0.114,0.05 0.114,0.113 0,0.063 -0.051,0.115 -0.114,0.115 l -0.628,0 C 2.829,0.228 2.777,0.176 2.777,0.113 2.777,0.05 2.829,0 2.892,0 m -1.178,0 0,0 0.629,0 c 0.063,0 0.113,0.05 0.113,0.113 0,0.063 -0.05,0.115 -0.113,0.115 l -0.629,0 C 1.651,0.228 1.6,0.176 1.6,0.113 1.6,0.05 1.651,0 1.714,0 m 2.1,-0.682 0,0 -2.395,0 0,4.178 2.395,0 0,-4.178 z m -2.775,0 0,0 -1.326,0 0,2.319 1.326,0 0,-2.319 z m 2.965,4.558 0,0 -2.775,0 c -0.105,0 -0.19,-0.086 -0.19,-0.19 l 0,-1.669 -1.516,0 c -0.105,0 -0.19,-0.085 -0.19,-0.19 l 0,-2.698 c 0,-0.106 0.085,-0.19 0.19,-0.19 l 4.481,0 c 0.105,0 0.19,0.084 0.19,0.19 l 0,4.557 c 0,0.104 -0.085,0.19 -0.19,0.19 m -2.29,-1.15 0,0 0.629,0 c 0.063,0 0.113,0.051 0.113,0.113 0,0.063 -0.05,0.115 -0.113,0.115 l -0.629,0 C 1.651,2.954 1.6,2.902 1.6,2.839 1.6,2.777 1.651,2.726 1.714,2.726 m 1.178,0 0,0 0.628,0 c 0.063,0 0.114,0.051 0.114,0.113 0,0.063 -0.051,0.115 -0.114,0.115 l -0.628,0 c -0.063,0 -0.115,-0.052 -0.115,-0.115 0,-0.062 0.052,-0.113 0.115,-0.113 m 0,-1.818 0,0 0.628,0 c 0.063,0 0.114,0.051 0.114,0.114 0,0.063 -0.051,0.114 -0.114,0.114 l -0.628,0 c -0.063,0 -0.115,-0.051 -0.115,-0.114 0,-0.063 0.052,-0.114 0.115,-0.114 m -2.892,0 0,0 0.629,0 c 0.063,0 0.114,0.051 0.114,0.114 0,0.063 -0.051,0.114 -0.114,0.114 L 0,1.136 c -0.063,0 -0.114,-0.051 -0.114,-0.114 0,-0.063 0.051,-0.114 0.114,-0.114 m 2.892,0.909 0.628,0 c 0.063,0 0.114,0.051 0.114,0.114 0,0.063 -0.051,0.114 -0.114,0.114 l -0.628,0 c -0.063,0 -0.115,-0.051 -0.115,-0.114 0,-0.063 0.052,-0.114 0.115,-0.114"
             style="fill:#ffffff;fill-opacity:1;fill-rule:nonzero;stroke:none"
             id="path22"
             inkscape:connector-curvature="0" /></g></g></g></g></svg>