<svg xmlns="http://www.w3.org/2000/svg" xmlns:xlink="http://www.w3.org/1999/xlink" width="38.69" height="38.7" viewBox="0 0 38.69 38.7"><defs><path id="a" d="M0 0h38.69v38.7H0z"/></defs><clipPath id="b"><use xlink:href="#a" overflow="visible"/></clipPath><path clip-path="url(#b)" fill="#fff" d="M19.344.003C14.176.003 9.317 2.016 5.662 5.67 2.01 9.325-.005 14.185-.005 19.35c0 5.17 2.014 10.028 5.667 13.682 3.654 3.655 8.514 5.668 13.682 5.668 5.167 0 10.025-2.013 13.68-5.668 3.654-3.653 5.667-8.513 5.667-13.68 0-5.168-2.01-10.027-5.66-13.68C29.37 2.015 24.51 0 19.35 0m11.97 31.32c-3.2 3.197-7.45 4.96-11.97 4.96-4.527 0-8.78-1.763-11.977-4.96s-4.95-7.45-4.95-11.97c0-4.52 1.76-8.772 4.96-11.97 3.196-3.198 7.448-4.96 11.97-4.96 4.52 0 8.77 1.762 11.97 4.96 3.2 3.197 4.96 7.45 4.96 11.97 0 4.523-1.76 8.773-4.96 11.97"/><path clip-path="url(#b)" fill="#fff" d="M25.53 18.4l-8.463-6.65c-.364-.286-.86-.34-1.276-.137-.41.202-.68.625-.68 1.088v13.31c0 .47.27.89.68 1.09.17.08.35.13.53.13.27 0 .53-.09.75-.26l8.47-6.65c.3-.23.47-.58.47-.95s-.17-.72-.46-.95m-8 5.12V15.2l5.3 4.16-5.29 4.164z"/></svg>