<svg xmlns="http://www.w3.org/2000/svg" width="30.393" height="34.412" viewBox="0 0 30.393 34.412"><path fill="#fff" d="M11.83 26.38H3.67C1.647 26.38 0 24.73 0 22.71V3.67C0 1.645 1.646 0 3.67 0h15.832c.31 0 .607.12.828.34l5.178 5.104c.226.222.353.523.353.84v6.787c0 .66-.52 1.19-1.18 1.19-.65 0-1.18-.53-1.18-1.18v-6.3l-4.48-4.42H3.67c-.722 0-1.31.59-1.31 1.31v19.04c0 .73.588 1.31 1.31 1.31h8.16c.652 0 1.18.53 1.18 1.18s-.528 1.18-1.18 1.18m4.276-13.81H8.184c-1.79 0-3.247-1.45-3.247-3.24V1.18c0-.652.528-1.18 1.18-1.18.65 0 1.18.528 1.18 1.18v8.14c0 .488.398.887.887.887h7.923c.487 0 .885-.398.885-.887V1.18c0-.65.53-1.18 1.18-1.18.652 0 1.18.528 1.18 1.18v8.14c0 1.79-1.456 3.246-3.246 3.246"/><path fill="#fff" d="M22.578 34.412h-.008c-.35 0-.678-.158-.9-.427l-6.633-7.996c-.292-.36-.354-.85-.16-1.26.195-.42.61-.68 1.068-.68h2.006v-6.89c0-.65.53-1.18 1.18-1.18h7.31c.65 0 1.18.53 1.18 1.18v7.06h1.6c.46 0 .88.26 1.07.68.2.42.13.91-.17 1.26l-6.63 7.82c-.22.26-.55.42-.9.42m-4.12-8l4.13 4.98 4.08-4.81h-.23c-.65 0-1.18-.53-1.18-1.18v-7.06h-4.94v6.89c0 .65-.53 1.18-1.18 1.18h-.67z"/></svg>