<svg xmlns="http://www.w3.org/2000/svg" width="29.934" height="28.013" viewBox="0 0 29.934 28.013"><path fill="#fff" d="M4.29 28.013c-2.366 0-4.29-1.925-4.29-4.29v-4.578c0-2.366 1.924-4.29 4.29-4.29s4.29 1.924 4.29 4.29v4.577c0 2.366-1.924 4.29-4.29 4.29zm0-10.372c-.83 0-1.505.68-1.505 1.51v4.58c0 .83.676 1.51 1.505 1.51s1.504-.67 1.504-1.5v-4.58c0-.83-.674-1.5-1.504-1.5zm10.213 10.38c-2.366 0-4.29-1.92-4.29-4.29V11.72c0-2.365 1.924-4.29 4.29-4.29s4.29 1.925 4.29 4.29v12.006c0 2.365-1.924 4.29-4.29 4.29zm0-17.8c-.83 0-1.505.68-1.505 1.51v12c0 .83.676 1.51 1.505 1.51.83 0 1.504-.67 1.504-1.5V11.72c0-.83-.674-1.506-1.504-1.506zm11.142 17.8c-2.366 0-4.29-1.92-4.29-4.29V4.29c0-2.365 1.924-4.29 4.29-4.29s4.29 1.925 4.29 4.29v19.433c0 2.365-1.925 4.29-4.29 4.29zm0-25.22c-.83 0-1.505.68-1.505 1.51v19.43c0 .83.676 1.51 1.505 1.51.83 0 1.504-.67 1.504-1.5V4.29c0-.83-.68-1.505-1.51-1.505z"/><path d="M4.29 28.013c-2.366 0-4.29-1.925-4.29-4.29v-4.578c0-2.366 1.924-4.29 4.29-4.29s4.29 1.924 4.29 4.29v4.577c0 2.366-1.924 4.29-4.29 4.29zm0-10.372c-.83 0-1.505.68-1.505 1.51v4.58c0 .83.676 1.51 1.505 1.51s1.504-.67 1.504-1.5v-4.58c0-.83-.674-1.5-1.504-1.5zm10.213 10.38c-2.366 0-4.29-1.92-4.29-4.29V11.72c0-2.365 1.924-4.29 4.29-4.29s4.29 1.925 4.29 4.29v12.006c0 2.365-1.924 4.29-4.29 4.29zm0-17.8c-.83 0-1.505.68-1.505 1.51v12c0 .83.676 1.51 1.505 1.51.83 0 1.504-.67 1.504-1.5V11.72c0-.83-.674-1.506-1.504-1.506zm11.142 17.8c-2.366 0-4.29-1.92-4.29-4.29V4.29c0-2.365 1.924-4.29 4.29-4.29s4.29 1.925 4.29 4.29v19.433c0 2.365-1.925 4.29-4.29 4.29zm0-25.22c-.83 0-1.505.68-1.505 1.51v19.43c0 .83.676 1.51 1.505 1.51.83 0 1.504-.67 1.504-1.5V4.29c0-.83-.68-1.505-1.51-1.505z"/></svg>