<?xml version="1.0" encoding="UTF-8" standalone="no"?>
<svg
   xmlns:osb="http://www.openswatchbook.org/uri/2009/osb"
   xmlns:dc="http://purl.org/dc/elements/1.1/"
   xmlns:cc="http://creativecommons.org/ns#"
   xmlns:rdf="http://www.w3.org/1999/02/22-rdf-syntax-ns#"
   xmlns:svg="http://www.w3.org/2000/svg"
   xmlns="http://www.w3.org/2000/svg"
   xmlns:sodipodi="http://sodipodi.sourceforge.net/DTD/sodipodi-0.dtd"
   xmlns:inkscape="http://www.inkscape.org/namespaces/inkscape"
   viewBox="0 0 53.87925 63.97525"
   height="63.97525"
   width="53.87925"
   xml:space="preserve"
   version="1.1"
   id="svg2"
   inkscape:version="0.91 r13725"
   sodipodi:docname="calendar-01_white_line.svg"><sodipodi:namedview
     pagecolor="#ffffff"
     bordercolor="#666666"
     borderopacity="1"
     objecttolerance="10"
     gridtolerance="10"
     guidetolerance="10"
     inkscape:pageopacity="0"
     inkscape:pageshadow="2"
     inkscape:window-width="1366"
     inkscape:window-height="705"
     id="namedview3358"
     showgrid="false"
     inkscape:zoom="3.6467092"
     inkscape:cx="55.245401"
     inkscape:cy="50.956576"
     inkscape:window-x="-8"
     inkscape:window-y="-8"
     inkscape:window-maximized="1"
     inkscape:current-layer="svg2" /><metadata
     id="metadata8"><rdf:RDF><cc:Work
         rdf:about=""><dc:format>image/svg+xml</dc:format><dc:type
           rdf:resource="http://purl.org/dc/dcmitype/StillImage" /><dc:title></dc:title></cc:Work></rdf:RDF></metadata><defs
     id="defs6"><linearGradient
       id="linearGradient4172"
       osb:paint="solid"><stop
         style="stop-color:#000000;stop-opacity:1;"
         offset="0"
         id="stop4174" /></linearGradient><clipPath
       id="clipPath16"
       clipPathUnits="userSpaceOnUse"><path
         id="path18"
         d="m 0,51.18 43.103,0 L 43.103,0 0,0 0,51.18 Z" /></clipPath><clipPath
       id="clipPath40"
       clipPathUnits="userSpaceOnUse"><path
         id="path42"
         d="m 0,51.18 43.103,0 L 43.103,0 0,0 0,51.18 Z" /></clipPath></defs><g
     transform="matrix(1.25,0,0,-1.25,0.27421984,63.97525)"
     id="g10"
     style="fill:#ffffff"><g
       id="g12"
       style="fill:#ffffff"><g
         clip-path="url(#clipPath16)"
         id="g14"
         style="fill:#ffffff"><g
           transform="translate(37.5417,47.2747)"
           id="g20"
           style="fill:#ffffff"><path
             id="path22"
             style="fill:#ffffff;fill-opacity:1;fill-rule:nonzero;stroke:none"
             d="m 0,0 -31.98,0 c -3.072,0 -5.562,-2.49 -5.562,-5.562 l 0,-36.151 c 0,-3.072 2.49,-5.562 5.562,-5.562 l 31.98,0 c 3.072,0 5.562,2.49 5.562,5.562 l 0,36.151 C 5.562,-2.49 3.072,0 0,0 m 0,-3 c 1.413,0 2.562,-1.149 2.562,-2.562 l 0,-36.151 c 0,-1.412 -1.149,-2.562 -2.562,-2.562 l -31.98,0 c -1.413,0 -2.562,1.15 -2.562,2.562 l 0,36.151 c 0,1.413 1.149,2.562 2.562,2.562 L 0,-3"
             inkscape:connector-curvature="0" /></g><g
           transform="translate(11.6913,51.1802)"
           id="g24"
           style="fill:#ffffff"><path
             id="path26"
             style="fill:#ffffff;fill-opacity:1;fill-rule:nonzero;stroke:none"
             d="m 0,0 c -1.152,0 -2.086,-0.934 -2.086,-2.086 l 0,-6.952 c 0,-1.152 0.934,-2.086 2.086,-2.086 1.152,0 2.086,0.934 2.086,2.086 l 0,6.952 C 2.086,-0.934 1.152,0 0,0"
             inkscape:connector-curvature="0" /></g><g
           transform="translate(31.4121,51.1802)"
           id="g28"
           style="fill:#ffffff"><path
             id="path30"
             style="fill:#ffffff;fill-opacity:1;fill-rule:nonzero;stroke:none"
             d="m 0,0 c -1.152,0 -2.086,-0.934 -2.086,-2.086 l 0,-6.952 c 0,-1.152 0.934,-2.086 2.086,-2.086 1.152,0 2.086,0.934 2.086,2.086 l 0,6.952 C 2.086,-0.934 1.152,0 0,0"
             inkscape:connector-curvature="0" /></g></g></g><text
       id="text32"
       style="font-variant:normal;font-weight:bold;font-stretch:normal;font-size:25.44910049px;font-family:'Roboto Slab';-inkscape-font-specification:RobotoSlab-Bold;writing-mode:lr-tb;fill:#ffffff;fill-opacity:1;fill-rule:nonzero;stroke:none"
       transform="matrix(1,0,0,-1,14.623,10.5742)"><tspan
         id="tspan34"
         y="0"
         x="0"
         style="fill:#ffffff">8</tspan></text>
<g
       id="g36"
       style="fill:#ffffff"><g
         clip-path="url(#clipPath40)"
         id="g38"
         style="fill:#ffffff"><g
           transform="translate(1.4359,35.207)"
           id="g44"
           style="fill:#ffffff"><path
             id="path46"
             style="fill:#ffffff;stroke:#ffffff;stroke-width:3;stroke-linecap:butt;stroke-linejoin:miter;stroke-miterlimit:10;stroke-dasharray:none;stroke-opacity:1"
             d="M 0,0 40,0"
             inkscape:connector-curvature="0" /></g></g></g></g><path
     style="fill:#ffffff;fill-opacity:1;stroke:none;stroke-width:0.85990173"
     d="m 0.76544861,18.021385 c 17.55236539,0 35.10472939,0 52.65709439,0 0,1.285971 0,2.571942 0,3.857912 -17.552365,0 -35.104729,0 -52.65709439,0 0,-1.28597 0,-2.571941 0,-3.857912 z"
     id="rect3369"
     inkscape:connector-curvature="0" /></svg>