<?xml version="1.0" encoding="UTF-8" standalone="no"?>
<!-- Generator: Adobe Illustrator 18.0.0, SVG Export Plug-In . SVG Version: 6.00 Build 0)  -->

<svg
   xmlns:dc="http://purl.org/dc/elements/1.1/"
   xmlns:cc="http://creativecommons.org/ns#"
   xmlns:rdf="http://www.w3.org/1999/02/22-rdf-syntax-ns#"
   xmlns:svg="http://www.w3.org/2000/svg"
   xmlns="http://www.w3.org/2000/svg"
   xmlns:sodipodi="http://sodipodi.sourceforge.net/DTD/sodipodi-0.dtd"
   xmlns:inkscape="http://www.inkscape.org/namespaces/inkscape"
   version="1.1"
   id="Layer_1"
   x="0px"
   y="0px"
   viewBox="0 0 441.00001 501.09999"
   enable-background="new 0 0 595.3 841.9"
   xml:space="preserve"
   inkscape:version="0.91 r13725"
   sodipodi:docname="calendar-gray.svg"
   width="441"
   height="501.10001"><metadata
     id="metadata11"><rdf:RDF><cc:Work
         rdf:about=""><dc:format>image/svg+xml</dc:format><dc:type
           rdf:resource="http://purl.org/dc/dcmitype/StillImage" /><dc:title></dc:title></cc:Work></rdf:RDF></metadata><defs
     id="defs9" /><sodipodi:namedview
     pagecolor="#ffffff"
     bordercolor="#666666"
     borderopacity="1"
     objecttolerance="10"
     gridtolerance="10"
     guidetolerance="10"
     inkscape:pageopacity="0"
     inkscape:pageshadow="2"
     inkscape:window-width="1366"
     inkscape:window-height="705"
     id="namedview7"
     showgrid="false"
     fit-margin-top="0"
     fit-margin-left="0"
     fit-margin-right="0"
     fit-margin-bottom="0"
     inkscape:zoom="0.28031832"
     inkscape:cx="-231.38794"
     inkscape:cy="145.34999"
     inkscape:window-x="-8"
     inkscape:window-y="-8"
     inkscape:window-maximized="1"
     inkscape:current-layer="Layer_1" /><path
     d="m 0,160.3 0,300.2 c 0,22.4 17.9,40.6 40.1,40.6 l 360.8,0 c 22.1,0 40.1,-18.2 40.1,-40.6 l 0,-300.2 -441,0 z M 110.2,471 30,471 l 0,-80.2 80.2,0 0,80.2 0,0 z m 0,-100.2 -80.2,0 0,-80.2 80.2,0 0,80.2 0,0 z m 0,-100.2 -80.2,0 0,-80.2 80.2,0 0,80.2 0,0 z m 100.2,200.4 -80.2,0 0,-80.2 80.2,0 0,80.2 z m 0,-100.2 -80.2,0 0,-80.2 80.2,0 0,80.2 z m 0,-100.2 -80.2,0 0,-80.2 80.2,0 0,80.2 z m 100.3,200.4 -80.2,0 0,-80.2 80.2,0 0,80.2 0,0 z m 0,-100.2 -80.2,0 0,-80.2 80.2,0 0,80.2 0,0 z m 0,-100.2 -80.2,0 0,-80.2 80.2,0 0,80.2 0,0 z m 100.2,200.4 -80.2,0 0,-80.2 80.2,0 0,80.2 z m 0,-100.2 -80.2,0 0,-80.2 80.2,0 0,80.2 z m 0,-100.2 -80.2,0 0,-80.2 80.2,0 0,80.2 z"
     id="path3"
     inkscape:connector-curvature="0"
     style="fill:#b2b2b2" /><path
     d="m 400.8,60.1 -65.1,0 0,-45.1 c 0,-8.3 -6.7,-15 -15,-15 -8.3,0 -15,6.7 -15,15 l 0,45.1 -170.4,0 0,-45.1 c 0,-8.3 -6.7,-15 -15,-15 -8.3,0 -15,6.7 -15,15 l 0,45.1 -65.2,0 C 18,60.1 0,78.3 0,100.7 l 0,34.6 0,0 0,5 440.9,0 0,-5 0,0 0,-34.6 C 440.9,78.3 423,60.1 400.8,60.1 Z m -280.6,70.2 c -16.6,0 -30.1,-13.5 -30.1,-30.1 0,-11.1 6.1,-20.8 15,-26 l 0,26 c 0,8.3 6.7,15 15,15 8.3,0 15,-6.7 15,-15 l 0,-26 c 9,5.2 15,14.9 15,26 0.2,16.6 -13.3,30.1 -29.9,30.1 z m 200.5,0 c -16.6,0 -30.1,-13.5 -30.1,-30.1 0,-11.1 6.1,-20.8 15,-26 l 0,26 c 0,8.3 6.7,15 15,15 8.3,0 15,-6.7 15,-15 l 0,-26 c 9,5.2 15,14.9 15,26 0.1,16.6 -13.3,30.1 -29.9,30.1 z"
     id="path5"
     inkscape:connector-curvature="0"
     style="fill:#b2b2b2" /></svg>