<?xml version="1.0" encoding="UTF-8" standalone="no"?>
<svg xmlns:dc="http://purl.org/dc/elements/1.1/" xmlns:cc="http://creativecommons.org/ns#" xmlns:rdf="http://www.w3.org/1999/02/22-rdf-syntax-ns#" xmlns:svg="http://www.w3.org/2000/svg" xmlns="http://www.w3.org/2000/svg" viewBox="0 0 81.481499 92.592628" height="92.592628" width="81.481499" xml:space="preserve" version="1.1" id="svg2">
	<metadata id="metadata8">
		<rdf:RDF>
		 	<cc:Work rdf:about="">
		 		<dc:format>image/svg+xml</dc:format>
				<dc:type rdf:resource="http://purl.org/dc/dcmitype/StillImage" />
			</cc:Work>
		</rdf:RDF>
	</metadata>
	<defs id="defs6">
		<clipPath id="clipPath16" clipPathUnits="userSpaceOnUse">
			<path id="path18" d="m 0,74.074 65.185,0 L 65.185,0 0,0 0,74.074 Z" />
		</clipPath>
	</defs>
	<g transform="matrix(1.25,0,0,-1.25,0,92.592625)" id="g10">
		<g id="g12">
			<g clip-path="url(#clipPath16)" id="g14">
				<path id="path20" style="fill:#000000;fill-opacity:1;fill-rule:nonzero;stroke:none" d="m 60.741,34.074 -11.852,0 0,11.852 11.852,0 0,-11.852 z m 0,-14.815 -11.852,0 0,11.852 11.852,0 0,-11.852 z m 0,-14.815 -11.852,0 0,11.852 11.852,0 0,-11.852 z m -14.815,29.63 -11.852,0 0,11.852 11.852,0 0,-11.852 z m 0,-14.815 -11.852,0 0,11.852 11.852,0 0,-11.852 z m 0,-14.815 -11.852,0 0,11.852 11.852,0 0,-11.852 z m -14.815,29.63 -11.852,0 0,11.852 11.852,0 0,-11.852 z m 0,-14.815 -11.852,0 0,11.852 11.852,0 0,-11.852 z m 0,-14.815 -11.852,0 0,11.852 11.852,0 0,-11.852 z m -14.815,29.63 -11.852,0 0,11.852 11.852,0 0,-11.852 z m 0,-14.815 -11.852,0 0,11.852 11.852,0 0,-11.852 z m 0,-14.815 -11.852,0 0,11.852 11.852,0 0,-11.852 z M 0,50.37 0,5.996 C 0,2.684 2.653,0 5.926,0 l 53.333,0 c 3.273,0 5.926,2.684 5.926,5.996 l 0,44.374 -65.185,0 z" />
				<g transform="translate(47.4074,54.8148)" id="g22">
					<path id="path24" style="fill:#000000;fill-opacity:1;fill-rule:nonzero;stroke:none" d="m 0,0 c -2.454,0 -4.444,1.99 -4.444,4.444 0,1.644 0.895,3.076 2.222,3.845 l 0,-3.845 c 0,-1.227 0.995,-2.222 2.222,-2.222 1.227,0 2.222,0.995 2.222,2.222 l 0,3.846 C 3.55,7.521 4.444,6.088 4.444,4.444 4.444,1.99 2.455,0 0,0 m -29.63,0 c -2.454,0 -4.444,1.99 -4.444,4.444 0,1.644 0.895,3.076 2.222,3.845 l 0,-3.845 c 0,-1.227 0.995,-2.222 2.222,-2.222 1.227,0 2.223,0.995 2.223,2.222 l 0,3.846 C -26.08,7.521 -25.185,6.088 -25.185,4.444 -25.185,1.99 -27.175,0 -29.63,0 m 41.482,10.37 -9.63,0 0,6.667 c 0,1.227 -0.995,2.222 -2.222,2.222 -1.227,0 -2.222,-0.995 -2.222,-2.222 l 0,-6.667 -25.185,0 0,6.667 c 0,1.227 -0.996,2.222 -2.223,2.222 -1.227,0 -2.222,-0.995 -2.222,-2.222 l 0,-6.667 -9.629,0 c -3.273,0 -5.926,-2.683 -5.926,-5.994 l 0,-5.117 0,-0.74 65.185,0 0,0.74 0,5.117 c 0,3.311 -2.654,5.994 -5.926,5.994" />
				</g>
			</g>
		</g>
	</g>
</svg>
