<?xml version="1.0" encoding="utf-8"?>
<!-- Generator: Adobe Illustrator 16.0.0, SVG Export Plug-In . SVG Version: 6.00 Build 0)  -->
<!DOCTYPE svg PUBLIC "-//W3C//DTD SVG 1.1//EN" "http://www.w3.org/Graphics/SVG/1.1/DTD/svg11.dtd">
<svg version="1.1" id="Layer_1" xmlns="http://www.w3.org/2000/svg" xmlns:xlink="http://www.w3.org/1999/xlink" x="0px" y="0px"
	 width="60px" height="60px" viewBox="0 0 60 60" enable-background="new 0 0 60 60" xml:space="preserve">
<g>
	<path fill="#666666" d="M55.35,8.259h-5.841V5.014c0-1.368-1.155-2.523-2.525-2.523H43.38c-1.369,0-2.524,1.156-2.524,2.523v3.245
		H19.439V5.014c0-1.368-1.155-2.523-2.524-2.523h-3.604c-1.369,0-2.524,1.156-2.524,2.523v3.245H4.658
		c-2.45,0-4.473,2.017-4.473,4.473v40.304c0,2.449,2.016,4.473,4.473,4.473h50.684c2.451,0,4.475-2.016,4.475-4.473V12.732
		C59.816,10.275,57.801,8.259,55.35,8.259L55.35,8.259z M43.526,5.228h3.317v7.932h-3.317V5.228z M13.457,5.228h3.318v7.932h-3.318
		V5.228z M4.731,10.929h6.129v2.377c0,1.368,1.155,2.523,2.523,2.523h3.605c1.368,0,2.523-1.156,2.523-2.523v-2.377h21.343v2.377
		c0,1.368,1.155,2.523,2.524,2.523h3.604c1.37,0,2.525-1.156,2.525-2.523v-2.377h5.915c1.008,0,1.802,0.795,1.802,1.803v7.21H2.928
		v-7.21C2.928,11.717,3.723,10.929,4.731,10.929L4.731,10.929z M55.35,54.839H4.731c-1.008,0-1.803-0.795-1.803-1.803V22.605h54.223
		v30.431C57.151,54.044,56.357,54.839,55.35,54.839L55.35,54.839z M14.685,29.89c0,0.722-0.575,1.295-1.295,1.295H9.064
		c-0.722,0-1.295-0.574-1.295-1.295s0.574-1.295,1.295-1.295h4.326C14.104,28.522,14.685,29.169,14.685,29.89L14.685,29.89z
		 M27.156,29.89c0,0.722-0.575,1.295-1.295,1.295h-4.326c-0.721,0-1.295-0.574-1.295-1.295s0.574-1.295,1.295-1.295h4.326
		C26.509,28.522,27.156,29.169,27.156,29.89L27.156,29.89z M39.561,29.89c0,0.722-0.574,1.295-1.296,1.295h-4.325
		c-0.721,0-1.295-0.574-1.295-1.295s0.574-1.295,1.295-1.295h4.325C38.979,28.522,39.561,29.169,39.561,29.89L39.561,29.89z
		 M52.032,29.89c0,0.722-0.574,1.295-1.296,1.295h-4.325c-0.722,0-1.297-0.574-1.297-1.295s0.575-1.295,1.297-1.295h4.325
		C51.458,28.522,52.032,29.169,52.032,29.89L52.032,29.89z M14.685,38.755c0,0.722-0.575,1.296-1.295,1.296H9.064
		c-0.722,0-1.295-0.574-1.295-1.296c0-0.72,0.574-1.294,1.295-1.294h4.326C14.104,37.461,14.685,38.035,14.685,38.755L14.685,38.755
		z M27.156,38.755c0,0.722-0.575,1.296-1.295,1.296h-4.326c-0.721,0-1.295-0.574-1.295-1.296c0-0.72,0.574-1.294,1.295-1.294h4.326
		C26.509,37.461,27.156,38.035,27.156,38.755L27.156,38.755z M39.561,38.755c0,0.722-0.574,1.296-1.296,1.296h-4.325
		c-0.721,0-1.295-0.574-1.295-1.296c0-0.72,0.574-1.294,1.295-1.294h4.325C38.979,37.461,39.561,38.035,39.561,38.755L39.561,38.755
		z M52.032,38.755c0,0.722-0.574,1.296-1.296,1.296h-4.325c-0.722,0-1.297-0.574-1.297-1.296c0-0.72,0.575-1.294,1.297-1.294h4.325
		C51.458,37.461,52.032,38.035,52.032,38.755L52.032,38.755z M14.685,47.701c0,0.722-0.575,1.296-1.295,1.296H9.064
		c-0.722,0-1.295-0.574-1.295-1.296c0-0.721,0.574-1.294,1.295-1.294h4.326C14.104,46.326,14.685,46.907,14.685,47.701
		L14.685,47.701z M27.156,47.701c0,0.722-0.575,1.296-1.295,1.296h-4.326c-0.721,0-1.295-0.574-1.295-1.296
		c0-0.721,0.574-1.294,1.295-1.294h4.326C26.509,46.326,27.156,46.907,27.156,47.701L27.156,47.701z M39.561,47.701
		c0,0.722-0.574,1.296-1.296,1.296h-4.325c-0.721,0-1.295-0.574-1.295-1.296c0-0.721,0.574-1.294,1.295-1.294h4.325
		C38.979,46.326,39.561,46.907,39.561,47.701L39.561,47.701z M52.032,47.701c0,0.722-0.574,1.296-1.296,1.296h-4.325
		c-0.722,0-1.297-0.574-1.297-1.296c0-0.721,0.575-1.294,1.297-1.294h4.325C51.458,46.326,52.032,46.907,52.032,47.701
		L52.032,47.701z M52.032,47.701"/>
</g>
</svg>
