<?xml version="1.0" encoding="utf-8"?>
<!-- Generator: Adobe Illustrator 16.0.3, SVG Export Plug-In . SVG Version: 6.00 Build 0)  -->
<!DOCTYPE svg PUBLIC "-//W3C//DTD SVG 1.1//EN" "http://www.w3.org/Graphics/SVG/1.1/DTD/svg11.dtd">
<svg version="1.1" id="Layer_1" xmlns="http://www.w3.org/2000/svg" xmlns:xlink="http://www.w3.org/1999/xlink" x="0px" y="0px"
	 width="308.826px" height="261.479px" viewBox="146.502 290.206 308.826 261.479"
	 enable-background="new 146.502 290.206 308.826 261.479" xml:space="preserve">
<g>
	<path d="M301.349,357.893c-42.652,0-77.887,34.308-77.887,77.888c0,42.652,34.308,77.887,77.887,77.887
		c42.652,0,77.887-34.307,77.887-77.887C378.308,393.129,344.001,357.893,301.349,357.893L301.349,357.893z M344.929,473.798
		c-21.326,24.107-57.489,26.89-81.597,6.49s-26.889-57.488-6.49-81.597c20.399-24.107,57.487-26.889,81.597-6.49
		C363.474,412.6,366.255,448.762,344.929,473.798L344.929,473.798z"/>
	<path d="M301.349,396.838c-21.326,0-38.944,17.617-38.944,38.943c0,2.781,1.854,4.636,4.636,4.636s4.636-1.854,4.636-4.636
		c0-15.763,12.981-28.744,28.744-28.744c2.781,0,4.637-1.854,4.637-4.637C305.986,398.691,304.13,396.838,301.349,396.838
		L301.349,396.838z"/>
	<path d="M432.087,348.621l-42.652-6.49l-12.98-33.38c-4.637-11.127-14.836-18.545-26.891-18.545h-96.431
		c-12.054,0-22.253,7.418-26.89,18.545l-12.981,33.38l-42.652,6.49c-13.908,2.782-24.108,14.836-24.108,28.744V522.94
		c0,15.763,12.981,28.744,28.744,28.744h251.279c15.764,0,28.744-12.981,28.744-28.744V377.365
		C456.197,363.457,445.998,351.403,432.087,348.621L432.087,348.621z M436.724,522.94c0,5.563-4.637,9.272-9.271,9.272H175.246
		c-5.563,0-9.272-4.636-9.272-9.272V377.365c0-4.636,3.709-8.345,8.345-9.271l52.852-8.346l17.617-43.579
		c1.854-3.709,4.636-6.491,9.272-6.491h96.431c3.709,0,7.418,2.782,9.273,6.491l17.617,43.579l52.852,8.346
		c4.637,0.927,8.346,4.636,8.346,9.271V522.94H436.724z"/>
</g>
</svg>
