<svg id="Layer_1" data-name="Layer 1" xmlns="http://www.w3.org/2000/svg" viewBox="0 0 40 40"><defs><style>.cls-1{fill:#fff;}.cls-2{fill:#e63333;}</style></defs><title>camera-white-red</title><circle class="cls-1" cx="20" cy="20" r="20"/><path class="cls-2" d="M20,16.3a4,4,0,0,1,2.75,1.08,3.57,3.57,0,0,1,.17,5l-0.17.17a4,4,0,0,1-5.49,0,3.57,3.57,0,0,1-.17-5l0.17-.17A4,4,0,0,1,20,16.3h0Zm-6.56-2.06V13.16a0.44,0.44,0,0,1,.45-0.43h3.47a0.44,0.44,0,0,1,.45.43h0v1.08h9.74a0.44,0.44,0,0,1,.45.43h0V25.3a0.44,0.44,0,0,1-.45.43H12.45A0.45,0.45,0,0,1,12,25.3V14.68a0.45,0.45,0,0,1,.46-0.43h1Zm3.46,0V13.6H14.35v0.64H16.9Zm9.57,1.29H13.52v8.91H26.47V15.53Zm-4.59,2.66a2.77,2.77,0,0,0-3.77,0A2.45,2.45,0,0,0,18,21.65l0.12,0.12a2.76,2.76,0,0,0,3.77,0A2.44,2.44,0,0,0,22,18.32l-0.13-.13h0Z"/></svg>