<?xml version="1.0" encoding="utf-8"?>
<!-- Generator: Adobe Illustrator 18.0.0, SVG Export Plug-In . SVG Version: 6.00 Build 0)  -->
<!DOCTYPE svg PUBLIC "-//W3C//DTD SVG 1.1//EN" "http://www.w3.org/Graphics/SVG/1.1/DTD/svg11.dtd">
<svg version="1.1" id="Слой_1" xmlns="http://www.w3.org/2000/svg" xmlns:xlink="http://www.w3.org/1999/xlink" x="0px" y="0px"
	 viewBox="21.8 24.8 56.4 42.7" enable-background="new 21.8 24.8 56.4 42.7" xml:space="preserve">
<g id="Captions">
</g>
<g id="Your_Icon">
	<path fill="none" stroke="#FFFFFF" stroke-width="1.5" stroke-miterlimit="10" d="M50.3,37.8c-4.9,0-8.9,4-8.9,8.9s4,8.9,8.9,8.9
		s8.9-4,8.9-8.9S55.2,37.8,50.3,37.8z"/>
	<path fill="none" stroke="#FFFFFF" stroke-width="1.5" stroke-miterlimit="10" d="M74.7,29.5H61c-1.4-2.3-3.7-4-6.3-4h-8.8
		c-2.6,0-4.9,1.7-6.3,4H25.9c-1.7,0-3.3,1.3-3.3,2.9v31.2c0,1.6,1.7,3.1,3.3,3.1h48.8c1.7,0,2.8-1.5,2.8-3.1V32.4
		C77.5,30.8,76.4,29.5,74.7,29.5z M50.3,58.2c-6.4,0-11.5-5.1-11.5-11.5s5.1-11.5,11.5-11.5s11.5,5.1,11.5,11.5S56.6,58.2,50.3,58.2
		z"/>
</g>
</svg>
