<?xml version="1.0" encoding="utf-8"?>
<!-- Generator: Adobe Illustrator 16.0.0, SVG Export Plug-In . SVG Version: 6.00 Build 0)  -->
<!DOCTYPE svg PUBLIC "-//W3C//DTD SVG 1.1//EN" "http://www.w3.org/Graphics/SVG/1.1/DTD/svg11.dtd">
<svg version="1.1" id="Layer_1" xmlns="http://www.w3.org/2000/svg" xmlns:xlink="http://www.w3.org/1999/xlink" x="0px" y="0px"
	 width="66.586px" height="66.547px" viewBox="0 0 66.586 66.547" enable-background="new 0 0 66.586 66.547" xml:space="preserve">
<path fill="#FFFFFF" d="M63.929,20.32c-3.516-8.202-9.482-14.145-17.735-17.662C42.003,0.869,37.776,0,33.273,0
	c-4.521,0-8.748,0.869-12.918,2.657C12.095,6.202,6.127,12.145,2.618,20.32C0.881,24.376,0,28.722,0,33.238
	c0,4.541,0.881,8.899,2.619,12.955c3.523,8.208,9.49,14.164,17.736,17.701c4.165,1.785,8.391,2.653,12.918,2.653
	c4.51,0,8.736-0.868,12.92-2.654c8.239-3.512,14.206-9.468,17.735-17.7c1.764-4.11,2.657-8.468,2.657-12.955
	C66.586,28.713,65.717,24.487,63.929,20.32 M5.498,19.207c3.436-6.679,9.118-11.919,15.996-14.756l3.542-1.462L22.66,5.995
	c-2.857,3.613-4.99,8.29-6.34,13.903l-0.184,0.766H4.748L5.498,19.207z M3.673,42.919c-1.001-3.114-1.509-6.371-1.509-9.681
	c0-3.32,0.534-6.606,1.586-9.765l0.228-0.684h11.708l-0.174,1.151c-0.465,3.054-0.7,6.183-0.7,9.298c0,3.064,0.235,6.167,0.7,9.225
	l0.174,1.15H3.896L3.673,42.919z M21.49,62.099c-7.029-2.929-12.711-8.227-16-14.919l-0.709-1.441H16.14l0.181,0.771
	c1.359,5.753,3.49,10.478,6.336,14.043l2.43,3.046L21.49,62.099z M32.176,64.38l-1.28-0.373c-2.691-0.784-5.156-2.741-7.326-5.816
	c-2.12-3.007-3.76-6.777-4.876-11.208l-0.313-1.244h13.795V64.38z M32.176,43.613H17.863l-0.125-0.855
	c-0.515-3.51-0.765-6.624-0.765-9.52c0-3.257,0.284-6.495,0.843-9.625l0.148-0.824h14.212V43.613z M32.176,20.664h-13.82
	l0.343-1.262c1.196-4.409,2.86-8.138,4.946-11.081c2.247-3.161,4.622-5.052,7.264-5.785l1.267-0.351V20.664z M45.092,4.451
	c6.879,2.837,12.56,8.078,15.997,14.756l0.75,1.457H50.45l-0.185-0.766c-1.351-5.614-3.484-10.292-6.339-13.903L41.55,2.989
	L45.092,4.451z M34.41,2.185l1.268,0.351C38.324,3.27,40.7,5.162,42.94,8.32c2.081,2.932,3.747,6.66,4.95,11.081l0.344,1.263H34.41
	V2.185z M34.41,22.789h14.212l0.147,0.824c0.56,3.134,0.844,6.373,0.844,9.625c0,2.878-0.249,5.994-0.761,9.519l-0.124,0.856H34.41
	V22.789z M35.672,64.012l-1.262,0.343V45.738h13.81l-0.326,1.252c-1.143,4.38-2.795,8.146-4.912,11.193
	C40.766,61.372,38.375,63.278,35.672,64.012 M61.097,47.18c-3.29,6.692-8.973,11.99-16.001,14.919l-3.597,1.499l2.431-3.046
	c2.845-3.564,4.976-8.289,6.335-14.043l0.183-0.771h11.357L61.097,47.18z M62.913,42.919l-0.223,0.694H50.896l0.177-1.151
	c0.471-3.07,0.7-6.088,0.7-9.224c0-3.145-0.235-6.273-0.7-9.297l-0.177-1.152h11.711l0.228,0.684
	c1.056,3.166,1.591,6.451,1.591,9.765C64.426,36.538,63.917,39.795,62.913,42.919"/>
</svg>
