<?xml version="1.0" encoding="UTF-8" standalone="no"?>
<svg
   xmlns:dc="http://purl.org/dc/elements/1.1/"
   xmlns:cc="http://creativecommons.org/ns#"
   xmlns:rdf="http://www.w3.org/1999/02/22-rdf-syntax-ns#"
   xmlns:svg="http://www.w3.org/2000/svg"
   xmlns="http://www.w3.org/2000/svg"
   xmlns:sodipodi="http://sodipodi.sourceforge.net/DTD/sodipodi-0.dtd"
   xmlns:inkscape="http://www.inkscape.org/namespaces/inkscape"
   version="1.1"
   x="0px"
   y="0px"
   width="10.623351"
   height="18.062"
   viewBox="0 0 10.623351 18.062"
   enable-background="new 0 0 31.295 52.028"
   xml:space="preserve"
   id="svg3372"
   inkscape:version="0.91 r13725"
   sodipodi:docname="classmates_white.svg"><metadata
     id="metadata3380"><rdf:RDF><cc:Work
         rdf:about=""><dc:format>image/svg+xml</dc:format><dc:type
           rdf:resource="http://purl.org/dc/dcmitype/StillImage" /><dc:title></dc:title></cc:Work></rdf:RDF></metadata><defs
     id="defs3378" /><sodipodi:namedview
     pagecolor="#ffffff"
     bordercolor="#666666"
     borderopacity="1"
     objecttolerance="10"
     gridtolerance="10"
     guidetolerance="10"
     inkscape:pageopacity="0"
     inkscape:pageshadow="2"
     inkscape:window-width="1366"
     inkscape:window-height="705"
     id="namedview3376"
     showgrid="false"
     fit-margin-top="0"
     fit-margin-left="0"
     fit-margin-right="0"
     fit-margin-bottom="0"
     inkscape:zoom="8.47"
     inkscape:cx="15.642868"
     inkscape:cy="1.5342419"
     inkscape:window-x="-8"
     inkscape:window-y="-8"
     inkscape:window-maximized="1"
     inkscape:current-layer="svg3372" /><path
     d="M 10.445766,9.6839429 C 10.193962,9.1665092 9.4958239,8.7360657 8.5685876,9.483277 7.3149886,10.493189 5.301571,10.493189 5.301571,10.488342 c 0,-0.0047 -2.0134177,0 -3.2670167,-1.0099167 C 1.1069792,8.7312135 0.40917968,9.1616574 0.15737539,9.6790906 -0.28184178,10.580181 0.22515579,11.030723 1.3435328,11.75853 c 0.9567208,0.623832 2.2706444,0.866432 3.1178998,0.950301 l -0.7083055,0.724683 c -0.9980668,1.020312 -1.9615656,2.005623 -2.6298806,2.689408 -0.39956563,0.408612 -0.39956563,1.074379 0,1.490264 l 0.1206491,0.123033 c 0.1996134,0.207947 0.474463,0.311916 0.7116945,0.306375 0.2619714,0 0.5236038,-0.102248 0.7235561,-0.306375 l 2.6295417,-2.689408 c 0.9980668,1.005065 1.9656324,2.010124 2.6434367,2.703272 0.3999045,0.41589 1.0505967,0.41589 1.4572792,0 L 9.530053,17.627051 c 0.3995656,-0.408956 0.3995656,-1.071605 0,-1.480213 L 6.9001724,13.457431 6.1891557,12.730665 c 0.8496276,-0.08977 2.1499952,-0.325086 3.0985823,-0.948224 0.83946,-0.550704 1.327818,-0.933666 1.335613,-1.470508 l 0,-0.01007 c -0.0183,-0.216608 -0.08506,-0.3898936 -0.186735,-0.6324948 l 0.0091,0.014558 z M 5.3073323,0 5.2958093,0 c -2.462124,0 -4.45012396,2.0447807 -4.45012396,4.5636732 0,2.5299829 1.99952256,4.5747637 4.47350826,4.5747637 2.4739856,0 4.4626634,-2.0433943 4.4626634,-4.5636733 C 9.7642344,2.0447807 7.7592893,0 5.3191939,0 l -0.011862,0 z m -0.00576,2.3182266 c 1.2122529,0 2.2028639,1.0050617 2.2028639,2.2527247 0,1.2400384 -0.9831551,2.2454466 -2.195747,2.2454466 -1.2125919,0 -2.1954081,-1.0050617 -2.1954081,-2.2454466 C 3.1061611,3.3271006 4.0991475,2.322039 5.285305,2.3182266 l 0.016267,0 z"
     id="path3374"
     inkscape:connector-curvature="0"
     style="fill:#ffffff" /><path
     style="fill:#ffffff"
     d="M 4.3450678,8.9887328 C 2.7988188,8.6494687 1.428754,7.2901612 1.0266789,5.6963995 0.87493463,5.0949094 0.87493463,4.027807 1.0266789,3.4263173 1.3912435,1.9812408 2.446547,0.81110297 3.8413731,0.30533748 5.2630778,-0.21017429 6.8059271,0.04377722 7.9966032,0.98928439 9.105982,1.8702339 9.7258774,3.1520501 9.7233401,4.5598226 9.7210355,5.8388107 9.2980816,6.8783679 8.413364,7.7795533 7.3341433,8.8788611 5.8520257,9.3193768 4.3450678,8.9887328 Z M 6.083383,6.6949507 C 6.5589948,6.5292256 7.0601115,6.0550408 7.3086616,5.5355249 7.4760576,5.1856346 7.5162436,4.997046 7.5162436,4.5613582 7.5162436,3.3427854 6.6602378,2.412966 5.4570871,2.3246397 4.8184538,2.2777567 4.3196949,2.4439035 3.8618316,2.8560535 3.3285271,3.336112 3.1193438,3.8165531 3.1193438,4.5613582 c 0,0.510683 0.032123,0.6740836 0.1952661,0.9932607 C 3.4899865,5.8977298 3.7669783,6.216528 4.1388977,6.5033158 4.543456,6.8152724 5.4746896,6.9070479 6.083383,6.6949507 Z"
     id="path3382"
     inkscape:connector-curvature="0" /><path
     style="fill:#ffffff"
     d="M 8.26753,17.928123 C 8.1442526,17.863375 7.4298086,17.184896 6.6798772,16.420384 L 5.3163654,15.030365 3.9901891,16.375293 C 3.2607921,17.115 2.5808844,17.7765 2.4792831,17.845295 c -0.1063298,0.072 -0.3361265,0.125083 -0.5414581,0.125083 -0.3040049,0 -0.4003141,-0.04026 -0.6516303,-0.27246 C 1.1239987,17.548071 0.95315056,17.307273 0.90653213,17.162824 0.73373149,16.62738 0.80174227,16.529592 2.7154334,14.561909 4.5679407,12.657133 4.5920712,12.622051 4.0496831,12.622051 3.6422898,12.622051 2.3561191,12.237765 1.76745,11.940163 1.0184401,11.561494 0.31560688,10.989407 0.13403443,10.610598 -0.22011535,9.8717565 0.54080826,8.9431179 1.337356,9.1420547 1.4506303,9.1703453 1.7954676,9.3600261 2.1036611,9.5635696 3.1418829,10.249252 4.2826512,10.536042 5.6728142,10.460849 6.8782644,10.395651 7.734645,10.110351 8.6632108,9.4646104 9.291998,9.02734 9.7269711,9.0030089 10.165738,9.3805642 c 0.28954,0.2491461 0.484994,0.8585958 0.372901,1.1627488 -0.191852,0.520563 -1.2515805,1.311472 -2.2496534,1.678985 -0.3405401,0.125393 -0.9469699,0.287884 -1.3476214,0.361096 -0.4006514,0.0732 -0.7284572,0.155121 -0.7284572,0.182025 0,0.02691 0.7587161,0.822228 1.6860364,1.767386 0.9273193,0.945159 1.7379187,1.818611 1.801332,1.941014 0.2411401,0.465455 -0.056391,1.184149 -0.5992918,1.447605 -0.3217137,0.156116 -0.5455278,0.157916 -0.8334536,0.0066 l 0,-1e-6 z"
     id="path3384"
     inkscape:connector-curvature="0" /></svg>