<?xml version="1.0" encoding="UTF-8" standalone="no"?>
<svg xmlns:dc="http://purl.org/dc/elements/1.1/" xmlns:cc="http://creativecommons.org/ns#" xmlns:rdf="http://www.w3.org/1999/02/22-rdf-syntax-ns#" xmlns:svg="http://www.w3.org/2000/svg" xmlns="http://www.w3.org/2000/svg" viewBox="0 0 6.1712499 6.1706123" height="20" width="20" xml:space="preserve" version="1.1" id="svg2">
	<metadata id="metadata8">
		<rdf:RDF>
			<cc:Work rdf:about="">
				<dc:format>image/svg+xml</dc:format>
				<dc:type rdf:resource="http://purl.org/dc/dcmitype/StillImage" />
			</cc:Work>
		</rdf:RDF>
	</metadata>
	<defs id="defs6">
		<clipPath id="clipPath16" clipPathUnits="userSpaceOnUse">
			<path id="path18" d="m 0,4.936 4.937,0 L 4.937,0 0,0 0,4.936 Z" />
		</clipPath>
	</defs>
	<g transform="matrix(1.25,0,0,-1.25,0,6.1706125)" id="g10">
		<g id="g12">
			<g clip-path="url(#clipPath16)" id="g14">
				<g transform="translate(3.9453,3.9443)" id="g20">
					<path id="path22" style="fill:#000000;fill-opacity:1;fill-rule:nonzero;stroke:none" d="m 0,0 0,0 c -0.378,0.378 -0.9,0.612 -1.476,0.612 -0.578,0 -1.1,-0.234 -1.477,-0.611 L -2.954,0 c -0.377,-0.377 -0.611,-0.899 -0.611,-1.477 0,-0.576 0.234,-1.098 0.612,-1.476 l -0.001,-0.001 0.001,0 c 0.377,-0.378 0.899,-0.611 1.477,-0.611 0.572,0 1.091,0.23 1.468,0.603 L 0,-2.953 c 0.378,0.378 0.612,0.9 0.612,1.476 0,0.574 -0.231,1.092 -0.603,1.469 L 0,0 Z m -0.399,-1.287 0,0 -0.888,0 0,1.511 c 0,0.105 -0.085,0.19 -0.189,0.19 -0.105,0 -0.191,-0.085 -0.191,-0.19 l 0,-1.696 0,-0.005 c 0,-0.105 0.086,-0.19 0.191,-0.19 l 1.077,0 c 0.105,0 0.19,0.085 0.19,0.19 0,0.105 -0.085,0.19 -0.19,0.19 m -1.077,2.279 c 0.681,0 1.298,-0.277 1.745,-0.723 L 0.278,0.258 c 0.442,-0.447 0.714,-1.059 0.714,-1.735 0,-0.681 -0.277,-1.298 -0.723,-1.745 L 0.258,-3.231 c -0.446,-0.442 -1.058,-0.713 -1.734,-0.713 -0.681,0 -1.299,0.276 -1.746,0.722 l 0,0 c -0.446,0.447 -0.723,1.064 -0.723,1.745 0,0.681 0.276,1.298 0.723,1.745 l 10e-4,0.001 10e-4,0 c 0.446,0.447 1.063,0.723 1.744,0.723" />
				</g>
			</g>
		</g>
	</g>
</svg>
