<svg xmlns="http://www.w3.org/2000/svg" width="65" height="75" viewBox="0 0 65.062 75.537" enable-background="new 0 0 65.062 75.537"><path fill="#C31922" d="M32.554 74.287c-1.383 0-2.265-.816-2.554-1.084-2.158-1.986-4.784-2.97-8.007-2.986l-1.13-.006-3.564.02c-.96 0-1.91 0-2.86-.02-3.85-.08-7.03-1.29-9.47-3.61-2.13-2.02-3.35-4.49-3.6-7.35-.08-.9-.12-1.89-.12-3.1-.01-13.75-.01-27.49-.01-41.24V5.38c0-2.743 1.38-4.127 4.11-4.127h55.38c1.69 0 3.05 1.36 3.05 3.05v12.604c-.01 13.23-.01 26.467.01 39.698 0 2.12-.16 4.387-1.27 6.615-1.61 3.194-4.22 5.33-7.78 6.345-1.97.557-3.87.648-5.49.66l-.98.007c-2.39.02-4.86.04-7.23.184-2.16.14-4.12 1.05-5.98 2.796-.77.716-1.62 1.082-2.55 1.082M20.86 64.11l1.17.003c3.997.025 7.524 1.133 10.502 3.287 2.49-1.865 5.227-2.896 8.165-3.076 2.54-.158 5.09-.176 7.56-.193l.97-.01c1.263-.01 2.61-.06 3.87-.42 1.893-.54 3.16-1.55 3.98-3.21.516-1.02.62-2.28.62-3.87-.014-13.23-.01-26.47-.01-39.7V7.36H7.353v48.76c0 1.047.03 1.838.1 2.57.124 1.344.687 2.48 1.72 3.47 1.345 1.276 3.056 1.892 5.387 1.933.91.025 1.82.03 2.74.03l3.56-.01z"/></svg>