<?xml version="1.0" encoding="utf-8"?>
<!-- Generator: Adobe Illustrator 16.0.0, SVG Export Plug-In . SVG Version: 6.00 Build 0)  -->
<!DOCTYPE svg PUBLIC "-//W3C//DTD SVG 1.1//EN" "http://www.w3.org/Graphics/SVG/1.1/DTD/svg11.dtd">
<svg version="1.1" id="Layer_1" xmlns="http://www.w3.org/2000/svg" xmlns:xlink="http://www.w3.org/1999/xlink" x="0px" y="0px"
	 width="33.563px" height="30.057px" viewBox="0 0 33.563 30.057" enable-background="new 0 0 33.563 30.057" xml:space="preserve">
<path fill="#FFFFFF" d="M3.017,20.397l26.822-0.043c0.955,0,1.729-0.773,1.727-1.727L31.539,1.724
	C31.538,0.772,30.76-0.002,29.807,0L2.984,0.041C2.03,0.043,1.254,0.82,1.256,1.771l0.027,16.903
	C1.285,19.629,2.062,20.399,3.017,20.397 M26.508,7.539l-1.46,1.459l2.626,2.627l-0.922,0.922L24.126,9.92l-1.399,1.399
	l-2.035-5.758L26.508,7.539z"/>
<path fill="#FFFFFF" d="M31.762,23.165c-0.016-0.018-0.225-0.162-0.354-0.162L1.237,23.1c-0.112,0-0.281,0.129-0.314,0.234L0,29.78
	c0,0,0.855,0.275,0.764,0.277l31.353-0.051c-0.093,0,1.446-0.277,1.446-0.277L31.762,23.165z"/>
</svg>
