<?xml version="1.0" encoding="utf-8"?>
<!-- Generator: Adobe Illustrator 16.0.0, SVG Export Plug-In . SVG Version: 6.00 Build 0)  -->
<!DOCTYPE svg PUBLIC "-//W3C//DTD SVG 1.0//EN" "http://www.w3.org/TR/2001/REC-SVG-20010904/DTD/svg10.dtd">
<svg version="1.0" id="Слой_1" xmlns="http://www.w3.org/2000/svg" xmlns:xlink="http://www.w3.org/1999/xlink" x="0px" y="0px"
	 width="51.028px" height="48.729px" viewBox="0 0 51.028 48.729" enable-background="new 0 0 51.028 48.729" xml:space="preserve">
<path fill="none" stroke="#FFFFFF" stroke-width="2" stroke-miterlimit="10" d="M46.036,45.886L33.78,35.858l-22.394,0.037
	C5.681,35.903,1.032,31.268,1.023,25.563L1,11.407C0.991,5.702,5.626,1.054,11.332,1.045L39.646,1
	c5.703-0.009,10.352,4.624,10.36,10.329l0.022,14.156c0.007,4.596-2.998,8.508-7.15,9.859L46.036,45.886z"/>
<path fill="#FFFFFF" d="M21.704,9.391v6.136h-6.332v11.882h19.813l0.002-18.018H21.704z M33.228,24.924h-9.254v-1.61h9.254V24.924z
	 M33.228,20.987h-9.254v-1.61h9.254V20.987z M33.228,17.05h-9.254v-1.61h9.254V17.05z M33.228,13.113h-9.254v-1.61h9.254V13.113z"/>
</svg>
