<?xml version="1.0" encoding="utf-8"?>
<!-- Generator: Adobe Illustrator 16.0.0, SVG Export Plug-In . SVG Version: 6.00 Build 0)  -->
<!DOCTYPE svg PUBLIC "-//W3C//DTD SVG 1.0//EN" "http://www.w3.org/TR/2001/REC-SVG-20010904/DTD/svg10.dtd">
<svg version="1.0" id="Слой_1" xmlns="http://www.w3.org/2000/svg" xmlns:xlink="http://www.w3.org/1999/xlink" x="0px" y="0px"
	 width="47.835px" height="37.144px" viewBox="0 0 47.835 37.144" enable-background="new 0 0 47.835 37.144" xml:space="preserve">
<path fill="#FFFFFF" d="M5.245,9.251H5.28h32.241c0.732,0,1.34,0.604,1.34,1.344v0.035v21.312c0,0.741-0.607,1.34-1.34,1.34h-0.043
	H5.245c-0.743,0-1.345-0.599-1.345-1.34v-0.033V10.595C3.9,9.854,4.502,9.251,5.245,9.251 M1.338,37.144L1.338,37.144
	c-0.74,0-1.338-0.61-1.338-1.35c0-0.74,0.598-1.345,1.338-1.345h40.083c0.747,0,1.341,0.604,1.341,1.345
	c0,0.739-0.594,1.35-1.341,1.35H1.338z M36.178,11.94L36.178,11.94H6.591v18.653h29.587V11.94z"/>
<path fill="none" stroke="#FFFFFF" stroke-width="2" stroke-linecap="round" stroke-linejoin="round" stroke-miterlimit="10" d="
	M46.835,7.43c0-3.554-2.877-6.43-6.431-6.43"/>
<path fill="none" stroke="#FFFFFF" stroke-width="2" stroke-linecap="round" stroke-linejoin="round" stroke-miterlimit="10" d="
	M42.763,7.43c0-1.303-1.055-2.357-2.357-2.357"/>
</svg>
