<?xml version="1.0" encoding="utf-8"?>
<!-- Generator: Adobe Illustrator 16.0.0, SVG Export Plug-In . SVG Version: 6.00 Build 0)  -->
<!DOCTYPE svg PUBLIC "-//W3C//DTD SVG 1.1//EN" "http://www.w3.org/Graphics/SVG/1.1/DTD/svg11.dtd">
<svg version="1.1" id="Layer_1" xmlns="http://www.w3.org/2000/svg" xmlns:xlink="http://www.w3.org/1999/xlink" x="0px" y="0px"
	 width="62.532px" height="68.146px" viewBox="0 0 62.532 68.146" enable-background="new 0 0 62.532 68.146" xml:space="preserve">
<path fill="#FFFFFF" d="M5.844,67.456v-6.359h4.318c1.356,0,2.002,0.83,2.002,1.633c0,0.75-0.475,1.264-1.094,1.447
	c0.724,0.146,1.238,0.764,1.238,1.541c0,0.935-0.671,1.738-2.027,1.738H5.844z M10.124,63.058c0-0.236-0.172-0.395-0.435-0.395
	H7.872v0.79h1.817C9.952,63.453,10.124,63.282,10.124,63.058 M10.268,65.454c0-0.25-0.197-0.447-0.5-0.447H7.872v0.883h1.896
	C10.058,65.89,10.268,65.718,10.268,65.454"/>
<polygon fill="#FFFFFF" points="15.247,61.159 16.702,61.159 18.843,63.79 20.872,61.159 22.285,61.159 22.285,67.456 
	20.676,67.456 20.676,63.608 18.815,65.959 18.773,65.959 16.856,63.608 16.856,67.456 15.247,67.456 "/>
<path fill="#FFFFFF" d="M30.879,66.826c-0.629,0.53-1.524,0.782-2.406,0.782c-2.029,0-3.386-1.313-3.386-3.301
	c0-1.834,1.259-3.303,3.33-3.303c1.623,0,2.98,1.162,2.98,2.926c0,0.392-0.028,0.629-0.098,0.867h-4.547
	c0.14,0.951,0.896,1.469,1.889,1.469c0.769,0,1.413-0.28,1.777-0.574L30.879,66.826z M26.696,63.72h3.092
	c0.014-0.769-0.517-1.371-1.441-1.371C27.381,62.349,26.864,62.894,26.696,63.72"/>
<path fill="#FFFFFF" d="M39.585,66.519c-0.532,0.713-1.483,1.091-2.504,1.091c-2.043,0-3.414-1.315-3.414-3.302
	c0-1.834,1.343-3.303,3.26-3.303c1.035,0,1.945,0.267,2.531,0.854l-0.754,1.272c-0.477-0.461-0.994-0.615-1.568-0.615
	c-0.895,0-1.749,0.686-1.749,1.791c0,1.119,0.868,1.805,1.819,1.805c0.686,0,1.218-0.32,1.623-0.77L39.585,66.519z"/>
<polygon fill="#FFFFFF" points="41.49,61.159 47.226,61.159 47.226,62.769 45.17,62.769 45.17,67.456 43.562,67.456 43.562,62.769 
	41.49,62.769 "/>
<path fill="#FFFFFF" d="M54.981,66.826c-0.63,0.53-1.524,0.782-2.406,0.782c-2.028,0-3.386-1.313-3.386-3.301
	c0-1.834,1.26-3.303,3.33-3.303c1.623,0,2.979,1.162,2.979,2.926c0,0.392-0.028,0.629-0.098,0.867h-4.547
	c0.14,0.951,0.896,1.469,1.889,1.469c0.769,0,1.413-0.28,1.776-0.574L54.981,66.826z M50.798,63.72h3.092
	c0.014-0.769-0.518-1.371-1.441-1.371C51.483,62.349,50.966,62.894,50.798,63.72"/>
<path fill="none" stroke="#FFFFFF" stroke-width="3" stroke-miterlimit="10" d="M53.544,53.446L40.32,42.821H13.767
	C7.004,42.821,1.5,37.317,1.5,30.553V13.767C1.5,7.003,7.004,1.5,13.767,1.5h33.572c6.765,0,12.268,5.503,12.268,12.267v16.786
	c0,5.449-3.57,10.08-8.498,11.675L53.544,53.446z"/>
<path fill="#FFFFFF" d="M61.412,65.782c0.659,0,1.12,0.6,1.12,1.137c0,0.629-0.461,1.228-1.12,1.228
	c-0.768,0-1.229-0.599-1.229-1.228C60.183,66.382,60.644,65.782,61.412,65.782 M60.429,57.322h1.873v7.032h-1.873V57.322z"/>
<path fill="#FFFFFF" d="M37.634,14.417H22.086c-0.554,0-1.004,0.45-1.004,1.001v9.798c0,0.553,0.45,1,1.004,1h15.548
	c0.553,0,1.002-0.447,1.002-1v-9.798C38.636,14.867,38.187,14.417,37.634,14.417"/>
<path fill="#FFFFFF" d="M20.549,31.733c0.122,0.044,1.124,0.08,2.228,0.08h14.162c1.104,0,2.195-0.036,2.426-0.08
	s0.186-0.936-0.1-1.983c-0.286-1.047-0.548-1.924-0.584-1.95c-0.036-0.026-1.043-0.046-2.146-0.044l-13.478,0.021
	c-1.103,0.002-2.043,0.021-2.088,0.041c-0.044,0.021-0.222,0.939-0.371,1.967C20.449,30.812,20.427,31.689,20.549,31.733"/>
<path fill="#FFFFFF" d="M43.411,15.275v-0.027c0-2.856-2.323-5.18-5.179-5.18l-0.028-0.71c3.277,0,5.919,2.642,5.919,5.89
	L43.411,15.275z"/>
<path fill="#FFFFFF" d="M41.808,15.249V15.23c0-1.973-1.594-3.576-3.559-3.59l-0.045,0.003v-0.359l-0.048-0.349l0.065-0.008
	c2.373,0,4.299,1.931,4.299,4.303L41.808,15.249z"/>
<path fill="#FFFFFF" d="M40.431,15.277v-0.011c0-1.206-0.981-2.191-2.187-2.191l-0.006-0.713c1.604,0,2.905,1.303,2.905,2.904
	L40.431,15.277z"/>
</svg>
