<?xml version="1.0" encoding="utf-8"?>
<!-- Generator: Adobe Illustrator 16.0.0, SVG Export Plug-In . SVG Version: 6.00 Build 0)  -->
<!DOCTYPE svg PUBLIC "-//W3C//DTD SVG 1.1//EN" "http://www.w3.org/Graphics/SVG/1.1/DTD/svg11.dtd">
<svg version="1.1" id="Layer_1" xmlns="http://www.w3.org/2000/svg" xmlns:xlink="http://www.w3.org/1999/xlink" x="0px" y="0px"
	 width="86.007px" height="90.262px" viewBox="0 0 86.007 90.262" enable-background="new 0 0 86.007 90.262" xml:space="preserve">
<g>
	<defs>
		<rect id="SVGID_1_" y="0" width="86.007" height="90.262"/>
	</defs>
	<clipPath id="SVGID_2_">
		<use xlink:href="#SVGID_1_"  overflow="visible"/>
	</clipPath>
	<path clip-path="url(#SVGID_2_)" fill="#FFFFFF" d="M11.058,85.06c0.914-0.273,1.615-1.032,1.615-2.142
		c0-1.187-0.953-2.413-2.958-2.413H3.331v9.4H9.89c2.005,0,2.998-1.188,2.998-2.569C12.888,86.188,12.128,85.273,11.058,85.06
		 M6.328,82.821h2.687c0.388,0,0.641,0.233,0.641,0.584c0,0.33-0.253,0.583-0.641,0.583H6.328V82.821z M9.131,87.589H6.328v-1.304
		h2.803c0.448,0,0.739,0.292,0.739,0.662C9.87,87.336,9.56,87.589,9.131,87.589"/>
	<polygon clip-path="url(#SVGID_2_)" fill="#FFFFFF" points="22.545,84.278 19.483,80.517 19.444,80.47 17.103,80.47 17.103,90.034 
		19.74,90.034 19.74,84.581 22.344,87.774 22.383,87.821 22.569,87.821 25.127,84.59 25.127,90.034 27.765,90.034 27.765,80.47 
		25.483,80.47 	"/>
	<path clip-path="url(#SVGID_2_)" fill="#FFFFFF" d="M36.701,80.241c-2.975,0-5.052,2.06-5.052,5.011c0,2.996,2.063,5.01,5.135,5.01
		c1.418,0,2.746-0.433,3.641-1.188l0.071-0.062l-0.784-1.923l-0.135,0.109c-0.491,0.396-1.416,0.819-2.545,0.819
		c-1.421,0-2.396-0.712-2.638-1.913h6.665l0.026-0.092c0.109-0.367,0.151-0.736,0.151-1.319
		C41.236,82.155,39.286,80.241,36.701,80.241 M36.597,82.484c0.625,0,1.145,0.194,1.504,0.562c0.303,0.308,0.476,0.733,0.496,1.208
		h-4.278C34.608,83.096,35.393,82.484,36.597,82.484"/>
	<path clip-path="url(#SVGID_2_)" fill="#FFFFFF" d="M51.997,86.695c-0.658,0.727-1.434,1.095-2.304,1.095
		c-1.24,0-2.559-0.89-2.559-2.539c0-1.635,1.266-2.518,2.456-2.518c0.904,0,1.611,0.278,2.227,0.874l0.118,0.114l1.252-2.109
		l-0.072-0.072c-0.851-0.85-2.177-1.3-3.835-1.3c-2.821,0-4.949,2.154-4.949,5.011c0,2.997,2.08,5.011,5.177,5.011
		c1.606,0,3.029-0.621,3.806-1.665l0.054-0.072L52.11,86.57L51.997,86.695z"/>
	<polygon clip-path="url(#SVGID_2_)" fill="#FFFFFF" points="55.897,83.105 58.959,83.105 58.959,90.034 61.597,90.034 
		61.597,83.105 64.637,83.105 64.637,80.47 55.897,80.47 	"/>
	<path clip-path="url(#SVGID_2_)" fill="#FFFFFF" d="M72.33,80.241c-2.975,0-5.052,2.06-5.052,5.011c0,2.996,2.063,5.01,5.134,5.01
		c1.42,0,2.747-0.433,3.643-1.188l0.071-0.062l-0.784-1.923l-0.136,0.109c-0.49,0.396-1.416,0.819-2.545,0.819
		c-1.421,0-2.396-0.712-2.639-1.913h6.666l0.026-0.092c0.108-0.367,0.15-0.736,0.15-1.319C76.865,82.155,74.916,80.241,72.33,80.241
		 M72.227,82.484c0.625,0,1.144,0.194,1.504,0.562c0.304,0.308,0.477,0.733,0.496,1.208h-4.278
		C70.237,83.096,71.022,82.484,72.227,82.484"/>
	<rect x="81.223" y="75.299" clip-path="url(#SVGID_2_)" fill="#FFFFFF" width="2.783" height="9.729"/>
	<path clip-path="url(#SVGID_2_)" fill="#FFFFFF" d="M82.677,86.694c-1.103,0-1.785,0.861-1.785,1.66
		c0,0.865,0.626,1.783,1.785,1.783c1.013,0,1.64-0.926,1.64-1.783C84.316,87.569,83.643,86.694,82.677,86.694"/>
	<path clip-path="url(#SVGID_2_)" fill="#FFFFFF" d="M77.91,79.544L56.691,62.498h-37.89C8.435,62.498,0,54.063,0,43.694V18.8
		C0,8.434,8.435,0,18.802,0h48.403c10.367,0,18.802,8.433,18.802,18.8v24.894c0,7.843-4.81,14.776-12.069,17.557L77.91,79.544z
		 M18.802,2.23C9.664,2.23,2.231,9.665,2.231,18.8v24.894c0,9.139,7.433,16.574,16.571,16.574h38.675l16.916,13.59l-3.057-14.081
		l0.96-0.31c6.867-2.224,11.48-8.563,11.48-15.773V18.8c0-9.136-7.434-16.57-16.571-16.57H18.802z"/>
	<path clip-path="url(#SVGID_2_)" fill="#FFFFFF" d="M58.348,44.294h-4.656v-2.371h2.326c0-0.008,0.001-0.015,0.001-0.023
		c0.045-1.246,0.072-1.998-0.335-3.283c-0.307-0.948-0.986-1.548-2.203-1.939c-0.62-0.198-1.249-0.373-1.877-0.549
		c-0.421-0.117-0.841-0.234-1.258-0.356c-0.087-0.027-0.207-0.047-0.339-0.073c-0.492-0.096-1.052-0.205-1.472-0.502
		c-1.662-1.177-1.338-3.558-0.884-4.78c0.348-0.926,0.801-1.715,1.236-2.479c0.538-0.939,1.046-1.827,1.264-2.838
		c0.278-1.25,0.187-2.263-0.079-3.694c-0.434-2.334-2.023-4.065-4.149-4.521l-0.177-0.027c-0.259-0.029-0.511-0.033-0.765-0.025
		c-0.305-0.007-0.563-0.003-0.821,0.025c-0.251,0.029-0.982,0.126-1.152,0.17l-0.798-2.231c0.344-0.135,1.295-0.252,1.689-0.296
		c0.33-0.036,0.671-0.049,1.083-0.039c0.349-0.009,0.695,0.003,1.025,0.039c0.089,0.011,0.175,0.024,0.262,0.039l0.151,0.026
		c3.033,0.65,5.382,3.164,5.983,6.406c0.308,1.657,0.427,3.011,0.065,4.635c-0.295,1.364-0.92,2.455-1.522,3.51
		c-0.409,0.713-0.795,1.385-1.072,2.128c-0.232,0.627-0.34,1.754,0.03,2.016c0.044,0.01,0.378,0.075,0.558,0.11
		c0.219,0.043,0.418,0.085,0.56,0.127c0.402,0.119,0.811,0.232,1.219,0.346c0.657,0.184,1.314,0.367,1.965,0.575
		c1.964,0.631,3.187,1.767,3.737,3.474c0.533,1.683,0.493,2.799,0.446,4.091c-0.013,0.347-0.026,0.718-0.03,1.134L58.348,44.294z"/>
	<path clip-path="url(#SVGID_2_)" fill="#FFFFFF" d="M64.221,39.749h-4.328v-2.371h1.999c0.037-1.065,0.051-1.733-0.303-2.847
		c-0.268-0.831-0.843-1.336-1.923-1.682c-0.559-0.18-1.127-0.337-1.692-0.496c-0.383-0.106-0.764-0.212-1.143-0.324
		c-0.075-0.022-0.181-0.04-0.296-0.062c-0.458-0.09-0.977-0.192-1.376-0.473c-1.559-1.105-1.261-3.323-0.84-4.459
		c0.317-0.848,0.729-1.566,1.127-2.261c0.482-0.842,0.938-1.638,1.133-2.537c0.247-1.116,0.164-2.019-0.074-3.3
		c-0.377-2.029-1.782-3.54-3.669-3.945l-0.481-0.102c-0.115-0.005-0.229-0.004-0.342,0c-0.279-0.008-0.507-0.004-0.736,0.022
		c-0.331,0.037-0.792,0.101-0.912,0.132l-0.174-0.68l-0.681-1.528c0.12-0.053,0.344-0.153,1.505-0.281
		c0.338-0.038,0.667-0.044,0.998-0.037c0.266-0.007,0.598-0.001,0.935,0.037c0.079,0.009,0.156,0.02,0.231,0.033l0.993,0.163
		l0.016,0.162c2.403,0.838,4.152,2.912,4.648,5.591c0.282,1.511,0.391,2.748,0.06,4.239c-0.271,1.252-0.841,2.248-1.392,3.21
		c-0.367,0.641-0.714,1.247-0.962,1.911c-0.221,0.591-0.271,1.511-0.013,1.694c0.021,0.005,0.305,0.051,0.461,0.081
		c0.202,0.04,0.386,0.078,0.516,0.117c0.364,0.107,0.733,0.21,1.103,0.313c0.597,0.165,1.194,0.332,1.783,0.522
		c1.79,0.575,2.952,1.657,3.456,3.217c0.489,1.543,0.453,2.562,0.41,3.743c-0.011,0.312-0.023,0.647-0.027,1.024L64.221,39.749z"/>
	<path clip-path="url(#SVGID_2_)" fill-rule="evenodd" clip-rule="evenodd" fill="#FFFFFF" d="M52.004,42.594
		c-0.56-1.733-1.859-2.595-3.384-3.086c-1.19-0.38-2.407-0.687-3.598-1.04c-0.402-0.12-1.311-0.21-1.666-0.462
		c-1.258-0.89-0.831-3.035-0.521-3.87c0.843-2.249,2.396-3.894,2.901-6.241c0.371-1.671,0.231-3.043-0.084-4.738
		c-0.606-3.267-2.906-5.533-5.769-6.146v-0.075c-0.112-0.016-0.222-0.038-0.336-0.051c-0.355-0.039-0.705-0.046-1.052-0.037
		c-0.346-0.009-0.696-0.002-1.051,0.037c-0.115,0.013-0.223,0.035-0.336,0.051v0.075c-2.862,0.613-5.162,2.879-5.768,6.146
		c-0.316,1.695-0.455,3.067-0.084,4.738c0.507,2.347,2.059,3.992,2.901,6.241c0.31,0.835,0.739,2.98-0.519,3.87
		c-0.357,0.252-1.265,0.342-1.666,0.462c-1.192,0.353-2.408,0.66-3.6,1.04c-1.523,0.491-2.823,1.353-3.383,3.086
		c-0.683,2.159-0.429,3.294-0.409,5.523H37.11h2.775h12.528C52.434,45.889,52.688,44.753,52.004,42.594"/>
</g>
</svg>
