<svg xmlns="http://www.w3.org/2000/svg" width="28" height="19.35" viewBox="0 0 28 19.35"><path d="M26.44 0H1.56C.7 0 0 .7 0 1.56v16.23c0 .86.7 1.56 1.56 1.56h24.88c.86 0 1.56-.7 1.56-1.56V1.56C28 .7 27.3 0 26.44 0zM1.56.813h24.88c.4 0 .73.318.744.716L14.632 11.84c-.337.277-.928.277-1.265 0L.815 1.53c.016-.398.343-.717.744-.717zM.812 2.58L9.45 9.675.813 16.77V2.58zM26.44 18.536H1.56c-.402 0-.73-.318-.745-.716l9.276-7.62 2.76 2.268c.33.265.74.397 1.15.397s.83-.132 1.15-.397l2.76-2.267 9.28 7.62c-.01.4-.34.72-.74.72zm.746-1.767l-8.636-7.1 8.636-7.1v14.19z"/></svg>