<?xml version="1.0" encoding="UTF-8" standalone="no"?>
<svg
   xmlns:dc="http://purl.org/dc/elements/1.1/"
   xmlns:cc="http://creativecommons.org/ns#"
   xmlns:rdf="http://www.w3.org/1999/02/22-rdf-syntax-ns#"
   xmlns:svg="http://www.w3.org/2000/svg"
   xmlns="http://www.w3.org/2000/svg"
   xmlns:sodipodi="http://sodipodi.sourceforge.net/DTD/sodipodi-0.dtd"
   xmlns:inkscape="http://www.inkscape.org/namespaces/inkscape"
   width="26.999983"
   height="33"
   viewBox="48.326 -0.5 26.999982 33.000002"
   enable-background="new 48.326 -0.5 27.724 34.67"
   id="svg2"
   version="1.1"
   inkscape:version="0.91 r13725"
   sodipodi:docname="event-point.svg">
  <metadata
     id="metadata10">
    <rdf:RDF>
      <cc:Work
         rdf:about="">
        <dc:format>image/svg+xml</dc:format>
        <dc:type
           rdf:resource="http://purl.org/dc/dcmitype/StillImage" />
        <dc:title />
      </cc:Work>
    </rdf:RDF>
  </metadata>
  <defs
     id="defs8" />
  <sodipodi:namedview
     pagecolor="#ffffff"
     bordercolor="#666666"
     borderopacity="1"
     objecttolerance="10"
     gridtolerance="10"
     guidetolerance="10"
     inkscape:pageopacity="0"
     inkscape:pageshadow="2"
     inkscape:window-width="1920"
     inkscape:window-height="1017"
     id="namedview6"
     showgrid="false"
     fit-margin-top="0"
     fit-margin-left="0"
     fit-margin-right="0"
     fit-margin-bottom="0"
     inkscape:zoom="6.8070381"
     inkscape:cx="-12.581218"
     inkscape:cy="17.335001"
     inkscape:window-x="-8"
     inkscape:window-y="-8"
     inkscape:window-maximized="1"
     inkscape:current-layer="svg2" />
  <path
     stroke-miterlimit="10"
     d="m 67.204928,23.036221 -0.928932,1.073273 c 3.873803,0.477644 6.578636,1.566142 6.578636,2.835421 0,1.709816 -4.931538,3.097078 -11.011556,3.097078 -6.080994,0 -11.016435,-1.387262 -11.016435,-3.098981 0,-1.267376 2.708736,-2.356825 6.581564,-2.835421 l -0.930884,-1.072322 c -4.327537,0.723128 -7.337784,2.293076 -7.337784,4.119923 0,2.502403 5.688734,4.538577 12.704515,4.538577 7.01578,0 12.704515,-2.036174 12.704515,-4.548091 0,-1.826848 -3.009272,-3.396797 -7.341687,-4.119924 l 0,-0.0095 z M 72.493597,10.68977 c 0,-5.7345908 -4.771512,-10.38449067 -10.650521,-10.38449067 -5.883888,0 -10.650521,4.64989987 -10.650521,10.38449067 0,5.734592 10.649545,17.307486 10.649545,17.307486 0,0 10.647594,-11.573846 10.647594,-17.307486 l 0.0029,0 z M 61.843076,2.0369793 c 4.898362,0 8.874621,3.9220151 8.874621,8.7612607 0,4.838294 -8.874621,14.603368 -8.874621,14.603368 0,0 -8.8795,-9.765074 -8.8795,-14.603368 0,-4.8392456 3.971381,-8.7631637 8.869743,-8.7631637 l 0.0097,0.0019 z m 4.437798,7.7878927 c 0,-2.3882237 -1.987642,-4.3273471 -4.43975,-4.3273471 -2.449181,0 -4.434871,1.9381719 -4.434871,4.3273471 0,2.390127 1.98569,4.327347 4.434871,4.327347 2.449181,0 4.429992,-1.938172 4.429992,-4.327347 l 0.0097,0 z m -7.100673,0 c 0,-1.433886 1.200197,-2.5975502 2.663851,-2.5975502 1.463653,0 2.66385,1.1646162 2.66385,2.5975502 0,1.433886 -1.190439,2.59755 -2.66385,2.59755 -1.463654,-0.0019 -2.663851,-1.163664 -2.663851,-2.59755 z m 2.663851,22.193353 c -7.308512,0 -13.036277,-2.138935 -13.036277,-4.865887 0,-1.950541 2.91755,-3.647988 7.618806,-4.43201 0.114165,-0.01903 0.234184,0.02093 0.307368,0.109421 l 0.92698,1.072322 c 0.07806,0.08563 0.09758,0.209326 0.04878,0.323504 -0.04878,0.114178 -0.146366,0.190297 -0.263458,0.199811 -4.322658,0.532832 -6.293712,1.674612 -6.293712,2.511917 0,1.313047 4.381204,2.768817 10.674915,2.768817 6.293712,0 10.674916,-1.465284 10.674916,-2.778332 0,-0.837305 -1.971054,-1.979086 -6.293711,-2.519528 -0.117093,-0.01523 -0.224428,-0.09325 -0.263458,-0.203617 -0.03903,-0.110372 -0.02928,-0.237872 0.04878,-0.328262 l 0.926981,-1.075176 c 0.07806,-0.08849 0.195154,-0.133208 0.302489,-0.111325 4.693449,0.780217 7.620757,2.483372 7.620757,4.427254 -0.0097,2.730757 -5.737523,4.871595 -13.046035,4.871595 l 0,0.02854 z m -5.493581,-8.629956 c -4.124577,0.720273 -6.879173,2.221714 -6.879173,3.764069 0,2.286416 5.666292,4.220781 12.372754,4.220781 6.707437,0 12.372754,-1.931511 12.372754,-4.215072 0,-1.541403 -2.756549,-3.044747 -6.881125,-3.75836 l -0.41958,0.485257 c 3.93235,0.57089 6.264437,1.703156 6.264437,3.073292 0,2.226471 -5.844857,3.42534 -11.348195,3.42534 -5.503339,0 -11.348197,-1.198869 -11.348197,-3.415826 0,-1.373942 2.332089,-2.511916 6.264439,-3.073291 l -0.419581,-0.485257 0.01952,-0.01903 z m 5.493581,4.932491 c -0.09465,0 -0.185396,-0.03997 -0.24687,-0.107517 -0.439096,-0.475742 -10.735413,-11.722278 -10.735413,-17.516812 0.0088,-5.9096643 4.926659,-10.71465607 10.986186,-10.71465607 6.049769,0 10.977404,4.80499177 10.977404,10.70799507 0,5.792632 -10.294365,17.046779 -10.733462,17.523473 -0.0644,0.07612 -0.153195,0.114177 -0.248821,0.114177 z m 0,-27.69197637 c -5.688735,0 -10.319735,4.51383787 -10.319735,10.06098637 0,5.067602 8.728255,15.042955 10.317783,16.819375 C 63.432604,25.739386 72.158908,15.758323 72.158908,10.696431 72.168666,5.1492819 67.533762,0.63925003 61.845028,0.63925003 Z m 0,25.09632937 c -0.09563,0 -0.185396,-0.03806 -0.248822,-0.109421 -0.361034,-0.399623 -8.95756,-9.895428 -8.95756,-14.805083 0,-5.0048035 4.127503,-9.0866679 9.21126,-9.0866679 5.074001,0 9.201505,4.0818644 9.201505,9.0866679 0,4.909655 -8.596527,14.414975 -8.957562,14.814598 -0.0683,0.07612 -0.156123,0.114179 -0.2537,0.114179 l 0.0097,0 z m 0,-23.3655808 c -4.712966,0 -8.543836,3.7773896 -8.543836,8.4301438 0,4.215072 7.113358,12.483464 8.54286,14.110501 1.424623,-1.627037 8.537981,-9.895429 8.537981,-14.110501 0,-4.6527542 -3.834773,-8.4396586 -8.547738,-8.4396586 l 0.0097,0.00952 z m 0,12.1123858 c -2.630674,0 -4.769561,-2.083749 -4.769561,-4.652755 0,-2.5690055 2.136935,-4.6527545 4.766633,-4.6527545 2.629699,0 4.761754,2.083749 4.761754,4.6527545 0,2.55949 -2.146692,4.64324 -4.771511,4.64324 l 0.0097,0.0095 z m 0,-8.6585007 c -2.263785,0 -4.107989,1.7983039 -4.107989,4.0057457 0,2.207441 1.844204,4.005746 4.106037,4.005746 2.263785,0 4.098231,-1.798305 4.098231,-4.005746 0,-2.2074418 -1.844203,-4.0057457 -4.107988,-4.0057457 l 0.0097,0 z m 0,6.9172847 c -1.651977,0 -2.995611,-1.313047 -2.995611,-2.921054 0,-1.6080069 1.343634,-2.9210542 2.995611,-2.9210542 1.647098,0 2.985854,1.3035323 2.985854,2.9115392 0,1.608008 -1.346562,2.921055 -2.995612,2.921055 l 0.0097,0.0095 z m 0,-5.1950994 c -1.286064,0 -2.332089,1.0180874 -2.332089,2.2740454 0,1.255959 1.044073,2.274046 2.332089,2.274046 1.283136,0 2.332088,-1.027602 2.332088,-2.274046 0,-1.255958 -1.047976,-2.2740454 -2.332088,-2.2740454 z"
     id="path4"
     style="fill:#000000;stroke:#000000;stroke-width:0.50000006;stroke-miterlimit:10;stroke-dasharray:none;stroke-opacity:1"
     inkscape:connector-curvature="0" />
</svg>
