<svg xmlns="http://www.w3.org/2000/svg" xmlns:xlink="http://www.w3.org/1999/xlink" preserveAspectRatio="xMidYMid" width="36" height="42" viewBox="0 0 36 42">
  <defs>
    <style>

      .cls-2 {
        fill: #ffffff;
        filter: url(#color-overlay-1);
      }
    </style>

    <filter id="color-overlay-1" filterUnits="userSpaceOnUse">
      <feFlood flood-color="#171717" flood-opacity="1"/>
      <feComposite operator="in" in2="SourceGraphic"/>
      <feBlend mode="normal" in2="SourceGraphic" result="colorOverlay"/>
    </filter>
  </defs>
  <path d="M26.658,11.544 C23.545,11.544 20.724,12.370 18.989,13.670 C18.989,13.670 18.989,5.544 18.989,5.544 C18.989,2.428 14.895,-0.012 9.532,-0.012 C4.170,-0.012 -0.010,2.428 -0.010,5.544 C-0.010,-6.033 -0.010,29.542 -0.010,29.542 C-0.010,29.542 -0.010,29.542 -0.010,29.544 C-0.010,29.545 -0.010,29.546 -0.010,29.546 C-0.010,29.546 -0.010,29.739 -0.010,29.739 C-0.010,29.739 0.006,29.739 0.006,29.739 C0.179,32.759 4.284,35.099 9.532,35.099 C9.532,35.099 9.534,35.099 9.535,35.099 C9.535,35.099 9.540,33.817 9.540,33.817 C9.540,33.817 9.532,35.949 9.532,35.949 C9.532,35.951 9.532,35.953 9.532,35.956 C9.532,35.959 9.532,35.961 9.532,35.964 C9.532,35.964 9.532,36.151 9.532,36.151 C9.532,36.151 9.547,36.151 9.547,36.151 C9.721,39.171 13.846,41.511 19.094,41.511 C24.404,41.511 28.566,39.118 28.650,36.047 C28.650,36.047 28.658,36.047 28.658,36.047 C28.658,36.047 28.658,34.536 28.658,34.536 C32.977,34.021 35.916,31.863 35.988,29.191 C35.988,29.191 35.996,29.191 35.996,29.191 C35.996,29.191 35.996,17.099 35.996,17.099 C35.996,13.984 32.021,11.544 26.658,11.544 ZM19.094,35.511 C14.749,35.511 11.698,33.731 11.545,32.084 C11.545,32.084 11.547,31.835 11.547,31.835 C11.557,31.710 11.585,31.585 11.626,31.460 C13.366,32.717 16.040,33.511 19.094,33.511 C22.152,33.511 24.830,32.715 26.568,31.456 C26.623,31.614 26.658,31.781 26.658,31.956 C26.658,33.637 23.550,35.511 19.094,35.511 ZM26.658,27.956 C26.658,29.637 23.550,31.511 19.094,31.511 C14.856,31.511 11.846,29.818 11.559,28.207 C11.559,28.207 11.561,27.956 11.561,27.956 C11.561,27.956 11.532,27.956 11.532,27.956 C11.532,26.274 14.637,24.400 19.094,24.400 C23.550,24.400 26.658,26.274 26.658,27.956 ZM9.532,25.099 C5.152,25.099 2.085,23.290 1.979,21.631 C1.979,21.631 1.980,21.450 1.980,21.450 C1.988,21.316 2.017,21.181 2.063,21.046 C3.801,22.305 6.477,23.099 9.532,23.099 C12.588,23.099 15.263,22.305 17.002,21.046 C17.059,21.212 17.095,21.377 17.095,21.543 C17.095,21.884 16.961,22.233 16.721,22.573 C14.259,22.926 12.207,23.817 10.934,25.032 C10.483,25.073 10.017,25.099 9.532,25.099 ZM17.912,22.445 C17.881,22.447 17.852,22.450 17.822,22.453 C17.852,22.450 17.881,22.447 17.912,22.445 ZM2.064,13.047 C3.802,14.305 6.477,15.099 9.532,15.099 C12.587,15.099 15.262,14.305 17.001,13.047 C17.057,13.212 17.095,13.378 17.095,13.544 C17.095,15.225 13.989,17.099 9.532,17.099 C5.228,17.099 2.193,15.352 1.989,13.717 C1.989,13.717 1.989,13.368 1.989,13.368 C2.002,13.261 2.027,13.154 2.064,13.047 ZM1.994,9.760 C1.994,9.760 1.994,9.347 1.994,9.347 C2.008,9.247 2.030,9.147 2.064,9.047 C3.803,10.305 6.477,11.099 9.532,11.099 C12.590,11.099 15.267,10.303 17.006,9.044 C17.061,9.202 17.095,9.369 17.095,9.544 C17.095,11.225 13.989,13.099 9.532,13.099 C5.266,13.099 2.245,11.383 1.994,9.760 ZM2.061,17.045 C3.799,18.304 6.475,19.099 9.532,19.099 C12.587,19.099 15.262,18.305 17.001,17.047 C17.057,17.212 17.095,17.378 17.095,17.543 C17.095,19.225 13.989,21.099 9.532,21.099 C5.190,21.099 2.139,19.321 1.984,17.675 C1.984,17.675 1.985,17.391 1.985,17.391 C1.997,17.275 2.021,17.160 2.061,17.045 ZM9.532,1.988 C13.989,1.988 17.095,3.862 17.095,5.544 C17.095,7.225 13.989,9.099 9.532,9.099 C5.304,9.099 2.296,7.413 1.999,5.803 C1.999,5.803 1.999,5.544 1.999,5.544 C1.999,5.544 1.969,5.544 1.969,5.544 C1.969,3.862 5.075,1.988 9.532,1.988 ZM9.532,31.956 C9.532,32.013 9.544,32.070 9.545,32.127 C9.545,32.127 9.542,33.099 9.542,33.099 C9.539,33.099 9.536,33.099 9.532,33.099 C5.077,33.099 1.972,31.227 1.969,29.546 C1.969,29.546 1.969,29.542 1.969,29.542 C1.970,29.368 2.005,29.203 2.060,29.045 C3.799,30.304 6.475,31.099 9.532,31.099 C9.538,31.099 9.544,31.098 9.550,31.098 C9.550,31.098 9.547,31.819 9.547,31.819 C9.545,31.865 9.532,31.910 9.532,31.956 ZM9.551,30.768 C9.551,30.768 9.556,29.098 9.556,29.098 C9.548,29.098 9.541,29.099 9.532,29.099 C5.115,29.099 2.029,27.258 1.974,25.588 C1.974,25.588 1.975,25.503 1.975,25.503 C1.979,25.351 2.012,25.199 2.064,25.047 C3.803,26.305 6.477,27.099 9.532,27.099 C9.573,27.099 9.612,27.095 9.653,27.095 C9.653,27.094 9.653,27.094 9.653,27.093 C9.581,27.375 9.532,27.661 9.532,27.956 C9.532,28.068 9.549,28.178 9.559,28.290 C9.559,28.290 9.551,30.768 9.551,30.768 ZM10.489,25.508 C10.489,25.508 10.489,25.508 10.489,25.508 C10.489,25.508 10.489,25.508 10.489,25.508 ZM10.125,26.011 C10.125,26.012 10.124,26.012 10.124,26.013 C10.124,26.012 10.125,26.012 10.125,26.011 ZM19.094,39.511 C14.641,39.511 11.540,37.642 11.532,35.961 C11.532,35.961 11.532,35.949 11.532,35.949 C11.534,35.787 11.571,35.623 11.626,35.460 C13.364,36.717 16.040,37.511 19.094,37.511 C22.150,37.511 24.824,36.717 26.562,35.460 C26.619,35.625 26.658,35.791 26.658,35.956 C26.658,37.637 23.550,39.511 19.094,39.511 ZM28.658,32.518 C28.658,32.518 28.658,30.531 28.658,30.531 C30.869,30.267 32.781,29.577 34.127,28.603 C34.183,28.768 34.221,28.933 34.221,29.099 C34.221,30.515 32.014,32.063 28.658,32.518 ZM28.658,28.517 C28.658,28.517 28.658,27.956 28.658,27.956 C28.658,27.471 28.545,27.006 28.354,26.561 C30.693,26.326 32.718,25.621 34.127,24.603 C34.183,24.768 34.221,24.933 34.221,25.099 C34.221,26.515 32.014,28.062 28.658,28.517 ZM26.817,24.650 C25.205,23.370 22.667,22.524 19.722,22.418 C19.379,22.045 19.162,21.655 19.115,21.269 C19.115,21.269 19.116,20.942 19.116,20.942 C19.128,20.829 19.152,20.716 19.190,20.603 C20.929,21.860 23.603,22.654 26.658,22.654 C29.716,22.654 32.393,21.859 34.132,20.599 C34.187,20.758 34.221,20.925 34.221,21.099 C34.221,22.760 31.187,24.605 26.817,24.650 ZM26.658,20.654 C22.423,20.654 19.414,18.964 19.124,17.352 C19.124,17.352 19.125,17.099 19.125,17.099 C19.125,17.099 19.095,17.099 19.095,17.099 C19.095,15.418 22.201,13.544 26.658,13.544 C31.115,13.544 34.221,15.418 34.221,17.099 C34.221,18.781 31.115,20.654 26.658,20.654 Z" id="path-1" class="cls-2" fill-rule="evenodd"/>
</svg>
