<svg xmlns="http://www.w3.org/2000/svg" viewBox="0 0 6.5806532 6.5800934" height="28" width="28"><defs><clipPath id="a"><path d="M0 4.935h4.935V0H0v4.935z"/></clipPath></defs><g clip-path="url(#a)" transform="matrix(1.333 0 0 -1.333 0 6.58)"><path d="M3.945.99c-.38-.377-.9-.61-1.477-.61-.578 0-1.1.233-1.476.61H.99c-.377.378-.61.9-.61 1.477 0 .578.233 1.1.61 1.477h.002c.377.378.898.612 1.476.612.577 0 1.098-.234 1.477-.61v-.002c.377-.377.61-.9.61-1.477 0-.577-.233-1.1-.61-1.476m.268 3.22v.002c-.448.448-1.065.723-1.745.723-.68 0-1.298-.275-1.744-.722H.722C.275 3.764 0 3.147 0 2.466 0 1.787.275 1.17.722.723h.002C1.17.276 1.787 0 2.468 0c.68 0 1.297.276 1.745.722.447.448.722 1.064.722 1.745 0 .68-.275 1.298-.722 1.744m-.154-.148c-.073.074-.194.074-.268 0L.79 1.06C.716.986.716.866.79.79c.074-.073.193-.073.267 0L4.06 3.794c.074.074.074.195 0 .27"/></g></svg>