<?xml version="1.0" encoding="UTF-8" standalone="no"?>
<svg
   xmlns:osb="http://www.openswatchbook.org/uri/2009/osb"
   xmlns:dc="http://purl.org/dc/elements/1.1/"
   xmlns:cc="http://creativecommons.org/ns#"
   xmlns:rdf="http://www.w3.org/1999/02/22-rdf-syntax-ns#"
   xmlns:svg="http://www.w3.org/2000/svg"
   xmlns="http://www.w3.org/2000/svg"
   xmlns:sodipodi="http://sodipodi.sourceforge.net/DTD/sodipodi-0.dtd"
   xmlns:inkscape="http://www.inkscape.org/namespaces/inkscape"
   viewBox="0 0 30 35"
   height="35"
   width="30"
   xml:space="preserve"
   version="1.1"
   id="svg2"
   inkscape:version="0.91 r13725"
   sodipodi:docname="calendar-01_black.svg"><sodipodi:namedview
     pagecolor="#ffffff"
     bordercolor="#666666"
     borderopacity="1"
     objecttolerance="10"
     gridtolerance="10"
     guidetolerance="10"
     inkscape:pageopacity="0"
     inkscape:pageshadow="2"
     inkscape:window-width="1920"
     inkscape:window-height="1017"
     id="namedview3358"
     showgrid="false"
     inkscape:zoom="3.6467092"
     inkscape:cx="-43.19952"
     inkscape:cy="50.956576"
     inkscape:window-x="-8"
     inkscape:window-y="-8"
     inkscape:window-maximized="1"
     inkscape:current-layer="svg2"
     fit-margin-top="0"
     fit-margin-left="0"
     fit-margin-right="0"
     fit-margin-bottom="0" /><metadata
     id="metadata8"><rdf:RDF><cc:Work
         rdf:about=""><dc:format>image/svg+xml</dc:format><dc:type
           rdf:resource="http://purl.org/dc/dcmitype/StillImage" /><dc:title /></cc:Work></rdf:RDF></metadata><defs
     id="defs6"><linearGradient
       id="linearGradient4172"
       osb:paint="solid"><stop
         style="stop-color:#000000;stop-opacity:1;"
         offset="0"
         id="stop4174" /></linearGradient><clipPath
       id="clipPath16"
       clipPathUnits="userSpaceOnUse"><path
         id="path18"
         d="m 0,51.18 43.103,0 L 43.103,0 0,0 0,51.18 Z"
         inkscape:connector-curvature="0" /></clipPath><clipPath
       id="clipPath40"
       clipPathUnits="userSpaceOnUse"><path
         id="path42"
         d="m 0,51.18 43.103,0 L 43.103,0 0,0 0,51.18 Z"
         inkscape:connector-curvature="0" /></clipPath></defs><g
     transform="matrix(0.69600724,0,0,-0.68386088,0,35)"
     id="g10"
     style="fill:#000000"><g
       id="g12"
       style="fill:#000000"><g
         clip-path="url(#clipPath16)"
         id="g14"
         style="fill:#000000"><g
           transform="translate(37.5417,47.2747)"
           id="g20"
           style="fill:#000000"><path
             id="path22"
             style="fill:#000000;fill-opacity:1;fill-rule:nonzero;stroke:none"
             d="m 0,0 -31.98,0 c -3.072,0 -5.562,-2.49 -5.562,-5.562 l 0,-36.151 c 0,-3.072 2.49,-5.562 5.562,-5.562 l 31.98,0 c 3.072,0 5.562,2.49 5.562,5.562 l 0,36.151 C 5.562,-2.49 3.072,0 0,0 m 0,-3 c 1.413,0 2.562,-1.149 2.562,-2.562 l 0,-36.151 c 0,-1.412 -1.149,-2.562 -2.562,-2.562 l -31.98,0 c -1.413,0 -2.562,1.15 -2.562,2.562 l 0,36.151 c 0,1.413 1.149,2.562 2.562,2.562 L 0,-3"
             inkscape:connector-curvature="0" /></g><g
           transform="translate(11.6913,51.1802)"
           id="g24"
           style="fill:#000000"><path
             id="path26"
             style="fill:#000000;fill-opacity:1;fill-rule:nonzero;stroke:none"
             d="m 0,0 c -1.152,0 -2.086,-0.934 -2.086,-2.086 l 0,-6.952 c 0,-1.152 0.934,-2.086 2.086,-2.086 1.152,0 2.086,0.934 2.086,2.086 l 0,6.952 C 2.086,-0.934 1.152,0 0,0"
             inkscape:connector-curvature="0" /></g><g
           transform="translate(31.4121,51.1802)"
           id="g28"
           style="fill:#000000"><path
             id="path30"
             style="fill:#000000;fill-opacity:1;fill-rule:nonzero;stroke:none"
             d="m 0,0 c -1.152,0 -2.086,-0.934 -2.086,-2.086 l 0,-6.952 c 0,-1.152 0.934,-2.086 2.086,-2.086 1.152,0 2.086,0.934 2.086,2.086 l 0,6.952 C 2.086,-0.934 1.152,0 0,0"
             inkscape:connector-curvature="0" /></g></g></g><g
       transform="matrix(1,0,0,-1,14.623,10.5742)"
       style="font-variant:normal;font-weight:bold;font-stretch:normal;font-size:25.44910049px;font-family:'Roboto Slab';-inkscape-font-specification:RobotoSlab-Bold;writing-mode:lr-tb;fill:#000000;fill-opacity:1;fill-rule:nonzero;stroke:none"
       id="text32"><path
         d="m 12.749403,-13.296161 q 0,1.354469 -0.720727,2.39828 -0.720726,1.0438103 -1.975784,1.6278473 1.441453,0.6088896 2.274016,1.7396846 0.832563,1.130795 0.832563,2.5846743 0,2.5101164 -1.702405,3.8645851 -1.7024059,1.34204239 -4.4486223,1.34204239 -2.7586427,0 -4.4734747,-1.34204239 -1.70240565,-1.3544687 -1.70240565,-3.8645851 0,-1.4663056 0.82013705,-2.5846743 0.8325633,-1.130795 2.2740163,-1.7396846 -1.2674845,-0.584037 -1.9757847,-1.6278473 -0.7083001,-1.043811 -0.7083001,-2.39828 0,-2.410706 1.5781424,-3.727895 1.5781425,-1.329617 4.1628168,-1.329617 2.5846742,0 4.1752429,1.329617 1.590569,1.317189 1.590569,3.727895 z m -3.2059903,8.1019598 q 0,-1.2177792 -0.7207265,-1.950932 Q 8.114386,-7.878286 6.9835911,-7.878286 q -1.130795,0 -1.8266689,0.7331528 -0.6958738,0.7331528 -0.6958738,1.950932 0,1.2426319 0.6958738,1.9633584 0.6958739,0.7083001 1.8515215,0.7083001 1.130795,0 1.8266688,-0.7207265 0.7083002,-0.7207264 0.7083002,-1.950932 z M 9.1209179,-13.134619 q 0,-1.093516 -0.584037,-1.752111 -0.5716107,-0.671021 -1.5532898,-0.671021 -0.9941055,0 -1.5532899,0.658595 -0.546758,0.646169 -0.546758,1.764537 0,1.130795 0.5591843,1.801816 0.5591844,0.658595 1.5657162,0.658595 0.9816792,0 1.5408635,-0.658595 0.5716107,-0.671021 0.5716107,-1.801816 z"
         style="fill:#000000"
         id="path4155" /></g><g
       id="g36"
       style="fill:#000000"><g
         clip-path="url(#clipPath40)"
         id="g38"
         style="fill:#000000"><g
           transform="translate(1.4359,35.207)"
           id="g44"
           style="fill:#000000"><path
             id="path46"
             style="fill:#000000;stroke:#ffffff;stroke-width:3;stroke-linecap:butt;stroke-linejoin:miter;stroke-miterlimit:10;stroke-dasharray:none;stroke-opacity:1"
             d="M 0,0 40,0"
             inkscape:connector-curvature="0" /></g></g></g></g><path
     style="fill:#000000;fill-opacity:1;stroke:none;stroke-width:0.85990173"
     d="m 0.82195869,9.8591598 c 9.77325931,0 19.54651631,0 29.31977531,0 0,0.7035402 0,1.4070802 0,2.1106202 -9.773259,0 -19.546516,0 -29.31977531,0 0,-0.70354 0,-1.40708 0,-2.1106202 z"
     id="rect3369"
     inkscape:connector-curvature="0" /></svg>