<svg id="Layer_1" data-name="Layer 1" xmlns="http://www.w3.org/2000/svg" viewBox="0 0 38.4 25.6"><defs><style>.cls-1{fill:#b8b8b8;}</style></defs><title>eye</title><path class="cls-1" d="M297.2,407.89c-10.36,0-19.2,12.8-19.2,12.8s8.84,12.8,19.2,12.8,19.2-12.8,19.2-12.8-8.84-12.8-19.2-12.8h0Zm0,22.4c-6,0-12.11-5.86-15.2-9.6,3.08-3.74,9.2-9.6,15.2-9.6s12.11,5.86,15.2,9.6c-3.08,3.74-9.2,9.6-15.2,9.6h0Zm0-16a6.4,6.4,0,1,0,6.4,6.4,6.4,6.4,0,0,0-6.4-6.4h0Zm0,9.6a3.2,3.2,0,1,1,3.2-3.2,3,3,0,0,1-3.2,3.2h0Zm0,0" transform="translate(-278 -407.89)"/></svg>