<svg version="1.1" xmlns="http://www.w3.org/2000/svg" xmlns:xlink="http://www.w3.org/1999/xlink" x="0px" y="0px" viewBox="4 22 62 62" enable-background="new 4 22 62 62" xml:space="preserve"> <path id="f" fill="#FFFFFF" stroke="#000000" stroke-width="2" stroke-miterlimit="10" d="M62.1,23H8.8C6.9,23,5,24.3,5,26.2v53.3 C5,81.3,6.9,83,8.8,83H36V60h-7v-9h7v-7.1c0-7.7,5.4-12,12.3-12c3.3,0,5.7,0.2,7.7,0.4v8.1l-5.7,0c-3.8,0-5.3,1.8-5.3,4.4V51h10.8 l-1.2,9H45v23h17.1c1.8,0,2.9-1.7,2.9-3.5V26.2C65,24.3,63.9,23,62.1,23z"/></svg>
