<?xml version="1.0" encoding="UTF-8" standalone="no"?>
<svg
   xmlns:rdf="http://www.w3.org/1999/02/22-rdf-syntax-ns#"
   xmlns:svg="http://www.w3.org/2000/svg"
   xmlns="http://www.w3.org/2000/svg"
   version="1.1"
   x="0px"
   y="0px"
   viewBox="0 0 31.2 27.4"
   enable-background="new 0 0 31.2 27.4"><path
     fill="#000000"
     d="m 11.599609,9.6503906 0,1.5000004 4,0 4,0 0,-1.5000004 -4,0 z m 0,-2.8007812 0,1.5 4,0 4,0 0,-1.5 -4,0 z m 0,-2.9003906 0,1.5 4,0 4,0 0,-1.5 -4,0 z m -4.2499996,-3.89843755 0,12.84960975 1.5,0 0,-11.3496098 6.7499996,0 6.75,0 0,11.3496098 1.5,0 0,-12.84960975 -8.25,0 z M 15.091797,13.75 C 10.59646,13.7517 7.0617435,15.099391 4.5917969,16.568359 3.3560369,17.303311 2.3844703,18.068412 1.6816406,18.716797 0.97881098,19.365182 0.57240728,19.824745 0.34375,20.236328 l -0.21892118,1.123543 0.0236087,-0.01026 c -0.29735839,1.41503 -0.16858796,2.829031 -0.09179688,3.44336 l 0.0039063,0.03906 0.0078125,0.03711 c 0.19958279,0.864858 0.76545767,1.46669 1.32812508,1.826171 0.5626673,0.359482 1.1389759,0.522409 1.4980468,0.625 l 0.2675782,0.0918 c 0.3496708,0.116557 0.6084509,0.06422 0.8730467,0.0078 0.264596,-0.05641 0.5335582,-0.147112 0.8203126,-0.259766 0.5735087,-0.225307 1.2097957,-0.541129 1.8261718,-0.875 0.6163762,-0.33387 1.2086416,-0.685088 1.6718751,-0.974609 0.2316167,-0.144761 0.430514,-0.273403 0.5878906,-0.380859 0.1573767,-0.107457 0.2333208,-0.143477 0.3886719,-0.298829 l 0.052734,-0.05273 0.251953,-0.376953 0.00781,-0.01563 c 0.4806598,-0.8011 0.4084878,-1.68336 0.4082028,-3.376953 1.666057,-0.552665 4.251814,-0.859375 5.648438,-0.859375 1.50625,0 3.782578,0.307627 5.238281,0.853515 l 0.01172,0.0039 c 1.14e-4,0.95944 0.02388,1.679493 0.109375,2.263671 0.08571,0.585687 0.234551,1.084161 0.611328,1.460938 0.155351,0.155351 0.231295,0.191372 0.388672,0.298828 0.157376,0.107456 0.356274,0.236099 0.58789,0.38086 0.463234,0.28952 1.055499,0.638785 1.671875,0.972656 0.616376,0.33387 1.252663,0.651646 1.826172,0.876953 0.286755,0.112653 0.555717,0.203359 0.820313,0.259765 0.264596,0.05641 0.523376,0.106792 0.873047,-0.0098 l 0.298828,-0.09961 c 0.576283,-0.192095 1.843528,-0.49565 2.433593,-1.675782 0.100001,-0.2 0.279297,-0.485547 0.279297,-0.935547 0.109417,-0.782135 0.320463,-2.560098 -0.238281,-4.236328 l -0.01172,-0.03516 -0.01367,-0.0332 C 30.45717,20.005194 30.295953,19.827895 30.058594,19.568359 29.821235,19.308824 29.511935,19.011434 29.128906,18.683594 28.362848,18.027914 27.303527,17.257453 25.976562,16.519531 23.324294,15.044611 19.599972,13.700007 15.099609,13.75 l -0.0078,0 z m 0.0078,1.5 0.0039,0 0.0059,0 c 4.195849,-0.04823 7.6676,1.205921 10.138672,2.580078 1.235536,0.687079 2.219183,1.404118 2.90625,1.992188 0.343533,0.294035 0.613921,0.557582 0.798828,0.759765 0.171319,0.187326 0.250783,0.325883 0.242187,0.298828 0.407652,1.2682 0.255467,2.95978 0.16211,3.613282 l -0.0078,0.05273 0,0.05273 c 0,-0.05 -0.02109,0.06563 -0.121093,0.265625 -0.209935,0.419869 -0.94269,0.715923 -1.566407,0.923828 l -0.298828,0.09961 c 0.124671,-0.04156 0.05259,-0.0056 -0.08594,-0.03516 -0.138529,-0.02953 -0.345739,-0.09586 -0.583985,-0.189454 -0.476491,-0.187192 -1.078485,-0.482698 -1.662109,-0.798828 -0.583624,-0.316129 -1.153077,-0.652802 -1.589844,-0.925781 -0.218383,-0.136489 -0.403861,-0.258628 -0.537109,-0.349609 -0.133248,-0.09098 -0.254179,-0.201445 -0.173828,-0.121094 -0.02322,-0.02322 -0.12321,-0.175921 -0.1875,-0.615234 -0.06429,-0.439314 -0.09375,-1.115893 -0.09375,-2.052735 0,-0.629979 -0.377866,-1.192934 -1.003907,-1.40625 -1.742522,-0.649977 -4.057444,-0.945312 -5.746093,-0.945312 -1.6,0 -4.202322,0.294654 -6.136719,0.939453 -0.6320392,0.21068 -1.0117188,0.778776 -1.0117188,1.412109 0,1.697473 -0.075252,2.41077 -0.1933593,2.609375 L 8.2363281,23.59375 c 0.00814,-0.01202 -0.032939,0.02413 -0.140625,0.09766 -0.1332483,0.09098 -0.3187261,0.211167 -0.5371093,0.347656 -0.4367666,0.27298 -1.0062199,0.609652 -1.5898438,0.925782 -0.5836239,0.316129 -1.1856182,0.611635 -1.6621094,0.798828 -0.2382456,0.0936 -0.4454553,0.159922 -0.5839844,0.189453 -0.138529,0.02953 -0.2106083,-0.0064 -0.085937,0.03516 L 3.322266,25.88282 3.306641,25.87892 C 2.9657116,25.781498 2.5404577,25.645206 2.203125,25.429688 1.8700211,25.216871 1.6415539,24.968057 1.5390625,24.542969 1.431319,23.68336 1.2257154,22.078148 1.6894531,20.996094 l 0.054687,-0.126953 C 1.8200199,20.761608 2.123482,20.349497 2.6992188,19.818359 3.3276391,19.238619 4.2181819,18.53497 5.3574219,17.857422 7.6359018,16.502326 10.899035,15.25 15.099609,15.25 Z M 0.31054688,20.404297 c -0.0312053,0.07281 -0.009864,0.145166 -0.0371094,0.21875 l -0.005859,-0.0059 0.0429688,-0.212891 z" /></svg>
