<?xml version="1.0" encoding="UTF-8" standalone="no"?>
<!-- Created with Inkscape (http://www.inkscape.org/) -->

<svg
   xmlns:dc="http://purl.org/dc/elements/1.1/"
   xmlns:cc="http://creativecommons.org/ns#"
   xmlns:rdf="http://www.w3.org/1999/02/22-rdf-syntax-ns#"
   xmlns:svg="http://www.w3.org/2000/svg"
   xmlns="http://www.w3.org/2000/svg"
   xmlns:sodipodi="http://sodipodi.sourceforge.net/DTD/sodipodi-0.dtd"
   xmlns:inkscape="http://www.inkscape.org/namespaces/inkscape"
   id="svg2"
   version="1.1"
   inkscape:version="0.91 r13725"
   xml:space="preserve"
   width="30"
   height="24"
   viewBox="0 0 30 24"
   sodipodi:docname="folder.svg"><metadata
     id="metadata8"><rdf:RDF><cc:Work
         rdf:about=""><dc:format>image/svg+xml</dc:format><dc:type
           rdf:resource="http://purl.org/dc/dcmitype/StillImage" /><dc:title></dc:title></cc:Work></rdf:RDF></metadata><defs
     id="defs6"><clipPath
       clipPathUnits="userSpaceOnUse"
       id="clipPath16"><path
         d="m 0,4.27 4.936,0 L 4.936,0 0,0 0,4.27 Z"
         id="path18"
         inkscape:connector-curvature="0" /></clipPath></defs><sodipodi:namedview
     pagecolor="#ffffff"
     bordercolor="#666666"
     borderopacity="1"
     objecttolerance="10"
     gridtolerance="10"
     guidetolerance="10"
     inkscape:pageopacity="0"
     inkscape:pageshadow="2"
     inkscape:window-width="1366"
     inkscape:window-height="705"
     id="namedview4"
     showgrid="false"
     fit-margin-top="0"
     fit-margin-left="0"
     fit-margin-right="0"
     fit-margin-bottom="0"
     inkscape:zoom="7.8162803"
     inkscape:cx="-14.403501"
     inkscape:cy="3.3991461"
     inkscape:window-x="-8"
     inkscape:window-y="-8"
     inkscape:window-maximized="1"
     inkscape:current-layer="g10" /><g
     id="g10"
     inkscape:groupmode="layer"
     inkscape:label="folder"
     transform="matrix(1.25,0,0,-1.25,-2.7301735e-4,24.00025)"><g
       id="g12"
       style="fill:#464646;fill-opacity:1"
       transform="matrix(4.8627473,0,0,4.4966977,-8.4367766e-4,-6.9933956e-4)"><g
         id="g14"
         clip-path="url(#clipPath16)"
         style="fill:#464646;fill-opacity:1"><g
           id="g20"
           transform="translate(4.5317,2.4532)"
           style="fill:#464646;fill-opacity:1"><path
             d="m 0,0 0,0 -0.114,0 -0.005,0 -0.005,0 -3.885,0 -0.005,0 -0.113,0 0.256,-2.05 3.615,0 L 0,0 Z m -3.819,0.38 0,0 3.51,0 0,0.279 -1.556,0 0,0.001 c -0.051,0 -0.102,0.02 -0.139,0.06 l -0.665,0.717 -1.15,0 0,-1.057 z m -0.523,0 0.143,0 0,1.247 c 0,0.104 0.085,0.19 0.19,0.19 l 0.005,0 1.417,0 c 0.059,0 0.112,-0.027 0.147,-0.069 l 0.657,-0.709 1.664,0 c 0.105,0 0.19,-0.085 0.19,-0.19 l 0,-0.005 0,-0.464 0.144,0 C 0.319,0.38 0.404,0.295 0.404,0.19 0.404,0.18 0.403,0.169 0.402,0.16 L 0.099,-2.263 C 0.092,-2.321 0.059,-2.37 0.013,-2.4 -0.021,-2.433 -0.067,-2.453 -0.119,-2.453 l -0.005,0 -3.885,0 c -0.051,0 -0.097,0.02 -0.131,0.053 -0.049,0.03 -0.082,0.083 -0.087,0.143 L -4.53,0.167 c -0.013,0.104 0.061,0.199 0.165,0.211 l 0.023,0.002 z"
             style="fill:#464646;fill-opacity:1;fill-rule:nonzero;stroke:none"
             id="path22"
             inkscape:connector-curvature="0" /></g></g></g></g></svg>