<?xml version="1.0" encoding="utf-8"?>
<!-- Generator: Adobe Illustrator 16.0.0, SVG Export Plug-In . SVG Version: 6.00 Build 0)  -->
<!DOCTYPE svg PUBLIC "-//W3C//DTD SVG 1.1//EN" "http://www.w3.org/Graphics/SVG/1.1/DTD/svg11.dtd">
<svg version="1.1" id="Layer_1" xmlns="http://www.w3.org/2000/svg" xmlns:xlink="http://www.w3.org/1999/xlink" x="0px" y="0px"
	 width="86.007px" height="90.36px" viewBox="0 0 86.007 90.36" enable-background="new 0 0 86.007 90.36" xml:space="preserve">
<g>
	<defs>
		<rect id="SVGID_1_" width="86.007" height="90.36"/>
	</defs>
	<clipPath id="SVGID_2_">
		<use xlink:href="#SVGID_1_"  overflow="visible"/>
	</clipPath>
	<g clip-path="url(#SVGID_2_)">
		<defs>
			<rect id="SVGID_3_" y="0" width="86.006" height="90.36"/>
		</defs>
		<clipPath id="SVGID_4_">
			<use xlink:href="#SVGID_3_"  overflow="visible"/>
		</clipPath>
		<g clip-path="url(#SVGID_4_)">
			<g>
				<defs>
					<rect id="SVGID_5_" width="86.007" height="79.543"/>
				</defs>
				<clipPath id="SVGID_6_">
					<use xlink:href="#SVGID_5_"  overflow="visible"/>
				</clipPath>
				<path clip-path="url(#SVGID_6_)" fill="#FFFFFF" d="M77.907,79.544L56.688,62.498H18.804C8.435,62.498,0,54.063,0,43.695V18.8
					C0,8.434,8.435,0,18.804,0h48.398c10.369,0,18.804,8.434,18.804,18.8v24.895c0,7.841-4.811,14.773-12.071,17.556L77.907,79.544z
					 M18.804,2.23C9.665,2.23,2.23,9.664,2.23,18.8v24.895c0,9.139,7.435,16.573,16.574,16.573h38.669l16.917,13.591l-3.06-14.08
					l0.961-0.312c6.869-2.224,11.484-8.562,11.484-15.772V18.8c0-9.136-7.436-16.57-16.574-16.57H18.804z"/>
			</g>
		</g>
		<path clip-path="url(#SVGID_4_)" fill="#FFFFFF" d="M55.88,37.223H31.394c-1.238,0-2.246-1.008-2.246-2.245V19.55
			c0-1.238,1.008-2.242,2.246-2.242H55.88c1.238,0,2.247,1.004,2.247,2.242v15.428C58.127,36.215,57.118,37.223,55.88,37.223
			 M31.394,18.861c-0.382,0-0.692,0.311-0.692,0.689v15.428c0,0.38,0.31,0.691,0.692,0.691H55.88c0.379,0,0.692-0.311,0.692-0.691
			V19.55c0-0.378-0.313-0.689-0.692-0.689H31.394z"/>
		<path clip-path="url(#SVGID_4_)" fill="#FFFFFF" d="M59.802,47.49v-0.77h-0.023c-0.008-0.024-0.014-0.049-0.022-0.078l-1.47-7.648
			c-0.135-0.381-0.579-0.692-0.979-0.692l-27.539,0.045c-0.406,0-0.824,0.318-0.932,0.705l-1.495,7.48
			c-0.018,0.063-0.026,0.127-0.026,0.188h-0.009v0.803c0,0.013-0.004,0.024-0.004,0.035v0.051c0,0.009,0.004,0.021,0.004,0.034
			v0.111h0.009c0.072,0.337,0.37,0.587,0.721,0.587h31.038c0.353,0,0.649-0.25,0.719-0.587h0.009v-0.08
			c0-0.021,0.006-0.044,0.006-0.065v-0.051C59.808,47.536,59.802,47.511,59.802,47.49 M40.188,43.407
			c0.032-0.158,0.19-0.288,0.352-0.288l6.37-0.012c0.161,0,0.327,0.13,0.371,0.285l0.296,1.082c0.041,0.155-0.123,0.326-0.283,0.329
			l-7.086-0.02c-0.163,0-0.269-0.13-0.237-0.286L40.188,43.407z M57.94,46.926H29.324c-0.284,0-0.516-0.229-0.516-0.517
			c0-0.285,0.232-0.517,0.516-0.517H57.94c0.288,0,0.521,0.231,0.521,0.517C58.461,46.696,58.229,46.926,57.94,46.926"/>
		<path clip-path="url(#SVGID_4_)" fill="#FFFFFF" d="M61.145,15.72c0,0.741-0.6,1.341-1.343,1.341c-0.741,0-1.341-0.6-1.341-1.341
			c0-0.744,0.6-1.343,1.341-1.343C60.545,14.376,61.145,14.976,61.145,15.72"/>
		<path clip-path="url(#SVGID_4_)" fill="#FFFFFF" d="M65.025,17.059h-1.802c0-3.253-2.549-4.407-4.734-4.407v-1.804
			C61.742,10.848,65.025,12.767,65.025,17.059"/>
		<path clip-path="url(#SVGID_4_)" fill="#FFFFFF" d="M66.619,17.091c0-5.086-4.313-7.707-8.158-7.707V7.582
			c4.59,0,9.968,3.224,9.968,9.521L66.619,17.091z"/>
		<path clip-path="url(#SVGID_4_)" fill="#FFFFFF" d="M11.452,85.158c0.914-0.273,1.615-1.032,1.615-2.142
			c0-1.187-0.954-2.413-2.958-2.413H3.725v9.4h6.559c2.005,0,2.997-1.188,2.997-2.569C13.281,86.286,12.523,85.372,11.452,85.158
			 M6.722,82.92h2.687c0.388,0,0.641,0.233,0.641,0.584c0,0.33-0.253,0.583-0.641,0.583H6.722V82.92z M9.525,87.688H6.722v-1.304
			h2.803c0.448,0,0.74,0.292,0.74,0.662C10.265,87.435,9.953,87.688,9.525,87.688"/>
		<polygon clip-path="url(#SVGID_4_)" fill="#FFFFFF" points="22.939,84.377 19.878,80.615 19.838,80.568 17.497,80.568 
			17.497,90.133 20.134,90.133 20.134,84.68 22.738,87.873 22.777,87.92 22.963,87.92 25.521,84.688 25.521,90.133 28.159,90.133 
			28.159,80.568 25.877,80.568 		"/>
		<path clip-path="url(#SVGID_4_)" fill="#FFFFFF" d="M37.095,80.34c-2.975,0-5.053,2.06-5.053,5.011c0,2.996,2.064,5.01,5.136,5.01
			c1.419,0,2.746-0.433,3.641-1.188l0.072-0.062l-0.785-1.923l-0.136,0.109c-0.49,0.396-1.416,0.819-2.544,0.819
			c-1.421,0-2.396-0.712-2.639-1.913h6.665l0.028-0.092c0.108-0.367,0.15-0.736,0.15-1.319C41.63,82.254,39.68,80.34,37.095,80.34
			 M36.991,82.583c0.624,0,1.145,0.194,1.504,0.562c0.303,0.308,0.477,0.733,0.495,1.208h-4.277
			C35.001,83.194,35.786,82.583,36.991,82.583"/>
		<path clip-path="url(#SVGID_4_)" fill="#FFFFFF" d="M52.392,86.794c-0.659,0.727-1.434,1.095-2.304,1.095
			c-1.24,0-2.559-0.89-2.559-2.539c0-1.635,1.265-2.518,2.455-2.518c0.904,0,1.612,0.278,2.227,0.874l0.117,0.114l1.253-2.109
			l-0.071-0.072c-0.851-0.85-2.177-1.3-3.835-1.3c-2.822,0-4.949,2.154-4.949,5.011c0,2.997,2.08,5.011,5.176,5.011
			c1.607,0,3.03-0.621,3.807-1.665l0.054-0.072l-1.257-1.954L52.392,86.794z"/>
		<polygon clip-path="url(#SVGID_4_)" fill="#FFFFFF" points="56.292,83.204 59.353,83.204 59.353,90.133 61.991,90.133 
			61.991,83.204 65.031,83.204 65.031,80.568 56.292,80.568 		"/>
		<path clip-path="url(#SVGID_4_)" fill="#FFFFFF" d="M72.725,80.34c-2.975,0-5.053,2.06-5.053,5.011c0,2.996,2.063,5.01,5.135,5.01
			c1.42,0,2.747-0.433,3.642-1.188l0.072-0.062l-0.785-1.923L75.6,87.297c-0.49,0.396-1.415,0.819-2.544,0.819
			c-1.421,0-2.396-0.712-2.639-1.913h6.665l0.027-0.092c0.108-0.367,0.15-0.736,0.15-1.319C77.26,82.254,75.31,80.34,72.725,80.34
			 M72.62,82.583c0.624,0,1.146,0.194,1.505,0.562c0.303,0.308,0.477,0.733,0.495,1.208h-4.277
			C70.632,83.194,71.417,82.583,72.62,82.583"/>
		<rect x="81.617" y="75.397" clip-path="url(#SVGID_4_)" fill="#FFFFFF" width="2.782" height="9.729"/>
		<path clip-path="url(#SVGID_4_)" fill="#FFFFFF" d="M83.07,86.793c-1.102,0-1.784,0.861-1.784,1.66
			c0,0.865,0.625,1.783,1.784,1.783c1.013,0,1.64-0.926,1.64-1.783C84.71,87.668,84.036,86.793,83.07,86.793"/>
	</g>
</g>
</svg>
