<?xml version="1.0" encoding="utf-8"?>
<!-- Generator: Adobe Illustrator 16.0.0, SVG Export Plug-In . SVG Version: 6.00 Build 0)  -->
<!DOCTYPE svg PUBLIC "-//W3C//DTD SVG 1.0//EN" "http://www.w3.org/TR/2001/REC-SVG-20010904/DTD/svg10.dtd">
<svg version="1.0" id="Слой_1" xmlns="http://www.w3.org/2000/svg" xmlns:xlink="http://www.w3.org/1999/xlink" x="0px" y="0px"
	 width="29.341px" height="27.05px" viewBox="0 0 29.341 27.05" enable-background="new 0 0 29.341 27.05" xml:space="preserve">
<path fill="#262626" d="M14.67,2c0.051,0,0.088,0.017,0.104,0.03l3.926,3.397l2.257,1.902l0.971-2.779l2.061,0.03v4.248v0.045
	l0.003,0.045c0.028,0.624,0.363,1.359,0.815,1.787l0.033,0.031l0.033,0.029l1.562,1.352h-0.446h-2v2v0.22L23.958,25.05L5.353,25.019
	V14.118v-2h-2H2.906l11.66-10.087C14.583,2.017,14.62,2,14.67,2 M14.67,0c-0.524,0-1.025,0.185-1.412,0.518L0.625,11.446
	c-0.83,0.718-0.624,1.5-0.541,1.722c0.083,0.224,0.439,0.95,1.537,0.95h1.731v10.901c0,1.121,0.91,2.031,2.03,2.031h18.574
	c1.12,0,2.031-0.91,2.031-2.031V14.338v-0.22h1.731c1.099,0,1.454-0.727,1.537-0.95c0.083-0.222,0.288-1.005-0.542-1.723
	l-2.533-2.191c-0.076-0.072-0.188-0.316-0.193-0.425V4.581c0-1.12-0.911-2.03-2.031-2.03h-2.029c-0.887,0-1.643,0.57-1.919,1.363
	l-3.927-3.396C15.697,0.185,15.196,0,14.67,0"/>
</svg>
