<svg version="1" xmlns="http://www.w3.org/2000/svg" width="34.507" height="34.507" viewBox="0 0 34.507 34.507"><path fill="#fff" d="M27.946 21.887c-2.113 0-3.976 1.088-5.06 2.73l-10.63-5.314c.23-.64.364-1.328.364-2.05s-.133-1.407-.364-2.05l10.63-5.314c1.085 1.64 2.946 2.73 5.06 2.73 3.342 0 6.06-2.72 6.06-6.06 0-3.35-2.718-6.06-6.06-6.06s-6.062 2.71-6.062 6.06c0 .72.133 1.4.365 2.05l-10.63 5.31c-1.09-1.65-2.95-2.74-5.06-2.74-3.35 0-6.07 2.72-6.07 6.06 0 3.34 2.72 6.06 6.06 6.06 2.11 0 3.97-1.09 5.06-2.73l10.63 5.31c-.23.64-.37 1.33-.37 2.05 0 3.34 2.72 6.06 6.06 6.06S34 31.28 34 27.94s-2.72-6.06-6.06-6.06m0-19.96c2.552 0 4.63 2.08 4.63 4.636s-2.078 4.63-4.63 4.63c-2.557 0-4.635-2.08-4.635-4.634s2.08-4.63 4.632-4.63M6.56 21.886c-2.556 0-4.634-2.08-4.634-4.634 0-2.555 2.078-4.633 4.634-4.633 2.554 0 4.632 2.08 4.632 4.63s-2.08 4.63-4.632 4.63m21.384 10.69c-2.555 0-4.633-2.08-4.633-4.63 0-2.56 2.08-4.64 4.64-4.64 2.56 0 4.63 2.08 4.63 4.63s-2.08 4.63-4.63 4.63m0 1.92c-3.62 0-6.56-2.94-6.56-6.56 0-.61.09-1.21.26-1.8l-9.86-4.93c-1.24 1.63-3.16 2.59-5.21 2.59-3.62 0-6.56-2.95-6.56-6.56s2.94-6.56 6.56-6.56c2.06 0 3.98.96 5.22 2.59l9.86-4.93c-.17-.59-.26-1.19-.26-1.8 0-3.61 2.94-6.55 6.56-6.55 3.62 0 6.56 2.94 6.56 6.56s-2.94 6.56-6.56 6.56c-2.06 0-3.98-.96-5.22-2.6l-9.86 4.93c.17.59.26 1.19.26 1.794s-.08 1.206-.25 1.797l9.86 4.93c1.24-1.63 3.16-2.593 5.22-2.593 3.61 0 6.56 2.942 6.56 6.56 0 3.614-2.95 6.557-6.56 6.557M11.47 19.9l11.42 5.717-.15.42c-.22.614-.34 1.247-.34 1.88 0 3.064 2.496 5.56 5.56 5.56 3.068 0 5.56-2.495 5.56-5.56 0-3.07-2.49-5.564-5.56-5.564-1.87 0-3.603.94-4.64 2.51l-.243.37-11.424-5.71.15-.414c.22-.62.337-1.25.337-1.88 0-.64-.11-1.27-.334-1.88l-.156-.42 11.425-5.71.244.37c1.04 1.57 2.77 2.5 4.64 2.5 3.06 0 5.56-2.5 5.56-5.56S31.01 1 27.95 1c-3.07 0-5.565 2.494-5.565 5.56 0 .634.113 1.266.335 1.88l.15.418-11.43 5.712-.25-.37c-1.037-1.57-2.77-2.507-4.64-2.507-3.068 0-5.56 2.495-5.56 5.56s2.492 5.562 5.56 5.562c1.87 0 3.603-.938 4.64-2.508l.243-.37zm16.5 13.14c-2.83 0-5.14-2.3-5.14-5.13s2.3-5.13 5.13-5.13 5.13 2.3 5.13 5.13-2.3 5.135-5.13 5.135m0-9.263c-2.28 0-4.132 1.85-4.132 4.13s1.853 4.13 4.13 4.13c2.278 0 4.13-1.86 4.13-4.137 0-2.273-1.85-4.13-4.13-4.13M6.56 22.38c-2.83 0-5.13-2.3-5.13-5.13s2.3-5.133 5.13-5.133 5.132 2.306 5.132 5.136-2.302 5.132-5.132 5.132m0-9.265c-2.27 0-4.13 1.858-4.13 4.137s1.86 4.13 4.13 4.13c2.28 0 4.14-1.853 4.14-4.132S8.84 13.12 6.56 13.12m21.386-1.427c-2.83 0-5.133-2.303-5.133-5.133s2.303-5.132 5.133-5.132 5.132 2.302 5.132 5.132-2.303 5.133-5.132 5.133m0-9.264c-2.28 0-4.133 1.85-4.133 4.13s1.854 4.13 4.133 4.13c2.278 0 4.132-1.86 4.132-4.14 0-2.28-1.853-4.13-4.132-4.13"/></svg>