<?xml version="1.0" encoding="utf-8"?>
<!-- Generator: Adobe Illustrator 16.0.0, SVG Export Plug-In . SVG Version: 6.00 Build 0)  -->
<!DOCTYPE svg PUBLIC "-//W3C//DTD SVG 1.1//EN" "http://www.w3.org/Graphics/SVG/1.1/DTD/svg11.dtd">
<svg version="1.1" id="Layer_1" xmlns="http://www.w3.org/2000/svg" xmlns:xlink="http://www.w3.org/1999/xlink" x="0px" y="0px"
	 width="24.798px" height="24.801px" viewBox="0 0 24.798 24.801" enable-background="new 0 0 24.798 24.801" xml:space="preserve">
<g>
	<defs>
		<rect id="SVGID_1_" width="24.798" height="24.801"/>
	</defs>
	<clipPath id="SVGID_2_">
		<use xlink:href="#SVGID_1_"  overflow="visible"/>
	</clipPath>
	<path clip-path="url(#SVGID_2_)" fill="#B2AEAE" d="M24.789,2.582C24.637,1.105,23.414,0,21.926,0C15.578,0,9.23,0,2.879,0.004
		c-0.172,0-0.348,0.011-0.516,0.043C0.957,0.316,0,1.48,0,2.91v9.496v9.473c0,0.16,0.012,0.324,0.035,0.483
		c0.184,1.371,1.403,2.438,2.789,2.438h19.152c0.109,0,0.219-0.008,0.328-0.02c1.402-0.164,2.492-1.392,2.492-2.802V2.828
		C24.797,2.746,24.801,2.664,24.789,2.582 M12.398,7.633c2.637,0,4.77,2.128,4.773,4.765c0,2.637-2.129,4.77-4.766,4.774
		c-2.64,0-4.777-2.137-4.773-4.778C7.637,9.769,9.77,7.633,12.398,7.633 M21.941,10.625v10.276c0,0.646-0.391,1.039-1.035,1.039
		H5.012c-0.383,0-0.762,0.004-1.145,0c-0.597,0-1.004-0.405-1.004-1.004V10.613v-0.109h2.153c-0.481,1.941-0.262,3.8,0.691,5.558
		c0.695,1.285,1.691,2.281,2.961,3c2.512,1.418,5.637,1.281,8.027-0.351c1.324-0.907,2.277-2.114,2.848-3.618
		c0.566-1.5,0.637-3.031,0.242-4.593h2.156V10.625z M21.941,6.656c0,0.566-0.414,0.977-0.98,0.977h-1.406h-1.414
		c-0.543,0-0.965-0.407-0.969-0.95c-0.004-0.957-0.004-1.91,0-2.867c0.004-0.547,0.426-0.949,0.977-0.953h2.82
		c0.559,0.004,0.973,0.414,0.973,0.977C21.945,4.777,21.945,5.718,21.941,6.656"/>
</g>
</svg>
