<?xml version="1.0" encoding="UTF-8" standalone="no"?>
<!-- Generator: Adobe Illustrator 16.0.0, SVG Export Plug-In . SVG Version: 6.00 Build 0)  -->

<svg
   xmlns:dc="http://purl.org/dc/elements/1.1/"
   xmlns:cc="http://creativecommons.org/ns#"
   xmlns:rdf="http://www.w3.org/1999/02/22-rdf-syntax-ns#"
   xmlns:svg="http://www.w3.org/2000/svg"
   xmlns="http://www.w3.org/2000/svg"
   xmlns:sodipodi="http://sodipodi.sourceforge.net/DTD/sodipodi-0.dtd"
   xmlns:inkscape="http://www.inkscape.org/namespaces/inkscape"
   version="1.1"
   id="Layer_1"
   x="0px"
   y="0px"
   width="32"
   height="32"
   viewBox="0 0 32 32.000001"
   enable-background="new 0 0 412 411.998"
   xml:space="preserve"
   inkscape:version="0.91 r13725"
   sodipodi:docname="instagram-black.svg"><metadata
     id="metadata3342"><rdf:RDF><cc:Work
         rdf:about=""><dc:format>image/svg+xml</dc:format><dc:type
           rdf:resource="http://purl.org/dc/dcmitype/StillImage" /><dc:title></dc:title></cc:Work></rdf:RDF></metadata><defs
     id="defs3340" /><sodipodi:namedview
     pagecolor="#ffffff"
     bordercolor="#666666"
     borderopacity="1"
     objecttolerance="10"
     gridtolerance="10"
     guidetolerance="10"
     inkscape:pageopacity="0"
     inkscape:pageshadow="2"
     inkscape:window-width="1366"
     inkscape:window-height="705"
     id="namedview3338"
     showgrid="false"
     inkscape:zoom="2.26"
     inkscape:cx="206"
     inkscape:cy="-19.519123"
     inkscape:window-x="-8"
     inkscape:window-y="-8"
     inkscape:window-maximized="1"
     inkscape:current-layer="Layer_1"
     fit-margin-top="0"
     fit-margin-left="0"
     fit-margin-right="0"
     fit-margin-bottom="0" /><path
     id="instagram-6-icon"
     d="m 28.30866,13.53723 -2.78571,0 c 0.20272,0.78797 0.32256,1.61119 0.32256,2.46207 0,5.43855 -4.40792,9.84634 -9.84559,9.84634 -5.43751,0 -9.8456704,-4.40779 -9.8456704,-9.84634 0,-0.85088 0.12031,-1.67418 0.32326,-2.46207 l -2.78586,0 0,13.53925 c 0,0.67884 0.55115,1.22968 1.23184,1.22968 l 22.1529404,0 c 0.68085,0 1.232,-0.55084 1.232,-1.22968 l 2.3e-4,-13.53925 0,0 z m 0,-8.61472 c 0,-0.67962 -0.55146,-1.23076 -1.232,-1.23076 l -3.69126,0 c -0.68008,0 -1.23076,0.55114 -1.23076,1.23076 l 0,3.69283 c 0,0.67915 0.55068,1.23077 1.23076,1.23077 l 3.69126,0 c 0.68085,0 1.232,-0.55162 1.232,-1.23077 l 0,-3.69283 z M 16,9.84611 c -3.39907,0 -6.1539404,2.75434 -6.1539404,6.15327 0,3.39854 2.7550304,6.15444 6.1539404,6.15444 3.39883,0 6.15441,-2.7559 6.15441,-6.15444 0,-3.39893 -2.75565,-6.15327 -6.15441,-6.15327 M 28.30866,32 3.6916496,32 C 1.6531296,32 0,30.34648 0,28.30616 L 0,3.69175 C 0,1.65259 1.6531296,0 3.6916496,0 L 28.3085,0 C 30.34734,0 32,1.65259 32,3.69175 l 0,24.61441 C 32,30.34648 30.34749,32 28.30866,32"
     inkscape:connector-curvature="0"
     style="fill:#7a7a7a" /><path
     style="fill:#000000"
     d="M 2.7284196,31.8392 C 1.6846296,31.5346 0.86241,30.84465 0.39437,29.88063 -0.01341,29.04071 0.00839,29.87563 0.02597,15.77313 0.04117,3.56232 0.04647,3.01307 0.1521,2.69851 0.5703,1.45274 1.45281,0.57023 2.6985696,0.15202 c 0.31445,-0.10556 0.86567,-0.111 13.0148604,-0.12849 9.35091,-0.0135 12.80424,-1.9e-4 13.13427,0.0505 1.45243,0.22294 2.64061,1.29945 3.01073,2.72777 0.0838,0.32326 0.0937,1.72617 0.0937,13.19132 0,14.22171 0.0318,13.10568 -0.39894,13.98767 -0.31607,0.64716 -0.96207,1.2796 -1.63551,1.60119 -0.27657,0.13207 -0.64522,0.26941 -0.81923,0.30521 -0.22298,0.0459 -4.10877,0.0638 -13.16411,0.0608 C 3.8794296,31.94399 3.0644896,31.93729 2.7283896,31.83921 Z M 27.78286,28.10069 c 0.15135,-0.10518 0.31467,-0.29021 0.3932,-0.44548 l 0.13433,-0.26559 0,-6.94257 0,-6.94257 -1.40298,0 c -0.77164,0 -1.40298,0.009 -1.40298,0.0203 0,0.0112 0.0595,0.28656 0.13213,0.61194 0.11393,0.51011 0.13213,0.76841 0.13214,1.87518 10e-6,1.11141 -0.0182,1.36767 -0.13571,1.91045 -0.76215,3.52023 -3.21051,6.2864 -6.54644,7.39617 -1.09674,0.36486 -1.66444,0.44909 -3.04476,0.45173 -1.34695,0.003 -1.81148,-0.057 -2.83581,-0.3639 -2.65987,-0.79686 -4.8185704,-2.63093 -6.0330004,-5.12579 -0.75851,-1.55823 -1.1097,-3.39155 -0.9578,-5 0.0617,-0.65353 0.17821,-1.3536 0.27707,-1.66509 0.0337,-0.10614 -0.028,-0.11103 -1.40161,-0.11103 l -1.43685,0 3.3e-4,6.85074 c 2.2e-4,4.59627 0.0209,6.92496 0.063,7.07626 0.0766,0.27592 0.35904,0.60773 0.64718,0.76035 0.20949,0.11097 0.50393,0.11353 11.6873204,0.1013 l 11.47242,-0.0125 0.25886,-0.17991 z M 17.11593,22.07006 c 0.66868,-0.11661 1.44901,-0.41036 2.07462,-0.78098 0.67576,-0.40033 1.69818,-1.42275 2.09851,-2.09852 1.69075,-2.85406 0.85398,-6.55603 -1.88421,-8.33593 -1.82287,-1.18492 -4.07557,-1.35686 -5.99701,-0.45773 -1.31886,0.61716 -2.39734,1.69491 -3.0065,3.00445 -1.2193804,2.62135 -0.4378004,5.77541 1.86027,7.50706 0.77328,0.58269 1.64079,0.97068 2.59365,1.16001 0.55955,0.11119 1.62805,0.11196 2.26067,0.002 z M 27.68352,9.70812 c 0.13135,-0.0686 0.31941,-0.23878 0.41791,-0.37819 l 0.17911,-0.25346 0.017,-2.23208 c 0.0162,-2.1236 0.0113,-2.24331 -0.10096,-2.46329 -0.15684,-0.30743 -0.48566,-0.58795 -0.78304,-0.66803 -0.15906,-0.0428 -0.95036,-0.059 -2.3142,-0.0473 -2.26321,0.0194 -2.23022,0.0145 -2.60449,0.38538 -0.34957,0.34636 -0.36153,0.42154 -0.38305,2.40853 -0.0109,1.00149 -0.002,1.989 0.0196,2.19447 0.0502,0.47675 0.30317,0.87304 0.68482,1.07285 l 0.26702,0.13979 2.18073,-0.017 c 2.07792,-0.0162 2.19199,-0.0229 2.41954,-0.1417 z"
     id="path3344"
     inkscape:connector-curvature="0" /></svg>