<svg version="1.1" xmlns="http://www.w3.org/2000/svg" xmlns:xlink="http://www.w3.org/1999/xlink" x="0px" y="0px" viewBox="14.1 21.8 61.5 61.5" enable-background="new 14.1 21.8 61.5 61.5" xml:space="preserve"><path id="instagram" fill="#FFFFFF" stroke="#000000" stroke-width="2" stroke-miterlimit="10" d="M71.1,22.8H18.7 c-2,0-3.6,1.6-3.6,3.6v52.4c0,2,1.6,3.6,3.6,3.6h52.4c2,0,3.6-1.6,3.6-3.6V26.3C74.6,24.3,73.1,22.8,71.1,22.8z M37.3,45.6 c1.9-2.1,4.6-3.4,7.6-3.4c3,0,5.7,1.3,7.6,3.4c1.6,1.8,2.5,4.1,2.5,6.7c0,5.6-4.5,10.1-10.1,10.1c-5.6,0-10.1-4.5-10.1-10.1 C34.8,49.7,35.7,47.4,37.3,45.6z M68.4,76h-47V45.6h8.5c-0.9,2-1.4,4.3-1.4,6.7c0,9,7.4,16.4,16.4,16.4s16.4-7.4,16.4-16.4 c0-2.4-0.5-4.6-1.4-6.7h8.5V76z M68.4,35.6c0,1.6-1.3,2.9-2.9,2.9h-3.7c-1.6,0-2.9-1.3-2.9-2.9v-3.7c0-1.6,1.3-2.9,2.9-2.9h3.7 c1.6,0,2.9,1.3,2.9,2.9V35.6z"/></svg>
