<?xml version="1.0" encoding="utf-8"?>
<!-- Generator: Adobe Illustrator 16.0.0, SVG Export Plug-In . SVG Version: 6.00 Build 0)  -->
<!DOCTYPE svg PUBLIC "-//W3C//DTD SVG 1.1//EN" "http://www.w3.org/Graphics/SVG/1.1/DTD/svg11.dtd">
<svg version="1.1" id="Layer_1" xmlns="http://www.w3.org/2000/svg" xmlns:xlink="http://www.w3.org/1999/xlink" x="0px" y="0px"
	 width="3.657px" height="4.937px" viewBox="0 0 3.657 4.937" enable-background="new 0 0 3.657 4.937" xml:space="preserve">
<g>
	<defs>
		<rect id="SVGID_1_" y="0" width="3.657" height="4.936"/>
	</defs>
	<clipPath id="SVGID_2_">
		<use xlink:href="#SVGID_1_"  overflow="visible"/>
	</clipPath>
	<path clip-path="url(#SVGID_2_)" d="M1.828,0C2.157,0,2.455,0.133,2.671,0.35c0.216,0.216,0.351,0.515,0.351,0.843v1.089
		c0,0.328-0.135,0.626-0.351,0.843C2.455,3.341,2.157,3.476,1.828,3.476c-0.328,0-0.626-0.135-0.842-0.351L0.975,3.113
		c-0.21-0.215-0.339-0.51-0.339-0.832V1.192c0-0.328,0.134-0.627,0.35-0.843C1.202,0.133,1.5,0,1.828,0 M1.016,1.624L1.016,1.624
		h1.627V1.192c0-0.223-0.093-0.426-0.239-0.574C2.255,0.472,2.052,0.379,1.828,0.379c-0.223,0-0.426,0.092-0.574,0.239
		C1.106,0.767,1.016,0.97,1.016,1.192V1.624z M2.643,1.852L2.643,1.852H1.016v0.43c0,0.22,0.089,0.421,0.23,0.567l0.008,0.007
		c0.148,0.148,0.352,0.24,0.574,0.24c0.224,0,0.427-0.092,0.575-0.24v0.001l0.001-0.001c0.146-0.146,0.238-0.35,0.238-0.574V1.852z
		 M0.702,4.937L0.702,4.937h1.117h0.009h0.01h1.116c0.106,0,0.191-0.085,0.191-0.19c0-0.104-0.085-0.189-0.191-0.189H2.019V4.101
		C2.446,4.056,2.831,3.862,3.12,3.573C3.288,3.405,3.424,3.204,3.518,2.98c0.09-0.216,0.14-0.452,0.14-0.699V1.737
		c0-0.105-0.085-0.19-0.19-0.19c-0.104,0-0.189,0.085-0.189,0.19v0.544c0,0.197-0.039,0.384-0.11,0.553
		C3.094,3.011,2.986,3.171,2.852,3.306C2.59,3.567,2.228,3.73,1.828,3.73c-0.196,0-0.383-0.039-0.552-0.109
		C1.1,3.548,0.94,3.439,0.805,3.306C0.671,3.171,0.562,3.011,0.49,2.834C0.418,2.666,0.38,2.479,0.38,2.282V1.737
		c0-0.105-0.085-0.19-0.19-0.19C0.085,1.547,0,1.632,0,1.737v0.544C0,2.528,0.05,2.765,0.14,2.98
		c0.092,0.224,0.229,0.425,0.396,0.593C0.705,3.741,0.907,3.878,1.13,3.971c0.16,0.066,0.331,0.11,0.51,0.13v0.456H0.702
		c-0.105,0-0.19,0.085-0.19,0.189C0.512,4.852,0.597,4.937,0.702,4.937"/>
</g>
</svg>
