<?xml version="1.0" encoding="utf-8"?>
<!-- Generator: Adobe Illustrator 16.0.0, SVG Export Plug-In . SVG Version: 6.00 Build 0)  -->
<!DOCTYPE svg PUBLIC "-//W3C//DTD SVG 1.1//EN" "http://www.w3.org/Graphics/SVG/1.1/DTD/svg11.dtd">
<svg version="1.1" id="Layer_1" xmlns="http://www.w3.org/2000/svg" xmlns:xlink="http://www.w3.org/1999/xlink" x="0px" y="0px"
	 width="36.094px" height="34.004px" viewBox="0 0 36.094 34.004" enable-background="new 0 0 36.094 34.004" xml:space="preserve">
<path fill-rule="evenodd" clip-rule="evenodd" fill="#FFFFFF" d="M27.381,4.988c0.732,1.221,1.221,2.541,1.464,3.957
	c0.234,1.338,0.234,2.675-0.006,4.011c-0.226,1.257-0.644,2.449-1.267,3.566c-0.31,0.579-0.684,1.121-1.099,1.63
	c-0.028,0.043-0.054,0.082-0.073,0.123c-0.457,0.91-0.896,1.832-1.293,2.758c-0.391,0.926-0.757,1.855-1.086,2.801
	c-0.144,0.41-0.271,0.828-0.41,1.236c-0.004,0.025-0.013,0.043-0.013,0.063c-0.013,0.047-0.042,0.063-0.095,0.063
	c-0.284-0.004-0.573-0.004-0.865-0.004c-1.117-0.012-2.24-0.02-3.365-0.029c-1.156-0.01-2.315-0.016-3.479-0.021
	c-0.969-0.008-1.928-0.014-2.89-0.021h-0.081c-0.078,0-0.078,0-0.098-0.08c-0.161-0.506-0.313-1.016-0.484-1.52
	c-0.26-0.768-0.546-1.527-0.848-2.291c-0.245-0.6-0.498-1.195-0.771-1.789c-0.141-0.322-0.292-0.641-0.442-0.957
	c-0.028-0.043-0.045-0.084-0.056-0.127c-0.096-0.24-0.264-0.438-0.414-0.639c-0.273-0.376-0.523-0.762-0.75-1.166
	c-0.885-1.598-1.356-3.313-1.435-5.132c-0.045-1.111,0.057-2.21,0.327-3.284c0.386-1.532,1.054-2.927,2.013-4.187
	c0.546-0.711,1.166-1.348,1.867-1.91c0.411-0.332,0.851-0.634,1.311-0.904c1.219-0.7,2.523-1.151,3.931-1.332
	c0.921-0.112,1.847-0.106,2.769,0.031c1.261,0.175,2.449,0.58,3.559,1.199c0.932,0.513,1.77,1.155,2.506,1.915
	c0.498,0.504,0.938,1.05,1.323,1.642C27.212,4.716,27.293,4.842,27.381,4.988"/>
<path fill-rule="evenodd" clip-rule="evenodd" fill="#FFFFFF" d="M15.524,32.656c-0.155-0.25-0.23-0.477-0.29-0.715
	c0-0.018-0.014-0.035-0.014-0.035c0-0.064-0.025-0.078-0.072-0.078h-0.254c-0.248-0.004-0.482-0.051-0.699-0.191
	c-0.045-0.035-0.101-0.078-0.138-0.125c-0.107-0.119-0.118-0.248-0.011-0.375c0.104-0.127,0.234-0.195,0.385-0.246
	c0.161-0.061,0.33-0.072,0.491-0.072c1.016,0.004,2.03,0.012,3.043,0.021c0.952,0.008,1.906,0.016,2.855,0.021
	c0.347,0,0.689,0,1.029,0.01c0.232,0,0.46,0.051,0.648,0.174c0.07,0.043,0.121,0.092,0.172,0.143
	c0.098,0.117,0.098,0.244,0.003,0.361c-0.082,0.123-0.205,0.189-0.339,0.244c-0.171,0.064-0.35,0.09-0.534,0.088
	c-0.076-0.004-0.151,0-0.231-0.004c-0.051-0.01-0.078,0.02-0.09,0.072c-0.031,0.129-0.07,0.262-0.121,0.385
	c-0.144,0.357-0.373,0.654-0.66,0.895c-0.615,0.502-1.328,0.73-2.107,0.775c-0.602,0.033-1.191-0.063-1.762-0.299
	c-0.448-0.191-0.84-0.463-1.158-0.85C15.612,32.779,15.549,32.699,15.524,32.656"/>
<path fill-rule="evenodd" clip-rule="evenodd" fill="#FFFFFF" d="M22.702,27.475c-0.211,0.125-0.448,0.174-0.688,0.174
	c-0.765-0.008-1.531-0.014-2.295-0.021c-0.688-0.002-1.366-0.006-2.046-0.012c-0.955-0.006-1.921-0.016-2.881-0.023
	c-0.2,0-0.399-0.027-0.591-0.113c-0.144-0.068-0.273-0.143-0.358-0.285c-0.053-0.102-0.053-0.199,0-0.293
	c0.065-0.107,0.153-0.178,0.256-0.236c0.198-0.104,0.412-0.152,0.634-0.152c0.44,0,0.879,0.006,1.312,0.006
	c1.521,0.014,3.029,0.025,4.556,0.039c0.482,0,0.954,0.004,1.433,0.006c0.231,0.002,0.447,0.053,0.64,0.164
	c0.106,0.055,0.196,0.127,0.257,0.227c0.068,0.119,0.064,0.234-0.02,0.344C22.848,27.375,22.78,27.434,22.702,27.475"/>
<path fill-rule="evenodd" clip-rule="evenodd" fill="#FFFFFF" d="M14.165,28.834c0.202-0.107,0.403-0.162,0.622-0.162
	c0.236-0.004,0.479,0,0.72,0c0.981,0.006,1.967,0.012,2.946,0.021c0.97,0.006,1.927,0.01,2.888,0.02
	c0.192,0.006,0.385,0.006,0.58,0.006c0.209,0.002,0.426,0.053,0.621,0.156c0.088,0.051,0.159,0.105,0.228,0.186
	c0.088,0.119,0.088,0.244,0,0.369c-0.068,0.084-0.157,0.154-0.271,0.199c-0.182,0.088-0.379,0.127-0.587,0.127
	c-0.795-0.002-1.576-0.012-2.367-0.016c-1.435-0.012-2.875-0.016-4.312-0.027c-0.189-0.006-0.386,0.004-0.574-0.023
	c-0.2-0.023-0.39-0.082-0.549-0.203c-0.043-0.033-0.086-0.068-0.118-0.107c-0.094-0.117-0.102-0.26-0.004-0.385
	c0.025-0.029,0.06-0.066,0.099-0.098C14.111,28.875,14.15,28.848,14.165,28.834"/>
<path fill="#FFFFFF" d="M30.061,3.227c-0.349,0.27-0.838,0.208-1.108-0.132c-0.269-0.344-0.212-0.84,0.144-1.102l2.314-1.83
	c0.34-0.266,0.839-0.199,1.105,0.138c0.269,0.34,0.209,0.833-0.135,1.101L30.061,3.227z"/>
<path fill="#FFFFFF" d="M32.587,9.256c-0.428,0.092-0.842-0.18-0.935-0.602c-0.096-0.427,0.18-0.842,0.597-0.934l2.894-0.625
	c0.434-0.085,0.849,0.183,0.933,0.604c0.093,0.425-0.175,0.838-0.595,0.932L32.587,9.256z"/>
<path fill="#FFFFFF" d="M32.218,15.785c-0.422-0.107-0.673-0.53-0.574-0.952c0.104-0.418,0.526-0.679,0.951-0.574l2.875,0.705
	c0.42,0.107,0.677,0.534,0.575,0.952c-0.107,0.422-0.525,0.678-0.953,0.571L32.218,15.785z"/>
<path fill="#FFFFFF" d="M6.042,3.227c0.344,0.27,0.827,0.208,1.101-0.132c0.268-0.344,0.208-0.84-0.132-1.102l-2.33-1.83
	C4.34-0.102,3.846-0.036,3.584,0.301c-0.268,0.34-0.206,0.833,0.132,1.101L6.042,3.227z"/>
<path fill="#FFFFFF" d="M3.51,9.256c0.428,0.092,0.839-0.18,0.938-0.602c0.084-0.427-0.181-0.842-0.605-0.934L0.948,7.096
	C0.529,7.011,0.114,7.279,0.019,7.701c-0.096,0.425,0.177,0.838,0.602,0.932L3.51,9.256z"/>
<path fill="#FFFFFF" d="M3.879,15.785c0.414-0.107,0.673-0.53,0.569-0.952c-0.099-0.418-0.53-0.679-0.946-0.574L0.63,14.963
	c-0.425,0.107-0.679,0.534-0.579,0.952c0.106,0.422,0.527,0.678,0.95,0.571L3.879,15.785z"/>
</svg>
