<svg xmlns="http://www.w3.org/2000/svg" width="19.537" height="19.549" viewBox="0 0 19.537 19.549"><path d="M8.613 17.23c-2.3 0-4.463-.895-6.09-2.522C.897 13.082 0 10.918 0 8.614c.004-2.3.896-4.467 2.523-6.09C4.15.898 6.313 0 8.613 0s4.46.897 6.086 2.525c3.35 3.36 3.35 8.824 0 12.183-1.63 1.627-3.79 2.523-6.09 2.523zm0-15.514c-1.844 0-3.574.718-4.878 2.02-1.3 1.303-2.018 3.034-2.018 4.878 0 1.845.717 3.58 2.02 4.88 1.303 1.305 3.033 2.02 4.877 2.02 1.84 0 3.572-.716 4.872-2.02 2.69-2.69 2.69-7.07.003-9.76-1.31-1.3-3.04-2.018-4.88-2.018zm6.087 11.78l4.836 4.84-1.212 1.212-4.836-4.84z" fill="#fff"/></svg>