<svg xmlns="http://www.w3.org/2000/svg" width="24.378" height="24.354" viewBox="0 0 24.378 24.354"><path d="M10.746 21.467c-2.87 0-5.568-1.117-7.596-3.146C1.12 16.3 0 13.6 0 10.73c0-2.868 1.12-5.564 3.147-7.587C5.177 1.115 7.874 0 10.747 0c2.868 0 5.566 1.115 7.594 3.143 4.19 4.186 4.19 10.994 0 15.18-2.02 2.027-4.72 3.144-7.59 3.144zm0-19.33c-2.3 0-4.46.892-6.084 2.517-1.626 1.62-2.522 3.78-2.522 6.076 0 2.298.896 4.46 2.523 6.08 1.624 1.626 3.783 2.52 6.082 2.52 2.298 0 4.458-.894 6.082-2.517 3.357-3.354 3.357-8.81.002-12.16-1.63-1.624-3.79-2.516-6.09-2.516zm7.594 14.675l6.037 6.032-1.51 1.51-6.037-6.03z" fill="#333"/></svg>