<svg xmlns="http://www.w3.org/2000/svg" width="16" height="16.009" viewBox="0 0 16 16.009"><path d="M7.053 14.11c-1.885 0-3.654-.733-4.986-2.066C.734 10.712 0 8.94 0 7.054c0-1.886.734-3.658 2.066-4.988C3.4.732 5.168 0 7.053 0c1.883 0 3.654.732 4.985 2.066 2.75 2.75 2.75 7.227 0 9.978-1.33 1.332-3.102 2.067-4.985 2.067zm0-12.706c-1.51 0-2.928.588-3.994 1.654C1.99 4.124 1.4 5.542 1.4 7.053c0 1.51.587 2.934 1.656 3.998 1.065 1.07 2.482 1.66 3.99 1.66 1.51 0 2.927-.58 3.99-1.65 2.205-2.2 2.205-5.79.003-7.99C9.98 2 8.56 1.41 7.05 1.41zm4.987 9.648L16 15.017l-.99.992-3.964-3.97z" fill="#333"/></svg>