<?xml version="1.0" encoding="UTF-8" standalone="no"?>
<!-- Created with Inkscape (http://www.inkscape.org/) -->

<svg
   xmlns:dc="http://purl.org/dc/elements/1.1/"
   xmlns:cc="http://creativecommons.org/ns#"
   xmlns:rdf="http://www.w3.org/1999/02/22-rdf-syntax-ns#"
   xmlns:svg="http://www.w3.org/2000/svg"
   xmlns="http://www.w3.org/2000/svg"
   xmlns:sodipodi="http://sodipodi.sourceforge.net/DTD/sodipodi-0.dtd"
   xmlns:inkscape="http://www.inkscape.org/namespaces/inkscape"
   id="svg2"
   version="1.1"
   inkscape:version="0.91 r13725"
   xml:space="preserve"
   width="20"
   height="29"
   viewBox="0 0 20 29"
   sodipodi:docname="lightning.svg"><metadata
     id="metadata8"><rdf:RDF><cc:Work
         rdf:about=""><dc:format>image/svg+xml</dc:format><dc:type
           rdf:resource="http://purl.org/dc/dcmitype/StillImage" /><dc:title></dc:title></cc:Work></rdf:RDF></metadata><defs
     id="defs6"><clipPath
       clipPathUnits="userSpaceOnUse"
       id="clipPath16"><path
         d="m 0,35.928 22.229,0 L 22.229,0 0,0 0,35.928 Z"
         id="path18"
         inkscape:connector-curvature="0" /></clipPath></defs><sodipodi:namedview
     pagecolor="#ffffff"
     bordercolor="#fff"
     borderopacity="1"
     objecttolerance="10"
     gridtolerance="10"
     guidetolerance="10"
     inkscape:pageopacity="0"
     inkscape:pageshadow="2"
     inkscape:window-width="1366"
     inkscape:window-height="705"
     id="namedview4"
     showgrid="false"
     fit-margin-top="0"
     fit-margin-left="0"
     fit-margin-right="0"
     fit-margin-bottom="0"
     inkscape:zoom="5.2549834"
     inkscape:cx="-13.224179"
     inkscape:cy="22.454874"
     inkscape:window-x="-8"
     inkscape:window-y="-8"
     inkscape:window-maximized="1"
     inkscape:current-layer="g10" /><g
     id="g10"
     inkscape:groupmode="layer"
     inkscape:label="lightning"
     transform="matrix(1.25,0,0,-1.25,0,29)"><g
       id="g12"
       transform="scale(0.71979629,0.64573771)"
       style="fill:#fff;fill-opacity:1"><g
         id="g14"
         clip-path="url(#clipPath16)"
         style="fill:#fff;fill-opacity:1"><g
           id="g20"
           transform="translate(4.7976,6.2559)"
           style="fill:#fcb13a;fill-opacity:1"><path
             d="m 0,0 3.628,9.61 c 0.141,0.317 0.09,0.724 -0.119,1.056 -0.203,0.27 -0.547,0.446 -0.901,0.446 l -4.757,0 6.282,16.372 9.868,0 L 6.806,17.441 C 6.562,17.126 6.542,16.708 6.744,16.31 6.928,15.94 7.279,15.738 7.733,15.738 l 6.168,0 L 0,0 Z m 16.355,17.926 -6.457,0 7.199,10.044 c 0.241,0.313 0.261,0.732 0.061,1.133 -0.184,0.367 -0.536,0.569 -0.989,0.569 l -12.811,0 c -0.431,0 -0.876,-0.296 -1.014,-0.674 L -4.719,10.43 C -4.859,10.115 -4.808,9.707 -4.6,9.371 -4.397,9.105 -4.053,8.929 -3.702,8.929 l 4.757,0 -5.213,-13.745 c -0.18,-0.503 -0.008,-1.051 0.413,-1.295 0.149,-0.092 0.299,-0.145 0.605,-0.145 0.243,0 0.583,0.079 0.742,0.3 l 19.545,22.057 c 0.297,0.336 0.365,0.758 0.185,1.158 -0.176,0.386 -0.586,0.667 -0.977,0.667"
             style="fill:#fff;fill-opacity:1;fill-rule:nonzero;stroke:none"
             id="path22"
             inkscape:connector-curvature="0" /></g></g></g></g></svg>
