<?xml version="1.0" encoding="utf-8"?>
<!-- Generator: Adobe Illustrator 16.0.0, SVG Export Plug-In . SVG Version: 6.00 Build 0)  -->
<!DOCTYPE svg PUBLIC "-//W3C//DTD SVG 1.1//EN" "http://www.w3.org/Graphics/SVG/1.1/DTD/svg11.dtd">
<svg version="1.1" id="Layer_1" xmlns="http://www.w3.org/2000/svg" xmlns:xlink="http://www.w3.org/1999/xlink" x="0px" y="0px"
	 width="60px" height="60px" viewBox="0 0 60 60" enable-background="new 0 0 60 60" xml:space="preserve">
<path fill="#ADADAD" stroke="#ADADAD" stroke-miterlimit="10" d="M30,10.632c-6.07,0-11,4.93-11,11c0,1.777,0.436,3.454,1.174,4.93
	L30,46.819l9.826-20.257C40.564,25.086,41,23.41,41,21.632C41,15.562,36.07,10.632,30,10.632L30,10.632z M30,27.703
	c-3.354,0-6.07-2.717-6.07-6.07c0-3.354,2.716-6.071,6.07-6.071c3.354,0,6.07,2.717,6.07,6.071
	C36.07,24.986,33.354,27.703,30,27.703L30,27.703z"/>
</svg>
