<svg xmlns:dc="http://purl.org/dc/elements/1.1/" xmlns:cc="http://creativecommons.org/ns#" xmlns:rdf="http://www.w3.org/1999/02/22-rdf-syntax-ns#" xmlns:svg="http://www.w3.org/2000/svg" xmlns="http://www.w3.org/2000/svg" xmlns:sodipodi="http://sodipodi.sourceforge.net/DTD/sodipodi-0.dtd" xmlns:inkscape="http://www.inkscape.org/namespaces/inkscape" width="67.136" height="56.398" viewBox="0 0 67.136 56.398" id="svg4170" version="1.1" inkscape:version="0.91 r13725" sodipodi:docname="logo_parking_gray.svg"> <path fill="none" stroke="#fff" stroke-width="3" stroke-linejoin="round" stroke-miterlimit="10" d="M59.816 19.904L54.558 6.328c-.982-2.6-3.13-4.81-7.197-4.828H19.74c-4.048.018-6.195 2.23-7.196 4.828L7.28 19.904c-2.087.27-5.78 1.723-5.775 6.37V44.56h5.13v4.52c-.015 7.8 11.614 7.718 11.61 0v-4.52H48.85v4.52c.022 7.718 11.647 7.8 11.655 0v-4.52h5.13V26.273c-.016-4.646-3.712-6.1-5.82-6.37zM12.586 37.13c-2.46.005-4.45-2.047-4.44-4.567-.01-2.54 1.98-4.592 4.44-4.572 2.45-.02 4.442 2.04 4.44 4.58.002 2.52-1.99 4.57-4.44 4.57zm41.964 0c-2.477.005-4.47-2.047-4.482-4.567.013-2.54 2.006-4.592 4.482-4.572 2.434-.02 4.424 2.04 4.44 4.58-.016 2.52-2.006 4.57-4.44 4.57z" style="stroke:#b6b6b6;stroke-opacity:1" />
</svg>
