<svg xmlns="http://www.w3.org/2000/svg" width="32.155" height="32.154" viewBox="0 0 32.155 32.154"><path d="M16.078 32.154C7.213 32.154 0 24.944 0 16.076 0 7.213 7.213 0 16.078 0s16.077 7.213 16.077 16.076c0 8.867-7.212 16.078-16.077 16.078zm0-29.186c-7.228 0-13.11 5.882-13.11 13.108 0 7.23 5.882 13.11 13.11 13.11s13.107-5.882 13.107-13.11-5.88-13.108-13.107-13.108zm-2.52 20.302c-.455 0-.892-.182-1.214-.504L8.038 18.46c-.67-.67-.67-1.757 0-2.43.67-.67 1.758-.67 2.43.003l3.09 3.09 8.13-8.13c.67-.67 1.758-.67 2.43 0 .67.67.67 1.757 0 2.43l-9.345 9.343c-.322.322-.76.504-1.215.504z" fill="#fff"/></svg>