<svg xmlns="http://www.w3.org/2000/svg" width="31.952" height="27.6" viewBox="0 0 31.952 27.6"><path d="M14.152 16.16v5.654m-5.404.2h10.808V26.6H8.748zm14.89-11.04c-1.81 2.578-1.968 5.57-.354 6.682 1.614 1.112 4.39-.076 6.2-2.654 1.81-2.58 1.968-5.57.354-6.683-1.615-1.12-4.39.07-6.2 2.65zm.46 7.026l-21.58-6.445c-1.194-1-1.796-3.17-1.394-5.54.52-3.06 2.516-5.29 4.456-4.985.15.023.94.248.94.248l22.83 6.796" fill="none" stroke="#333" stroke-width="2" stroke-linecap="round" stroke-linejoin="round" stroke-miterlimit="10"/></svg>