<svg xmlns="http://www.w3.org/2000/svg" width="66.384" height="70.029" viewBox="0 0 66.384 70.029"><path fill="none" stroke="#fff" stroke-width="3" stroke-linejoin="round" stroke-miterlimit="10" d="M64.884 42.035c-1.568.428-3.01 1.174-4.496 1.803-19.19 8.107-38.373 16.232-57.558 24.35-1.302.552-1.305.546-1.305-.868 0-4.434.027-8.867-.025-13.3-.01-.82.282-1.15.986-1.435 3.155-1.283 6.28-2.64 9.435-3.924.68-.27.95-.6.95-1.36-.03-8.14-.03-16.28 0-24.42 0-.69-.19-1.04-.86-1.32-3.24-1.31-6.47-2.69-9.7-4.04-.44-.18-.79-.33-.78-.95.03-4.86.02-9.72.02-14.59 0-.12.04-.24.08-.47 2.31.97 4.56 1.92 6.8 2.87 18.48 7.82 36.96 15.65 55.45 23.46.33.14.64.38 1.03.31v13.9zm-20.84-6.877c-.15-.138-.207-.223-.285-.255-6.15-2.583-12.31-5.154-18.45-7.752-.77-.32-.72.08-.72.61.01 4.86.02 9.72-.02 14.58-.01.95.25.92.99.61 4.34-1.85 8.7-3.66 13.06-5.49 1.78-.74 3.56-1.5 5.4-2.29z"/></svg>