<svg xmlns="http://www.w3.org/2000/svg" width="42.57" height="31.211" viewBox="0 0 42.57 31.211"><path fill="#fff" d="M41.082 25.008c2.567-4.656 1.763-10.45-2.027-14.24-2.262-2.262-5.27-3.508-8.47-3.508-.87 0-1.728.095-2.56.276-.582-.903-1.263-1.753-2.04-2.53C23.11 2.13 19.285.546 15.22.546c-4.067 0-7.89 1.583-10.767 4.46C-.56 10.016-1.432 17.858 2.3 23.828L.967 29.13c-.092.367.016.755.282 1.022.26.267.65.373 1.02.28l5.5-1.384c2.27 1.272 4.83 1.943 7.45 1.943 2.88 0 5.64-.8 8.03-2.29 2.09 1.63 4.64 2.51 7.33 2.51 2.22 0 4.37-.6 6.25-1.76l3.98 1.01c.36.1.75-.01 1.02-.28.26-.27.37-.65.28-1.02l-1.04-4.14zm-19.46 2.166c-1.934 1.09-4.12 1.673-6.4 1.673-2.38 0-4.708-.645-6.734-1.864-.17-.1-.36-.153-.554-.153-.088 0-.176.01-.262.032l-4.184 1.053 1.01-4.015c.074-.294.02-.607-.15-.86-3.463-5.166-2.78-12.11 1.625-16.514 2.47-2.473 5.754-3.832 9.247-3.832 3.492 0 6.776 1.36 9.247 3.832.527.527 1 1.093 1.425 1.69.42.595.794 1.22 1.108 1.868.848 1.75 1.297 3.685 1.297 5.688 0 3.493-1.36 6.776-3.83 9.248-.335.332-.686.646-1.048.938-.57.46-1.17.864-1.8 1.218zm17.27-2.062l.712 2.822-2.693-.677c-.29-.075-.6-.02-.86.15-1.61 1.083-3.5 1.656-5.46 1.656-1.99 0-3.9-.592-5.51-1.69.32-.267.62-.545.92-.838 2.88-2.874 4.46-6.698 4.46-10.765 0-2.192-.46-4.313-1.33-6.252.49-.073.98-.11 1.48-.11 2.63 0 5.09 1.02 6.95 2.876 3.2 3.2 3.81 8.14 1.48 12.01-.15.245-.19.54-.12.818zM14.88 20.198c-.437 0-.8-.145-1.073-.43-.27-.282-.405-.658-.405-1.12V15.95c0-.29.01-.518.025-.698.026-.268.132-.496.315-.68.157-.158.373-.285.66-.387.243-.088.576-.17 1.018-.257.413-.08.745-.207.98-.37.237-.166.42-.346.54-.534.12-.195.207-.4.252-.61.05-.232.073-.447.073-.64 0-.69-.207-1.214-.635-1.602-.438-.398-.996-.593-1.702-.593-.558 0-1.043.12-1.443.35-.376.22-.686.66-.92 1.32-.142.4-.317.68-.535.83-.216.15-.484.23-.8.23-.382 0-.724-.14-1.02-.42-.307-.29-.457-.68-.436-1.14.018-.6.193-1.16.523-1.66.313-.48.713-.9 1.188-1.26.473-.35 1.008-.63 1.592-.82.58-.19 1.18-.29 1.778-.29.762 0 1.484.12 2.147.36.668.24 1.255.57 1.746.99.495.43.892.94 1.18 1.52.29.59.437 1.24.437 1.94 0 1.39-.41 2.54-1.226 3.4-.73.77-1.66 1.31-2.79 1.6v2.05c0 .46-.14.84-.41 1.12-.27.29-.63.43-1.07.43zm0 5.412c-.45 0-.84-.162-1.162-.484-.32-.32-.483-.712-.483-1.163 0-.45.163-.84.483-1.162.32-.31.713-.48 1.163-.48.46 0 .85.17 1.17.49.32.32.49.72.49 1.17 0 .45-.16.85-.48 1.17-.32.32-.71.49-1.16.49z"/></svg>