<svg xmlns="http://www.w3.org/2000/svg" width="70.896" height="51.318" viewBox="0 0 70.896 51.318"><path fill="none" stroke="#fff" stroke-width="3" stroke-miterlimit="10" d="M15.813 47.61c1.428-.003 2.77-1.454 3.655-2.413l.46-.49 8.545-8.746c.465-.47 1.104-.74 1.77-.74H51.89c3.993 0 7.242-3.28 7.242-7.31V8.75c0-3.99-3.25-7.24-7.242-7.24H8.74C4.747 1.5 1.5 4.75 1.5 8.74V27.9c0 3.992 3.247 7.244 7.24 7.244l3.125.068c1.345.03 2.418 1.13 2.418 2.48v7.72c-.017.508.093 1.46.516 1.896.07.084.29.303 1 .303m41.79 2.21c.59 0 .76-.18.83-.25.35-.36.44-1.14.42-1.56v-6.37c0-1.11.88-2.01 1.99-2.04l2.58-.05c3.29 0 5.97-2.68 5.97-5.97V17.76c0-3.29-2.68-5.975-5.97-5.975H27.82c-3.293 0-5.973 2.68-5.973 5.97v15.8c0 3.33 2.68 6.037 5.974 6.037h17.86c.55 0 1.08.22 1.46.614l7.05 7.217.38.404c.73.79 1.84 1.986 3.02 1.99"/></svg>