<svg xmlns="http://www.w3.org/2000/svg" width="36.445" height="32.846" viewBox="0 0 36.445 32.846"><g fill="#fff"><path d="M20.022 0c-.796 0-1.443.647-1.443 1.444 0 .798.64 1.443 1.44 1.443 7.46 0 13.53 6.072 13.53 13.535 0 7.464-6.07 13.535-13.54 13.535-6.85 0-12.52-5.113-13.41-11.725l1.01 1.012c.28.28.65.422 1.02.422s.74-.14 1.02-.422c.56-.564.56-1.48 0-2.043l-3.6-3.6c-.57-.56-1.48-.56-2.04 0l-3.6 3.6c-.57.57-.57 1.48 0 2.05.56.57 1.48.57 2.04 0l1.22-1.22c.81 8.31 7.83 14.82 16.34 14.82 9.05 0 16.42-7.36 16.42-16.42C36.44 7.37 29.07 0 20.02 0z"/><circle cx="25.998" cy="8.141" r="1.361"/><circle cx="28.719" cy="15.843" r="1.361"/><circle cx="25.998" cy="23.324" r="1.36"/><circle cx="19.814" cy="27.405" r="1.361"/><path d="M14.582 24.417c-.392 0-.783-.148-1.082-.45-.598-.595-.598-1.565 0-2.163l4.785-4.785V7.34c0-.846.685-1.53 1.53-1.53s1.528.685 1.528 1.53v10.31c0 .407-.16.796-.448 1.083l-5.23 5.234c-.3.3-.69.45-1.083.45z"/></g></svg>