<svg xmlns="http://www.w3.org/2000/svg" width="27.724" height="34.67" viewBox="48.326 -0.5 27.724 34.67" enable-background="new 48.326 -0.5 27.724 34.67"><path fill="#fff" stroke="#fff" stroke-miterlimit="10" d="M67.68 24.23l-.952 1.128c3.97.502 6.742 1.646 6.742 2.98 0 1.797-5.054 3.255-11.285 3.255-6.232 0-11.29-1.458-11.29-3.257 0-1.332 2.776-2.477 6.745-2.98l-.954-1.127c-4.435.76-7.52 2.41-7.52 4.33 0 2.63 5.83 4.77 13.02 4.77 7.19 0 13.02-2.14 13.02-4.78 0-1.92-3.084-3.57-7.524-4.33v-.01zm5.42-12.976C73.1 5.227 68.21.34 62.185.34c-6.03 0-10.915 4.887-10.915 10.914s10.914 18.19 10.914 18.19 10.912-12.164 10.912-18.19h.003zM62.185 2.16c5.02 0 9.095 4.122 9.095 9.208 0 5.085-9.095 15.348-9.095 15.348s-9.1-10.263-9.1-15.348c0-5.086 4.07-9.21 9.09-9.21l.01.002zm4.548 8.185c0-2.51-2.037-4.548-4.55-4.548-2.51 0-4.545 2.037-4.545 4.548 0 2.512 2.035 4.548 4.545 4.548s4.54-2.037 4.54-4.548h.01zm-7.277 0c0-1.507 1.23-2.73 2.73-2.73s2.73 1.224 2.73 2.73c0 1.507-1.22 2.73-2.73 2.73-1.5-.002-2.73-1.223-2.73-2.73zm2.73 23.325c-7.49 0-13.36-2.248-13.36-5.114 0-2.05 2.99-3.834 7.808-4.658.117-.02.24.022.315.115l.95 1.127c.08.09.1.22.05.34-.05.12-.15.2-.27.21-4.43.56-6.45 1.76-6.45 2.64 0 1.38 4.49 2.91 10.94 2.91 6.45 0 10.94-1.54 10.94-2.92 0-.88-2.02-2.08-6.45-2.648-.12-.016-.23-.098-.27-.214s-.03-.25.05-.345l.95-1.13c.08-.093.2-.14.31-.117 4.81.82 7.81 2.61 7.81 4.653-.01 2.87-5.88 5.12-13.37 5.12v.03zm-5.63-9.07c-4.227.757-7.05 2.335-7.05 3.956 0 2.403 5.807 4.436 12.68 4.436 6.874 0 12.68-2.03 12.68-4.43 0-1.62-2.825-3.2-7.052-3.95l-.43.51c4.03.6 6.42 1.79 6.42 3.23 0 2.34-5.99 3.6-11.63 3.6-5.64 0-11.63-1.26-11.63-3.59 0-1.444 2.39-2.64 6.42-3.23l-.43-.51.02-.02zm5.63 5.184c-.097 0-.19-.042-.253-.113-.45-.5-11.002-12.32-11.002-18.41C50.94 5.05 55.98 0 62.19 0c6.2 0 11.25 5.05 11.25 11.254 0 6.088-10.55 17.916-11 18.417-.066.08-.157.12-.255.12zm0-29.104c-5.83 0-10.576 4.744-10.576 10.574 0 5.326 8.945 15.81 10.574 17.677 1.63-1.86 10.573-12.35 10.573-17.67.01-5.83-4.74-10.57-10.57-10.57zm0 26.376c-.098 0-.19-.04-.255-.115-.37-.42-9.18-10.4-9.18-15.56 0-5.26 4.23-9.55 9.44-9.55 5.2 0 9.43 4.29 9.43 9.55 0 5.16-8.81 15.15-9.18 15.57-.07.08-.16.12-.26.12h.01zm0-24.557c-4.83 0-8.756 3.97-8.756 8.86 0 4.43 7.29 13.12 8.755 14.83 1.46-1.71 8.75-10.4 8.75-14.83 0-4.89-3.93-8.87-8.76-8.87l.01.01zm0 12.73c-2.696 0-4.888-2.19-4.888-4.89 0-2.7 2.19-4.89 4.885-4.89s4.88 2.19 4.88 4.89c0 2.69-2.2 4.88-4.89 4.88l.01.01zm0-9.1c-2.32 0-4.21 1.89-4.21 4.21 0 2.32 1.89 4.21 4.208 4.21 2.32 0 4.2-1.89 4.2-4.21 0-2.32-1.89-4.21-4.21-4.21h.01zm0 7.27c-1.693 0-3.07-1.38-3.07-3.07s1.377-3.07 3.07-3.07c1.688 0 3.06 1.37 3.06 3.06s-1.38 3.07-3.07 3.07l.01.01zm0-5.46c-1.318 0-2.39 1.07-2.39 2.39s1.07 2.39 2.39 2.39c1.315 0 2.39-1.08 2.39-2.39 0-1.32-1.074-2.39-2.39-2.39z"/></svg>