<svg xmlns="http://www.w3.org/2000/svg" width="40.181" height="34.893" viewBox="0 0 40.181 34.893"><path fill="#fff" d="M33.034 18.68c1.65-1.378 2.722-3.63 2.722-6.17 0-4.188-2.914-7.59-6.497-7.59-2.28 0-4.28 1.373-5.45 3.444C23.01 3.6 19.43 0 15.15 0c-4.873 0-8.833 4.663-8.833 10.396 0 3.82 1.758 7.162 4.38 8.966C4.507 21.267 0 27.04 0 33.846c0 .578.465 1.047 1.047 1.047H29.26c.576 0 1.046-.47 1.046-1.047 0-1.335-.177-2.633-.503-3.872h9.33c.58 0 1.048-.47 1.048-1.047 0-4.697-2.98-8.707-7.14-10.247zM29.26 7.012c2.427 0 4.403 2.466 4.403 5.497 0 3.03-1.977 5.49-4.404 5.49s-4.41-2.47-4.41-5.5S26.82 7 29.25 7zM25.482 18.68c-1.144.414-2.21 1.03-3.165 1.816-.858-.46-1.763-.842-2.71-1.134 1.504-1.034 2.727-2.584 3.492-4.438.43 1.528 1.28 2.84 2.38 3.756zM8.41 10.394c0-4.58 3.022-8.3 6.74-8.3s6.744 3.72 6.744 8.3c0 4.576-3.026 8.298-6.744 8.298-3.716 0-6.74-3.722-6.74-8.298zM2.13 32.8c.537-6.716 6.172-12.015 13.02-12.015 6.85 0 12.485 5.3 13.02 12.015H2.13zm26.953-4.92c-1.063-2.465-2.76-4.6-4.886-6.187 1.475-1.038 3.232-1.595 5.062-1.595 4.51 0 8.24 3.403 8.76 7.782h-8.94z"/></svg>