<?xml version="1.0" encoding="utf-8"?>
<!-- Generator: Adobe Illustrator 16.0.0, SVG Export Plug-In . SVG Version: 6.00 Build 0)  -->
<!DOCTYPE svg PUBLIC "-//W3C//DTD SVG 1.1//EN" "http://www.w3.org/Graphics/SVG/1.1/DTD/svg11.dtd">
<svg version="1.1" id="Layer_1" xmlns="http://www.w3.org/2000/svg" xmlns:xlink="http://www.w3.org/1999/xlink" x="0px" y="0px"
	 width="79.857px" height="22.861px" viewBox="311.306 433.873 79.857 22.861"
	 enable-background="new 311.306 433.873 79.857 22.861" xml:space="preserve">
<g>
	<g>
		<g>
			<path d="M327.299,436.054H311.67c-0.219,0-0.364,0.146-0.364,0.363v0.363c0,0.219,0.146,0.364,0.364,0.364h15.629
				c0.218,0,0.363-0.146,0.363-0.364v-0.363C327.662,436.199,327.517,436.054,327.299,436.054z M327.299,441.506h-10.904
				c-0.218,0-0.363,0.146-0.363,0.363v0.363c0,0.218,0.146,0.363,0.363,0.363h10.904c0.218,0,0.363-0.146,0.363-0.363v-0.363
				C327.662,441.651,327.517,441.506,327.299,441.506z M327.299,446.958h-6.18c-0.218,0-0.363,0.145-0.363,0.363v0.363
				c0,0.218,0.146,0.363,0.363,0.363h6.18c0.218,0,0.363-0.146,0.363-0.363v-0.363C327.662,447.103,327.517,446.958,327.299,446.958
				z M365.027,433.873h-28.604c-1.418,0-2.617,1.163-2.617,2.58v17.701c0,1.417,1.163,2.58,2.617,2.58h28.604
				c1.417,0,2.616-1.163,2.616-2.58v-17.701C367.643,435.036,366.48,433.873,365.027,433.873z M336.458,434.891h28.604
				c0.473,0,0.872,0.218,1.163,0.509l-15.483,11.268l-15.521-11.231C335.513,435.108,335.949,434.891,336.458,434.891z
				 M334.859,454.19v-17.7c0-0.037,0-0.037,0-0.073l12.285,8.905l-12.285,8.978C334.859,454.264,334.859,454.227,334.859,454.19z
				 M365.027,455.754h-28.604c-0.473,0-0.909-0.219-1.2-0.546l12.758-9.305l2.436,1.781c0.182,0.146,0.399,0.146,0.581,0
				l2.436-1.781l12.758,9.341C365.935,455.571,365.498,455.754,365.027,455.754z M366.625,454.19c0,0.036,0,0.073,0,0.109
				l-12.321-9.014l12.321-8.941c0,0.036,0,0.072,0,0.108V454.19z"/>
		</g>
	</g>
	<g>
		<g>
			<path fill="#E33539" d="M327.299,436.054H311.67c-0.219,0-0.364,0.146-0.364,0.363v0.363c0,0.219,0.146,0.364,0.364,0.364h15.629
				c0.218,0,0.363-0.146,0.363-0.364v-0.363C327.662,436.199,327.517,436.054,327.299,436.054z M327.299,441.506h-10.904
				c-0.218,0-0.363,0.146-0.363,0.363v0.363c0,0.218,0.146,0.363,0.363,0.363h10.904c0.218,0,0.363-0.146,0.363-0.363v-0.363
				C327.662,441.651,327.517,441.506,327.299,441.506z M327.299,446.958h-6.18c-0.218,0-0.363,0.145-0.363,0.363v0.363
				c0,0.218,0.146,0.363,0.363,0.363h6.18c0.218,0,0.363-0.146,0.363-0.363v-0.363C327.662,447.103,327.517,446.958,327.299,446.958
				z M365.027,433.873h-28.604c-1.418,0-2.617,1.163-2.617,2.58v17.701c0,1.417,1.163,2.58,2.617,2.58h28.604
				c1.417,0,2.616-1.163,2.616-2.58v-17.701C367.643,435.036,366.48,433.873,365.027,433.873z M336.458,434.891h28.604
				c0.473,0,0.872,0.218,1.163,0.509l-15.483,11.268l-15.521-11.231C335.513,435.108,335.949,434.891,336.458,434.891z
				 M334.859,454.19v-17.7c0-0.037,0-0.037,0-0.073l12.285,8.905l-12.285,8.978C334.859,454.264,334.859,454.227,334.859,454.19z
				 M365.027,455.754h-28.604c-0.473,0-0.909-0.219-1.2-0.546l12.758-9.305l2.436,1.781c0.182,0.146,0.399,0.146,0.581,0
				l2.436-1.781l12.758,9.341C365.935,455.571,365.498,455.754,365.027,455.754z M366.625,454.19c0,0.036,0,0.073,0,0.109
				l-12.321-9.014l12.321-8.941c0,0.036,0,0.072,0,0.108V454.19z"/>
		</g>
	</g>
</g>
</svg>
