<?xml version="1.0" encoding="utf-8"?>
<!-- Generator: Adobe Illustrator 16.0.0, SVG Export Plug-In . SVG Version: 6.00 Build 0)  -->
<!DOCTYPE svg PUBLIC "-//W3C//DTD SVG 1.1//EN" "http://www.w3.org/Graphics/SVG/1.1/DTD/svg11.dtd">
<svg version="1.1" id="Layer_1" xmlns="http://www.w3.org/2000/svg" xmlns:xlink="http://www.w3.org/1999/xlink" x="0px" y="0px"
	 width="86.007px" height="90.617px" viewBox="0 0 86.007 90.617" enable-background="new 0 0 86.007 90.617" xml:space="preserve">
<g>
	<defs>
		<rect id="SVGID_1_" width="86.007" height="90.617"/>
	</defs>
	<clipPath id="SVGID_2_">
		<use xlink:href="#SVGID_1_"  overflow="visible"/>
	</clipPath>
	<path clip-path="url(#SVGID_2_)" fill="#FFFFFF" d="M11.9,85.415c0.914-0.273,1.615-1.032,1.615-2.142
		c0-1.187-0.954-2.413-2.958-2.413H4.173v9.4h6.559c2.005,0,2.997-1.188,2.997-2.569C13.729,86.543,12.971,85.629,11.9,85.415
		 M7.17,83.177h2.687c0.389,0,0.641,0.233,0.641,0.584c0,0.33-0.252,0.583-0.641,0.583H7.17V83.177z M9.973,87.944H7.17v-1.304
		h2.803c0.448,0,0.74,0.292,0.74,0.662C10.713,87.691,10.401,87.944,9.973,87.944"/>
	<polygon clip-path="url(#SVGID_2_)" fill="#FFFFFF" points="23.387,84.634 20.325,80.872 20.286,80.825 17.945,80.825 
		17.945,90.39 20.582,90.39 20.582,84.937 23.186,88.13 23.225,88.177 23.411,88.177 25.969,84.945 25.969,90.39 28.607,90.39 
		28.607,80.825 26.325,80.825 	"/>
	<path clip-path="url(#SVGID_2_)" fill="#FFFFFF" d="M37.543,80.597c-2.975,0-5.053,2.06-5.053,5.011c0,2.996,2.064,5.01,5.136,5.01
		c1.419,0,2.746-0.433,3.641-1.188l0.072-0.062l-0.785-1.923l-0.136,0.109c-0.49,0.396-1.416,0.819-2.544,0.819
		c-1.421,0-2.396-0.712-2.639-1.913h6.666l0.027-0.092c0.108-0.367,0.15-0.736,0.15-1.319
		C42.078,82.511,40.128,80.597,37.543,80.597 M37.439,82.84c0.624,0,1.145,0.194,1.504,0.562c0.303,0.308,0.477,0.733,0.496,1.208
		h-4.278C35.45,83.451,36.235,82.84,37.439,82.84"/>
	<path clip-path="url(#SVGID_2_)" fill="#FFFFFF" d="M52.84,87.051c-0.659,0.727-1.434,1.095-2.304,1.095
		c-1.24,0-2.559-0.89-2.559-2.539c0-1.635,1.265-2.518,2.455-2.518c0.904,0,1.612,0.278,2.227,0.874l0.117,0.114l1.252-2.109
		l-0.07-0.072c-0.851-0.85-2.177-1.3-3.835-1.3c-2.822,0-4.949,2.154-4.949,5.011c0,2.997,2.08,5.011,5.176,5.011
		c1.607,0,3.03-0.621,3.807-1.665l0.054-0.072l-1.257-1.954L52.84,87.051z"/>
	<polygon clip-path="url(#SVGID_2_)" fill="#FFFFFF" points="56.74,83.461 59.801,83.461 59.801,90.39 62.439,90.39 62.439,83.461 
		65.479,83.461 65.479,80.825 56.74,80.825 	"/>
	<path clip-path="url(#SVGID_2_)" fill="#FFFFFF" d="M73.173,80.597c-2.975,0-5.053,2.06-5.053,5.011c0,2.996,2.063,5.01,5.135,5.01
		c1.42,0,2.747-0.433,3.642-1.188l0.072-0.062l-0.785-1.923l-0.136,0.109c-0.49,0.396-1.415,0.819-2.544,0.819
		c-1.421,0-2.396-0.712-2.639-1.913h6.665l0.027-0.092c0.108-0.367,0.15-0.736,0.15-1.319
		C77.708,82.511,75.758,80.597,73.173,80.597 M73.068,82.84c0.624,0,1.146,0.194,1.505,0.562c0.303,0.308,0.477,0.733,0.495,1.208
		h-4.277C71.08,83.451,71.865,82.84,73.068,82.84"/>
	<rect x="82.066" y="75.654" clip-path="url(#SVGID_2_)" fill="#FFFFFF" width="2.781" height="9.729"/>
	<path clip-path="url(#SVGID_2_)" fill="#FFFFFF" d="M83.519,87.05c-1.103,0-1.784,0.861-1.784,1.66
		c0,0.865,0.625,1.783,1.784,1.783c1.013,0,1.64-0.926,1.64-1.783C85.158,87.925,84.484,87.05,83.519,87.05"/>
	<path clip-path="url(#SVGID_2_)" fill="#FFFFFF" d="M77.91,79.131L56.693,63.047H18.802C8.434,63.047,0,54.61,0,44.242V18.8
		C0,8.434,8.434,0,18.802,0h48.403c10.368,0,18.802,8.433,18.802,18.8v25.442c0,7.84-4.81,14.773-12.068,17.558L77.91,79.131z
		 M18.802,2.23C9.664,2.23,2.23,9.665,2.23,18.8v25.442c0,9.139,7.434,16.573,16.572,16.573h38.676l16.915,12.629l-3.058-13.118
		l0.96-0.311c6.867-2.226,11.48-8.564,11.48-15.773V18.8c0-9.136-7.435-16.57-16.571-16.57H18.802z"/>
	<path clip-path="url(#SVGID_2_)" fill="#FFFFFF" d="M43.663,13.095v0.02v2.244h11.426v17.803c0,2.985-1.606,5.766-4.19,7.257
		l-6.857,3.96v-6.165l4.187-2.418c0.937-0.539,1.519-1.547,1.519-2.63V20.702h-6.083v2.264h3.819v10.2
		c0,0.275-0.147,0.531-0.386,0.668l-5.32,3.073v3.803l-3.623-2.091c-0.589-0.34-0.951-0.969-0.951-1.648v-9.728h-7.608v9.724
		c0,3.398,1.813,6.537,4.755,8.236l8.559,4.94v-2.495l9.122-5.267c3.283-1.894,5.322-5.427,5.322-9.219V13.115v-0.02H43.663z"/>
	<polygon clip-path="url(#SVGID_2_)" fill="#FFFFFF" points="42.154,13.16 29.579,25.734 42.154,25.734 	"/>
</g>
</svg>
