<svg id="Ebene_1" data-name="Ebene 1" xmlns="http://www.w3.org/2000/svg" viewBox="0 0 40 40"><defs><style>.cls-1{fill:#e63333;}.cls-2{fill:#fff;}</style></defs><title>media-audio</title><circle class="cls-1" cx="20" cy="20" r="20"/><path class="cls-2" d="M278.43,275.39v4A2,2,0,0,0,278.43,275.39Z" transform="translate(-257 -257.5)"/><path class="cls-2" d="M271.22,275.11v4.77a46.2,46.2,0,0,0,4.5,4.44V270.67A46.2,46.2,0,0,0,271.22,275.11Z" transform="translate(-257 -257.5)"/><path class="cls-2" d="M276.57,270.5v14a1.48,1.48,0,0,0,1-1.32V271.83A1.48,1.48,0,0,0,276.57,270.5Z" transform="translate(-257 -257.5)"/><path class="cls-2" d="M268.5,277.5c0,1.57,0,2.34,1.2,2.34h0.67v-4.67H269.7C268.5,275.16,268.5,275.93,268.5,277.5Z" transform="translate(-257 -257.5)"/><path class="cls-2" d="M283.16,270.77a0.6,0.6,0,0,0-.84.25,0.68,0.68,0,0,0,.24.9,6.59,6.59,0,0,1,2.71,5.65,7.41,7.41,0,0,1-1.26,4.32,5.28,5.28,0,0,1-1.28,1.33,0.68,0.68,0,0,0-.21.9,0.61,0.61,0,0,0,.53.32,0.58,0.58,0,0,0,.32-0.09,7.94,7.94,0,0,0,3.15-6.79A7.86,7.86,0,0,0,283.16,270.77Z" transform="translate(-257 -257.5)"/><path class="cls-2" d="M283.62,277.57a4.35,4.35,0,0,0-1.6-3.63,0.6,0.6,0,0,0-.85.2,0.68,0.68,0,0,0,.19.91,3.59,3.59,0,0,1,0,5,0.68,0.68,0,0,0-.19.91,0.6,0.6,0,0,0,.85.2A4.34,4.34,0,0,0,283.62,277.57Z" transform="translate(-257 -257.5)"/></svg>