<svg id="Layer_1" data-name="Layer 1" xmlns="http://www.w3.org/2000/svg" viewBox="0 0 40 40"><defs><style>.cls-1{fill:#e63333;}.cls-2{fill:#fff;}</style></defs><title>media-camera</title><circle class="cls-1" cx="20" cy="20" r="20"/><path class="cls-2" d="M303.83,415.3a4,4,0,0,1,2.75,1.08,3.57,3.57,0,0,1,0,5.22,4,4,0,0,1-5.49,0,3.57,3.57,0,0,1,0-5.22,4,4,0,0,1,2.75-1.08h0Zm-6.56-2.06v-1.08a0.44,0.44,0,0,1,.46-0.43h3.46a0.44,0.44,0,0,1,.45.43v1.08h9.74a0.44,0.44,0,0,1,.45.43v10.63a0.44,0.44,0,0,1-.45.43H296.28a0.45,0.45,0,0,1-.46-0.43V413.68a0.45,0.45,0,0,1,.46-0.43h1Zm3.46,0V412.6h-2.55v0.64h2.55Zm9.57,1.29H297.35v8.91H310.3v-8.91Zm-4.59,2.66a2.77,2.77,0,0,0-3.77,0,2.45,2.45,0,0,0,0,3.58,2.76,2.76,0,0,0,3.77,0,2.44,2.44,0,0,0,0-3.58h0Zm0.22-.21" transform="translate(-283.83 -399)"/></svg>