<svg id="Layer_1" data-name="Layer 1" xmlns="http://www.w3.org/2000/svg" xmlns:xlink="http://www.w3.org/1999/xlink" viewBox="0 0 40 40"><defs><style>.cls-1{fill:none;}.cls-2{fill:#e63333;}.cls-3{clip-path:url(#clip-path);}.cls-4{fill:#fff;}</style><clipPath id="clip-path" transform="translate(-283.83 -399)"><rect class="cls-1" x="295.83" y="411.2" width="16" height="15"/></clipPath></defs><title>media-presentation</title><circle class="cls-2" cx="20" cy="20" r="20"/><g class="cls-3"><path class="cls-4" d="M311.27,412.32h-6.66v-0.38a0.81,0.81,0,0,0-1.62,0v0.38h-6.66a0.49,0.49,0,0,0-.51.47v9.55a0.49,0.49,0,0,0,.51.47H303v1l-2.18.93a0.71,0.71,0,0,0-.39,1,0.85,0.85,0,0,0,1.08.35l1.53-.65a0.84,0.84,0,0,0,1.55,0l1.53,0.65a0.88,0.88,0,0,0,.34.07,0.82,0.82,0,0,0,.73-0.42,0.71,0.71,0,0,0-.39-1l-2.18-.93v-1h6.66a0.49,0.49,0,0,0,.51-0.47v-9.55a0.49,0.49,0,0,0-.51-0.47h0Zm-1.11,9H297.45v-7.54h12.72v7.54Zm0,0" transform="translate(-283.83 -399)"/></g><path class="cls-4" d="M299.73,420a0.85,0.85,0,0,0,.58-0.22l1.55-1.45,2,1.07a0.88,0.88,0,0,0,1-.09l3.62-3a0.69,0.69,0,0,0,.05-1,0.87,0.87,0,0,0-1.15,0l-3.18,2.62-2-1.09a0.87,0.87,0,0,0-1,.12l-2,1.86a0.69,0.69,0,0,0,0,1,0.85,0.85,0,0,0,.57.21h0Zm0,0" transform="translate(-283.83 -399)"/></svg>