<?xml version="1.0" encoding="utf-8"?>
<!-- Generator: Adobe Illustrator 16.0.0, SVG Export Plug-In . SVG Version: 6.00 Build 0)  -->
<!DOCTYPE svg PUBLIC "-//W3C//DTD SVG 1.1//EN" "http://www.w3.org/Graphics/SVG/1.1/DTD/svg11.dtd">
<svg version="1.1" id="Layer_1" xmlns="http://www.w3.org/2000/svg" xmlns:xlink="http://www.w3.org/1999/xlink" x="0px" y="0px"
	 width="22.746px" height="17.719px" viewBox="0 0 22.746 17.719" enable-background="new 0 0 22.746 17.719" xml:space="preserve">
<polygon points="11.373,14.586 13.505,10.879 14.392,13.39 13.675,13.39 13.675,14.496 17.937,14.496 17.937,13.39 17.123,13.39 
	14.062,5.34 11.373,10.296 8.683,5.34 5.623,13.39 4.809,13.39 4.809,14.496 9.069,14.496 9.069,13.39 8.354,13.39 9.24,10.879 "/>
<path d="M20.804,17.719H1.941l-0.162-0.255C0.615,15.635,0,13.528,0,11.373C0,5.102,5.102,0,11.373,0s11.373,5.102,11.373,11.373
	c0,2.155-0.615,4.263-1.779,6.092L20.804,17.719z M2.55,16.619h17.646c0.95-1.592,1.45-3.398,1.45-5.246
	c0-5.665-4.609-10.272-10.273-10.272C5.708,1.1,1.099,5.708,1.099,11.373C1.099,13.22,1.6,15.027,2.55,16.619"/>
</svg>
