<?xml version="1.0" encoding="utf-8"?>
<!-- Generator: Adobe Illustrator 16.0.0, SVG Export Plug-In . SVG Version: 6.00 Build 0)  -->
<!DOCTYPE svg PUBLIC "-//W3C//DTD SVG 1.1//EN" "http://www.w3.org/Graphics/SVG/1.1/DTD/svg11.dtd">
<svg version="1.1" id="Layer_1" xmlns="http://www.w3.org/2000/svg" xmlns:xlink="http://www.w3.org/1999/xlink" x="0px" y="0px"
	 width="179.678px" height="116.791px" viewBox="0 0 179.678 116.791" enable-background="new 0 0 179.678 116.791"
	 xml:space="preserve">
<g>
	<g>
		<path fill="#D0031C" d="M96.843,20.377c0.238-0.216,0.37-0.528,0.37-0.946c0-0.383-0.094-0.694-0.311-0.91
			c-0.216-0.238-0.552-0.37-0.994-0.37h-1.581v2.572h1.496C96.231,20.723,96.591,20.616,96.843,20.377z"/>
		<path fill="#D0031C" d="M72.465,98.328c-1.003,0-1.734,0.348-2.245,0.877c-0.585,0.621-0.857,1.59-0.857,2.74
			c0,1.059,0.2,1.953,0.728,2.611c0.494,0.602,1.281,1.004,2.375,1.004c1.115,0,1.881-0.402,2.376-1.039
			c0.511-0.623,0.729-1.518,0.729-2.576c0-1.096-0.273-2.102-0.859-2.74C74.219,98.71,73.451,98.328,72.465,98.328z"/>
		<path fill="#D0031C" d="M87.566,22.748c0.729,0,1.232-0.265,1.557-0.684c0.335-0.406,0.478-0.994,0.478-1.688
			c0-0.719-0.179-1.378-0.562-1.797c-0.323-0.322-0.826-0.574-1.473-0.574c-0.659,0-1.137,0.228-1.474,0.574
			c-0.382,0.407-0.562,1.042-0.562,1.797c0,0.693,0.133,1.281,0.479,1.711C86.333,22.483,86.849,22.748,87.566,22.748z"/>
		<path fill="#D0031C" d="M103.704,22.748c0.729,0,1.232-0.265,1.556-0.684c0.336-0.406,0.479-0.994,0.479-1.688
			c0-0.719-0.179-1.378-0.563-1.797c-0.322-0.322-0.824-0.574-1.472-0.574c-0.659,0-1.138,0.228-1.473,0.574
			c-0.383,0.407-0.562,1.042-0.562,1.797c0,0.693,0.131,1.281,0.477,1.711C102.472,22.483,102.985,22.748,103.704,22.748z"/>
		<path fill="#D0031C" d="M152.755,21.418c0-0.335-0.084-0.609-0.252-0.814c-0.203-0.239-0.55-0.383-1.041-0.383h-1.543v2.383h1.555
			c0.372,0,0.694-0.108,0.922-0.312C152.61,22.101,152.755,21.788,152.755,21.418z"/>
		<path fill="#D0031C" d="M111.779,100.355c0.182-0.201,0.273-0.492,0.273-0.768c0-0.291-0.092-0.547-0.311-0.748
			c-0.183-0.164-0.455-0.273-0.84-0.273h-3.123v2.119h3.195C111.341,100.685,111.597,100.574,111.779,100.355z"/>
		<path fill="#D0031C" d="M113.72,18.15h-2.31l-0.468,3.566c-0.048,0.348-0.156,0.646-0.288,0.887h3.065V18.15z"/>
		<polygon fill="#D0031C" points="122.503,99.058 120.693,103.699 124.529,103.699 122.723,99.058 		"/>
		<path fill="#D0031C" d="M179.664,110.652l0.005-0.264c0.012-1.26,0.012-1.387-0.001-2.686c-3.356-1.73-0.004-3.418-0.004-3.418
			l0.004-0.184h0.001c0.012-1.258,0.012-1.387,0-2.686h-0.001v-0.023c-1.045-0.537-1.439-1.072-1.486-1.555
			c-0.082-1.051,1.482-1.84,1.482-1.84l0.005-0.262c0.012-1.252,0.012-1.389-0.001-2.668v-0.021
			c-1.047-0.541-1.441-1.076-1.488-1.557c-0.1-1.061,1.484-1.859,1.484-1.859l0.002-0.145l0.002-0.045
			c0.002-0.318,0.006-0.564,0.006-0.777c0.006-0.633,0.002-0.947-0.006-1.928c-1.047-0.539-1.441-1.072-1.488-1.555
			c-0.084-1.055,1.484-1.846,1.484-1.846l0.002-0.221l0.002-0.037c0.006-0.631,0.008-0.979,0.008-1.33s-0.002-0.709-0.008-1.359
			c-1.047-0.541-1.441-1.076-1.488-1.559c-0.097-1.061,1.484-1.859,1.484-1.859l0.004-0.182c0.006-0.637,0.008-0.984,0.008-1.342
			c0-0.355-0.002-0.713-0.008-1.369c-1.045-0.539-1.439-1.074-1.488-1.553c-0.08-1.053,1.484-1.844,1.484-1.844l0.004-0.262
			c0.006-0.629,0.008-0.977,0.008-1.328c0-0.354-0.002-0.711-0.008-1.361c-1.048-0.539-1.442-1.076-1.488-1.559
			c-0.1-1.061,1.483-1.857,1.483-1.857l0.005-0.205c0.008-0.955,0.012-1.262,0.006-1.92c-0.001-0.225-0.004-0.484-0.006-0.832
			c-1.041-0.539-1.436-1.07-1.486-1.549c-0.04-1.033,1.482-1.805,1.482-1.805l0.004-0.242c0.008-0.953,0.012-1.262,0.006-1.92
			c0-0.229-0.004-0.494-0.006-0.852c-1.039-0.537-1.434-1.066-1.484-1.547c-0.025-1.023,1.479-1.787,1.479-1.787l0.005-0.27
			c0.012-1.256,0.012-1.385,0-2.684c0,0-0.002,0-0.002-0.002v-0.023c-1.044-0.537-1.438-1.072-1.486-1.553
			c-0.082-1.053,1.483-1.842,1.483-1.842l0.005-0.262c0.012-1.248,0.012-1.387,0-2.658v-0.031c-1.048-0.539-1.442-1.076-1.488-1.557
			c-0.1-1.063,1.483-1.859,1.483-1.859l0.005-0.205c0.012-1.258,0.01-1.389-0.002-2.688c-1.046-0.539-1.44-1.074-1.487-1.557
			c-0.084-1.053,1.484-1.844,1.484-1.844l0.001-0.078l0.004-0.182c0.01-1.26,0.01-1.387,0-2.686h-0.002v-0.004
			c-1.046-0.539-1.44-1.074-1.487-1.557c-0.099-1.061,1.484-1.859,1.484-1.859l0.003-0.186c0.012-1.258,0.012-1.387,0-2.686v-0.002
			v-0.021c-1.045-0.539-1.439-1.072-1.486-1.555c-0.08-1.051,1.483-1.84,1.483-1.84l0.003-0.262c0.012-1.26,0.01-1.387,0-2.688
			c0,0,0,0,0-0.001v-0.001c-0.838-0.434-1.258-0.861-1.416-1.264c-0.472-1.205,1.412-2.152,1.412-2.152l0.004-0.205
			c0.012-1.26,0.012-1.389,0-2.688c-3.356-1.729-0.004-3.418-0.004-3.418l0.004-0.24c0.01-1.262,0.012-1.388,0-2.688
			c-3.357-1.73-0.004-3.42-0.004-3.42V0.134l-0.037-0.068c-1.212-0.012-1.336-0.012-2.588-0.002
			c-1.663,3.484-3.295,0.002-3.295,0.002l-0.041-0.002V0.06l-0.195-0.006c-1.214-0.012-1.338-0.012-2.59,0
			c0,0.002-0.002,0.004-0.003,0.006h-0.01c-0.413,0.863-0.825,1.297-1.208,1.463c-1.158,0.484-2.074-1.469-2.074-1.469l-0.233-0.004
			c-1.21-0.012-1.335-0.012-2.587-0.002c-0.719,1.508-1.433,1.707-2.01,1.453c-0.748-0.346-1.265-1.445-1.265-1.445h-0.017
			c-0.002,0-0.004-0.006-0.004-0.006l-0.178-0.004c-1.213-0.012-1.336-0.013-2.588-0.002c-0.001,0.002-0.003,0.004-0.003,0.006
			c-0.011,0.001-0.019,0.001-0.028,0.001c-0.51,1.065-1.016,1.476-1.474,1.536c-1.02,0.098-1.79-1.543-1.79-1.543l-0.252-0.003
			c-1.213-0.013-1.336-0.013-2.587-0.001c-0.616,1.285-1.226,1.619-1.75,1.531c-0.875-0.182-1.505-1.523-1.505-1.523h-0.037
			c0-0.002-0.003-0.007-0.003-0.007l-0.199-0.003c-1.212-0.014-1.336-0.014-2.587-0.004c-0.002,0.002-0.002,0.004-0.004,0.007h-0.01
			v0.017c-1.659,3.438-3.281-0.021-3.281-0.021l-0.234-0.006c-1.21-0.012-1.335-0.012-2.586-0.002
			c-1.664,3.484-3.295,0.004-3.295,0.004l-2.705-0.004l-0.189,0.001c-0.921,1.931-1.832,1.722-2.463,1.153
			C131.293,0.726,131,0.099,131,0.099h-0.041c-0.021-0.041-0.033-0.066-0.033-0.066l-0.234-0.004
			c-1.211-0.014-1.335-0.012-2.587-0.004c-1.091,2.284-2.167,1.576-2.778,0.815c-0.29-0.377-0.463-0.745-0.463-0.745h-0.018
			c-0.022-0.041-0.035-0.068-0.035-0.068l-0.18-0.004c-1.211-0.013-1.335-0.013-2.586-0.002c-1.666,3.483-3.296,0.001-3.296,0.001
			l-0.253-0.003c-1.212-0.012-1.336-0.012-2.588-0.002c-1.082,2.266-2.149,1.584-2.764,0.831c-0.298-0.384-0.477-0.762-0.477-0.762
			l-0.02-0.001c-0.021-0.041-0.033-0.066-0.033-0.066l-0.197-0.004c-1.213-0.013-1.338-0.013-2.59-0.002
			c-0.92,1.924-1.828,1.721-2.456,1.156c-0.468-0.457-0.765-1.088-0.765-1.088h-0.039c-0.021-0.041-0.033-0.066-0.033-0.066
			l-0.234-0.005c-1.212-0.013-1.336-0.013-2.588-0.001c-1.09,2.281-2.166,1.573-2.778,0.813c-0.289-0.377-0.462-0.744-0.462-0.744
			h-0.021c-0.021-0.041-0.032-0.068-0.032-0.068l-2.707-0.002l-0.002,0.059v0.004h-0.025c-1.664,3.484-3.295,0.003-3.295,0.003
			l-0.231-0.005c-1.214-0.012-1.337-0.012-2.587-0.002c-1.666,3.483-3.296,0.002-3.296,0.002l-0.259-0.004
			c-1.213-0.012-1.338-0.012-2.588-0.003c-1.664,3.483-3.296,0.002-3.296,0.002L81.882,0.06c-1.212-0.014-1.335-0.014-2.587-0.002
			C77.63,3.54,76,0.06,76,0.06l-0.198-0.006c-1.212-0.012-1.336-0.012-2.588,0c-1.663,3.481-3.295,0-3.295,0L69.687,0.05
			c-1.211-0.012-1.336-0.012-2.587-0.002c-1.666,3.484-3.296,0.002-3.296,0.002l-0.178-0.004c-1.214-0.012-1.337-0.013-2.589-0.002
			c-1.664,3.482-3.294,0-3.294,0l-0.252-0.003c-1.212-0.013-1.337-0.013-2.589-0.001c-1.663,3.482-3.294,0.001-3.294,0.001
			L51.41,0.038c-1.211-0.014-1.336-0.014-2.589-0.004c-1.663,3.482-3.292,0.002-3.292,0.002L45.296,0.03
			c-1.213-0.012-1.337-0.012-2.59-0.002c-1.663,3.484-3.294,0.004-3.294,0.004l-2.705-0.004L36.52,0.029
			c-1.666,3.483-3.297,0.003-3.297,0.003L32.99,0.028c-1.211-0.014-1.336-0.012-2.588-0.004c-1.663,3.482-3.294,0.002-3.294,0.002
			L26.93,0.022c-1.215-0.013-1.336-0.013-2.588-0.002c-1.664,3.483-3.294,0.001-3.294,0.001l-0.252-0.003
			c-1.214-0.012-1.337-0.012-2.589-0.002c-1.664,3.482-3.293,0.002-3.293,0.002l-0.199-0.004c-1.213-0.013-1.336-0.013-2.59-0.002
			c-1.663,3.482-3.293,0.002-3.293,0.002L8.6,0.01C7.387-0.003,7.264-0.003,6.011,0.009c-1.663,3.482-3.294,0-3.294,0L0.011,0.007
			L0.008,0.065c-0.011,1.258-0.011,1.389,0,2.688c3.357,1.729,0.005,3.418,0.005,3.418L0.009,6.433
			C-0.003,7.692-0.003,7.82,0.008,9.12c3.357,1.727,0.005,3.418,0.005,3.418L0.01,12.684L0.008,12.72
			c-0.011,1.258-0.011,1.389,0,2.688l0.001,0.001v0.021c1.046,0.538,1.439,1.075,1.487,1.555c0.08,1.051-1.483,1.841-1.483,1.841
			l-0.004,0.262c-0.012,1.259-0.012,1.389-0.001,2.688c0.001,0,0.001,0,0.002,0v0.002c0.838,0.432,1.258,0.861,1.414,1.264
			c0.473,1.202-1.411,2.153-1.411,2.153l-0.001,0.033l-0.003,0.156c-0.001,0.082-0.001,0.148-0.003,0.223
			c-0.009,1.059-0.007,1.26,0.003,2.48c1.049,0.539,1.44,1.076,1.489,1.557c0.082,1.055-1.485,1.846-1.485,1.846l-0.001,0.061
			l-0.003,0.195c-0.007,0.805-0.01,1.15-0.007,1.633c0,0.273,0.004,0.588,0.007,1.059c1.048,0.539,1.44,1.074,1.489,1.557
			c0.098,1.061-1.485,1.859-1.485,1.859l-0.004,0.186c-0.011,1.26-0.011,1.385,0,2.684l0.001,0.002v0.023
			c1.045,0.537,1.438,1.072,1.486,1.553c0.083,1.053-1.483,1.842-1.483,1.842L0.01,44.402c-0.012,1.262-0.012,1.389-0.001,2.688
			H0.01v0.002c1.047,0.541,1.439,1.076,1.488,1.557c0.1,1.061-1.484,1.859-1.484,1.859l-0.005,0.207
			C0,51.662-0.001,51.97,0.003,52.621c0.001,0.227,0.003,0.492,0.007,0.846c1.04,0.537,1.436,1.068,1.485,1.547
			c0.04,1.033-1.481,1.805-1.481,1.805L0.01,57.06C0.002,57.884,0,58.228,0.002,58.73c0.001,0.283,0.004,0.607,0.008,1.104
			c1.039,0.537,1.434,1.068,1.485,1.547c0.021,1.023-1.481,1.785-1.481,1.785l-0.004,0.27C0,64.369-0.001,64.681,0.003,65.306
			c0.001,0.227,0.003,0.488,0.007,0.838c1.047,0.539,1.439,1.076,1.488,1.557c0.078,1.051-1.484,1.84-1.484,1.84L0.01,69.802
			c-0.011,1.258-0.011,1.385,0,2.688c1.049,0.541,1.441,1.078,1.488,1.559c0.1,1.061-1.484,1.859-1.484,1.859L0.01,76.113
			c-0.011,1.26-0.011,1.387,0,2.686c1.048,0.541,1.441,1.076,1.488,1.559c0.084,1.051-1.484,1.844-1.484,1.844v0.07L0.01,82.458
			C0.002,83.357,0,83.683,0.003,84.265c0.003,0.234,0.003,0.508,0.007,0.883c1.049,0.541,1.443,1.078,1.489,1.559
			c0.098,1.061-1.485,1.859-1.485,1.859L0.01,88.751C0.002,89.683,0,89.998,0.004,90.626c0.002,0.223,0.004,0.484,0.006,0.832
			c1.048,0.539,1.439,1.076,1.488,1.557c0.077,1.053-1.484,1.84-1.484,1.84L0.01,95.117c-0.011,1.26-0.011,1.387,0,2.688h0.001
			v0.002c1.048,0.541,1.44,1.076,1.488,1.557c0.099,1.061-1.485,1.859-1.485,1.859l-0.004,0.205c-0.01,1.26-0.011,1.389,0,2.688
			c3.358,1.729,0.004,3.418,0.004,3.418l-0.003,0.242c-0.011,1.258-0.011,1.387,0,2.686c3.358,1.729,0.003,3.418,0.003,3.418
			l0.002,2.809c0,0,1.336,0.014,2.587,0.004c1.665-3.484,3.293-0.004,3.293-0.004l0.252,0.006c1.214,0.012,1.337,0.012,2.59,0.002
			c1.663-3.482,3.294-0.002,3.294-0.002l0.199,0.004c1.211,0.014,1.334,0.014,2.586,0.002c1.664-3.482,3.295-0.002,3.295-0.002
			l0.232,0.004c1.214,0.012,1.337,0.012,2.588,0.002c1.666-3.48,3.295-0.002,3.295-0.002l0.18,0.006
			c1.213,0.012,1.335,0.012,2.588,0.002c1.662-3.484,3.294-0.002,3.294-0.002l0.252,0.004c1.212,0.012,1.337,0.014,2.589,0.002
			c1.664-3.484,3.293-0.002,3.293-0.002l0.198,0.004c1.213,0.012,1.336,0.012,2.589,0.002c1.664-3.48,3.293-0.002,3.293-0.002
			l0.234,0.006c1.213,0.012,1.336,0.012,2.588,0.002c1.663-3.484,3.295-0.002,3.295-0.002l0.258,0.004
			c1.213,0.012,1.337,0.014,2.588,0.002c1.664-3.484,3.295-0.002,3.295-0.002l0.252,0.004c1.213,0.014,1.336,0.014,2.588,0.002
			c1.664-3.482,3.295-0.002,3.295-0.002l0.199,0.006c1.211,0.014,1.336,0.014,2.587,0.002c1.663-3.484,3.295-0.002,3.295-0.002
			l0.231,0.004c1.215,0.014,1.337,0.014,2.59,0.004c1.662-3.484,3.295-0.004,3.295-0.004l0.177,0.004
			c1.212,0.012,1.337,0.012,2.587,0.004c1.666-3.484,3.297-0.002,3.297-0.002l0.252,0.004c1.211,0.012,1.334,0.012,2.586,0
			c1.666-3.48,3.297,0,3.297,0l0.196,0.004c1.214,0.014,1.336,0.014,2.589,0.002c1.664-3.482,3.294-0.002,3.294-0.002l0.231,0.004
			c1.216,0.014,1.338,0.014,2.59,0.002c1.664-3.482,3.295-0.002,3.295-0.002l2.705,0.002l0.189-0.002
			c0.92-1.924,1.827-1.721,2.458-1.154c0.468,0.457,0.763,1.086,0.763,1.086h0.039c0.021,0.043,0.034,0.068,0.034,0.068l0.233,0.002
			c1.213,0.016,1.336,0.016,2.588,0.004c1.086-2.275,2.158-1.578,2.771-0.82c0.293,0.379,0.471,0.752,0.471,0.752h0.02
			c0.021,0.043,0.032,0.066,0.032,0.066l0.179,0.006c1.213,0.012,1.335,0.012,2.588,0.002c1.663-3.482,3.295-0.002,3.295-0.002
			l0.252,0.004c1.213,0.014,1.336,0.014,2.588,0.002c1.086-2.275,2.159-1.578,2.773-0.822c0.292,0.381,0.469,0.752,0.469,0.752
			l0.02,0.002c0.021,0.043,0.032,0.066,0.032,0.066l0.199,0.004c1.212,0.012,1.335,0.012,2.589,0.004
			c0.916-1.922,1.822-1.725,2.453-1.16c0.47,0.455,0.768,1.09,0.768,1.09h0.04c0.021,0.041,0.032,0.066,0.032,0.066l0.232,0.004
			c1.213,0.014,1.338,0.014,2.589,0.004c1.089-2.283,2.165-1.574,2.776-0.816c0.292,0.377,0.464,0.746,0.464,0.746h0.02
			c0.022,0.041,0.034,0.068,0.034,0.068l2.706,0.002l0.04,0.01c0-0.037,0-0.066,0.001-0.102c1.659-3.434,3.28,0.025,3.28,0.025
			l0.232,0.006c1.213,0.012,1.338,0.012,2.589,0.002c1.663-3.484,3.294-0.002,3.294-0.002l0.096,0.002l0.233,0.004
			c1.212,0.014,1.335,0.014,2.588,0c0.519-1.084,1.032-1.49,1.496-1.541c0.988-0.029,1.728,1.539,1.728,1.539l0.07,0.002h0.001
			l0.177,0.004c1.214,0.014,1.336,0.014,2.588,0.002c0,0,0.002,0,0.002-0.002h0.004c0.415-0.869,0.83-1.305,1.214-1.469
			c1.159-0.484,2.076,1.469,2.076,1.469l0.252,0.006c1.214,0.012,1.337,0.012,2.589,0.002c0.52-1.086,1.033-1.496,1.499-1.543
			c0.997-0.051,1.745,1.539,1.745,1.539l0.048,0.002h0.001l0.199,0.004c1.212,0.012,1.336,0.012,2.588,0.002
			c0.619-1.297,1.234-1.625,1.762-1.533c0.882,0.174,1.518,1.529,1.518,1.529h0.014l0.001,0.002l0.232,0.006
			c1.214,0.01,1.337,0.01,2.589,0.002c1.662-3.484,3.293-0.002,3.293-0.002l2.707,0.002l0.04,0.008c0.012-1.256,0.012-1.385,0-2.686
			C176.312,112.339,179.664,110.652,179.664,110.652z M158.405,16.187h1.533v1.688l-0.109,3.866h-1.278l-0.146-3.866V16.187z
			 M159.185,22.279c0.598,0,0.933,0.384,0.933,0.873c0,0.515-0.335,0.886-0.933,0.886c-0.588,0-0.935-0.372-0.935-0.886
			C158.25,22.663,158.597,22.279,159.185,22.279z M155.148,16.786h1.808v7.182h-1.808V16.786z M148.086,16.786h1.833v2.058h1.77
			c0.947,0,1.714,0.276,2.203,0.803c0.407,0.419,0.635,1.005,0.635,1.771c0,0.777-0.286,1.412-0.789,1.855s-1.21,0.695-2.071,0.695
			h-3.58V16.786z M137.513,16.786h2.61l1.964,5.409l1.976-5.409h2.585v7.182h-1.76v-5.064h-0.083l-1.855,5.064h-1.856l-1.855-5.064
			h-0.071v5.064h-1.653V16.786z M129.065,16.785h1.797v4.597l3.556-4.597h1.663v7.183h-1.808v-4.585l-3.567,4.585h-1.641V16.785z
			 M125.929,20.986c-0.178-0.155-0.419-0.251-0.705-0.251h-2.753v-1.329h2.562c0.251,0,0.442-0.095,0.563-0.262
			c0.084-0.121,0.131-0.265,0.131-0.419c0-0.228-0.084-0.372-0.263-0.492c-0.227-0.168-0.622-0.228-1.246-0.228
			c-0.802,0-1.543,0.12-2.549,0.456l-0.419-1.174c0.934-0.419,1.951-0.635,3.147-0.635c0.91,0,1.929,0.145,2.539,0.647
			c0.358,0.31,0.6,0.729,0.6,1.328c0,0.264-0.073,0.504-0.181,0.706c-0.106,0.191-0.276,0.359-0.49,0.49v0.071
			c0.322,0.146,0.598,0.349,0.789,0.6c0.228,0.275,0.347,0.622,0.347,1.054c0,0.79-0.322,1.425-0.957,1.88
			c-0.635,0.429-1.533,0.669-2.682,0.669c-1.281,0-2.382-0.203-3.435-0.717l0.479-1.247c1.183,0.445,2.118,0.563,2.955,0.563
			c0.706,0,1.172-0.131,1.461-0.358c0.251-0.191,0.371-0.442,0.371-0.767C126.193,21.321,126.098,21.143,125.929,20.986z
			 M108.033,22.626h0.192c0.323,0,0.537-0.071,0.694-0.239c0.181-0.153,0.275-0.431,0.323-0.776l0.61-4.824h5.662v5.817h0.754v2.789
			h-1.52l-0.12-1.424h-4.968l-0.133,1.424h-1.496V22.626z M100.878,17.683c0.671-0.657,1.641-1.029,2.826-1.029
			c1.077,0,2.047,0.348,2.741,0.957c0.694,0.623,1.114,1.568,1.114,2.767c0,1.065-0.3,1.938-0.874,2.561
			c-0.694,0.743-1.712,1.162-2.981,1.162c-1.138,0-2.118-0.334-2.801-0.982c-0.671-0.622-1.078-1.544-1.078-2.74
			C99.825,19.252,100.208,18.329,100.878,17.683z M92.509,16.786h3.592c0.813,0,1.592,0.25,2.142,0.742
			c0.492,0.442,0.815,1.089,0.815,1.902c0,0.767-0.264,1.378-0.707,1.808c-0.562,0.551-1.424,0.838-2.382,0.85h-1.642v1.88h-1.818
			V16.786z M84.74,17.683c0.671-0.657,1.64-1.029,2.826-1.029c1.077,0,2.048,0.348,2.741,0.957c0.694,0.623,1.113,1.568,1.113,2.767
			c0,1.065-0.299,1.938-0.873,2.561c-0.694,0.743-1.712,1.162-2.981,1.162c-1.137,0-2.118-0.334-2.801-0.982
			c-0.672-0.622-1.079-1.544-1.079-2.74C83.687,19.252,84.07,18.329,84.74,17.683z M77.249,16.786h5.889v1.364h-4.046v5.818h-1.843
			V16.786z M67.649,14.547c0.023,0.239,0.106,0.396,0.25,0.514c0.12,0.096,0.275,0.156,0.479,0.156c0.228,0,0.372-0.047,0.49-0.144
			c0.132-0.131,0.228-0.287,0.252-0.526l1.148,0.119c-0.06,0.54-0.274,0.982-0.586,1.246c-0.335,0.299-0.766,0.454-1.305,0.454
			c-0.515,0-0.958-0.167-1.304-0.468c-0.313-0.274-0.528-0.692-0.576-1.232L67.649,14.547z M64.799,16.785h1.797v4.597l3.555-4.597
			h1.664v7.183h-1.808v-4.585l-3.567,4.585h-1.641V16.785z M56.351,16.785h1.797v4.597l3.556-4.597h1.664v7.183H61.56v-4.585
			l-3.568,4.585h-1.641V16.785z M44.852,16.786h1.783v5.817h2.358v-5.817h1.784v5.817h2.358v-5.817h1.771v7.182H44.852V16.786z
			 M36.596,16.786h1.83v2.273c0,0.61,0.145,1.054,0.432,1.341c0.275,0.287,0.706,0.419,1.294,0.419c0.562,0,0.957-0.071,1.448-0.274
			v-3.759h1.819v7.182H41.6v-2.06c-0.563,0.205-1.103,0.3-1.653,0.3c-1.004,0-1.915-0.252-2.525-0.851
			c-0.516-0.491-0.825-1.208-0.825-2.358V16.786z M30.175,16.786l2.022,3.962h0.047l1.736-3.962h1.856l-2.718,5.564
			c-0.275,0.552-0.575,1.031-1.018,1.342c-0.358,0.241-0.814,0.383-1.496,0.383c-0.384,0-0.671-0.023-0.992-0.107l0.154-1.22h0.67
			c0.192,0,0.347-0.05,0.466-0.133c0.121-0.072,0.203-0.192,0.312-0.42l-3.076-5.409H30.175z M19.161,23.873l0.252-1.257
			c0.264,0.072,0.443,0.096,0.693,0.096c0.251,0,0.431-0.071,0.551-0.203c0.119-0.132,0.216-0.336,0.251-0.6l0.743-5.122h5.615
			v7.182h-1.833V18.15h-2.25l-0.539,3.985c-0.072,0.599-0.323,1.089-0.67,1.413c-0.348,0.324-0.839,0.49-1.438,0.49
			C19.976,24.039,19.616,24.003,19.161,23.873z M64.59,107.423h-2.685v-7.725h-0.128l-2.83,7.725h-2.831l-2.831-7.725h-0.109v7.725
			h-2.521V96.466h3.981l2.994,8.254l3.014-8.254h3.945V107.423z M77.014,105.853c-1.059,1.133-2.612,1.77-4.549,1.77
			c-1.734,0-3.231-0.51-4.271-1.496c-1.023-0.951-1.645-2.357-1.645-4.182c0-1.717,0.584-3.123,1.606-4.109
			c1.024-1.006,2.503-1.572,4.31-1.572c1.645,0,3.125,0.531,4.184,1.461c1.059,0.951,1.697,2.395,1.697,4.221
			C78.346,103.568,77.889,104.902,77.014,105.853z M86.204,107.625c-1.863,0-3.489-0.549-4.731-1.719
			c-1.003-0.93-1.625-2.246-1.625-3.961c0-1.883,0.695-3.289,1.826-4.221c1.188-0.967,2.703-1.461,4.512-1.461
			c1.516,0,2.756,0.203,4.182,0.932l-0.785,1.846c-1.223-0.455-2.137-0.656-3.214-0.656c-1.097,0-2.175,0.363-2.775,0.984
			c-0.622,0.621-0.95,1.518-0.95,2.576c0,0.93,0.311,1.752,0.822,2.393c0.619,0.693,1.715,1.17,2.903,1.17
			c1.224,0,2.045-0.203,3.231-0.695l0.786,1.807C88.998,107.369,87.738,107.625,86.204,107.625z M100.032,107.423l-2.886-4.75
			h-2.027v4.75h-2.775V96.466h2.775v4.107h1.992l1.588-2.701c0.33-0.549,0.767-0.951,1.205-1.188
			c0.493-0.256,1.041-0.367,1.607-0.367c0.512,0,0.967,0.074,1.424,0.201l-0.201,1.883h-0.511c-0.311,0-0.585,0.035-0.784,0.127
			c-0.221,0.092-0.385,0.256-0.53,0.492l-1.57,2.447l3.798,5.955H100.032z M114.226,106.455c-0.749,0.641-1.807,0.969-2.995,0.969
			h-6.209V96.464h5.953c1.114,0,2.191,0.238,2.922,0.84c0.531,0.439,0.877,1.098,0.877,1.973c0,0.549-0.109,1.006-0.365,1.408
			c-0.183,0.291-0.439,0.547-0.748,0.748v0.109c0.439,0.199,0.785,0.475,1.06,0.785c0.401,0.475,0.602,1.078,0.602,1.697
			C115.321,105.066,114.901,105.871,114.226,106.455z M126.117,107.423l-0.675-1.607h-5.642l-0.696,1.607h-2.829l4.895-10.957h2.977
			l4.875,10.957H126.117z M160.822,89.33H19.963V32.398h140.859V89.33z"/>
		<path fill="#D0031C" d="M111.176,102.656h-3.396v2.666h3.396c0.494,0,0.877-0.145,1.15-0.42c0.201-0.219,0.311-0.529,0.311-0.949
			s-0.127-0.73-0.347-0.949C112.035,102.765,111.65,102.656,111.176,102.656z"/>
		<path fill="#D0031C" d="M69.991,84.185c-3.887-3.189-6.369-8.025-6.369-13.443c0-9.594,7.777-17.369,17.37-17.369
			s17.369,7.775,17.369,17.369c0,5.418-2.481,10.254-6.37,13.443h5.751c3.868-4.338,6.221-10.055,6.221-16.324
			c0-13.557-10.989-24.547-24.547-24.547s-24.548,10.99-24.548,24.547c0,6.27,2.355,11.986,6.221,16.324H69.991z"/>
		<path fill="#D0031C" d="M94.472,45.367c1.376-3.576,2.019-5.701,2.168-6.043c0.302-0.686,0.006-1.229-0.89-1.625
			c-0.897-0.396-2.255-0.967-4.075-1.703c-1.818-0.742-3.207-1.322-4.162-1.744c-0.954-0.422-1.668-0.098-2.141,0.971
			c-0.658,1.484-1.509,3.434-2.551,5.848c0,0,1.993,0.043,5.045,1.061C90.914,43.154,94.472,45.367,94.472,45.367z"/>
		<path fill="#D0031C" d="M53.306,77.265H37.763c0.63-5.477,5.915-8.938,10.572-13.404c3.838-3.711,5.977-8.494,5.977-13.213
			c0-7.299-5.601-11.893-12.585-11.893c-6.102,0-12.583,4.342-12.583,13.592v2.643h8.054v-2.455c0-5.221,1.698-6.857,4.529-6.857
			c2.832,0,4.531,1.572,4.531,5.662c0,2.957-0.691,4.594-4.656,8.557c-3.713,3.715-13.025,9.502-13.025,21.961v2.328h24.729V77.265z
			"/>
		<path fill="#D0031C" d="M112.531,84.185h8.053V39.574h-5.85c-1.008,4.279-4.656,7.803-11.39,7.803h-1.068v6.104h10.255V84.185z"/>
		<path fill="#D0031C" d="M140.008,84.185c7.047,0,12.396-3.334,12.396-10.822V62.666c0-6.543-3.901-10.066-9.188-10.066
			c-2.391,0-5.537,1.385-7.048,3.146V50.46c0-4.531,1.386-6.041,4.09-6.041c2.644,0,4.09,1.258,4.09,3.838h8.056
			c0-6.543-4.972-10.57-12.333-10.57c-7.803,0-11.955,5.473-11.955,12.457v23.154C128.115,80.976,133.841,84.185,140.008,84.185z
			 M136.168,63.988c0-3.146,1.951-4.469,4.09-4.469c2.015,0,4.09,1.512,4.09,4.342v8.998c0,3.084-1.761,4.592-4.34,4.592
			c-2.581,0-3.84-1.508-3.84-4.527V63.988z"/>
	</g>
	<g>
		<path fill="#FFFFFF" d="M96.843,20.377c0.238-0.216,0.37-0.528,0.37-0.946c0-0.383-0.094-0.694-0.311-0.91
			c-0.216-0.238-0.552-0.37-0.994-0.37h-1.581v2.572h1.496C96.231,20.723,96.591,20.616,96.843,20.377z"/>
		<path fill="#FFFFFF" d="M72.465,98.328c-1.003,0-1.734,0.348-2.245,0.877c-0.585,0.621-0.857,1.59-0.857,2.74
			c0,1.059,0.2,1.953,0.728,2.611c0.494,0.602,1.281,1.004,2.375,1.004c1.115,0,1.881-0.402,2.376-1.039
			c0.511-0.623,0.729-1.518,0.729-2.576c0-1.096-0.273-2.102-0.859-2.74C74.219,98.71,73.451,98.328,72.465,98.328z"/>
		<path fill="#FFFFFF" d="M87.566,22.748c0.729,0,1.232-0.265,1.557-0.684c0.335-0.406,0.478-0.994,0.478-1.688
			c0-0.719-0.179-1.378-0.562-1.797c-0.323-0.322-0.826-0.574-1.473-0.574c-0.659,0-1.137,0.228-1.474,0.574
			c-0.382,0.407-0.562,1.042-0.562,1.797c0,0.693,0.133,1.281,0.479,1.711C86.333,22.483,86.849,22.748,87.566,22.748z"/>
		<path fill="#FFFFFF" d="M103.704,22.748c0.729,0,1.232-0.265,1.556-0.684c0.336-0.406,0.479-0.994,0.479-1.688
			c0-0.719-0.179-1.378-0.563-1.797c-0.322-0.322-0.824-0.574-1.472-0.574c-0.659,0-1.138,0.228-1.473,0.574
			c-0.383,0.407-0.562,1.042-0.562,1.797c0,0.693,0.131,1.281,0.477,1.711C102.472,22.483,102.985,22.748,103.704,22.748z"/>
		<path fill="#FFFFFF" d="M152.755,21.418c0-0.335-0.084-0.609-0.252-0.814c-0.203-0.239-0.55-0.383-1.041-0.383h-1.543v2.383h1.555
			c0.372,0,0.694-0.108,0.922-0.312C152.61,22.101,152.755,21.788,152.755,21.418z"/>
		<path fill="#FFFFFF" d="M111.779,100.355c0.182-0.201,0.273-0.492,0.273-0.768c0-0.291-0.092-0.547-0.311-0.748
			c-0.183-0.164-0.455-0.273-0.84-0.273h-3.123v2.119h3.195C111.341,100.685,111.597,100.574,111.779,100.355z"/>
		<path fill="#FFFFFF" d="M113.72,18.15h-2.31l-0.468,3.566c-0.048,0.348-0.156,0.646-0.288,0.887h3.065V18.15z"/>
		<polygon fill="#FFFFFF" points="122.503,99.058 120.693,103.699 124.529,103.699 122.723,99.058 		"/>
		<path fill="#FFFFFF" d="M179.664,110.652l0.005-0.264c0.012-1.26,0.012-1.387-0.001-2.686c-3.356-1.73-0.004-3.418-0.004-3.418
			l0.004-0.184h0.001c0.012-1.258,0.012-1.387,0-2.686h-0.001v-0.023c-1.045-0.537-1.439-1.072-1.486-1.555
			c-0.082-1.051,1.482-1.84,1.482-1.84l0.005-0.262c0.012-1.252,0.012-1.389-0.001-2.668v-0.021
			c-1.047-0.541-1.441-1.076-1.488-1.557c-0.1-1.061,1.484-1.859,1.484-1.859l0.002-0.145l0.002-0.045
			c0.002-0.318,0.006-0.564,0.006-0.777c0.006-0.633,0.002-0.947-0.006-1.928c-1.047-0.539-1.441-1.072-1.488-1.555
			c-0.084-1.055,1.484-1.846,1.484-1.846l0.002-0.221l0.002-0.037c0.006-0.631,0.008-0.979,0.008-1.33s-0.002-0.709-0.008-1.359
			c-1.047-0.541-1.441-1.076-1.488-1.559c-0.097-1.061,1.484-1.859,1.484-1.859l0.004-0.182c0.006-0.637,0.008-0.984,0.008-1.342
			c0-0.355-0.002-0.713-0.008-1.369c-1.045-0.539-1.439-1.074-1.488-1.553c-0.08-1.053,1.484-1.844,1.484-1.844l0.004-0.262
			c0.006-0.629,0.008-0.977,0.008-1.328c0-0.354-0.002-0.711-0.008-1.361c-1.048-0.539-1.442-1.076-1.488-1.559
			c-0.1-1.061,1.483-1.857,1.483-1.857l0.005-0.205c0.008-0.955,0.012-1.262,0.006-1.92c-0.001-0.225-0.004-0.484-0.006-0.832
			c-1.041-0.539-1.436-1.07-1.486-1.549c-0.04-1.033,1.482-1.805,1.482-1.805l0.004-0.242c0.008-0.953,0.012-1.262,0.006-1.92
			c0-0.229-0.004-0.494-0.006-0.852c-1.039-0.537-1.434-1.066-1.484-1.547c-0.025-1.023,1.479-1.787,1.479-1.787l0.005-0.27
			c0.012-1.256,0.012-1.385,0-2.684c0,0-0.002,0-0.002-0.002v-0.023c-1.044-0.537-1.438-1.072-1.486-1.553
			c-0.082-1.053,1.483-1.842,1.483-1.842l0.005-0.262c0.012-1.248,0.012-1.387,0-2.658v-0.031c-1.048-0.539-1.442-1.076-1.488-1.557
			c-0.1-1.063,1.483-1.859,1.483-1.859l0.005-0.205c0.012-1.258,0.01-1.389-0.002-2.688c-1.046-0.539-1.44-1.074-1.487-1.557
			c-0.084-1.053,1.484-1.844,1.484-1.844l0.001-0.078l0.004-0.182c0.01-1.26,0.01-1.387,0-2.686h-0.002v-0.004
			c-1.046-0.539-1.44-1.074-1.487-1.557c-0.099-1.061,1.484-1.859,1.484-1.859l0.003-0.186c0.012-1.258,0.012-1.387,0-2.686v-0.002
			v-0.021c-1.045-0.539-1.439-1.072-1.486-1.555c-0.08-1.051,1.483-1.84,1.483-1.84l0.003-0.262c0.012-1.26,0.01-1.387,0-2.688
			c0,0,0,0,0-0.001v-0.001c-0.838-0.434-1.258-0.861-1.416-1.264c-0.472-1.205,1.412-2.152,1.412-2.152l0.004-0.205
			c0.012-1.26,0.012-1.389,0-2.688c-3.356-1.729-0.004-3.418-0.004-3.418l0.004-0.24c0.01-1.262,0.012-1.388,0-2.688
			c-3.357-1.73-0.004-3.42-0.004-3.42V0.134l-0.037-0.068c-1.212-0.012-1.336-0.012-2.588-0.002
			c-1.663,3.484-3.295,0.002-3.295,0.002l-0.041-0.002V0.06l-0.195-0.006c-1.214-0.012-1.338-0.012-2.59,0
			c0,0.002-0.002,0.004-0.003,0.006h-0.01c-0.413,0.863-0.825,1.297-1.208,1.463c-1.158,0.484-2.074-1.469-2.074-1.469l-0.233-0.004
			c-1.21-0.012-1.335-0.012-2.587-0.002c-0.719,1.508-1.433,1.707-2.01,1.453c-0.748-0.346-1.265-1.445-1.265-1.445h-0.017
			c-0.002,0-0.004-0.006-0.004-0.006l-0.178-0.004c-1.213-0.012-1.336-0.013-2.588-0.002c-0.001,0.002-0.003,0.004-0.003,0.006
			c-0.011,0.001-0.019,0.001-0.028,0.001c-0.51,1.065-1.016,1.476-1.474,1.536c-1.02,0.098-1.79-1.543-1.79-1.543l-0.252-0.003
			c-1.213-0.013-1.336-0.013-2.587-0.001c-0.616,1.285-1.226,1.619-1.75,1.531c-0.875-0.182-1.505-1.523-1.505-1.523h-0.037
			c0-0.002-0.003-0.007-0.003-0.007l-0.199-0.003c-1.212-0.014-1.336-0.014-2.587-0.004c-0.002,0.002-0.002,0.004-0.004,0.007h-0.01
			v0.017c-1.659,3.438-3.281-0.021-3.281-0.021l-0.234-0.006c-1.21-0.012-1.335-0.012-2.586-0.002
			c-1.664,3.484-3.295,0.004-3.295,0.004l-2.705-0.004l-0.189,0.001c-0.921,1.931-1.832,1.722-2.463,1.153
			C131.293,0.726,131,0.099,131,0.099h-0.041c-0.021-0.041-0.033-0.066-0.033-0.066l-0.234-0.004
			c-1.211-0.014-1.335-0.012-2.587-0.004c-1.091,2.284-2.167,1.576-2.778,0.815c-0.29-0.377-0.463-0.745-0.463-0.745h-0.018
			c-0.022-0.041-0.035-0.068-0.035-0.068l-0.18-0.004c-1.211-0.013-1.335-0.013-2.586-0.002c-1.666,3.483-3.296,0.001-3.296,0.001
			l-0.253-0.003c-1.212-0.012-1.336-0.012-2.588-0.002c-1.082,2.266-2.149,1.584-2.764,0.831c-0.298-0.384-0.477-0.762-0.477-0.762
			l-0.02-0.001c-0.021-0.041-0.033-0.066-0.033-0.066l-0.197-0.004c-1.213-0.013-1.338-0.013-2.59-0.002
			c-0.92,1.924-1.828,1.721-2.456,1.156c-0.468-0.457-0.765-1.088-0.765-1.088h-0.039c-0.021-0.041-0.033-0.066-0.033-0.066
			l-0.234-0.005c-1.212-0.013-1.336-0.013-2.588-0.001c-1.09,2.281-2.166,1.573-2.778,0.813c-0.289-0.377-0.462-0.744-0.462-0.744
			h-0.021c-0.021-0.041-0.032-0.068-0.032-0.068l-2.707-0.002l-0.002,0.059v0.004h-0.025c-1.664,3.484-3.295,0.003-3.295,0.003
			l-0.231-0.005c-1.214-0.012-1.337-0.012-2.587-0.002c-1.666,3.483-3.296,0.002-3.296,0.002l-0.259-0.004
			c-1.213-0.012-1.338-0.012-2.588-0.003c-1.664,3.483-3.296,0.002-3.296,0.002L81.882,0.06c-1.212-0.014-1.335-0.014-2.587-0.002
			C77.63,3.54,76,0.06,76,0.06l-0.198-0.006c-1.212-0.012-1.336-0.012-2.588,0c-1.663,3.481-3.295,0-3.295,0L69.687,0.05
			c-1.211-0.012-1.336-0.012-2.587-0.002c-1.666,3.484-3.296,0.002-3.296,0.002l-0.178-0.004c-1.214-0.012-1.337-0.013-2.589-0.002
			c-1.664,3.482-3.294,0-3.294,0l-0.252-0.003c-1.212-0.013-1.337-0.013-2.589-0.001c-1.663,3.482-3.294,0.001-3.294,0.001
			L51.41,0.038c-1.211-0.014-1.336-0.014-2.589-0.004c-1.663,3.482-3.292,0.002-3.292,0.002L45.296,0.03
			c-1.213-0.012-1.337-0.012-2.59-0.002c-1.663,3.484-3.294,0.004-3.294,0.004l-2.705-0.004L36.52,0.029
			c-1.666,3.483-3.297,0.003-3.297,0.003L32.99,0.028c-1.211-0.014-1.336-0.012-2.588-0.004c-1.663,3.482-3.294,0.002-3.294,0.002
			L26.93,0.022c-1.215-0.013-1.336-0.013-2.588-0.002c-1.664,3.483-3.294,0.001-3.294,0.001l-0.252-0.003
			c-1.214-0.012-1.337-0.012-2.589-0.002c-1.664,3.482-3.293,0.002-3.293,0.002l-0.199-0.004c-1.213-0.013-1.336-0.013-2.59-0.002
			c-1.663,3.482-3.293,0.002-3.293,0.002L8.6,0.01C7.387-0.003,7.264-0.003,6.011,0.009c-1.663,3.482-3.294,0-3.294,0L0.011,0.007
			L0.008,0.065c-0.011,1.258-0.011,1.389,0,2.688c3.357,1.729,0.005,3.418,0.005,3.418L0.009,6.433
			C-0.003,7.692-0.003,7.82,0.008,9.12c3.357,1.727,0.005,3.418,0.005,3.418L0.01,12.684L0.008,12.72
			c-0.011,1.258-0.011,1.389,0,2.688l0.001,0.001v0.021c1.046,0.538,1.439,1.075,1.487,1.555c0.08,1.051-1.483,1.841-1.483,1.841
			l-0.004,0.262c-0.012,1.259-0.012,1.389-0.001,2.688c0.001,0,0.001,0,0.002,0v0.002c0.838,0.432,1.258,0.861,1.414,1.264
			c0.473,1.202-1.411,2.153-1.411,2.153l-0.001,0.033l-0.003,0.156c-0.001,0.082-0.001,0.148-0.003,0.223
			c-0.009,1.059-0.007,1.26,0.003,2.48c1.049,0.539,1.44,1.076,1.489,1.557c0.082,1.055-1.485,1.846-1.485,1.846l-0.001,0.061
			l-0.003,0.195c-0.007,0.805-0.01,1.15-0.007,1.633c0,0.273,0.004,0.588,0.007,1.059c1.048,0.539,1.44,1.074,1.489,1.557
			c0.098,1.061-1.485,1.859-1.485,1.859l-0.004,0.186c-0.011,1.26-0.011,1.385,0,2.684l0.001,0.002v0.023
			c1.045,0.537,1.438,1.072,1.486,1.553c0.083,1.053-1.483,1.842-1.483,1.842L0.01,44.402c-0.012,1.262-0.012,1.389-0.001,2.688
			H0.01v0.002c1.047,0.541,1.439,1.076,1.488,1.557c0.1,1.061-1.484,1.859-1.484,1.859l-0.005,0.207
			C0,51.662-0.001,51.97,0.003,52.621c0.001,0.227,0.003,0.492,0.007,0.846c1.04,0.537,1.436,1.068,1.485,1.547
			c0.04,1.033-1.481,1.805-1.481,1.805L0.01,57.06C0.002,57.884,0,58.228,0.002,58.73c0.001,0.283,0.004,0.607,0.008,1.104
			c1.039,0.537,1.434,1.068,1.485,1.547c0.021,1.023-1.481,1.785-1.481,1.785l-0.004,0.27C0,64.369-0.001,64.681,0.003,65.306
			c0.001,0.227,0.003,0.488,0.007,0.838c1.047,0.539,1.439,1.076,1.488,1.557c0.078,1.051-1.484,1.84-1.484,1.84L0.01,69.802
			c-0.011,1.258-0.011,1.385,0,2.688c1.049,0.541,1.441,1.078,1.488,1.559c0.1,1.061-1.484,1.859-1.484,1.859L0.01,76.113
			c-0.011,1.26-0.011,1.387,0,2.686c1.048,0.541,1.441,1.076,1.488,1.559c0.084,1.051-1.484,1.844-1.484,1.844v0.07L0.01,82.458
			C0.002,83.357,0,83.683,0.003,84.265c0.003,0.234,0.003,0.508,0.007,0.883c1.049,0.541,1.443,1.078,1.489,1.559
			c0.098,1.061-1.485,1.859-1.485,1.859L0.01,88.751C0.002,89.683,0,89.998,0.004,90.626c0.002,0.223,0.004,0.484,0.006,0.832
			c1.048,0.539,1.439,1.076,1.488,1.557c0.077,1.053-1.484,1.84-1.484,1.84L0.01,95.117c-0.011,1.26-0.011,1.387,0,2.688h0.001
			v0.002c1.048,0.541,1.44,1.076,1.488,1.557c0.099,1.061-1.485,1.859-1.485,1.859l-0.004,0.205c-0.01,1.26-0.011,1.389,0,2.688
			c3.358,1.729,0.004,3.418,0.004,3.418l-0.003,0.242c-0.011,1.258-0.011,1.387,0,2.686c3.358,1.729,0.003,3.418,0.003,3.418
			l0.002,2.809c0,0,1.336,0.014,2.587,0.004c1.665-3.484,3.293-0.004,3.293-0.004l0.252,0.006c1.214,0.012,1.337,0.012,2.59,0.002
			c1.663-3.482,3.294-0.002,3.294-0.002l0.199,0.004c1.211,0.014,1.334,0.014,2.586,0.002c1.664-3.482,3.295-0.002,3.295-0.002
			l0.232,0.004c1.214,0.012,1.337,0.012,2.588,0.002c1.666-3.48,3.295-0.002,3.295-0.002l0.18,0.006
			c1.213,0.012,1.335,0.012,2.588,0.002c1.662-3.484,3.294-0.002,3.294-0.002l0.252,0.004c1.212,0.012,1.337,0.014,2.589,0.002
			c1.664-3.484,3.293-0.002,3.293-0.002l0.198,0.004c1.213,0.012,1.336,0.012,2.589,0.002c1.664-3.48,3.293-0.002,3.293-0.002
			l0.234,0.006c1.213,0.012,1.336,0.012,2.588,0.002c1.663-3.484,3.295-0.002,3.295-0.002l0.258,0.004
			c1.213,0.012,1.337,0.014,2.588,0.002c1.664-3.484,3.295-0.002,3.295-0.002l0.252,0.004c1.213,0.014,1.336,0.014,2.588,0.002
			c1.664-3.482,3.295-0.002,3.295-0.002l0.199,0.006c1.211,0.014,1.336,0.014,2.587,0.002c1.663-3.484,3.295-0.002,3.295-0.002
			l0.231,0.004c1.215,0.014,1.337,0.014,2.59,0.004c1.662-3.484,3.295-0.004,3.295-0.004l0.177,0.004
			c1.212,0.012,1.337,0.012,2.587,0.004c1.666-3.484,3.297-0.002,3.297-0.002l0.252,0.004c1.211,0.012,1.334,0.012,2.586,0
			c1.666-3.48,3.297,0,3.297,0l0.196,0.004c1.214,0.014,1.336,0.014,2.589,0.002c1.664-3.482,3.294-0.002,3.294-0.002l0.231,0.004
			c1.216,0.014,1.338,0.014,2.59,0.002c1.664-3.482,3.295-0.002,3.295-0.002l2.705,0.002l0.189-0.002
			c0.92-1.924,1.827-1.721,2.458-1.154c0.468,0.457,0.763,1.086,0.763,1.086h0.039c0.021,0.043,0.034,0.068,0.034,0.068l0.233,0.002
			c1.213,0.016,1.336,0.016,2.588,0.004c1.086-2.275,2.158-1.578,2.771-0.82c0.293,0.379,0.471,0.752,0.471,0.752h0.02
			c0.021,0.043,0.032,0.066,0.032,0.066l0.179,0.006c1.213,0.012,1.335,0.012,2.588,0.002c1.663-3.482,3.295-0.002,3.295-0.002
			l0.252,0.004c1.213,0.014,1.336,0.014,2.588,0.002c1.086-2.275,2.159-1.578,2.773-0.822c0.292,0.381,0.469,0.752,0.469,0.752
			l0.02,0.002c0.021,0.043,0.032,0.066,0.032,0.066l0.199,0.004c1.212,0.012,1.335,0.012,2.589,0.004
			c0.916-1.922,1.822-1.725,2.453-1.16c0.47,0.455,0.768,1.09,0.768,1.09h0.04c0.021,0.041,0.032,0.066,0.032,0.066l0.232,0.004
			c1.213,0.014,1.338,0.014,2.589,0.004c1.089-2.283,2.165-1.574,2.776-0.816c0.292,0.377,0.464,0.746,0.464,0.746h0.02
			c0.022,0.041,0.034,0.068,0.034,0.068l2.706,0.002l0.04,0.01c0-0.037,0-0.066,0.001-0.102c1.659-3.434,3.28,0.025,3.28,0.025
			l0.232,0.006c1.213,0.012,1.338,0.012,2.589,0.002c1.663-3.484,3.294-0.002,3.294-0.002l0.096,0.002l0.233,0.004
			c1.212,0.014,1.335,0.014,2.588,0c0.519-1.084,1.032-1.49,1.496-1.541c0.988-0.029,1.728,1.539,1.728,1.539l0.07,0.002h0.001
			l0.177,0.004c1.214,0.014,1.336,0.014,2.588,0.002c0,0,0.002,0,0.002-0.002h0.004c0.415-0.869,0.83-1.305,1.214-1.469
			c1.159-0.484,2.076,1.469,2.076,1.469l0.252,0.006c1.214,0.012,1.337,0.012,2.589,0.002c0.52-1.086,1.033-1.496,1.499-1.543
			c0.997-0.051,1.745,1.539,1.745,1.539l0.048,0.002h0.001l0.199,0.004c1.212,0.012,1.336,0.012,2.588,0.002
			c0.619-1.297,1.234-1.625,1.762-1.533c0.882,0.174,1.518,1.529,1.518,1.529h0.014l0.001,0.002l0.232,0.006
			c1.214,0.01,1.337,0.01,2.589,0.002c1.662-3.484,3.293-0.002,3.293-0.002l2.707,0.002l0.04,0.008c0.012-1.256,0.012-1.385,0-2.686
			C176.312,112.339,179.664,110.652,179.664,110.652z M158.405,16.187h1.533v1.688l-0.109,3.866h-1.278l-0.146-3.866V16.187z
			 M159.185,22.279c0.598,0,0.933,0.384,0.933,0.873c0,0.515-0.335,0.886-0.933,0.886c-0.588,0-0.935-0.372-0.935-0.886
			C158.25,22.663,158.597,22.279,159.185,22.279z M155.148,16.786h1.808v7.182h-1.808V16.786z M148.086,16.786h1.833v2.058h1.77
			c0.947,0,1.714,0.276,2.203,0.803c0.407,0.419,0.635,1.005,0.635,1.771c0,0.777-0.286,1.412-0.789,1.855s-1.21,0.695-2.071,0.695
			h-3.58V16.786z M137.513,16.786h2.61l1.964,5.409l1.976-5.409h2.585v7.182h-1.76v-5.064h-0.083l-1.855,5.064h-1.856l-1.855-5.064
			h-0.071v5.064h-1.653V16.786z M129.065,16.785h1.797v4.597l3.556-4.597h1.663v7.183h-1.808v-4.585l-3.567,4.585h-1.641V16.785z
			 M125.929,20.986c-0.178-0.155-0.419-0.251-0.705-0.251h-2.753v-1.329h2.562c0.251,0,0.442-0.095,0.563-0.262
			c0.084-0.121,0.131-0.265,0.131-0.419c0-0.228-0.084-0.372-0.263-0.492c-0.227-0.168-0.622-0.228-1.246-0.228
			c-0.802,0-1.543,0.12-2.549,0.456l-0.419-1.174c0.934-0.419,1.951-0.635,3.147-0.635c0.91,0,1.929,0.145,2.539,0.647
			c0.358,0.31,0.6,0.729,0.6,1.328c0,0.264-0.073,0.504-0.181,0.706c-0.106,0.191-0.276,0.359-0.49,0.49v0.071
			c0.322,0.146,0.598,0.349,0.789,0.6c0.228,0.275,0.347,0.622,0.347,1.054c0,0.79-0.322,1.425-0.957,1.88
			c-0.635,0.429-1.533,0.669-2.682,0.669c-1.281,0-2.382-0.203-3.435-0.717l0.479-1.247c1.183,0.445,2.118,0.563,2.955,0.563
			c0.706,0,1.172-0.131,1.461-0.358c0.251-0.191,0.371-0.442,0.371-0.767C126.193,21.321,126.098,21.143,125.929,20.986z
			 M108.033,22.626h0.192c0.323,0,0.537-0.071,0.694-0.239c0.181-0.153,0.275-0.431,0.323-0.776l0.61-4.824h5.662v5.817h0.754v2.789
			h-1.52l-0.12-1.424h-4.968l-0.133,1.424h-1.496V22.626z M100.878,17.683c0.671-0.657,1.641-1.029,2.826-1.029
			c1.077,0,2.047,0.348,2.741,0.957c0.694,0.623,1.114,1.568,1.114,2.767c0,1.065-0.3,1.938-0.874,2.561
			c-0.694,0.743-1.712,1.162-2.981,1.162c-1.138,0-2.118-0.334-2.801-0.982c-0.671-0.622-1.078-1.544-1.078-2.74
			C99.825,19.252,100.208,18.329,100.878,17.683z M92.509,16.786h3.592c0.813,0,1.592,0.25,2.142,0.742
			c0.492,0.442,0.815,1.089,0.815,1.902c0,0.767-0.264,1.378-0.707,1.808c-0.562,0.551-1.424,0.838-2.382,0.85h-1.642v1.88h-1.818
			V16.786z M84.74,17.683c0.671-0.657,1.64-1.029,2.826-1.029c1.077,0,2.048,0.348,2.741,0.957c0.694,0.623,1.113,1.568,1.113,2.767
			c0,1.065-0.299,1.938-0.873,2.561c-0.694,0.743-1.712,1.162-2.981,1.162c-1.137,0-2.118-0.334-2.801-0.982
			c-0.672-0.622-1.079-1.544-1.079-2.74C83.687,19.252,84.07,18.329,84.74,17.683z M77.249,16.786h5.889v1.364h-4.046v5.818h-1.843
			V16.786z M67.649,14.547c0.023,0.239,0.106,0.396,0.25,0.514c0.12,0.096,0.275,0.156,0.479,0.156c0.228,0,0.372-0.047,0.49-0.144
			c0.132-0.131,0.228-0.287,0.252-0.526l1.148,0.119c-0.06,0.54-0.274,0.982-0.586,1.246c-0.335,0.299-0.766,0.454-1.305,0.454
			c-0.515,0-0.958-0.167-1.304-0.468c-0.313-0.274-0.528-0.692-0.576-1.232L67.649,14.547z M64.799,16.785h1.797v4.597l3.555-4.597
			h1.664v7.183h-1.808v-4.585l-3.567,4.585h-1.641V16.785z M56.351,16.785h1.797v4.597l3.556-4.597h1.664v7.183H61.56v-4.585
			l-3.568,4.585h-1.641V16.785z M44.852,16.786h1.783v5.817h2.358v-5.817h1.784v5.817h2.358v-5.817h1.771v7.182H44.852V16.786z
			 M36.596,16.786h1.83v2.273c0,0.61,0.145,1.054,0.432,1.341c0.275,0.287,0.706,0.419,1.294,0.419c0.562,0,0.957-0.071,1.448-0.274
			v-3.759h1.819v7.182H41.6v-2.06c-0.563,0.205-1.103,0.3-1.653,0.3c-1.004,0-1.915-0.252-2.525-0.851
			c-0.516-0.491-0.825-1.208-0.825-2.358V16.786z M30.175,16.786l2.022,3.962h0.047l1.736-3.962h1.856l-2.718,5.564
			c-0.275,0.552-0.575,1.031-1.018,1.342c-0.358,0.241-0.814,0.383-1.496,0.383c-0.384,0-0.671-0.023-0.992-0.107l0.154-1.22h0.67
			c0.192,0,0.347-0.05,0.466-0.133c0.121-0.072,0.203-0.192,0.312-0.42l-3.076-5.409H30.175z M19.161,23.873l0.252-1.257
			c0.264,0.072,0.443,0.096,0.693,0.096c0.251,0,0.431-0.071,0.551-0.203c0.119-0.132,0.216-0.336,0.251-0.6l0.743-5.122h5.615
			v7.182h-1.833V18.15h-2.25l-0.539,3.985c-0.072,0.599-0.323,1.089-0.67,1.413c-0.348,0.324-0.839,0.49-1.438,0.49
			C19.976,24.039,19.616,24.003,19.161,23.873z M64.59,107.423h-2.685v-7.725h-0.128l-2.83,7.725h-2.831l-2.831-7.725h-0.109v7.725
			h-2.521V96.466h3.981l2.994,8.254l3.014-8.254h3.945V107.423z M77.014,105.853c-1.059,1.133-2.612,1.77-4.549,1.77
			c-1.734,0-3.231-0.51-4.271-1.496c-1.023-0.951-1.645-2.357-1.645-4.182c0-1.717,0.584-3.123,1.606-4.109
			c1.024-1.006,2.503-1.572,4.31-1.572c1.645,0,3.125,0.531,4.184,1.461c1.059,0.951,1.697,2.395,1.697,4.221
			C78.346,103.568,77.889,104.902,77.014,105.853z M86.204,107.625c-1.863,0-3.489-0.549-4.731-1.719
			c-1.003-0.93-1.625-2.246-1.625-3.961c0-1.883,0.695-3.289,1.826-4.221c1.188-0.967,2.703-1.461,4.512-1.461
			c1.516,0,2.756,0.203,4.182,0.932l-0.785,1.846c-1.223-0.455-2.137-0.656-3.214-0.656c-1.097,0-2.175,0.363-2.775,0.984
			c-0.622,0.621-0.95,1.518-0.95,2.576c0,0.93,0.311,1.752,0.822,2.393c0.619,0.693,1.715,1.17,2.903,1.17
			c1.224,0,2.045-0.203,3.231-0.695l0.786,1.807C88.998,107.369,87.738,107.625,86.204,107.625z M100.032,107.423l-2.886-4.75
			h-2.027v4.75h-2.775V96.466h2.775v4.107h1.992l1.588-2.701c0.33-0.549,0.767-0.951,1.205-1.188
			c0.493-0.256,1.041-0.367,1.607-0.367c0.512,0,0.967,0.074,1.424,0.201l-0.201,1.883h-0.511c-0.311,0-0.585,0.035-0.784,0.127
			c-0.221,0.092-0.385,0.256-0.53,0.492l-1.57,2.447l3.798,5.955H100.032z M114.226,106.455c-0.749,0.641-1.807,0.969-2.995,0.969
			h-6.209V96.464h5.953c1.114,0,2.191,0.238,2.922,0.84c0.531,0.439,0.877,1.098,0.877,1.973c0,0.549-0.109,1.006-0.365,1.408
			c-0.183,0.291-0.439,0.547-0.748,0.748v0.109c0.439,0.199,0.785,0.475,1.06,0.785c0.401,0.475,0.602,1.078,0.602,1.697
			C115.321,105.066,114.901,105.871,114.226,106.455z M126.117,107.423l-0.675-1.607h-5.642l-0.696,1.607h-2.829l4.895-10.957h2.977
			l4.875,10.957H126.117z M160.822,89.33H19.963V32.398h140.859V89.33z"/>
		<path fill="#FFFFFF" d="M111.176,102.656h-3.396v2.666h3.396c0.494,0,0.877-0.145,1.15-0.42c0.201-0.219,0.311-0.529,0.311-0.949
			s-0.127-0.73-0.347-0.949C112.035,102.765,111.65,102.656,111.176,102.656z"/>
		<path fill="#FFFFFF" d="M69.991,84.185c-3.887-3.189-6.369-8.025-6.369-13.443c0-9.594,7.777-17.369,17.37-17.369
			s17.369,7.775,17.369,17.369c0,5.418-2.481,10.254-6.37,13.443h5.751c3.868-4.338,6.221-10.055,6.221-16.324
			c0-13.557-10.989-24.547-24.547-24.547s-24.548,10.99-24.548,24.547c0,6.27,2.355,11.986,6.221,16.324H69.991z"/>
		<path fill="#FFFFFF" d="M94.472,45.367c1.376-3.576,2.019-5.701,2.168-6.043c0.302-0.686,0.006-1.229-0.89-1.625
			c-0.897-0.396-2.255-0.967-4.075-1.703c-1.818-0.742-3.207-1.322-4.162-1.744c-0.954-0.422-1.668-0.098-2.141,0.971
			c-0.658,1.484-1.509,3.434-2.551,5.848c0,0,1.993,0.043,5.045,1.061C90.914,43.154,94.472,45.367,94.472,45.367z"/>
		<path fill="#FFFFFF" d="M53.306,77.265H37.763c0.63-5.477,5.915-8.938,10.572-13.404c3.838-3.711,5.977-8.494,5.977-13.213
			c0-7.299-5.601-11.893-12.585-11.893c-6.102,0-12.583,4.342-12.583,13.592v2.643h8.054v-2.455c0-5.221,1.698-6.857,4.529-6.857
			c2.832,0,4.531,1.572,4.531,5.662c0,2.957-0.691,4.594-4.656,8.557c-3.713,3.715-13.025,9.502-13.025,21.961v2.328h24.729V77.265z
			"/>
		<path fill="#FFFFFF" d="M112.531,84.185h8.053V39.574h-5.85c-1.008,4.279-4.656,7.803-11.39,7.803h-1.068v6.104h10.255V84.185z"/>
		<path fill="#FFFFFF" d="M140.008,84.185c7.047,0,12.396-3.334,12.396-10.822V62.666c0-6.543-3.901-10.066-9.188-10.066
			c-2.391,0-5.537,1.385-7.048,3.146V50.46c0-4.531,1.386-6.041,4.09-6.041c2.644,0,4.09,1.258,4.09,3.838h8.056
			c0-6.543-4.972-10.57-12.333-10.57c-7.803,0-11.955,5.473-11.955,12.457v23.154C128.115,80.976,133.841,84.185,140.008,84.185z
			 M136.168,63.988c0-3.146,1.951-4.469,4.09-4.469c2.015,0,4.09,1.512,4.09,4.342v8.998c0,3.084-1.761,4.592-4.34,4.592
			c-2.581,0-3.84-1.508-3.84-4.527V63.988z"/>
	</g>
</g>
</svg>
