<?xml version="1.0" encoding="utf-8"?>
<!-- Generator: Adobe Illustrator 16.0.0, SVG Export Plug-In . SVG Version: 6.00 Build 0)  -->
<!DOCTYPE svg PUBLIC "-//W3C//DTD SVG 1.1//EN" "http://www.w3.org/Graphics/SVG/1.1/DTD/svg11.dtd">
<svg version="1.1" id="Layer_1" xmlns="http://www.w3.org/2000/svg" xmlns:xlink="http://www.w3.org/1999/xlink" x="0px" y="0px"
	 width="653.399px" height="142.938px" viewBox="0 0 653.399 142.938" enable-background="new 0 0 653.399 142.938"
	 xml:space="preserve">
<g>
	<defs>
		<rect id="SVGID_1_" width="653.399" height="142.938"/>
	</defs>
	<clipPath id="SVGID_2_">
		<use xlink:href="#SVGID_1_"  overflow="visible"/>
	</clipPath>
	<path clip-path="url(#SVGID_2_)" fill="#E33539" d="M84.269,58.021c6.5,4.834-5.542,30.417-26.5,28.834
		c-25.827-1.95-16.903-33.54-12.823-43.731c9.171,0.97,18.326,0.975,24.681-2.553c1.099,4.664,4.955,8.18,11.309,8.617
		c9.208,0.635,18.524-8.054,19.833-20c1.333-12.167-6.333-20.667-18.333-20.667c-17.961,0-36.315,10.28-44.341,30.881
		c-8.137-2.134-15.357-4.567-24.993-4.047C-0.595,36.094-2.564,47.688,2.656,50.521c-0.554-6.5,5.696-9.959,14.321-10.588
		c4.716-0.344,12.109,1.006,20.14,2.181c-9.912,29.149,2.931,46.908,19.985,46.908c21.875,0,34.625-13.292,34.667-26.167
		C91.79,56.188,85.602,56.521,84.269,58.021 M45.936,40.855c5.833-11.834,16.5-30.167,36.833-30.167c14.833,0,16.5,11.5,14.167,20
		c-1.917,6.985-8.584,14.5-16.334,14c-4.71-0.304-8.108-2.139-9.385-5.126c6.84-5.186,5.852-10.811,2.948-10.811
		c-2.035,0-3.602,2.438-4.277,4.835c-0.516,1.827-0.678,3.618-0.523,5.304c-2.329,1.771-5.484,3.343-9.513,3.423
		c-5.322,0.106-9.895-0.39-14.06-1.157C45.842,41.049,45.891,40.948,45.936,40.855 M71.186,33.605
		c1.35-4.185,5.496-1.917-0.459,4.149C70.564,36.508,70.696,35.124,71.186,33.605 M613.256,76.67
		c3.443-10.804,6.225-16.454,8.141-22.473c2.745-8.611,9.807-30.775,12.39-38.882c4.901-0.455,6.251-1.949,8.899-4.121
		c1.52-1.245,1.963,0.701,0.633,1.208c-4.174,1.59-4.844,4.498-7.867,13.394C634.207,29.459,617.489,75.62,613.256,76.67
		 M366.953,60.733c-3.646,0-7.251,2.5-7.274,6.38c-0.013,2.061,1.523,4.454,3.94,4.454c-3.75-2.5-0.833-7.334,3-6.584
		c3.297,0.645,5.39,3.489,5.483,8.83c0.184,10.42-6.65,22-19.5,22c-16.625,0-14.358-17.497-10.983-26.122
		c3.535-9.034,9.457-24.604,9.457-24.604h-6.652c-5.813,15.272-15.055,30.896-19.224,34.6c-2-4.25-0.426-22.166-0.426-28.916
		s-1.797-11.52-7.422-13.083c-5.22-1.45-12.021,1.543-12.055,8.499c-0.03,6.181,7.055,6.307,7.555,3.251
		c-2.25-0.063-2.886-2.661-2.546-4.351c0.671-3.336,2.994-5.091,6.283-4.55c3.576,0.588,5.097,5.12,4.388,10.234
		c-2.208,9.167-10.49,32.745-18.5,32.416c-4.9-0.201-2-18.5,5.875-17.999c0.303-1.37-0.523-4.14-3.875-4.14
		c-4.75,0-7.294,4.596-9.24,9.265c-0.973,2.336-1.551,5.219-1.537,7.991c-2.344,3.815-5.494,7.24-8.582,7.384
		c-5.391,0.25-0.189-11.806,1.117-15.238c1.793-4.713,9.653-25.363,9.653-25.363h-6.5c-3.455,8.174-7.266,17.225-14.274,20.036
		c-0.743-4.445-4.326-5.704-5.637-5.81c-2.083-0.168-3.833,0.915-4.25,2.625c-0.703,2.883,1.119,5.746,5.338,6.238
		c-0.141,1.624-0.483,3.424-0.974,5.137c-1.364,4.75-5.28,13.437-11.322,12.458c-2.336-0.378-4.833-4.416-1.296-13.466
		c4.262-10.909,7.776-20.43,10.359-27.218h-6.652c-1.836,5.273-6.14,9.183-10.685,10.993c-0.067-4.41-3.1-9.453-6.759-11.088
		c2.6-3.822,4.826-7.757,6.509-11.443c10.924,3.833,22.837,7.138,34.732,7.138c11.761,0,20.25-5.249,22.307-13.011
		c2.334-8.813-3.664-13.943-8.182-13.821c-5.647,0.152-7.638,4.457-8.191,6.67c-1.041,4.167,0.478,6.999,2.457,7.788
		c1.568,0.625,3.326-0.125,3.527-2.036c-2.668,0.723-4.801-1.482-4.543-4.277c0.268-2.892,2.601-5.226,5.518-4.725
		c2.666,0.458,6.17,3.162,5.648,9.08c-0.352,3.984-2.935,12.833-19.185,12.833c-11.799,0-22.439-4.181-32.77-8.758
		c0.521-1.348,0.956-2.645,1.289-3.867c1.983-7.25-0.629-11.25-3.125-11.25c-4.418,0-8.873,3.168-13.168,8.572
		c-6.777-2.692-13.596-4.751-20.707-5.072c-3.764-0.17-6.951,0.241-9.618,1.053c-1.573-2.517-4.138-4.434-7.645-4.678
		c-8.987-0.626-16.32,9.63-22.82,9.63c-2.803,7.365-10.467,27.503-13.446,35.328c-0.976,2.566-1.794,5.188-2.413,7.768
		c-3.053,0.4-6.55,0.526-10.558,0.274c-3.98-0.25-7.246-0.867-9.945-1.733c6.401-16.819,15.99-42.015,18.853-49.536
		c9.005-0.198,13.113-1.927,13.426-4.981c0.184-1.772-0.955-3.417-4.959-3.417c-3.732,0-8.014,0.983-12.584,6.987
		c-17.377-0.06-41.203,3.249-45.416,20.804c-2.703,11.262,2.709,17.959,11.375,18.001c1.962,0.01,3.774-0.223,5.409-0.725
		c0.666,4.246,2.632,9.207,7.196,12.991c-3.1,8.142-5.623,14.774-6.64,17.445c-1.868-0.376-3.814-0.586-5.84-0.586
		c-20.001,0-26.474,7.676-27.875,14.5c-1,4.875,2.27,9.813,10.067,10.375c7.474,0.538,19.151-3.733,28.162-20.436
		c8.773,4.718,15.938,15.048,15.938,28.561c0,20.125-11.481,24.875-18.167,24.875c-6.685,0-10.794-6.672-9.25-13.5
		c1.084-4.791,3.917-6.749,6.417-6.624s3.732,2.465,3.167,4.5c-0.834,3-3.459,1.749-3.709,1.249
		c-0.875,1.001,0.292,3.875,2.375,3.875c4.5,0,5.5-9.541-1.083-11.291c-5.247-1.395-9.698,1.824-11.167,6.541
		c-2.608,8.378,3.017,16.875,13,16.875c13.944,0,22.642-9.497,23.625-24.875c0.777-12.144-6.954-26.729-20.052-32.302
		c1.061-2.144,2.082-4.462,3.045-6.991c0.829-2.18,2.004-5.265,3.391-8.911c3.141,1.366,6.995,2.306,11.741,2.579
		c3.427,0.197,6.481,0.082,9.22-0.268c-1.555,10.316,0.796,18.963,10.439,18.963c7.523,0,12.24-4.57,14.648-9.471
		c1.667,4.187,4.911,7.108,10.277,7.108c10.872,0,18.857-15.946,20.47-22.025c1.213,0.044,2.42-0.106,3.513-0.345
		c-1.684,11.217-0.45,22.037,9.014,22.037c14.221,0,20.928-16.778,22.67-28.281c2.739-0.925,5.072-2.397,6.734-3.657
		c-1.504,3.951-2.931,7.7-3.397,8.923c-4.078,10.716-4.847,22.306,4.72,22.806s16.009-9.519,17.442-19.416
		c0.059-0.405,0.092-0.786,0.116-1.159c2.468-0.746,5.024-2.15,6.651-3.963c0.178-0.198,0.387-0.17,0.272,0.131
		c-1.422,3.684-2.646,6.859-3.197,8.307c-3.375,8.867-2.074,16.31,5.362,16.31c3.478,0,6.948-2.477,9.772-6.604
		c0.835,3.724,3.115,6.604,7.458,6.604c6.928,0,14.54-14.044,17.852-24.613c-0.918,9.856-0.863,19.24,2.496,24.613
		c4.815-5.141,10.255-13.527,13.506-20.289c0.089-0.186,0.354-0.333,0.285-0.05c0.01-0.015,0.017-0.031,0.025-0.048
		c-4.887,13.798,0.68,29.4,16.776,29.387c13.483-0.011,23.585-11.389,24.25-23.75C377.115,66.483,373.539,60.733,366.953,60.733
		 M101.919,106.438c-5.567,0-5.768-6.807-4.817-9.5c2.25-6.375,9.625-11.875,22.375-11.875c1.795,0,3.61,0.259,5.405,0.741
		C123.025,90.422,115.698,106.438,101.919,106.438 M166.102,10.688c2.125,0,2.989,1.023,2.25,2.5
		c-0.709,1.42-3.325,2.474-10.084,2.397c0.17-0.449,0.278-0.732,0.314-0.828C159.159,13.24,162.706,10.688,166.102,10.688
		 M126.737,52.919c2.815-1.325,4.966-3.642,6.247-7.181c1.521-4.197-1.257-5.925-2.757-5.925s-4.165,1.013-5.25,7
		c-0.258,1.429-0.367,3.487-0.097,5.822c-1.403,0.421-3.069,0.594-5.028,0.387c-6.427-0.679-8.416-9.524-5.75-16.834
		c3.728-10.221,10.7-18.586,38.486-19.209c-2.141,3.155-4.339,7.451-6.569,13.31c-3.706,9.737-8.62,22.646-12.755,33.513
		C128.584,60.655,127.096,56.415,126.737,52.919 M126.977,46.688c0-1.875,1.563-3.878,3.375-3.25
		c1.582,0.547,0.908,5.99-3.689,8.461C126.542,49.291,126.977,47.254,126.977,46.688 M243.438,57.045
		c-2.668-0.504-5.983-2.264-6.012-4.475c0.641-0.74,1.27-1.497,1.887-2.267C240.702,50.592,243.048,52.598,243.438,57.045
		 M240.194,44.486c-3.098,0.445-4.794,3.972-5.225,5.916c-0.104,0.467-0.164,0.92-0.205,1.366c-3.002,3.528-6.326,6.654-9.84,8.924
		c1.177-4.391,2.833-9.253,5.047-14.504c2.637-6.257,5.655-12.172,8.608-16.777c2.631,1.007,5.352,2.041,8.148,3.059
		C245.118,36.199,242.888,40.389,240.194,44.486 M248.227,20.188c1.952,0,1.693,3.678-0.165,8.901
		c-2.368-1.063-4.724-2.127-7.079-3.149C243.681,22.376,246.217,20.188,248.227,20.188 M194.763,85.355
		c-5.911-0.25-7.161-9.625-4.583-20.293c2.259-9.353,7.873-14.506,11.453-12.988c-0.154,7.21,3.956,11.23,7.618,13.162
		c-0.404,1.484-0.867,3.024-1.399,4.619C205.452,77.066,199.526,85.556,194.763,85.355 M209.841,62.922
		c-2.966-1.711-5.206-5.109-5.072-10.317c0.082-3.17,2.416-4.579,4-3.667C211.434,50.472,211.517,55.799,209.841,62.922
		 M214.997,64.212c1.299-5.841,3.599-18.917-5.228-20.857c-2.915-0.642-5.465,0.584-6.904,3.24
		c-0.737-0.762-1.984-1.508-3.544-1.508c-6.344,0-11.211,6.6-14.802,15.961c-1.669,4.349-2.559,9.681-2.19,14.503
		c-1.713,5.79-5.661,13.44-13.224,13.44c-7.37,0-7.151-8.135-4.28-18.181c11.382-3.662,15.098-12.338,16.277-17.789
		c1.575-7.272-4.375-9.959-5.75-5.834c1.625,0,4.875,1.584,4.375,5.834c-0.229,1.952-2.689,9.686-13.513,13.35
		c0.593-1.756,1.239-3.539,1.918-5.324c2.98-7.83,8.793-23.103,10.067-26.451c4.128-10.845,11.237-16.909,18.57-16.909
		c3.088,0,4.938,1.444,5.989,3.35c-3.908,1.927-6.3,4.859-7.406,7.9c-1.478,4.066,0.28,6.935,2.737,7.417
		c5.013,0.984,8.236-3.859,9.18-7.667c0.494-1.989,0.353-4.285-0.382-6.415c2.527-0.499,5.57-0.61,9.184-0.086
		c4.842,0.702,10.748,2.764,17.385,5.27c-3.758,5.586-7.359,12.792-10.667,20.981c-1.656,4.1-3.353,9.646-4.419,15.3
		C217.246,64.016,216.091,64.186,214.997,64.212 M203.591,29.021c-0.922,3.225-3.517,4.834-5.502,4.834
		c-1.987,0-1.371-3.446-0.32-5.667c0.844-1.782,2.753-3.698,5.833-4.954C204.129,25.379,203.984,27.645,203.591,29.021
		 M227.085,85.667c-4.191,0-6.027-8.288-2.94-21.838c3.744-2,7.469-5.062,10.945-8.692c1.013,3.317,4.07,5.554,8.201,5.88
		c-0.105,0.729-0.24,1.484-0.439,2.297C240.227,74.063,233.888,85.667,227.085,85.667 M269.108,62.688
		c0.971,0.207,1.432,1.51,1.515,3.316c-0.338,0.004-0.682-0.003-1.032-0.025C266.186,65.772,266.255,62.079,269.108,62.688
		 M638.09,50.126c-8,0-13.85,5.283-14.833,13.625c-0.637,5.399,1.976,11.229,7.854,11.315c2.298,0.033,6.07-1.438,6.759-4.875
		c0.443-2.215-0.529-5.128-3.112-4.212c0.832,3.042-1.054,5.671-3.804,5.671c-4.596,0-6.75-3.833-5.947-8.295
		c0.784-4.361,4.55-8.851,10.975-8.351c8.582,0.667,11.727,7.022,11.484,15.434c-0.32,11.113-6.412,27.283-20.509,29.621
		c0.542-2.678,0.646-4.974,0.646-6.372c0-4.75-2.625-7.312-5.375-7.312s-4.125,2.937-2.625,5.188
		c0.063-1.126,1.188-2.688,2.938-2.688c2.375,0,4.062,1.813,4.062,4.813c0,0.993-0.39,3.593-1.842,6.622
		c-0.439,0.026-0.883,0.045-1.337,0.045c-16.625,0-21.333-15.667-18.333-33.667c1.748-10.487,7.697-21.601,13.833-23.501
		c-2.628-3.296-8.776-3.992-13.103,0.753l0.009-0.026c-5.822,4.441-16.892,29.96-21.702,34.649c-2-4.25,0.172-21.042,0.172-27.792
		s-1.797-11.52-7.422-13.083c-5.221-1.45-11.953,1.583-11.953,8.167c0,6.181,7.5,8.166,9.25,2.333
		c-3.084,0.75-4.393-1.378-4.344-3.101c0.094-3.316,3.01-6.232,6.677-5.232c2.773,0.756,4.704,5.802,3.995,10.916
		c-2.208,9.167-10.518,32.595-18.475,31.617c-4.658-0.572-3.938-16.95,5.85-17.2c0.303-1.37-0.523-4.14-3.875-4.14
		c-2.048,0-3.825,0.714-5.328,1.902c-1.324,0.495-3.227,1.036-5.273,1.166c1.587-6.63,3.564-18.75-5.582-20.761
		c-2.971-0.653-5.559,0.633-6.981,3.393c-0.874-0.844-2.173-1.52-3.55-1.661c-6.311-0.642-12.161,8.028-14.719,15.961
		c-4.116,12.769-1.846,27.723,9.416,27.723c10.857,0,18.465-14.144,20.75-22.067c1.046-0.023,2.089-0.192,3.05-0.421
		c-0.63,1.02-1.168,2.143-1.611,3.322c-2.429,6.461-2.35,17.729,6.204,18.833c7.075,0.913,15.054-13.158,18.508-24.324
		c-0.891,9.751-0.802,19.004,2.523,24.324c7.427-9.264,13.981-24.686,18.43-31.469c-1.339,4.585-2.31,9.521-2.625,13.785
		c-1.623,21.934,10.46,31.226,26.085,31.226c0.193,0,0.385-0.012,0.577-0.015c-3.418,5.794-10.867,12.348-26.648,12.348
		c-36.232,0-66.329-12.734-91.261-19.698c0.34-0.827,0.677-1.672,1.008-2.541c7.789-20.466,14.587-38.326,16.154-42.509
		l-3.972-0.001c0.283-4.59-3.118-8.155-6.805-8.501c-7.172-0.673-12.519,2.588-16.401,6.86v-0.002
		c-0.003,0.004-0.007,0.008-0.007,0.008c-0.291,0.322-0.573,0.643-0.846,0.971c-2.546,2.568-7.402,4.866-12.063,5.866
		c-0.089-5.369-1.746-10.377-6.848-11.411c-3.134-0.635-5.945,0.645-7.175,3.048c-0.715-0.573-1.787-1.064-3.242-1.316
		c-6.25-1.083-12.279,8.027-14.833,15.961c-0.944,2.931-1.508,5.946-1.7,8.86c-2.709-1.771-5.266-4.038-7.729-6.501
		c3.063-8.031,10.475-27.403,12.034-31.62c2.119-5.731,5.187-11.786,8.227-10.932c1.123,0.315,1.46,2.833,0,3.666
		c3.21-0.02,3.897-6.208-1.478-6.52c-5.018-0.292-9.932,4.667-13.324,13.579c-0.192,0.506-6.361,17.02-10.16,26.872
		c-1.995-2.179-3.953-4.353-5.907-6.34c1.428-2.51,2.3-5.514,2.371-8.94c0.208-9.985-6.51-15.48-16.502-16.484
		c-6.985-0.702-13.231,0.458-18.547,3.438c0.069-0.265,0.141-0.522,0.216-0.771c4.166-13.918,14.333-19.5,31-19.5
		c25.69,0,97.665,18.833,142.999,18.833c28.334,0,39.204-8.559,40.604-20.812c0.5-4.375-1.958-7.91-5.625-7.875
		c-2.55,0.023-3.688,2.625-2.813,3.854c1.393-1.598,6.334-0.354,6.063,4.583c-0.412,7.494-2.563,14.75-37.063,14.75
		c-43.25,0-112.955-16.725-143.622-16.82c-15.126-0.047-30.355,8.247-35.174,22.316c-0.53,1.548-0.886,3.091-1.092,4.611
		c-4.131,3.564-7.508,8.511-9.959,14.893c-4.983,12.976,0.851,40.509,24.973,41.25c22.724,0.698,29.576-17.301,31.647-23.018
		c2.749,2.961,5.671,5.638,8.84,7.561c0.479,8.232,4.222,14.79,11.139,14.79c11.196,0,17.266-11.205,20.933-22.545
		c0.701-2.168,1.361-5.145,1.627-8.242c2.708-0.354,5.397-1.121,7.686-2.17c-1.037,2.017-1.821,3.896-2.379,5.366
		c-1.081,2.854-8.225,27.258,5.024,27.258c4.33,0,9.449-5.426,12.021-10.121c0.212-0.387,0.493-0.503,0.303-0.004
		c-2.16,5.668-4.194,11-5.611,14.72c-7.092-1.735-13.746-2.845-19.979-2.845c-15.233,0-24.363,4-27.119,14.076
		c-2.888,10.559,3.427,20.802,16.698,20.802c11.686,0,25.235-5.517,35.227-27.715c26.554,8.167,60.65,23.837,92.068,23.837
		c20.663,0,27.488-10.978,29.707-19.415c14.102-1.741,25.187-14.623,26.698-30.513C654.256,60.76,650.09,50.126,638.09,50.126
		 M546.818,48.938c2.678,1.541,2.752,6.917,1.049,14.094c-2.973-1.665-5.184-5.22-5.049-10.427
		C542.899,49.435,545.234,48.026,546.818,48.938 M532.811,85.355c-5.909-0.25-8.316-9.539-4.582-20.293
		c3.099-8.925,8.28-14.107,11.452-12.995c-0.154,7.216,3.958,11.238,7.622,13.17c-0.406,1.484-0.869,3.023-1.401,4.618
		C543.244,77.816,537.575,85.556,532.811,85.355 M416.103,28.813c8.621,0.328,13.5,5.75,13.5,14.875c0,2.283-0.407,4.317-1.074,6.12
		c-3.716-3.429-7.471-5.917-11.509-6.203c-5.816-0.412-9.166,1.916-10.75,5.68c-0.504,1.198-0.69,2.457-0.577,3.682
		c-6.822-1.51-8.716-9.857-8.331-17.026C402.439,30.452,408.916,28.54,416.103,28.813 M415.937,47.688
		c0.21,2.762-1.688,5.118-6.622,5.477c-0.156-0.953-0.108-1.834,0.122-2.477c0.671-1.884,2.181-6.306,8-6
		c3.488,0.184,6.864,2.958,10.358,6.804c-2.781,5.471-8.209,8.187-12.108,7.696c-2.917-0.367-4.705-2.009-5.643-3.829
		c5.056-0.285,8.058-3.345,8.309-5.233C418.603,48.251,417.268,46.855,415.937,47.688 M434.608,64.048
		c-1.833,4.5-7.256,23.453-25.381,23.203c-16.498-0.228-24.791-19.063-19.46-36.896c1.143-3.817,2.531-7.03,4.13-9.72
		c1.387,7.269,6.265,12.988,12.297,14.399c1.165,2.908,4.232,5.258,9.096,5.528c5.642,0.314,11.119-2.169,14.519-6.768
		c1.929,2.285,3.905,4.803,5.967,7.314C435.316,62.282,434.918,63.29,434.608,64.048 M475.187,48.938
		c1.318,1.182,1.916,3.34,1.897,6.29c-2.977-0.289-5.203-1.569-5.606-4.29C471.013,47.8,473.79,47.688,475.187,48.938
		 M461.18,85.355c-3.629-0.153-5.686-3.65-6.023-8.854c1.329,0.326,2.696,0.521,4.111,0.521c6.752,0,10.988-4.155,12-10.334
		c0.684-4.166-1.199-7.685-4.866-7.685c-2.882,0-4.215,2.329-3.465,4.128c1.417-2.693,7.13-2.098,6.917,3.224
		c-0.167,4.167-3.917,7.5-10.084,7.25c-1.583-0.064-3.108-0.354-4.588-0.815c0.179-2.39,0.646-5,1.415-7.728
		c3.012-10.682,9.288-15.178,12.326-12.475c1.22,3.236,4.294,4.9,7.988,5.426c-0.358,3.304-1.269,7.303-2.642,11.842
		C471.406,79.316,465.943,85.556,461.18,85.355 M494.452,84.522c-5.25-0.625-2.833-13.456,0.985-23.19
		c4.326-11.029,9.915-16.245,15.915-16.245c2.618,0,5.199,1.133,5.624,3.726c0.04,0.24,0.063,0.493,0.076,0.75h-0.593
		c-0.165,0.496-1.193,3.232-2.679,7.157c-0.543,0.296-1.144,0.468-1.804,0.468c-5.375,0-4.041-4.5-3.25-5.75
		c-5.791-1.5-6.872,9.621,2.126,9c0.56-0.039,1.075-0.145,1.565-0.289C505.929,75.481,498.777,85.037,494.452,84.522
		 M469.728,123.188c-10.229,0-13.467-9.497-11.608-17.375c1.956-8.293,9-13.291,21.858-13.291c5.537,0,11.943,1.218,18.979,3.136
		C495.618,104.323,486.648,123.188,469.728,123.188 M287.209,109.772c-0.976,9.231-9.215,20.041-29.59,20.041
		c-47.167,0-105-39.747-124.017-43.708V85.48c26.25,5.653,75.517,38.708,123.375,38.708c21.041,0,27.303-9.439,28.141-14.749
		c1.335-8.456-3.983-12.874-10.391-12.279c-3.852,0.357-6.563,3.437-7.125,7.403c-0.649,4.586,3.101,6.92,5.667,5.876
		c0.089,1.026-0.475,4.064-4.35,4.064c-4.733,0-7.102-4.688-5.942-9.94c1.414-6.396,6.001-9.148,12.5-9.278
		C282.202,95.15,288.12,101.149,287.209,109.772 M613.163,82.945c-0.537,1.703-2.691,3.535-3.234,3.365
		c-0.777-0.245-1.264-2.907-0.729-4.609c0.535-1.701,1.856-2.805,2.951-2.462C613.75,79.742,613.695,81.242,613.163,82.945"/>
</g>
</svg>
