<svg id="Layer_1" data-name="Layer 1" xmlns="http://www.w3.org/2000/svg" viewBox="0 0 612.86 612"><defs><style>.cls-1,.cls-2{fill:#999;}.cls-2{opacity:0.8;isolation:isolate;}</style></defs><title>pause_grey</title><g id="Слой_2" data-name="Слой 2"><g id="pause"><path class="cls-1" d="M306,0C224.34,0,147.84,31.8,89.39,89.39,31.8,147,0,224.34,0,306S31.8,465,90.25,522.61C147.84,580.2,225.2,612,306.86,612S465,580.2,523.47,522.61C581.06,465,612.86,387.66,612.86,306s-31.8-158.16-89.39-216.61C465,31.8,388.52,0,306,0ZM496,495.1c-50.71,50.71-117.76,78.22-189.1,78.22s-138.39-27.51-189.1-78.22S39.54,377.34,39.54,306,67,167.61,117.76,116.9s117.76-78.22,189.1-78.22S445.25,66.18,496,116.9,574.18,234.66,574.18,306,546.67,445.25,496,495.1Z" transform="translate(0 0)"/><path class="cls-2" d="M258.72,411.72a18.16,18.16,0,0,1-18,18.05H239a18.16,18.16,0,0,1-18.05-18.05V200.27a18.16,18.16,0,0,1,18.05-18h1.72a18.16,18.16,0,0,1,18,18V411.72Z" transform="translate(0 0)"/><path class="cls-2" d="M392.81,411.72a18.16,18.16,0,0,1-18.05,18.05H373A18.16,18.16,0,0,1,355,411.72V200.27a18.16,18.16,0,0,1,18.05-18h1.72a18.16,18.16,0,0,1,18.05,18V411.72Z" transform="translate(0 0)"/></g></g></svg>