<?xml version="1.0" encoding="utf-8"?>
<!-- Generator: Adobe Illustrator 16.0.0, SVG Export Plug-In . SVG Version: 6.00 Build 0)  -->
<!DOCTYPE svg PUBLIC "-//W3C//DTD SVG 1.1//EN" "http://www.w3.org/Graphics/SVG/1.1/DTD/svg11.dtd">
<svg version="1.1" id="Layer_1" xmlns="http://www.w3.org/2000/svg" xmlns:xlink="http://www.w3.org/1999/xlink" x="0px" y="0px"
	 width="612.859px" height="612px" viewBox="16.6 103.2 612.859 612" enable-background="new 16.6 103.2 612.859 612"
	 xml:space="preserve">
<g id="home_1_">
</g>
<g id="Слой_2">
	<g id="pause">
		<path d="M322.6,103.2c-81.657,0-158.157,31.803-216.606,89.393C48.404,250.183,16.6,327.542,16.6,409.2
			c0,81.657,31.804,159.017,90.253,216.606c57.59,57.59,134.949,89.394,216.606,89.394s158.157-31.804,216.606-89.394
			c57.59-57.59,89.394-134.949,89.394-216.606c0-81.658-31.803-158.157-89.394-216.607C481.616,135.003,405.116,103.2,322.6,103.2z
			 M512.561,598.301c-50.714,50.714-117.759,78.22-189.102,78.22s-138.388-27.506-189.101-78.22
			c-50.714-50.713-78.22-117.758-78.22-189.101s27.506-138.388,78.22-189.102c50.713-50.713,117.758-78.219,189.101-78.219
			s138.388,27.505,189.102,78.219c50.713,50.714,78.219,117.759,78.219,189.102S563.274,548.447,512.561,598.301z"/>
		<path opacity="0.8" enable-background="new    " d="M275.324,514.925c0,10.314-8.596,18.051-18.05,18.051h-1.72
			c-10.314,0-18.051-8.596-18.051-18.051v-211.45c0-10.314,8.596-18.05,18.051-18.05h1.72c10.314,0,18.05,8.596,18.05,18.05V514.925
			z"/>
		<path opacity="0.8" enable-background="new    " d="M409.414,514.925c0,10.314-8.596,18.051-18.051,18.051h-1.719
			c-10.314,0-18.051-8.596-18.051-18.051v-211.45c0-10.314,8.596-18.05,18.051-18.05h1.719c10.314,0,18.051,8.596,18.051,18.05
			V514.925z"/>
	</g>
</g>
<g id="other">
</g>
</svg>
