<?xml version="1.0" encoding="utf-8"?>
<!-- Generator: Adobe Illustrator 16.0.0, SVG Export Plug-In . SVG Version: 6.00 Build 0)  -->
<!DOCTYPE svg PUBLIC "-//W3C//DTD SVG 1.1//EN" "http://www.w3.org/Graphics/SVG/1.1/DTD/svg11.dtd">
<svg version="1.1" id="Layer_1" xmlns="http://www.w3.org/2000/svg" xmlns:xlink="http://www.w3.org/1999/xlink" x="0px" y="0px"
	 width="4.946px" height="4.707px" viewBox="0 0 4.946 4.707" enable-background="new 0 0 4.946 4.707" xml:space="preserve">
<g>
	<defs>
		<rect id="SVGID_1_" width="4.947" height="4.707"/>
	</defs>
	<clipPath id="SVGID_2_">
		<use xlink:href="#SVGID_1_"  overflow="visible"/>
	</clipPath>
	<path clip-path="url(#SVGID_2_)" d="M0.22,3.541C-0.163,2.894-0.007,1.93,0.395,1.329c0.059-0.087,0.176-0.11,0.264-0.052
		C0.7,1.305,0.727,1.346,0.737,1.391c0.008,0.034,0.018,0.067,0.026,0.096C0.802,1.35,0.86,1.216,0.933,1.09
		c0.216-0.38,0.566-0.698,0.941-0.842c0.098-0.037,0.208,0.012,0.245,0.11c0.02,0.048,0.016,0.1-0.005,0.144
		c-0.036,0.085-0.067,0.17-0.095,0.252c0.279-0.253,0.63-0.473,0.994-0.609c0.748-0.282,1.601-0.198,1.922,0.653
		c0.037,0.098-0.012,0.207-0.11,0.244L4.806,1.048C4.171,1.217,3.933,1.632,3.708,2.024C3.395,2.57,3.104,3.082,2.063,3.065
		c0.071,0.031,0.163,0.065,0.282,0.103c0.099,0.03,0.154,0.136,0.125,0.236C2.454,3.455,2.417,3.495,2.374,3.517
		C1.895,3.787,1.058,3.98,0.519,3.767C0.442,3.875,0.327,4.111,0.407,4.479v0.001h0.524c0.062,0,0.113,0.051,0.113,0.113
		c0,0.063-0.051,0.114-0.113,0.114H0.366H0.259L0.241,4.706c-0.096,0.01-0.185-0.053-0.205-0.149
		C-0.071,4.063,0.097,3.716,0.22,3.541 M1.608,4.707L1.608,4.707h1.975c0.062,0,0.114-0.051,0.114-0.114
		c0-0.063-0.053-0.113-0.114-0.113H1.608c-0.062,0-0.113,0.051-0.113,0.113C1.495,4.656,1.546,4.707,1.608,4.707 M0.54,3.341
		L0.54,3.341c0.246,0.267,0.971,0.09,1.266,0.001c-0.162-0.101-0.25-0.208-0.297-0.298C1.44,2.91,1.403,2.621,1.671,2.655
		c1.153,0.15,1.422-0.316,1.709-0.819c0.235-0.415,0.483-0.85,1.113-1.085C3.892-0.235,2.161,0.876,1.862,1.555
		C1.837,1.631,1.765,1.686,1.681,1.686c-0.104,0-0.19-0.085-0.19-0.19c0-0.002,0.012-0.275,0.102-0.631
		C1.464,0.982,1.349,1.123,1.261,1.277C1.104,1.552,1.032,1.867,1.112,2.15c0.02,0.077-0.01,0.162-0.078,0.209
		C0.946,2.416,0.829,2.392,0.771,2.305c-0.086-0.129-0.179-0.254-0.25-0.39C0.36,2.35,0.3,2.925,0.54,3.341"/>
</g>
</svg>
