<?xml version="1.0" encoding="utf-8"?>
<!-- Generator: Adobe Illustrator 16.0.0, SVG Export Plug-In . SVG Version: 6.00 Build 0)  -->
<!DOCTYPE svg PUBLIC "-//W3C//DTD SVG 1.1//EN" "http://www.w3.org/Graphics/SVG/1.1/DTD/svg11.dtd">
<svg version="1.1" id="Layer_1" xmlns="http://www.w3.org/2000/svg" xmlns:xlink="http://www.w3.org/1999/xlink" x="0px" y="0px"
	 width="86.006px" height="90.262px" viewBox="0 0 86.006 90.262" enable-background="new 0 0 86.006 90.262" xml:space="preserve">
<g>
	<defs>
		<rect id="SVGID_1_" y="0" width="86.006" height="90.262"/>
	</defs>
	<clipPath id="SVGID_2_">
		<use xlink:href="#SVGID_1_"  overflow="visible"/>
	</clipPath>
	<path clip-path="url(#SVGID_2_)" fill="#FFFFFF" d="M12.478,85.06c0.915-0.273,1.615-1.032,1.615-2.142
		c0-1.187-0.953-2.413-2.958-2.413H4.751v9.4h6.56c2.004,0,2.997-1.188,2.997-2.569C14.308,86.188,13.549,85.273,12.478,85.06
		 M7.748,82.821h2.687c0.388,0,0.641,0.233,0.641,0.584c0,0.33-0.253,0.583-0.641,0.583H7.748V82.821z M10.551,87.589H7.748v-1.304
		h2.803c0.448,0,0.74,0.292,0.74,0.662C11.291,87.336,10.98,87.589,10.551,87.589"/>
	<polygon clip-path="url(#SVGID_2_)" fill="#FFFFFF" points="23.965,84.278 20.904,80.517 20.865,80.47 18.523,80.47 18.523,90.034 
		21.16,90.034 21.16,84.581 23.764,87.774 23.803,87.821 23.99,87.821 26.547,84.59 26.547,90.034 29.186,90.034 29.186,80.47 
		26.904,80.47 	"/>
	<path clip-path="url(#SVGID_2_)" fill="#FFFFFF" d="M38.122,80.241c-2.976,0-5.053,2.06-5.053,5.011c0,2.996,2.063,5.01,5.135,5.01
		c1.419,0,2.747-0.433,3.641-1.188l0.072-0.062l-0.785-1.923l-0.135,0.109c-0.491,0.396-1.415,0.819-2.544,0.819
		c-1.421,0-2.397-0.712-2.639-1.913h6.665l0.027-0.092c0.108-0.367,0.15-0.736,0.15-1.319
		C42.656,82.155,40.707,80.241,38.122,80.241 M38.018,82.484c0.624,0,1.145,0.194,1.504,0.562c0.303,0.308,0.476,0.733,0.495,1.208
		h-4.278C36.028,83.096,36.813,82.484,38.018,82.484"/>
	<path clip-path="url(#SVGID_2_)" fill="#FFFFFF" d="M53.418,86.695c-0.659,0.727-1.435,1.095-2.304,1.095
		c-1.241,0-2.559-0.89-2.559-2.539c0-1.635,1.265-2.518,2.455-2.518c0.904,0,1.611,0.278,2.227,0.874l0.118,0.114l1.252-2.109
		l-0.071-0.072c-0.851-0.85-2.178-1.3-3.836-1.3c-2.821,0-4.948,2.154-4.948,5.011c0,2.997,2.08,5.011,5.176,5.011
		c1.607,0,3.03-0.621,3.807-1.665l0.054-0.072l-1.257-1.954L53.418,86.695z"/>
	<polygon clip-path="url(#SVGID_2_)" fill="#FFFFFF" points="57.318,83.105 60.38,83.105 60.38,90.034 63.017,90.034 63.017,83.105 
		66.058,83.105 66.058,80.47 57.318,80.47 	"/>
	<path clip-path="url(#SVGID_2_)" fill="#FFFFFF" d="M73.752,80.241c-2.976,0-5.054,2.06-5.054,5.011c0,2.996,2.063,5.01,5.136,5.01
		c1.419,0,2.746-0.433,3.641-1.188l0.072-0.062l-0.785-1.923l-0.135,0.109c-0.49,0.396-1.416,0.819-2.546,0.819
		c-1.42,0-2.396-0.712-2.638-1.913h6.665l0.027-0.092c0.107-0.367,0.149-0.736,0.149-1.319
		C78.285,82.155,76.336,80.241,73.752,80.241 M73.647,82.484c0.624,0,1.143,0.194,1.504,0.562c0.303,0.308,0.477,0.733,0.495,1.208
		h-4.278C71.657,83.096,72.442,82.484,73.647,82.484"/>
	<rect x="82.644" y="75.299" clip-path="url(#SVGID_2_)" fill="#FFFFFF" width="2.782" height="9.729"/>
	<path clip-path="url(#SVGID_2_)" fill="#FFFFFF" d="M84.097,86.694c-1.103,0-1.784,0.861-1.784,1.66
		c0,0.865,0.625,1.783,1.784,1.783c1.013,0,1.64-0.926,1.64-1.783C85.736,87.569,85.063,86.694,84.097,86.694"/>
	<path clip-path="url(#SVGID_2_)" fill="#FFFFFF" d="M77.91,79.544L56.69,62.498h-37.89C8.434,62.498,0,54.063,0,43.694V18.8
		C0,8.434,8.434,0,18.801,0h48.403c10.368,0,18.802,8.433,18.802,18.8v24.894c0,7.843-4.809,14.776-12.069,17.557L77.91,79.544z
		 M18.801,2.23c-9.137,0-16.57,7.434-16.57,16.57v24.894c0,9.139,7.433,16.574,16.57,16.574h38.675l16.917,13.59l-3.058-14.081
		l0.96-0.31c6.867-2.224,11.48-8.562,11.48-15.773V18.8c0-9.136-7.434-16.57-16.571-16.57H18.801z"/>
	<path clip-path="url(#SVGID_2_)" fill="#FFFFFF" d="M35.463,13.604v11.643H23.449v22.544h37.592l0.005-34.188H35.463z
		 M57.327,43.077H39.768v-3.054h17.559V43.077z M57.327,35.607H39.768v-3.054h17.559V35.607z M57.327,28.137H39.768v-3.054h17.559
		V28.137z M57.327,20.667H39.768v-3.054h17.559V20.667z"/>
</g>
</svg>
