<svg xmlns="http://www.w3.org/2000/svg" width="24.5" height="26.398" viewBox="0 0 24.5 26.398"><path fill="none" stroke="#231F20" stroke-width="1.5" stroke-miterlimit="10" d="M23.247 20.145l-.138-.277c-.39-.914-5.15-2.298-5.54-2.326l-.31.028c-.58.11-1.22.637-2.47 1.717-.25.222-.58.277-.89.11-1.637-.913-3.63-2.74-4.627-3.848-1.08-1.2-2.38-3.16-2.99-4.74-.11-.31 0-.64.22-.86 1.42-1.27 2.03-1.88 2.08-2.54.03-.39-.8-5.29-1.66-5.76l-.25-.17C6.13 1.12 5.3.59 4.39.79c-.223.054-.444.14-.638.25-.61.39-2.133 1.44-2.823 2.795-.41.858-.61 8.638 5.21 15.2 5.76 6.507 12.87 6.783 13.92 6.562h.03l.08-.03c1.44-.53 2.657-1.89 3.13-2.47.856-1.025.274-2.27-.058-2.96z"/></svg>