<?xml version="1.0" encoding="UTF-8" standalone="no"?>
<svg
   xmlns:dc="http://purl.org/dc/elements/1.1/"
   xmlns:cc="http://creativecommons.org/ns#"
   xmlns:rdf="http://www.w3.org/1999/02/22-rdf-syntax-ns#"
   xmlns:svg="http://www.w3.org/2000/svg"
   xmlns="http://www.w3.org/2000/svg"
   xmlns:sodipodi="http://sodipodi.sourceforge.net/DTD/sodipodi-0.dtd"
   xmlns:inkscape="http://www.inkscape.org/namespaces/inkscape"
   version="1.1"
   x="0px"
   y="0px"
   viewBox="72.8 42.3 19 17.517"
   enable-background="new 72.8 42.3 24.5 26.4"
   xml:space="preserve"
   id="svg4290"
   inkscape:version="0.91 r13725"
   sodipodi:docname="phone_gray.svg"
   width="19"
   height="17.517"><metadata
     id="metadata4298"><rdf:RDF><cc:Work
         rdf:about=""><dc:format>image/svg+xml</dc:format><dc:type
           rdf:resource="http://purl.org/dc/dcmitype/StillImage" /><dc:title></dc:title></cc:Work></rdf:RDF></metadata><defs
     id="defs4296" /><sodipodi:namedview
     pagecolor="#ffffff"
     bordercolor="#666666"
     borderopacity="1"
     objecttolerance="10"
     gridtolerance="10"
     guidetolerance="10"
     inkscape:pageopacity="0"
     inkscape:pageshadow="2"
     inkscape:window-width="1600"
     inkscape:window-height="878"
     id="namedview4294"
     showgrid="false"
     inkscape:zoom="8.9393941"
     inkscape:cx="12.25"
     inkscape:cy="13.2"
     inkscape:window-x="0"
     inkscape:window-y="0"
     inkscape:window-maximized="1"
     inkscape:current-layer="svg4290" /><path
     d="m 76.953749,59.382191 0.229043,-0.07635 c 0.687132,-0.305391 1.756002,-3.893743 1.756002,-4.199134 l 0,-0.229043 c -0.07635,-0.458088 -0.458087,-0.916175 -1.297914,-1.908697 -0.152696,-0.152696 -0.229043,-0.458088 -0.07635,-0.687131 0.687131,-1.221567 2.061393,-2.748525 2.90122,-3.512004 0.916175,-0.839826 2.443132,-1.832348 3.588351,-2.290435 0.229043,-0.07635 0.458087,0 0.68713,0.152695 0.992523,1.068871 1.45061,1.526957 1.908697,1.603306 0.305392,0 4.046439,-0.610783 4.428178,-1.297914 l 0.152696,-0.152696 c 0.305388,-0.458087 0.687132,-1.068871 0.534433,-1.756001 -0.07635,-0.152696 -0.07635,-0.305392 -0.152692,-0.458088 -0.305391,-0.458087 -1.068873,-1.603305 -2.137743,-2.13774 -0.687131,-0.305391 -6.565918,-0.458087 -11.604878,3.970089 -4.962613,4.428179 -5.191656,9.848877 -5.038961,10.612356 l 0,0 0,0.07635 c 0.38174,1.068871 1.45061,2.061393 1.908697,2.366784 0.687131,0.687132 1.679654,0.229044 2.214089,-0.07635 z"
     id="path4292"
     inkscape:connector-curvature="0"
     style="fill:#adadad" /></svg>