<?xml version="1.0" encoding="utf-8"?>
<!-- Generator: Adobe Illustrator 16.0.0, SVG Export Plug-In . SVG Version: 6.00 Build 0)  -->
<!DOCTYPE svg PUBLIC "-//W3C//DTD SVG 1.1//EN" "http://www.w3.org/Graphics/SVG/1.1/DTD/svg11.dtd">
<svg version="1.1" id="Layer_1" xmlns="http://www.w3.org/2000/svg" xmlns:xlink="http://www.w3.org/1999/xlink" x="0px" y="0px"
	 width="43.725px" height="32.058px" viewBox="325.59 420.57 43.725 32.058" enable-background="new 325.59 420.57 43.725 32.058"
	 xml:space="preserve">
<g>
	<g>
		<path d="M349.906,452.591c-0.437,0-1.127-0.072-2.072-0.218s-2.145-0.509-3.525-1.09c-1.345-0.582-2.908-1.418-4.652-2.545
			c-1.708-1.126-3.562-2.689-5.524-4.652c-1.526-1.526-2.835-2.98-3.853-4.397c-1.019-1.381-1.854-2.689-2.472-3.89
			c-0.618-1.199-1.091-2.289-1.418-3.271s-0.509-1.817-0.654-2.545c-0.108-0.727-0.146-1.308-0.146-1.744
			c0.037-0.363,0.037-0.581,0.037-0.618v-0.072c0.036-0.363,0.182-0.728,0.327-1.091c0.182-0.363,0.399-0.69,0.69-0.944l4.325-4.325
			c0.399-0.4,0.908-0.618,1.417-0.618c0.4,0,0.764,0.109,1.091,0.363c0.254,0.218,0.509,0.437,0.69,0.764l0.036,0.036l3.489,6.651
			c0.255,0.436,0.327,0.981,0.219,1.526c-0.109,0.509-0.328,0.945-0.691,1.309l-1.563,1.563c0,0,0,0,0,0.036
			c0,0.037,0,0.037,0,0.037c0.072,0.399,0.254,0.836,0.509,1.345s0.654,1.127,1.163,1.854s1.272,1.563,2.254,2.544
			c0.98,0.981,1.816,1.745,2.544,2.29c0.727,0.545,1.345,0.945,1.854,1.199c0.581,0.291,0.872,0.4,1.018,0.437l0.291,0.072h0.036
			c0,0,0,0,0.036,0l1.854-1.89c0.509-0.437,1.091-0.654,1.745-0.654c0.399,0,0.727,0.072,1.018,0.182l0,0l0.146,0.073l6.288,3.743
			c0.581,0.363,0.944,0.872,1.09,1.454v0.036c0.073,0.654-0.108,1.272-0.617,1.781l-4.325,4.325
			c-0.219,0.254-0.546,0.473-0.909,0.654s-0.727,0.29-1.09,0.327h-0.073c0,0-0.072,0-0.146,0
			C350.27,452.591,350.124,452.591,349.906,452.591z M326.79,427.73c0,0.109,0,0.291-0.037,0.618
			c-0.036,0.363,0.037,0.872,0.109,1.49c0.109,0.653,0.291,1.453,0.618,2.362c0.29,0.908,0.727,1.963,1.345,3.089
			c0.581,1.127,1.381,2.399,2.362,3.744s2.217,2.763,3.744,4.252c1.89,1.927,3.671,3.417,5.343,4.508
			c1.672,1.09,3.162,1.926,4.471,2.471c1.308,0.546,2.398,0.873,3.271,1.019c0.909,0.145,1.526,0.218,1.927,0.218
			c0.146,0,0.291,0,0.363,0c0.073,0,0.146,0,0.182,0c0.255-0.036,0.509-0.109,0.764-0.255c0.254-0.108,0.436-0.254,0.581-0.436
			l4.361-4.325c0.255-0.255,0.327-0.509,0.291-0.836c-0.072-0.291-0.254-0.509-0.581-0.69l-6.324-3.744
			c-0.073-0.036-0.255-0.109-0.582-0.109c-0.363,0-0.69,0.109-0.981,0.364l-1.854,1.89c-0.109,0.109-0.254,0.182-0.437,0.254
			c-0.145,0.037-0.29,0.073-0.399,0.073h-0.109l-0.399-0.073c-0.327-0.072-0.764-0.218-1.309-0.509
			c-0.545-0.29-1.199-0.69-1.999-1.271c-0.763-0.582-1.672-1.382-2.689-2.399c-1.018-0.981-1.817-1.89-2.362-2.653
			c-0.546-0.763-0.981-1.453-1.236-1.999c-0.327-0.617-0.545-1.199-0.617-1.708v-0.109c0-0.108,0.036-0.254,0.072-0.399
			c0.072-0.182,0.146-0.327,0.255-0.437l1.599-1.599c0.218-0.219,0.327-0.473,0.4-0.764c0.072-0.291,0.036-0.545-0.109-0.763
			l-3.489-6.651c-0.109-0.183-0.255-0.327-0.399-0.437c-0.109-0.109-0.255-0.146-0.437-0.146c-0.255,0-0.473,0.109-0.654,0.291
			l-4.325,4.361c-0.182,0.182-0.327,0.363-0.437,0.618C326.935,427.222,326.826,427.476,326.79,427.73z"/>
	</g>
</g>
<path d="M351.868,424.096h17.083c0.219,0,0.363,0.146,0.363,0.363v0.363c0,0.219-0.145,0.364-0.363,0.364h-17.083
	c-0.218,0-0.363-0.146-0.363-0.364v-0.363C351.505,424.277,351.687,424.096,351.868,424.096z"/>
<path d="M350.888,424.313l5.924-5.925c0.146-0.145,0.363-0.145,0.509,0l0.255,0.255c0.146,0.146,0.146,0.364,0,0.509l-5.925,5.925
	c-0.146,0.146-0.363,0.146-0.509,0l-0.254-0.255C350.742,424.714,350.742,424.459,350.888,424.313z"/>
<path d="M351.687,424.241l5.853,5.852c0.145,0.146,0.145,0.363,0,0.509l-0.255,0.255c-0.146,0.146-0.363,0.146-0.509,0l-5.852-5.853
	c-0.146-0.145-0.146-0.363,0-0.509l0.254-0.254C351.323,424.096,351.541,424.096,351.687,424.241z"/>
</svg>
