<svg xmlns="http://www.w3.org/2000/svg" width="16" height="23" viewBox="0 0 16 23"><path d="M8 23c-.275 0-.54-.115-.73-.316C6.976 22.368 0 14.848 0 8c0-4.41 3.59-8 8-8 4.412 0 8 3.59 8 8 0 6.848-6.973 14.368-7.27 14.684-.19.2-.453.316-.73.316zM8 2C4.69 2 2 4.69 2 8c0 4.84 4.258 10.405 6 12.48 1.743-2.075 6-7.64 6-12.48 0-3.31-2.69-6-6-6zm0 10c-2.205 0-4-1.794-4-4s1.795-4 4-4c2.206 0 4 1.794 4 4s-1.794 4-4 4zm0-6c-1.103 0-2 .897-2 2s.897 2 2 2c1.104 0 2-.897 2-2s-.896-2-2-2z" fill="#fff"/></svg>
