<?xml version="1.0" encoding="utf-8"?>
<!-- Generator: Adobe Illustrator 16.0.0, SVG Export Plug-In . SVG Version: 6.00 Build 0)  -->
<!DOCTYPE svg PUBLIC "-//W3C//DTD SVG 1.1//EN" "http://www.w3.org/Graphics/SVG/1.1/DTD/svg11.dtd">
<svg version="1.1" id="Layer_1" xmlns="http://www.w3.org/2000/svg" xmlns:xlink="http://www.w3.org/1999/xlink" x="0px" y="0px"
	 width="16px" height="23px" viewBox="0 0 16 23" enable-background="new 0 0 16 23" xml:space="preserve">
<path fill="#E33539" d="M8,23c-0.275,0-0.54-0.115-0.73-0.316C6.976,22.368,0,14.848,0,8c0-4.41,3.59-8,8-8c4.412,0,8,3.59,8,8
	c0,6.848-6.973,14.368-7.27,14.684C8.54,22.884,8.277,23,8,23z M8,2C4.69,2,2,4.69,2,8c0,4.84,4.258,10.404,6,12.48
	C9.743,18.404,14,12.84,14,8C14,4.69,11.311,2,8,2z M8,12c-2.205,0-4-1.794-4-4s1.795-4,4-4c2.206,0,4,1.794,4,4S10.206,12,8,12z
	 M8,6C6.897,6,6,6.897,6,8s0.897,2,2,2c1.104,0,2-0.897,2-2S9.104,6,8,6z"/>
</svg>
