<?xml version="1.0" encoding="utf-8"?>
<!-- Generator: Adobe Illustrator 16.0.0, SVG Export Plug-In . SVG Version: 6.00 Build 0)  -->
<!DOCTYPE svg PUBLIC "-//W3C//DTD SVG 1.1//EN" "http://www.w3.org/Graphics/SVG/1.1/DTD/svg11.dtd">
<svg version="1.1" id="Layer_1" xmlns="http://www.w3.org/2000/svg" xmlns:xlink="http://www.w3.org/1999/xlink" x="0px" y="0px"
	 width="60px" height="60px" viewBox="0 0 60 60" enable-background="new 0 0 60 60" xml:space="preserve">
<g>
	<g>
		<path fill="#666666" d="M50.674,16.571C48.651,6.786,40.326-0.006,30.541-0.006c-1.378,0-2.748,0.166-4.125,0.405
			c-5.42,1.048-10.024,4.125-13.102,8.729c-3.069,4.611-4.208,10.108-3.069,15.604c0.726,3.639,2.186,7.038,3.556,9.867
			c2.665,5.66,6.147,11.403,10.916,18.193c1.048,1.452,2.104,2.912,3.235,4.365v0.082l0.239,0.322l0.083,0.082
			c0.57,0.727,1.377,1.048,2.187,1.048c0.569,0,1.535-0.238,2.426-1.295c3.234-4.207,5.981-8.325,8.571-12.451
			c2.914-4.687,6.47-10.916,8.655-17.872C51.234,23.518,51.399,19.962,50.674,16.571L50.674,16.571z M47.192,26.19
			c-2.104,6.636-5.577,12.616-8.326,17.146c-2.508,4.042-5.255,8.004-8.325,12.129c0,0,0,0.082-0.082,0.082l-0.083-0.165
			c0,0,0-0.081-0.082-0.081c-1.047-1.452-2.104-2.913-3.151-4.365c-4.688-6.634-8.086-12.211-10.677-17.706
			c-1.295-2.666-2.665-5.826-3.316-9.217c-0.973-4.686,0-9.464,2.591-13.342c2.589-3.879,6.633-6.551,11.237-7.443
			c1.212-0.239,2.344-0.321,3.557-0.321c8.407,0,15.446,5.825,17.22,14.233C48.404,20.044,48.166,23.114,47.192,26.19L47.192,26.19z
			 M30.294,10.828c-5.255,0-9.538,4.283-9.538,9.539c0,5.255,4.282,9.539,9.538,9.539c5.255,0,9.539-4.283,9.539-9.539
			C39.833,15.11,35.549,10.828,30.294,10.828L30.294,10.828z M30.294,26.917c-3.638,0-6.551-2.913-6.551-6.55
			c0-3.639,2.913-6.55,6.551-6.55c3.639,0,6.552,2.911,6.552,6.55C36.846,24.004,33.933,26.917,30.294,26.917L30.294,26.917z
			 M30.294,26.917"/>
	</g>
</g>
</svg>
