<?xml version="1.0" encoding="UTF-8" standalone="no"?>
<!-- Created with Inkscape (http://www.inkscape.org/) -->

<svg
   xmlns:dc="http://purl.org/dc/elements/1.1/"
   xmlns:cc="http://creativecommons.org/ns#"
   xmlns:rdf="http://www.w3.org/1999/02/22-rdf-syntax-ns#"
   xmlns:svg="http://www.w3.org/2000/svg"
   xmlns="http://www.w3.org/2000/svg"
   xmlns:sodipodi="http://sodipodi.sourceforge.net/DTD/sodipodi-0.dtd"
   xmlns:inkscape="http://www.inkscape.org/namespaces/inkscape"
   id="svg2"
   version="1.1"
   inkscape:version="0.91 r13725"
   xml:space="preserve"
   width="22"
   height="32"
   viewBox="0 0 22 32"
   sodipodi:docname="placemark-02-black.svg"><metadata
     id="metadata8"><rdf:RDF><cc:Work
         rdf:about=""><dc:format>image/svg+xml</dc:format><dc:type
           rdf:resource="http://purl.org/dc/dcmitype/StillImage" /><dc:title></dc:title></cc:Work></rdf:RDF></metadata><defs
     id="defs6"><clipPath
       clipPathUnits="userSpaceOnUse"
       id="clipPath16"><path
         d="m 0,100 67.741,0 0,-100 L 0,0 0,100 Z"
         id="path18"
         inkscape:connector-curvature="0" /></clipPath></defs><sodipodi:namedview
     pagecolor="#ffffff"
     bordercolor="#666666"
     borderopacity="1"
     objecttolerance="10"
     gridtolerance="10"
     guidetolerance="10"
     inkscape:pageopacity="0"
     inkscape:pageshadow="2"
     inkscape:window-width="1366"
     inkscape:window-height="705"
     id="namedview4"
     showgrid="false"
     fit-margin-top="0"
     fit-margin-left="0"
     fit-margin-right="0"
     fit-margin-bottom="0"
     inkscape:zoom="0.94400002"
     inkscape:cx="-251.21443"
     inkscape:cy="-80.132051"
     inkscape:window-x="-8"
     inkscape:window-y="-8"
     inkscape:window-maximized="1"
     inkscape:current-layer="g10" /><g
     id="g10"
     inkscape:groupmode="layer"
     inkscape:label="Векторный смарт-объект"
     transform="matrix(1.25,0,0,-1.25,0,32)"><g
       id="g12"
       style="fill:none;stroke:#000000;stroke-opacity:1;stroke-width:2.48158674;stroke-miterlimit:4;stroke-dasharray:none"
       transform="scale(0.25981311,0.256)"><g
         id="g14"
         clip-path="url(#clipPath16)"
         style="fill:none;stroke:#000000;stroke-opacity:1;stroke-width:2.48158674;stroke-miterlimit:4;stroke-dasharray:none"><g
           id="g20"
           transform="translate(33.871,49.541)"
           style="fill:none;stroke:#000000;stroke-opacity:1;stroke-width:2.48158674;stroke-miterlimit:4;stroke-dasharray:none"><path
             d="m 0,0 c -9.161,0 -16.589,7.428 -16.589,16.589 0,9.16 7.428,16.588 16.589,16.588 9.162,0 16.589,-7.428 16.589,-16.588 C 16.589,7.428 9.162,0 0,0 m 0,50.459 c -18.706,0 -33.871,-15.165 -33.871,-33.87 0,-0.401 0.012,-0.809 0.03,-1.221 0.127,-3.558 0.798,-6.975 1.939,-10.172 C -24.676,-18.556 0,-49.541 0,-49.541 c 0,0 24.673,30.982 31.9,54.734 1.143,3.197 1.813,6.617 1.939,10.175 0.02,0.412 0.031,0.819 0.031,1.221 C 33.871,35.294 18.706,50.459 0,50.459"
             style="fill:none;fill-opacity:1;fill-rule:nonzero;stroke:#000000;stroke-opacity:1;stroke-width:2.48158674;stroke-miterlimit:4;stroke-dasharray:none"
             id="path22"
             inkscape:connector-curvature="0" /></g></g></g></g></svg>