<?xml version="1.0" encoding="utf-8"?>
<!-- Generator: Adobe Illustrator 16.0.0, SVG Export Plug-In . SVG Version: 6.00 Build 0)  -->
<!DOCTYPE svg PUBLIC "-//W3C//DTD SVG 1.1//EN" "http://www.w3.org/Graphics/SVG/1.1/DTD/svg11.dtd">
<svg version="1.1" id="Layer_1" xmlns="http://www.w3.org/2000/svg" xmlns:xlink="http://www.w3.org/1999/xlink" x="0px" y="0px"
	 width="38.689px" height="38.7px" viewBox="0 0 38.689 38.7" enable-background="new 0 0 38.689 38.7" xml:space="preserve">
<g>
	<defs>
		<rect id="SVGID_1_" x="0" width="38.689" height="38.7"/>
	</defs>
	<clipPath id="SVGID_2_">
		<use xlink:href="#SVGID_1_"  overflow="visible"/>
	</clipPath>
	<path clip-path="url(#SVGID_2_)" d="M19.344,0.003c-5.168,0-10.027,2.013-13.682,5.667C2.01,9.325-0.005,14.185-0.005,19.35
		c0,5.17,2.014,10.027,5.667,13.682c3.653,3.655,8.514,5.668,13.682,5.668c5.167,0,10.025-2.013,13.68-5.668
		c3.654-3.652,5.667-8.513,5.667-13.68c0-5.168-2.01-10.027-5.66-13.68C29.37,2.015,24.51,0,19.35,0 M31.32,31.32
		c-3.199,3.197-7.449,4.96-11.97,4.96c-4.527,0-8.78-1.763-11.977-4.96c-3.197-3.196-4.95-7.45-4.95-11.97
		c0-4.52,1.76-8.772,4.96-11.97c3.196-3.198,7.448-4.96,11.97-4.96c4.521,0,8.771,1.762,11.97,4.96
		c3.2,3.197,4.961,7.45,4.961,11.97c0,4.523-1.761,8.773-4.961,11.97"/>
</g>
<g>
	<defs>
		<rect id="SVGID_3_" x="0" width="38.689" height="38.7"/>
	</defs>
	<clipPath id="SVGID_4_">
		<use xlink:href="#SVGID_3_"  overflow="visible"/>
	</clipPath>
	<path clip-path="url(#SVGID_4_)" d="M25.53,18.4l-8.463-6.65c-0.363-0.286-0.859-0.34-1.275-0.137
		c-0.41,0.202-0.681,0.625-0.681,1.088V26.01c0,0.471,0.271,0.891,0.681,1.091c0.17,0.08,0.35,0.13,0.529,0.13
		c0.271,0,0.53-0.09,0.75-0.26l8.471-6.65c0.3-0.23,0.47-0.58,0.47-0.95s-0.17-0.72-0.46-0.95 M17.551,23.542V15.2l5.3,4.16
		l-5.29,4.164L17.551,23.542z"/>
</g>
</svg>
