<?xml version="1.0" encoding="UTF-8" standalone="no"?>
<!-- Created with Inkscape (http://www.inkscape.org/) -->

<svg
   xmlns:dc="http://purl.org/dc/elements/1.1/"
   xmlns:cc="http://creativecommons.org/ns#"
   xmlns:rdf="http://www.w3.org/1999/02/22-rdf-syntax-ns#"
   xmlns:svg="http://www.w3.org/2000/svg"
   xmlns="http://www.w3.org/2000/svg"
   xmlns:sodipodi="http://sodipodi.sourceforge.net/DTD/sodipodi-0.dtd"
   xmlns:inkscape="http://www.inkscape.org/namespaces/inkscape"
   id="svg2"
   version="1.1"
   inkscape:version="0.91 r13725"
   xml:space="preserve"
   width="37.999996"
   height="47.999996"
   viewBox="0 0 37.999997 47.999998"
   sodipodi:docname="point-webcam.svg"><metadata
     id="metadata8"><rdf:RDF><cc:Work
         rdf:about=""><dc:format>image/svg+xml</dc:format><dc:type
           rdf:resource="http://purl.org/dc/dcmitype/StillImage" /><dc:title></dc:title></cc:Work></rdf:RDF></metadata><defs
     id="defs6"><clipPath
       clipPathUnits="userSpaceOnUse"
       id="clipPath16"><path
         d="m 0,18.044 24.85,0 L 24.85,0 0,0 0,18.044 Z"
         id="path18"
         inkscape:connector-curvature="0" /></clipPath></defs><sodipodi:namedview
     pagecolor="#ffffff"
     bordercolor="#666666"
     borderopacity="1"
     objecttolerance="10"
     gridtolerance="10"
     guidetolerance="10"
     inkscape:pageopacity="0"
     inkscape:pageshadow="2"
     inkscape:window-width="1366"
     inkscape:window-height="705"
     id="namedview4"
     showgrid="false"
     fit-margin-top="0"
     fit-margin-left="0"
     fit-margin-right="0"
     fit-margin-bottom="0"
     inkscape:zoom="3.699401"
     inkscape:cx="-40.201141"
     inkscape:cy="30.55069"
     inkscape:window-x="-8"
     inkscape:window-y="-8"
     inkscape:window-maximized="1"
     inkscape:current-layer="g10" /><g
     id="g10"
     inkscape:groupmode="layer"
     inkscape:label="web_white"
     transform="matrix(1.25,0,0,-1.25,1.8787346,30.875733)"
     style="display:inline"><g
       inkscape:groupmode="layer"
       id="layer3"
       inkscape:label="svg buble"
       style="display:inline"><ellipse
         style="display:inline;opacity:1;fill:#525252;fill-opacity:1;fill-rule:evenodd;stroke:none;stroke-width:0.18153457;stroke-miterlimit:4;stroke-dasharray:none;stroke-opacity:1"
         id="path8103"
         cx="13.697009"
         cy="-10.029789"
         transform="scale(1,-1)"
         rx="15.2"
         ry="14.670797" /><rect
         style="display:inline;opacity:1;fill:#525252;fill-opacity:1;fill-rule:evenodd;stroke:none;stroke-width:0.2;stroke-miterlimit:4;stroke-dasharray:none;stroke-opacity:1"
         id="rect8127"
         width="17.696892"
         height="18.502028"
         x="9.4998045"
         y="5.90732"
         transform="matrix(0.42550324,0.90495688,0.40698703,-0.91343392,0,0)" /></g><g
       inkscape:groupmode="layer"
       id="layer1"
       inkscape:label="svg"
       style="display:inline"><g
         id="g12"
         style="display:inline;fill:#ffffff"
         transform="matrix(0.59870405,0,0,0.6303181,7.1609387,4.9014512)"><g
           id="g14"
           clip-path="url(#clipPath16)"
           style="fill:#ffffff"><g
             id="g20"
             transform="translate(8.4597,6.1979)"
             style="fill:#ffffff"><path
               d="m 0,0 c 0,-0.876 0.535,-1.626 1.297,-1.943 l 0,-1.223 c 0,-0.688 -0.559,-1.247 -1.246,-1.247 l -7.233,0 c -0.493,0 -0.892,-0.4 -0.892,-0.893 0,-0.492 0.399,-0.892 0.892,-0.892 l 7.233,0 c 1.671,0 3.032,1.359 3.032,3.032 l 0,1.305 c 0.384,0.201 0.693,0.521 0.892,0.908 L 0.003,0.063 C 0.002,0.042 0,0.022 0,0"
               style="fill:#ffffff;fill-opacity:1;fill-rule:nonzero;stroke:none"
               id="path22"
               inkscape:connector-curvature="0" /></g><g
             id="g24"
             transform="translate(24.1802,9.8519)"
             style="fill:#ffffff"><path
               d="M 0,0 -3.451,-4.17 -0.563,-4.92 0.67,-0.175 0,0 Z"
               style="fill:#ffffff;fill-opacity:1;fill-rule:nonzero;stroke:none"
               id="path26"
               inkscape:connector-curvature="0" /></g><g
             id="g28"
             transform="translate(18.5959,9.9048)"
             style="fill:#ffffff"><path
               d="m 0,0 c -0.104,-0.411 -0.523,-0.66 -0.935,-0.554 -0.411,0.105 -0.659,0.524 -0.554,0.935 0.105,0.412 0.524,0.66 0.935,0.555 C -0.143,0.831 0.106,0.412 0,0 m 5.651,2.186 c -0.11,0.341 -0.387,0.6 -0.733,0.688 l -20.463,5.232 c -0.078,0.02 -0.157,0.028 -0.235,0.03 -0.008,0 -0.015,0.003 -0.023,0.003 -0.016,0 -0.03,-0.005 -0.045,-0.006 -0.063,-0.003 -0.126,-0.011 -0.187,-0.025 -0.023,-0.006 -0.047,-0.011 -0.069,-0.018 -0.081,-0.024 -0.159,-0.054 -0.231,-0.097 -0.238,-0.141 -0.41,-0.371 -0.478,-0.639 l -1.75,-6.845 c -0.143,-0.558 0.193,-1.126 0.752,-1.268 l 7.893,-2.018 3.984,-1.019 5.352,-1.369 c 0.086,-0.022 0.173,-0.032 0.259,-0.032 0.306,0 0.602,0.135 0.803,0.377 l 0.7,0.845 3.45,4.17 L 5.462,1.2 C 5.69,1.475 5.761,1.848 5.651,2.186"
               style="fill:#ffffff;fill-opacity:1;fill-rule:nonzero;stroke:none"
               id="path30"
               inkscape:connector-curvature="0" /></g></g></g></g><rect
       style="opacity:0.95999995;fill:#525252;fill-opacity:0;fill-rule:evenodd;stroke:none;stroke-width:0.2;stroke-miterlimit:4;stroke-dasharray:none;stroke-opacity:1"
       id="rect8125"
       width="21.625122"
       height="17.51635"
       x="-48.440273"
       y="-11.893818"
       transform="scale(1,-1)" /></g></svg>