<svg id="Layer_1" data-name="Layer 1" xmlns="http://www.w3.org/2000/svg" xmlns:xlink="http://www.w3.org/1999/xlink" viewBox="0 0 40 40"><defs><style>.cls-1{fill:none;}.cls-2{fill:#fff;}.cls-3{clip-path:url(#clip-path);}.cls-4{fill:#e63333;}</style><clipPath id="clip-path"><rect class="cls-1" x="12" y="12.2" width="16" height="15"/></clipPath></defs><title>presentation-white-red</title><circle class="cls-2" cx="20" cy="20" r="20"/><g class="cls-3"><path class="cls-4" d="M27.44,13.32H20.78V12.94a0.81,0.81,0,0,0-1.62,0v0.38H12.5a0.49,0.49,0,0,0-.51.47h0v9.55a0.49,0.49,0,0,0,.51.47h6.67v1L17,25.74a0.71,0.71,0,0,0-.43.91l0,0.09a0.85,0.85,0,0,0,1.08.35l1.53-.65a0.84,0.84,0,0,0,1.55,0l1.53,0.65a0.88,0.88,0,0,0,.34.07,0.82,0.82,0,0,0,.73-0.42,0.71,0.71,0,0,0-.3-1l-0.09,0-2.18-.93v-1h6.66A0.49,0.49,0,0,0,28,23.34h0V13.79a0.49,0.49,0,0,0-.51-0.47h0Zm-1.11,9H13.62V14.78H26.34v7.54h0Z"/></g><path class="cls-4" d="M15.9,21a0.85,0.85,0,0,0,.58-0.22L18,19.33l2,1.07a0.88,0.88,0,0,0,1-.09l3.62-3a0.69,0.69,0,0,0,.07-1l0,0a0.87,0.87,0,0,0-1.15,0l-3.18,2.62-2-1.09a0.87,0.87,0,0,0-1,.12l-2,1.86a0.69,0.69,0,0,0,0,1l0,0a0.85,0.85,0,0,0,.57.21h0Z"/></svg>