<?xml version="1.0" encoding="utf-8"?>
<!-- Generator: Adobe Illustrator 18.0.0, SVG Export Plug-In . SVG Version: 6.00 Build 0)  -->
<!DOCTYPE svg PUBLIC "-//W3C//DTD SVG 1.1//EN" "http://www.w3.org/Graphics/SVG/1.1/DTD/svg11.dtd">
<svg version="1.1" id="Слой_1" xmlns="http://www.w3.org/2000/svg" xmlns:xlink="http://www.w3.org/1999/xlink" x="0px" y="0px"
	 viewBox="0 0 30 30.8" enable-background="new 0 0 30 30.8" xml:space="preserve">
<path fill="#FFFFFF" d="M26.7,11H3.3C1.5,11,0,12.5,0,14.3v7.1c0,1.8,1.5,3.3,3.3,3.3h4.1v-1.2H3.3c-1.2,0-2.1-0.9-2.1-2.1v-7.1
	c0-1.2,1-2.1,2.1-2.1h23.4c1.2,0,2.1,0.9,2.1,2.1v7.1c0,1.2-0.9,2.1-2.1,2.1h-3.8v1.2h3.8c1.8,0,3.3-1.5,3.3-3.3v-7.1
	C30.1,12.5,28.5,11,26.7,11"/>
<path fill="#FFFFFF" d="M24.1,12.2H6.2V0h17.8V12.2z M7.4,11h15.5V1.2H7.4V11z M6.2,30.8h17.8V18.6H6.2V30.8L6.2,30.8z M22.9,29.6
	H7.4v-9.8h15.5L22.9,29.6L22.9,29.6z M9.6,21.8h11.3v0.9H9.6L9.6,21.8z M9.6,24.4h11.3v0.9H9.6L9.6,24.4z M9.6,26.9h5.7v0.9H9.6
	L9.6,26.9z"/>
</svg>
