<?xml version="1.0" encoding="utf-8"?>
<!-- Generator: Adobe Illustrator 16.0.0, SVG Export Plug-In . SVG Version: 6.00 Build 0)  -->
<!DOCTYPE svg PUBLIC "-//W3C//DTD SVG 1.1//EN" "http://www.w3.org/Graphics/SVG/1.1/DTD/svg11.dtd">
<svg version="1.1" id="Layer_1" xmlns="http://www.w3.org/2000/svg" xmlns:xlink="http://www.w3.org/1999/xlink" x="0px" y="0px"
	 width="179.823px" height="179.824px" viewBox="202.768 338.474 179.823 179.824"
	 enable-background="new 202.768 338.474 179.823 179.824" xml:space="preserve">
<g>
	<path d="M292.68,518.298c-49.607,0-89.912-40.305-89.912-89.912c0-49.607,40.305-89.912,89.912-89.912
		c49.606,0,89.911,40.305,89.911,89.912C382.591,477.994,342.286,518.298,292.68,518.298z M292.68,350.875
		c-42.786,0-77.511,34.725-77.511,77.511c0,42.785,34.725,77.51,77.511,77.51c42.785,0,77.51-34.725,77.51-77.51
		C370.19,385.6,335.465,350.875,292.68,350.875z"/>
</g>
<g>
	<path d="M282.758,440.789v-4.342c0-3.721,0.62-6.82,2.48-9.301c1.24-2.48,4.341-5.581,8.681-8.681
		c3.721-3.101,6.821-4.961,8.062-6.821c1.24-1.86,1.86-3.72,1.86-6.201c0-2.48-0.62-4.34-2.48-5.581s-4.341-1.86-7.441-1.86
		c-5.58,0-11.781,1.86-19.222,5.581l-6.201-12.401c8.061-4.961,17.362-6.821,26.663-6.821c7.441,0,13.642,1.86,18.603,5.581
		c4.341,3.721,6.821,8.681,6.821,14.882c0,4.341-1.24,7.441-3.101,10.542s-5.581,6.202-10.542,9.922
		c-3.72,2.479-5.58,4.959-6.82,6.199s-2.48,3.721-2.48,6.201v3.102H282.758z M280.898,460.011c0-3.102,0.62-5.582,2.48-7.441
		c1.86-1.861,4.341-2.48,7.441-2.48c3.1,0,5.58,0.619,7.44,2.48c1.86,1.859,2.48,3.721,2.48,6.82s-0.62,5.58-2.48,6.82
		c-1.86,1.861-4.341,2.48-7.44,2.48c-3.101,0-5.581-0.619-7.441-2.48C282.138,465.591,280.898,463.111,280.898,460.011z"/>
</g>
</svg>
