<?xml version="1.0" encoding="utf-8"?>
<!-- Generator: Adobe Illustrator 16.0.0, SVG Export Plug-In . SVG Version: 6.00 Build 0)  -->
<!DOCTYPE svg PUBLIC "-//W3C//DTD SVG 1.1//EN" "http://www.w3.org/Graphics/SVG/1.1/DTD/svg11.dtd">
<svg version="1.1" id="Layer_1" xmlns="http://www.w3.org/2000/svg" xmlns:xlink="http://www.w3.org/1999/xlink" x="0px" y="0px"
	 width="41.333px" height="40.667px" viewBox="0 0 41.333 40.667" enable-background="new 0 0 41.333 40.667" xml:space="preserve">
<g>
	<defs>
		<rect id="SVGID_1_" x="-820.333" y="-574.55" width="1683.78" height="1190.55"/>
	</defs>
	<clipPath id="SVGID_2_">
		<use xlink:href="#SVGID_1_"  overflow="visible"/>
	</clipPath>
	<g clip-path="url(#SVGID_2_)">
		<path fill="#FFFFFF" d="M16.262,28.135l2.186,2.187l0.012,0.013c0.407,0.42,0.372,1.104-0.064,1.539l-0.021,0.022l-4.087,4.086
			l-4.107,4.107c-0.443,0.442-1.145,0.473-1.559,0.059l-0.026-0.026L5.18,36.705l-3.441-3.44c-0.426-0.427-0.397-1.129,0.046-1.571
			l0.021-0.021l4.086-4.087L10,23.479c0.436-0.437,1.132-0.459,1.54-0.065l0.026,0.025l0.013,0.013l2.16,2.16l4.044-4.044
			l-8.977-8.978c-0.414-0.414-0.397-1.13,0.038-1.565c0.167-0.167,0.377-0.274,0.587-0.328l29.893-9.453
			c0.595-0.18,1.192,0.127,1.333,0.711C40.71,2.16,40.698,2.354,40.63,2.55l-9.489,29.981c-0.181,0.593-0.801,0.955-1.378,0.808
			c-0.186-0.048-0.342-0.148-0.459-0.266l0.076,0.09l-8.991-8.99L16.262,28.135z M21.137,18.213L21.137,18.213
			c0.74-0.741,1.911-0.772,2.609-0.074c0.687,0.686,0.653,1.857-0.086,2.596l-1.735,1.736l7.71,7.71l8.309-26.238l-26.238,8.308
			l7.697,7.697L21.137,18.213z M13.408,28.504L13.408,28.504l-0.013-0.013l-0.026-0.026l-2.665-2.664L7.406,29.1l-3.298,3.298
			l2.69,2.689l2.678,2.679l3.298-3.299l3.299-3.299L13.408,28.504z"/>
	</g>
</g>
</svg>
