<?xml version="1.0" encoding="utf-8"?>
<!-- Generator: Adobe Illustrator 16.0.4, SVG Export Plug-In . SVG Version: 6.00 Build 0)  -->
<!DOCTYPE svg PUBLIC "-//W3C//DTD SVG 1.1//EN" "http://www.w3.org/Graphics/SVG/1.1/DTD/svg11.dtd">
<svg version="1.1" id="Layer_1" xmlns="http://www.w3.org/2000/svg" xmlns:xlink="http://www.w3.org/1999/xlink" x="0px" y="0px"
	 width="28px" height="28px" viewBox="0 0 28 28" enable-background="new 0 0 28 28" xml:space="preserve">
<g>
	<path d="M10.948,20.994V6.902h5.147c0.913,0,1.667,0.104,2.261,0.313c0.594,0.209,1.063,0.496,1.409,0.861s0.587,0.786,0.725,1.262
		c0.137,0.477,0.205,0.976,0.205,1.498c0,0.783-0.16,1.429-0.479,1.938c-0.32,0.509-0.734,0.91-1.243,1.204
		s-1.086,0.499-1.731,0.617c-0.646,0.117-1.296,0.176-1.947,0.176h-3.015v6.224H10.948z M15.332,13.635
		c0.626,0,1.187-0.04,1.683-0.118s0.917-0.225,1.263-0.44s0.613-0.509,0.803-0.881c0.188-0.372,0.283-0.857,0.283-1.458
		c0-0.887-0.29-1.559-0.871-2.016c-0.58-0.457-1.504-0.685-2.77-0.685h-3.444v5.598H15.332z"/>
</g>
<rect x="9" y="17" width="10" height="1"/>
<g>
	<path d="M14.258,1.029c7.145,0,12.957,5.813,12.957,12.958c0,7.145-5.812,12.958-12.957,12.958C7.113,26.944,1.3,21.132,1.3,13.987
		C1.3,6.842,7.113,1.029,14.258,1.029 M14.258,0.229C6.66,0.229,0.5,6.389,0.5,13.987c0,7.598,6.16,13.757,13.758,13.757
		s13.757-6.159,13.757-13.757C28.015,6.389,21.855,0.229,14.258,0.229L14.258,0.229z"/>
</g>
</svg>
