<?xml version="1.0" encoding="utf-8"?>
<!-- Generator: Adobe Illustrator 16.0.0, SVG Export Plug-In . SVG Version: 6.00 Build 0)  -->
<!DOCTYPE svg PUBLIC "-//W3C//DTD SVG 1.1//EN" "http://www.w3.org/Graphics/SVG/1.1/DTD/svg11.dtd">
<svg version="1.1" id="Layer_1" xmlns="http://www.w3.org/2000/svg" xmlns:xlink="http://www.w3.org/1999/xlink" x="0px" y="0px"
	 width="179.823px" height="179.824px" viewBox="202.768 338.474 179.823 179.824"
	 enable-background="new 202.768 338.474 179.823 179.824" xml:space="preserve">
<g>
	<path d="M292.68,518.298c-49.607,0-89.912-40.305-89.912-89.912c0-49.607,40.305-89.912,89.912-89.912
		c49.606,0,89.911,40.305,89.911,89.912C382.591,477.994,342.286,518.298,292.68,518.298z M292.68,350.875
		c-42.786,0-77.511,34.725-77.511,77.511c0,42.785,34.725,77.51,77.511,77.51c42.785,0,77.51-34.725,77.51-77.51
		C370.19,385.6,335.465,350.875,292.68,350.875z"/>
</g>
<g>
	<path d="M326.783,411.024c0,8.681-3.1,14.882-8.681,19.843c-5.581,4.34-13.642,6.82-24.184,6.82h-8.681v31.004h-13.642V386.22
		h23.563c10.542,0,17.982,1.86,22.943,6.201C323.684,396.762,326.783,402.343,326.783,411.024z M285.239,425.906h7.441
		c6.82,0,11.781-1.24,14.881-3.721c3.101-2.48,4.961-6.201,4.961-11.161c0-4.961-1.24-8.061-4.341-10.542
		c-3.1-2.48-7.44-3.721-13.642-3.721h-9.301V425.906z"/>
</g>
<g>
	<rect x="259.195" y="443.888" width="51.467" height="9.922"/>
</g>
</svg>
