<?xml version="1.0" encoding="utf-8"?>
<!-- Generator: Adobe Illustrator 16.0.0, SVG Export Plug-In . SVG Version: 6.00 Build 0)  -->
<!DOCTYPE svg PUBLIC "-//W3C//DTD SVG 1.1//EN" "http://www.w3.org/Graphics/SVG/1.1/DTD/svg11.dtd">
<svg version="1.1" id="Layer_1" xmlns="http://www.w3.org/2000/svg" xmlns:xlink="http://www.w3.org/1999/xlink" x="0px" y="0px"
	 width="37.394px" height="31.632px" viewBox="0 0 37.394 31.632" enable-background="new 0 0 37.394 31.632" xml:space="preserve">
<path fill="#FFFFFF" d="M30.338,14.11L30.338,14.11c1.89,0,3.664-0.737,4.996-2.074c1.821-1.826,2.5-4.498,1.772-6.974
	c-0.041-0.145-0.158-0.255-0.303-0.292c-0.146-0.038-0.3,0.006-0.406,0.111l-4.442,4.457c-0.267-0.108-0.938-0.478-2.183-1.717
	c-1.242-1.239-1.613-1.91-1.723-2.176l4.443-4.458c0.105-0.105,0.147-0.26,0.109-0.406c-0.037-0.145-0.147-0.26-0.293-0.302
	C31.67,0.096,31.006,0,30.338,0c-1.89,0-3.661,0.739-4.996,2.074c-3.881,3.881-1.47,7.786-1.47,7.786l-4.352,4.354
	c-1.063-0.896-2.216-1.781-3.487-2.653c-0.286-0.196-0.66-0.19-0.937,0.002c-0.692-0.77-1.427-1.541-2.255-2.306l0.472-0.473
	c0.342-0.342,0.385-0.87,0.129-1.259c0.008-0.014,0.016-0.027,0.024-0.041c0.368-0.606,0.787-1.165,1.263-1.688
	c0.955-1.09,2.317-1.857,3.727-2.156c0.615-0.13,1.252-0.176,1.879-0.122c0.196,0.016,0.493,0.129,0.676,0.041
	c0.275-0.13,0.271-0.535-0.007-0.66c-1.023-0.672-2.301-1.011-3.51-1.103c-2.692-0.205-5.307,0.822-7.459,2.392
	c-0.367-0.16-0.81-0.091-1.11,0.21L5.313,8.011c-0.327,0.325-0.38,0.82-0.163,1.203c-0.354,0.39-0.726,0.763-1.114,1.119
	c-0.169-0.045-0.344-0.068-0.523-0.068c-0.546,0-1.059,0.213-1.446,0.598l-1.468,1.469C0.213,12.718,0,13.23,0,13.776
	s0.213,1.06,0.599,1.446l1.89,1.89c0.386,0.385,0.899,0.598,1.445,0.598c0.546,0,1.06-0.213,1.446-0.598l1.468-1.469
	c0.386-0.386,0.599-0.899,0.599-1.445c0-0.132-0.013-0.261-0.037-0.387c0.38-0.418,0.78-0.817,1.198-1.196
	c0.363,0.15,0.797,0.078,1.093-0.218l0.471-0.472c0.765,0.827,1.536,1.563,2.306,2.255c-0.192,0.277-0.198,0.65-0.002,0.938
	c0.872,1.272,1.758,2.422,2.653,3.485l-8.158,8.158c-1.019,1.02-1.019,2.678,0,3.695c0.494,0.494,1.15,0.768,1.848,0.768
	c0.698,0,1.355-0.273,1.848-0.768l8.046-8.045c1.497,1.439,2.999,2.734,4.479,4.012c1.795,1.549,3.651,3.15,5.438,4.963
	c0.155,0.156,0.366,0.246,0.586,0.246h0.003c0.219,0,0.43-0.086,0.585-0.242l2.501-2.5c0.156-0.158,0.243-0.369,0.242-0.588
	c0-0.223-0.089-0.434-0.246-0.586c-1.813-1.787-3.414-3.645-4.962-5.439c-1.278-1.48-2.573-2.98-4.012-4.479l4.223-4.26
	C28.421,13.912,29.364,14.11,30.338,14.11"/>
</svg>
