<?xml version="1.0" encoding="utf-8"?>
<!-- Generator: Adobe Illustrator 16.0.0, SVG Export Plug-In . SVG Version: 6.00 Build 0)  -->
<!DOCTYPE svg PUBLIC "-//W3C//DTD SVG 1.0//EN" "http://www.w3.org/TR/2001/REC-SVG-20010904/DTD/svg10.dtd">
<svg version="1.0" id="Слой_1" xmlns="http://www.w3.org/2000/svg" xmlns:xlink="http://www.w3.org/1999/xlink" x="0px" y="0px"
	 width="52.436px" height="48.607px" viewBox="0 0 52.436 48.607" enable-background="new 0 0 52.436 48.607" xml:space="preserve">
<path fill="none" stroke="#FFFFFF" stroke-width="2" stroke-miterlimit="10" d="M46.207,46.061l-11.489-9.199l-23.034,0.035
	c-5.87,0.01-10.651-4.759-10.661-10.627L1,11.706C0.989,5.837,5.758,1.056,11.628,1.047L40.752,1
	c5.87-0.009,10.651,4.758,10.661,10.626l0.022,14.563c0.008,4.728-3.086,8.75-7.357,10.142L46.207,46.061z"/>
<path fill="#FFFFFF" d="M31.849,22.054H18.693c-0.665,0-1.207-0.541-1.207-1.206v-8.29c0-0.665,0.542-1.204,1.207-1.204h13.155
	c0.666,0,1.208,0.539,1.208,1.204v8.29C33.057,21.513,32.515,22.054,31.849,22.054 M18.693,12.188c-0.205,0-0.372,0.167-0.372,0.37
	v8.29c0,0.204,0.167,0.371,0.372,0.371h13.155c0.204,0,0.373-0.167,0.373-0.371v-8.29c0-0.203-0.169-0.37-0.373-0.37H18.693z"/>
<path fill="#FFFFFF" d="M33.957,27.57v-0.414h-0.013c-0.004-0.013-0.007-0.025-0.012-0.042l-0.791-4.108
	c-0.071-0.205-0.311-0.373-0.525-0.373l-14.797,0.025c-0.219,0-0.442,0.172-0.501,0.379l-0.804,4.018
	c-0.009,0.035-0.014,0.07-0.013,0.102h-0.006v0.432c0,0.008-0.002,0.014-0.002,0.02v0.027c0,0.004,0.002,0.012,0.002,0.018v0.061
	h0.006c0.038,0.182,0.198,0.315,0.386,0.315h16.679c0.188,0,0.349-0.134,0.386-0.315h0.005V27.67c0-0.012,0.003-0.023,0.003-0.035
	v-0.027C33.96,27.596,33.957,27.582,33.957,27.57 M23.418,25.377c0.017-0.084,0.103-0.154,0.189-0.154l3.423-0.008
	c0.086,0,0.176,0.07,0.199,0.154l0.158,0.58c0.022,0.084-0.065,0.176-0.151,0.178l-3.808-0.01c-0.088,0-0.145-0.07-0.128-0.154
	L23.418,25.377z M32.957,27.268H17.581c-0.153,0-0.278-0.123-0.278-0.277s0.125-0.279,0.278-0.279h15.376
	c0.155,0,0.279,0.125,0.279,0.279S33.112,27.268,32.957,27.268"/>
<path fill="#FFFFFF" d="M34.679,10.5c0,0.399-0.323,0.721-0.722,0.721s-0.721-0.322-0.721-0.721c0-0.4,0.322-0.721,0.721-0.721
	S34.679,10.1,34.679,10.5"/>
<path fill="#FFFFFF" d="M36.764,11.219h-0.968c0-1.748-1.37-2.368-2.544-2.368v-0.97C35,7.881,36.764,8.914,36.764,11.219"/>
<path fill="#FFFFFF" d="M37.62,11.237c0-2.733-2.318-4.141-4.384-4.141V6.128c2.466,0,5.355,1.732,5.355,5.115L37.62,11.237z"/>
</svg>
