<svg id="Layer_1" data-name="Layer 1" xmlns="http://www.w3.org/2000/svg" viewBox="0 0 91.78 91.77"><defs><style>.cls-1{fill:#299ffd;}</style></defs><title>share-rss-blue</title><path class="cls-1" d="M263.52,441.63a12.46,12.46,0,1,0,8.86,3.65,12.08,12.08,0,0,0-8.86-3.65h0Zm0,0" transform="translate(-251 -374.89)"/><path class="cls-1" d="M292.32,425.34a57.57,57.57,0,0,0-16.88-11.83,58.49,58.49,0,0,0-19.95-5.25h-0.32a4.22,4.22,0,0,0-4.17,4.17v8.8a4,4,0,0,0,1.07,2.8,4,4,0,0,0,2.71,1.31,41.7,41.7,0,0,1,37.54,37.54,4,4,0,0,0,1.3,2.7,4,4,0,0,0,2.81,1.08h8.8a3.85,3.85,0,0,0,3.07-1.37,4,4,0,0,0,1.11-3.13,58.46,58.46,0,0,0-5.25-19.94,57.65,57.65,0,0,0-11.83-16.88h0Zm0,0" transform="translate(-251 -374.89)"/><path class="cls-1" d="M334.95,429.61a92.3,92.3,0,0,0-79.58-54.72h-0.2a3.9,3.9,0,0,0-2.87,1.17,3.86,3.86,0,0,0-1.3,3v9.32a4,4,0,0,0,1.14,2.84,3.89,3.89,0,0,0,2.77,1.27,73.83,73.83,0,0,1,26.63,6.65,73.4,73.4,0,0,1,37,37,72.82,72.82,0,0,1,6.58,26.63,3.91,3.91,0,0,0,1.27,2.77,4.08,4.08,0,0,0,2.9,1.14h9.32a3.86,3.86,0,0,0,3-1.31,3.78,3.78,0,0,0,1.17-3.06,90.4,90.4,0,0,0-7.82-32.69h0Zm0,0" transform="translate(-251 -374.89)"/></svg>