<?xml version="1.0" encoding="utf-8"?>
<!-- Generator: Adobe Illustrator 16.0.0, SVG Export Plug-In . SVG Version: 6.00 Build 0)  -->
<!DOCTYPE svg PUBLIC "-//W3C//DTD SVG 1.1//EN" "http://www.w3.org/Graphics/SVG/1.1/DTD/svg11.dtd">
<svg version="1.1" id="Layer_1" xmlns="http://www.w3.org/2000/svg" xmlns:xlink="http://www.w3.org/1999/xlink" x="0px" y="0px"
	 width="10.164px" height="10.232px" viewBox="0 0 10.164 10.232" enable-background="new 0 0 10.164 10.232" xml:space="preserve">
<g>
	<g>
		<path fill="#B1AEAE" d="M1.886,7.143c-0.702,0-1.272,0.565-1.272,1.264c0,0.699,0.57,1.264,1.272,1.264
			c0.703,0,1.272-0.563,1.272-1.264C3.158,7.709,2.589,7.143,1.886,7.143z"/>
		<path fill="#B1AEAE" d="M0.692,3.76c-0.023,0-0.046,0.005-0.069,0.005v1.66c0.023,0,0.046-0.003,0.069-0.003
			c2.306,0,4.156,1.846,4.156,4.137c0,0.034-0.004,0.067-0.005,0.104h1.673c0-0.036,0.006-0.069,0.006-0.104
			C6.521,6.352,3.92,3.76,0.692,3.76z"/>
		<path fill="#B1AEAE" d="M0.692,0.67c-0.023,0-0.046,0.002-0.069,0.002v1.661c0.023,0,0.046-0.001,0.069-0.001
			c3.978,0,7.25,3.276,7.25,7.228c0,0.034-0.002,0.068-0.004,0.104h1.674c0-0.035,0.002-0.069,0.002-0.104
			C9.613,4.692,5.592,0.67,0.692,0.67z"/>
	</g>
	<g>
		<path fill="#B1AEAE" d="M1.886,7.143c-0.702,0-1.272,0.565-1.272,1.264c0,0.699,0.57,1.264,1.272,1.264
			c0.703,0,1.272-0.563,1.272-1.264C3.158,7.709,2.589,7.143,1.886,7.143z"/>
		<path fill="#B1AEAE" d="M0.692,3.76c-0.023,0-0.046,0.005-0.069,0.005v1.66c0.023,0,0.046-0.003,0.069-0.003
			c2.306,0,4.156,1.846,4.156,4.137c0,0.034-0.004,0.067-0.005,0.104h1.673c0-0.036,0.006-0.069,0.006-0.104
			C6.521,6.352,3.92,3.76,0.692,3.76z"/>
		<path fill="#B1AEAE" d="M0.692,0.67c-0.023,0-0.046,0.002-0.069,0.002v1.661c0.023,0,0.046-0.001,0.069-0.001
			c3.978,0,7.25,3.276,7.25,7.228c0,0.034-0.002,0.068-0.004,0.104h1.674c0-0.035,0.002-0.069,0.002-0.104
			C9.613,4.692,5.592,0.67,0.692,0.67z"/>
	</g>
</g>
</svg>
