<?xml version="1.0" encoding="utf-8"?>
<!-- Generator: Adobe Illustrator 16.0.0, SVG Export Plug-In . SVG Version: 6.00 Build 0)  -->
<!DOCTYPE svg PUBLIC "-//W3C//DTD SVG 1.1//EN" "http://www.w3.org/Graphics/SVG/1.1/DTD/svg11.dtd">
<svg version="1.1"
	 id="Слой_1" xmlns:rdf="http://www.w3.org/1999/02/22-rdf-syntax-ns#" xmlns:cc="http://creativecommons.org/ns#" xmlns:dc="http://purl.org/dc/elements/1.1/"
	 xmlns="http://www.w3.org/2000/svg" xmlns:xlink="http://www.w3.org/1999/xlink" x="0px" y="0px" width="15px" height="13.475px"
	 viewBox="0 0 15 13.475" enable-background="new 0 0 15 13.475" xml:space="preserve">
<path fill="#FFFFFF" d="M14.686,5.471h-2.26V3.209c0-0.173-0.141-0.313-0.314-0.313h-0.643c-0.174,0-0.314,0.141-0.314,0.313v2.262
	H8.893c-0.172,0-0.312,0.141-0.312,0.313v0.645C8.58,6.6,8.721,6.74,8.893,6.74h2.265v2.261c0,0.174,0.139,0.313,0.312,0.313h0.645
	c0.173,0,0.313-0.141,0.313-0.313V6.74h2.26C14.859,6.74,15,6.6,15,6.428V5.783C15,5.612,14.857,5.471,14.686,5.471z"/>
<path fill="#FFFFFF" d="M7.907,1.211l0.89-0.645c0.11-0.081,0.157-0.221,0.114-0.351C8.867,0.088,8.75,0,8.613,0H4.635
	C4.2,0,3.757,0.075,3.324,0.227c-1.45,0.5-2.464,1.735-2.464,3.004c0,1.797,1.393,3.159,3.253,3.202
	c-0.036,0.143-0.054,0.282-0.054,0.42c0,0.276,0.071,0.539,0.215,0.793H4.222c-1.774,0-3.375,0.87-3.983,2.165
	C0.081,10.149,0,10.49,0,10.825c0,0.325,0.083,0.64,0.249,0.936c0.382,0.685,1.202,1.215,2.311,1.494
	c0.573,0.146,1.188,0.219,1.826,0.219c0.574,0,1.121-0.074,1.627-0.221c1.577-0.458,2.596-1.62,2.596-2.957
	c0-1.287-0.414-2.056-1.523-2.842C6.61,7.118,6.178,6.624,6.17,6.472c0-0.277,0.025-0.409,0.645-0.892
	c0.802-0.628,1.244-1.452,1.244-2.324c0-0.79-0.242-1.492-0.654-1.985h0.318C7.789,1.271,7.854,1.25,7.907,1.211z M2.914,3.18
	c-0.087-0.657,0.05-1.249,0.379-1.623c0.211-0.241,0.489-0.368,0.8-0.368h0.035c0.879,0.025,1.721,1.005,1.876,2.186
	c0.087,0.66-0.059,1.281-0.392,1.659c-0.211,0.24-0.485,0.368-0.809,0.368H4.789C3.928,5.375,3.068,4.358,2.914,3.18z M6.919,10.117
	c0.026,0.113,0.04,0.228,0.04,0.339c0,1.165-0.869,1.756-2.583,1.756c-1.299,0-2.316-0.798-2.316-1.814
	c0-0.937,1.188-1.757,2.543-1.757H4.64c0.294,0.004,0.583,0.047,0.853,0.131c0.092,0.063,0.182,0.125,0.27,0.184
	C6.39,9.383,6.805,9.665,6.919,10.117z"/>
</svg>
