<?xml version="1.0" encoding="UTF-8" standalone="no"?>
<!-- Generator: Adobe Illustrator 16.0.0, SVG Export Plug-In . SVG Version: 6.00 Build 0)  -->

<svg
   xmlns:dc="http://purl.org/dc/elements/1.1/"
   xmlns:cc="http://creativecommons.org/ns#"
   xmlns:rdf="http://www.w3.org/1999/02/22-rdf-syntax-ns#"
   xmlns:svg="http://www.w3.org/2000/svg"
   xmlns="http://www.w3.org/2000/svg"
   xmlns:sodipodi="http://sodipodi.sourceforge.net/DTD/sodipodi-0.dtd"
   xmlns:inkscape="http://www.inkscape.org/namespaces/inkscape"
   version="1.1"
   id="Layer_1"
   x="0px"
   y="0px"
   width="19.000002"
   height="11.053999"
   viewBox="0 0 19.000001 11.053999"
   enable-background="new 0 0 1173.404 681.417"
   xml:space="preserve"
   inkscape:version="0.91 r13725"
   sodipodi:docname="share-vk.svg"><metadata
     id="metadata3401"><rdf:RDF><cc:Work
         rdf:about=""><dc:format>image/svg+xml</dc:format><dc:type
           rdf:resource="http://purl.org/dc/dcmitype/StillImage" /><dc:title></dc:title></cc:Work></rdf:RDF></metadata><defs
     id="defs3399" /><sodipodi:namedview
     pagecolor="#ffffff"
     bordercolor="#666666"
     borderopacity="1"
     objecttolerance="10"
     gridtolerance="10"
     guidetolerance="10"
     inkscape:pageopacity="0"
     inkscape:pageshadow="2"
     inkscape:window-width="1366"
     inkscape:window-height="705"
     id="namedview3397"
     showgrid="false"
     fit-margin-top="0"
     fit-margin-left="0"
     fit-margin-right="0"
     fit-margin-bottom="0"
     inkscape:zoom="21.96"
     inkscape:cx="7.7891906"
     inkscape:cy="6.7913093"
     inkscape:window-x="-8"
     inkscape:window-y="-8"
     inkscape:window-maximized="1"
     inkscape:current-layer="Layer_1" /><g
     id="g3393"
     transform="matrix(0.01620549,0,0,0.01620549,-0.01555727,0.01129943)"
     style="fill:#ffffff"><path
       d="m 0.96,48.1 c 0.562,-0.5 1.457,-0.903 1.631,-1.514 1.209,-4.229 4.307,-6.581 7.976,-8.455 6.89,-3.521 14.179,-5.847 21.766,-7.244 6.774,-1.247 13.61,-2.004 20.506,-2.021 12.798,-0.033 25.597,0.002 38.395,-0.016 27.836,-0.039 55.672,-0.072 83.508,-0.16 5.758,-0.018 11.518,-0.193 17.272,-0.414 8.538,-0.327 16.928,0.823 25.235,2.561 11.969,2.503 21.029,9.098 26.711,19.997 7.168,13.753 14.34,27.506 20.496,41.76 27.995,64.826 62.507,126.015 102.838,183.943 6.305,9.056 12.775,17.999 19.283,26.912 2.449,3.354 5.151,6.532 7.857,9.689 6.037,7.042 13.484,12.218 21.861,16.083 3.07,1.417 6.303,2.228 9.735,2.284 5.656,0.091 10.345,-1.987 13.936,-6.268 1.625,-1.938 3.039,-4.145 4.119,-6.432 4.866,-10.303 8.755,-20.96 10.482,-32.275 0.988,-6.477 1.685,-13.001 2.416,-19.515 1.696,-15.106 2.797,-30.262 3.415,-45.447 0.768,-18.869 0.851,-37.745 -0.11,-56.612 -0.382,-7.507 -0.792,-15.017 -1.407,-22.507 -0.889,-10.835 -1.667,-21.693 -3.796,-32.38 -0.936,-4.701 -1.957,-9.397 -3.221,-14.018 -4.688,-17.132 -15.249,-29.243 -31.496,-36.411 -10.093,-4.453 -20.179,-8.919 -30.264,-13.391 -1.155,-0.512 -2.279,-1.093 -3.684,-1.771 0.373,-0.999 0.584,-1.899 1.017,-2.677 6.311,-11.355 15.274,-20.018 26.688,-26.178 8.367,-4.516 17.315,-7.448 26.517,-9.654 14.67,-3.517 29.579,-5.401 44.637,-5.844 36.467,-1.073 72.94,-1.076 109.411,-0.125 5.912,0.154 11.829,0.37 17.728,0.793 10.402,0.746 20.544,3.052 30.642,5.536 3.104,0.763 6.214,1.541 9.246,2.538 13.947,4.587 24.103,13.508 30.405,26.803 3.389,7.149 5.293,14.719 6.524,22.488 1.431,9.024 2.011,18.106 2.11,27.241 0.158,14.572 -0.81,29.099 -1.548,43.636 -0.414,8.147 -0.97,16.287 -1.41,24.432 -0.788,14.535 -1.565,29.07 -2.295,43.608 -0.969,19.331 -1.946,38.661 -2.8,57.997 -0.418,9.453 0.06,18.864 2.086,28.157 2.244,10.292 6.156,19.845 12.515,28.291 2.883,3.831 6.069,7.433 8.999,11.23 2.384,3.088 5.572,4.198 9.266,4.058 1.736,-0.066 3.493,-0.407 5.178,-0.858 6.591,-1.762 12.414,-5.039 17.752,-9.233 5.827,-4.579 10.836,-9.978 15.292,-15.849 9.572,-12.612 19.282,-25.136 28.423,-38.058 36.833,-52.066 66.719,-107.927 90.708,-166.992 5.112,-12.587 10.652,-25.002 16.063,-37.467 1.016,-2.339 2.234,-4.61 3.558,-6.792 8.157,-13.447 20.271,-21.021 35.627,-23.492 4.4,-0.708 8.911,-1.032 13.369,-1.017 11.196,0.037 22.391,0.416 33.587,0.569 14.716,0.201 29.434,0.395 44.15,0.451 27.837,0.104 55.675,0.019 83.511,0.198 11.193,0.072 22.402,0.414 33.532,1.743 5.385,0.644 10.817,1.38 16.04,2.78 13.035,3.492 20.269,12.111 19.943,27.254 -0.104,4.81 -1.049,9.529 -2.226,14.19 -4.209,16.667 -10.561,32.52 -18.278,47.844 -9.586,19.034 -20.827,37.081 -32.762,54.708 -14.988,22.137 -31.293,43.297 -47.847,64.269 -23.391,29.634 -46.59,59.415 -69.172,89.673 -6.543,8.768 -11.8,18.254 -16.103,28.281 -2.213,5.157 -3.753,10.513 -4.688,16.071 -1.911,11.359 0.232,21.937 5.747,31.93 3.664,6.64 8.376,12.492 13.787,17.754 11.471,11.151 22.957,22.288 34.583,33.276 18.954,17.916 37.737,35.997 55.529,55.085 23.385,25.088 45.025,51.556 63.947,80.207 6.649,10.068 12.089,20.689 15.95,32.126 1.188,3.517 1.902,7.088 2.025,10.797 0.265,8.018 -2.199,15.104 -7.173,21.354 -2.718,3.414 -5.995,6.199 -9.634,8.581 -9.964,6.523 -20.976,10.184 -32.72,11.563 -5.704,0.67 -11.482,1.012 -17.225,0.992 -19.037,-0.064 -38.072,-0.386 -57.108,-0.562 -15.677,-0.145 -31.356,-0.395 -47.031,-0.255 -7.664,0.067 -15.324,0.861 -22.979,1.425 -8.453,0.621 -16.892,1.467 -25.351,1.999 -5.632,0.354 -11.141,-0.812 -16.597,-2.119 -28.954,-6.941 -54.222,-20.825 -76.027,-40.946 -7.631,-7.041 -14.884,-14.541 -21.838,-22.255 -14.353,-15.921 -28.329,-32.18 -42.58,-48.193 -6.91,-7.766 -13.959,-15.419 -21.199,-22.875 -3.888,-4.004 -8.173,-7.661 -12.53,-11.16 -7.648,-6.141 -16.437,-9.796 -26.188,-11.045 -12.062,-1.545 -26.887,3.004 -33.571,19.211 -2.755,6.68 -4.371,13.71 -5.669,20.787 -2.914,15.896 -5.057,31.89 -6.02,48.043 -0.6,10.053 -1.427,20.11 -3.683,29.967 -0.712,3.108 -1.607,6.189 -2.643,9.207 -3.287,9.587 -9.678,16.395 -18.818,20.703 -6.269,2.954 -12.888,4.781 -19.645,6.105 -17.359,3.404 -34.894,4.394 -52.534,3.366 -11.495,-0.67 -22.989,-1.414 -34.462,-2.378 C 522.102,674.573 484.7,668.015 448.515,655.458 406.361,640.828 368.274,618.967 333.816,590.692 317.213,577.067 301.733,562.261 287.28,546.382 255.036,510.959 225.456,473.406 197.85,434.283 166.191,389.415 137.359,342.766 110.281,295.016 76.416,235.295 45.791,173.938 17.569,111.37 10.693,96.117 6.247,80.14 3.785,63.602 3.385,60.914 3.056,58.216 2.686,55.524 2.529,54.379 2.242,53.31 0.96,52.9 c 0,-1.6 0,-3.2 0,-4.8 z"
       id="path3395"
       inkscape:connector-curvature="0"
       style="clip-rule:evenodd;fill:#ffffff;fill-rule:evenodd" /></g></svg>