<?xml version="1.0" encoding="utf-8"?>
<!-- Generator: Adobe Illustrator 16.0.0, SVG Export Plug-In . SVG Version: 6.00 Build 0)  -->
<!DOCTYPE svg PUBLIC "-//W3C//DTD SVG 1.1//EN" "http://www.w3.org/Graphics/SVG/1.1/DTD/svg11.dtd">
<svg version="1.1" id="Layer_1" xmlns="http://www.w3.org/2000/svg" xmlns:xlink="http://www.w3.org/1999/xlink" x="0px" y="0px"
	 width="10.164px" height="10.232px" viewBox="0 0 10.164 10.232" enable-background="new 0 0 10.164 10.232" xml:space="preserve">
<g>
	<path fill="#FFFFFF" stroke="#FFFFFF" stroke-miterlimit="10" d="M1.886,7.143c-0.702,0-1.272,0.566-1.272,1.264
		c0,0.699,0.57,1.264,1.272,1.264c0.703,0,1.272-0.564,1.272-1.264C3.158,7.709,2.589,7.143,1.886,7.143z"/>
	<path fill="#FFFFFF" stroke="#FFFFFF" stroke-miterlimit="10" d="M0.692,3.76c-0.023,0-0.046,0.004-0.069,0.004v1.661
		c0.023,0,0.046-0.003,0.069-0.003c2.306,0,4.156,1.845,4.156,4.136c0,0.035-0.004,0.068-0.005,0.104h1.672
		c0.001-0.036,0.006-0.069,0.006-0.104C6.521,6.352,3.92,3.76,0.692,3.76z"/>
	<path fill="#FFFFFF" stroke="#FFFFFF" stroke-miterlimit="10" d="M0.692,0.67c-0.023,0-0.046,0.002-0.069,0.002v1.661
		c0.023,0,0.046-0.001,0.069-0.001c3.978,0,7.249,3.276,7.249,7.227c0,0.035-0.002,0.069-0.003,0.104h1.673
		c0.001-0.035,0.003-0.069,0.003-0.104C9.614,4.692,5.592,0.67,0.692,0.67z"/>
</g>
</svg>
