<?xml version="1.0" encoding="utf-8"?>
<!-- Generator: Adobe Illustrator 16.0.0, SVG Export Plug-In . SVG Version: 6.00 Build 0)  -->
<!DOCTYPE svg PUBLIC "-//W3C//DTD SVG 1.1//EN" "http://www.w3.org/Graphics/SVG/1.1/DTD/svg11.dtd">
<svg version="1.1" id="Layer_1" xmlns="http://www.w3.org/2000/svg" xmlns:xlink="http://www.w3.org/1999/xlink" x="0px" y="0px"
	 width="124.382px" height="206.781px" viewBox="0 0 124.382 206.781" enable-background="new 0 0 124.382 206.781"
	 xml:space="preserve">
<g>
	<defs>
		<rect id="SVGID_1_" width="124.382" height="206.781"/>
	</defs>
	<clipPath id="SVGID_2_">
		<use xlink:href="#SVGID_1_"  overflow="visible"/>
	</clipPath>
	<path clip-path="url(#SVGID_2_)" fill="#FFFFFF" d="M62.191,104.668c28.902,0,52.335-23.431,52.335-52.333
		C114.526,23.431,91.094,0,62.191,0C33.287,0,9.856,23.431,9.856,52.334C9.856,81.237,33.287,104.668,62.191,104.668 M62.191,26.587
		c14.22,0,25.748,11.528,25.748,25.747c0,14.22-11.528,25.747-25.748,25.747c-14.22,0-25.747-11.527-25.747-25.747
		C36.444,38.115,47.971,26.587,62.191,26.587 M122.519,111.055c-2.955-5.937-11.14-10.874-22.016-2.305
		c-14.7,11.583-38.312,11.583-38.312,11.583s-23.612,0-38.313-11.583c-10.876-8.569-19.059-3.632-22.014,2.305
		c-5.151,10.348,0.669,15.35,13.803,23.78c11.218,7.201,26.632,9.893,36.586,10.898l-8.308,8.309
		c-11.704,11.703-23.002,23.001-30.84,30.841c-4.687,4.685-4.687,12.283,0,16.97l1.414,1.414c4.687,4.687,12.284,4.686,16.971,0
		l30.84-30.839c11.704,11.702,23.001,23.001,30.839,30.838c4.687,4.687,12.285,4.687,16.972,0l1.414-1.414
		c4.687-4.687,4.686-12.284,0-16.97l-30.841-30.841l-8.335-8.335c9.962-1.024,25.211-3.729,36.336-10.871
		C121.849,126.404,127.668,121.402,122.519,111.055"/>
</g>
</svg>
