<?xml version="1.0" encoding="UTF-8" standalone="no"?>
<svg
   xmlns:dc="http://purl.org/dc/elements/1.1/"
   xmlns:cc="http://creativecommons.org/ns#"
   xmlns:rdf="http://www.w3.org/1999/02/22-rdf-syntax-ns#"
   xmlns:svg="http://www.w3.org/2000/svg"
   xmlns="http://www.w3.org/2000/svg"
   xmlns:sodipodi="http://sodipodi.sourceforge.net/DTD/sodipodi-0.dtd"
   xmlns:inkscape="http://www.inkscape.org/namespaces/inkscape"
   height="11"
   width="14"
   id="svg3403"
   version="1.1"
   inkscape:version="0.91 r13725"
   sodipodi:docname="twitter_white.svg">
  <metadata
     id="metadata3411">
    <rdf:RDF>
      <cc:Work
         rdf:about="">
        <dc:format>image/svg+xml</dc:format>
        <dc:type
           rdf:resource="http://purl.org/dc/dcmitype/StillImage" />
        <dc:title></dc:title>
      </cc:Work>
    </rdf:RDF>
  </metadata>
  <defs
     id="defs3409" />
  <sodipodi:namedview
     pagecolor="#ffffff"
     bordercolor="#666666"
     borderopacity="1"
     objecttolerance="10"
     gridtolerance="10"
     guidetolerance="10"
     inkscape:pageopacity="0"
     inkscape:pageshadow="2"
     inkscape:window-width="1920"
     inkscape:window-height="1017"
     id="namedview3407"
     showgrid="false"
     fit-margin-top="0"
     fit-margin-left="0"
     fit-margin-right="0"
     fit-margin-bottom="0"
     inkscape:zoom="15.104"
     inkscape:cx="1.9923281"
     inkscape:cy="8.8864435"
     inkscape:window-x="-8"
     inkscape:window-y="-8"
     inkscape:window-maximized="1"
     inkscape:current-layer="svg3403" />
  <path
     d="M 0,9.757 Q 0.34146342,9.79 0.68292682,9.79 2.6861789,9.789999 4.2569106,8.602 3.3235773,8.591 2.5837398,8.052 1.8439025,7.513 1.5707317,6.676999 q 0.2276423,0.04401 0.5349593,0.04401 0.398374,0 0.7626017,-0.099 Q 1.8666667,6.435 1.2121951,5.6705 0.55772359,4.906 0.55772359,3.905 l 0,-0.033 Q 1.1609756,4.202 1.8666667,4.213 1.2747968,3.839 0.92764224,3.2285 0.58048782,2.618 0.58048782,1.903 q 0,-0.748 0.39837399,-1.397 1.06991869,1.287 2.61219509,2.0515001 1.5422764,0.7645 3.3065039,0.8525 -0.079674,-0.363 -0.079674,-0.638 Q 6.8178868,1.628 7.6601634,0.814 8.5024394,0 9.6975615,0 10.938211,0 11.791871,0.8800001 12.782114,0.682 13.613008,0.198 13.294309,1.199 12.360976,1.738 13.19187,1.639 14,1.298 13.453659,2.1230001 12.577236,2.739 l 0,0.3630001 Q 12.577236,4.213 12.241464,5.3295 11.905691,6.446 11.217073,7.4635 10.528456,8.481 9.5723582,9.273 8.6162608,10.065 7.2788623,10.5325 5.9414638,11 4.4048785,11 2.0260167,11 4e-7,9.757 Z"
     id="path3405"
     inkscape:connector-curvature="0"
     style="fill:#ffffff" />
</svg>
