<?xml version="1.0" encoding="utf-8"?>
<!-- Generator: Adobe Illustrator 18.0.0, SVG Export Plug-In . SVG Version: 6.00 Build 0)  -->
<!DOCTYPE svg PUBLIC "-//W3C//DTD SVG 1.1//EN" "http://www.w3.org/Graphics/SVG/1.1/DTD/svg11.dtd">
<svg version="1.1" id="Слой_1" xmlns="http://www.w3.org/2000/svg" xmlns:xlink="http://www.w3.org/1999/xlink" x="0px" y="0px"
	 viewBox="0 0 30 30" enable-background="new 0 0 30 30" xml:space="preserve">
<path fill="#FFFFFF" d="M24.6,19.1c-1.9,0-3.6,1-4.5,2.4l-9.5-4.8c0.2-0.6,0.3-1.2,0.3-1.8s-0.1-1.3-0.3-1.8L20,8.4
	c1,1.5,2.6,2.4,4.5,2.4c3,0,5.4-2.4,5.4-5.4c0-3-2.4-5.4-5.4-5.4s-5.4,2.4-5.4,5.4c0,0.6,0.1,1.3,0.3,1.8L10,12
	c-1-1.5-2.6-2.4-4.5-2.4C2.4,9.6,0,12,0,15c0,3,2.4,5.4,5.4,5.4c1.9,0,3.6-1,4.5-2.4l9.5,4.8c-0.2,0.6-0.3,1.2-0.3,1.8
	c0,3,2.4,5.4,5.4,5.4s5.4-2.4,5.4-5.4S27.6,19.2,24.6,19.1 M24.6,1.3c2.3,0,4.1,1.9,4.1,4.1s-1.9,4.2-4.1,4.2s-4.1-1.9-4.1-4.1
	S22.3,1.3,24.6,1.3 M5.4,19.1c-2.3,0-4.1-1.9-4.1-4.1c0-2.3,1.9-4.2,4.1-4.2s4.1,1.9,4.1,4.1C9.6,17.3,7.7,19.1,5.4,19.1 M24.6,28.7
	c-2.3,0-4.1-1.9-4.1-4.1s1.9-4.1,4.1-4.1s4.1,1.9,4.1,4.1C28.7,26.9,26.8,28.7,24.6,28.7"/>
</svg>
