<svg xmlns="http://www.w3.org/2000/svg" width="30" height="30" viewBox="0 0 30 30"><path fill="#2a9dff" d="M24.573 19.148c-1.892 0-3.56.974-4.53 2.446l-9.517-4.758c.207-.574.326-1.19.326-1.837s-.12-1.27-.326-1.84l9.517-4.76c.973 1.47 2.64 2.44 4.53 2.44C27.565 10.85 30 8.41 30 5.42 30 2.437 27.565 0 24.573 0s-5.427 2.436-5.427 5.427c0 .645.12 1.26.327 1.834l-9.52 4.76c-.97-1.47-2.637-2.44-4.527-2.44C2.436 9.58 0 12.01 0 15c0 2.992 2.435 5.427 5.427 5.427 1.89 0 3.558-.975 4.528-2.445l9.52 4.758c-.208.574-.328 1.19-.328 1.835 0 2.992 2.435 5.426 5.427 5.426S30 27.57 30 24.58s-2.435-5.427-5.427-5.427m0-17.87c2.287 0 4.147 1.86 4.147 4.148s-1.86 4.15-4.147 4.15-4.147-1.86-4.147-4.14 1.86-4.14 4.147-4.14M5.427 19.15c-2.287 0-4.148-1.86-4.148-4.148 0-2.29 1.86-4.15 4.14-4.15 2.28 0 4.14 1.86 4.14 4.145 0 2.286-1.86 4.147-4.15 4.147m19.15 9.576c-2.29 0-4.15-1.86-4.15-4.148s1.86-4.147 4.14-4.147 4.15 1.86 4.15 4.147c0 2.286-1.86 4.147-4.15 4.147"/></svg>