<?xml version="1.0" encoding="UTF-8" standalone="no"?>
<!-- Created with Inkscape (http://www.inkscape.org/) -->

<svg
   xmlns:dc="http://purl.org/dc/elements/1.1/"
   xmlns:cc="http://creativecommons.org/ns#"
   xmlns:rdf="http://www.w3.org/1999/02/22-rdf-syntax-ns#"
   xmlns:svg="http://www.w3.org/2000/svg"
   xmlns="http://www.w3.org/2000/svg"
   xmlns:sodipodi="http://sodipodi.sourceforge.net/DTD/sodipodi-0.dtd"
   xmlns:inkscape="http://www.inkscape.org/namespaces/inkscape"
   id="svg2"
   version="1.1"
   inkscape:version="0.91 r13725"
   xml:space="preserve"
   width="119"
   height="145"
   viewBox="0 0 119 145"
   sodipodi:docname="shield_red.svg"><metadata
     id="metadata8"><rdf:RDF><cc:Work
         rdf:about=""><dc:format>image/svg+xml</dc:format><dc:type
           rdf:resource="http://purl.org/dc/dcmitype/StillImage" /><dc:title></dc:title></cc:Work></rdf:RDF></metadata><defs
     id="defs6"><clipPath
       clipPathUnits="userSpaceOnUse"
       id="clipPath16"><path
         d="m 0,25 20.417,0 0,-25 L 0,0 0,25 Z"
         id="path18"
         inkscape:connector-curvature="0" /></clipPath></defs><sodipodi:namedview
     pagecolor="#ffffff"
     bordercolor="#666666"
     borderopacity="1"
     objecttolerance="10"
     gridtolerance="10"
     guidetolerance="10"
     inkscape:pageopacity="0"
     inkscape:pageshadow="2"
     inkscape:window-width="1366"
     inkscape:window-height="705"
     id="namedview4"
     showgrid="false"
     fit-margin-top="0"
     fit-margin-left="0"
     fit-margin-right="0"
     fit-margin-bottom="0"
     inkscape:zoom="1.3350176"
     inkscape:cx="-49.797389"
     inkscape:cy="-32.497072"
     inkscape:window-x="-8"
     inkscape:window-y="-8"
     inkscape:window-maximized="1"
     inkscape:current-layer="g10" /><g
     id="g10"
     inkscape:groupmode="layer"
     inkscape:label="Vector Smart Object1"
     transform="matrix(1.25,0,0,-1.25,0,145)"><g
       id="g12"
       transform="scale(4.662781,4.64)"><g
         id="g14"
         clip-path="url(#clipPath16)"><g
           id="g20"
           transform="translate(18.914,25)"><path
             d="m 0,0 -17.414,0 c -0.828,0 -1.5,-0.671 -1.5,-1.5 l 0,-2.758 0.001,-15.108 c 0,-0.422 0.012,-0.751 0.038,-1.068 0.073,-0.846 0.417,-1.585 1.023,-2.199 0.746,-0.753 1.693,-1.13 2.898,-1.155 0.325,-0.008 0.652,-0.01 0.979,-0.01 l 1.239,0.004 0.391,-0.002 c 1.058,-0.007 1.952,-0.3 2.73,-0.895 0.269,-0.206 0.59,-0.309 0.911,-0.309 0.33,0 0.659,0.108 0.932,0.324 0.625,0.496 1.276,0.759 1.989,0.806 0.85,0.056 1.742,0.062 2.529,0.067 l 0.348,0.005 c 0.544,0.005 1.14,0.035 1.754,0.222 1.059,0.32 1.834,0.984 2.299,1.973 0.313,0.663 0.356,1.38 0.356,2.057 C 1.499,-15.759 1.5,-11.969 1.5,-8.181 l 0,3.18 0,3.501 C 1.5,-0.671 0.828,0 0,0 m 0,-1.5 0,-3.501 c 0,-4.847 -0.002,-9.699 0.003,-14.545 0,-0.582 -0.036,-1.043 -0.214,-1.419 -0.285,-0.607 -0.724,-0.978 -1.378,-1.176 -0.436,-0.132 -0.902,-0.153 -1.339,-0.157 l -0.337,-0.005 c -0.853,-0.006 -1.736,-0.012 -2.616,-0.07 -1.015,-0.066 -1.962,-0.444 -2.823,-1.127 -1.03,0.788 -2.25,1.194 -3.634,1.204 l -0.403,0.002 -1.234,-0.004 c -0.315,0 -0.63,0.002 -0.947,0.009 -0.806,0.018 -1.398,0.241 -1.862,0.709 -0.358,0.363 -0.554,0.78 -0.596,1.271 -0.022,0.269 -0.033,0.559 -0.033,0.943 -0.001,5.035 -0.001,10.07 -0.001,15.108 l 0,2.758 17.414,0"
             style="fill:#e63333;fill-opacity:1;fill-rule:nonzero;stroke:none"
             id="path22"
             inkscape:connector-curvature="0" /></g></g></g></g></svg>