<?xml version="1.0" encoding="UTF-8" standalone="no"?>
<!-- Created with Inkscape (http://www.inkscape.org/) -->

<svg
   xmlns:dc="http://purl.org/dc/elements/1.1/"
   xmlns:cc="http://creativecommons.org/ns#"
   xmlns:rdf="http://www.w3.org/1999/02/22-rdf-syntax-ns#"
   xmlns:svg="http://www.w3.org/2000/svg"
   xmlns="http://www.w3.org/2000/svg"
   xmlns:sodipodi="http://sodipodi.sourceforge.net/DTD/sodipodi-0.dtd"
   xmlns:inkscape="http://www.inkscape.org/namespaces/inkscape"
   id="svg2"
   version="1.1"
   inkscape:version="0.91 r13725"
   xml:space="preserve"
   width="30"
   height="34"
   viewBox="0 0 30 34"
   sodipodi:docname="shield_question-white.svg"><metadata
     id="metadata8"><rdf:RDF><cc:Work
         rdf:about=""><dc:format>image/svg+xml</dc:format><dc:type
           rdf:resource="http://purl.org/dc/dcmitype/StillImage" /><dc:title></dc:title></cc:Work></rdf:RDF></metadata><defs
     id="defs6"><clipPath
       clipPathUnits="userSpaceOnUse"
       id="clipPath16"><path
         d="m 0,34.277 29.374,0 L 29.374,0 0,0 0,34.277 Z"
         id="path18"
         inkscape:connector-curvature="0" /></clipPath></defs><sodipodi:namedview
     pagecolor="#ffffff"
     bordercolor="#666666"
     borderopacity="1"
     objecttolerance="10"
     gridtolerance="10"
     guidetolerance="10"
     inkscape:pageopacity="0"
     inkscape:pageshadow="2"
     inkscape:window-width="1366"
     inkscape:window-height="705"
     id="namedview4"
     showgrid="false"
     fit-margin-top="0"
     fit-margin-left="0"
     fit-margin-right="0"
     fit-margin-bottom="0"
     inkscape:zoom="5.5080825"
     inkscape:cx="18.358124"
     inkscape:cy="21.422562"
     inkscape:window-x="-8"
     inkscape:window-y="-8"
     inkscape:window-maximized="1"
     inkscape:current-layer="g10" /><g
     id="g10"
     inkscape:groupmode="layer"
     inkscape:label="Vector Smart Object"
     transform="matrix(1.25,0,0,-1.25,-6.25e-4,34.0005)"><g
       id="g12"
       style="fill:#ffffff"
       transform="matrix(0.817063,0,0,0.79354428,9.1468501e-5,8.2582286e-5)"><g
         id="g14"
         clip-path="url(#clipPath16)"
         style="fill:#ffffff"><g
           id="g20"
           transform="translate(9.2085,4.7764)"
           style="fill:#ffffff"><path
             d="m 0,0 0.548,-0.003 c 1.879,-0.012 3.534,-0.532 4.932,-1.542 1.169,0.874 2.455,1.36 3.834,1.444 1.193,0.073 2.391,0.083 3.549,0.091 l 0.457,0.006 c 0.594,0.004 1.226,0.03 1.819,0.199 0.888,0.254 1.483,0.73 1.87,1.507 0.241,0.482 0.291,1.073 0.29,1.818 -0.006,6.209 -0.005,12.422 -0.005,18.632 l 0,4.485 -23.636,0 0,-3.533 c 0,-6.453 0,-12.905 0.002,-19.355 0,-0.49 0.014,-0.861 0.044,-1.205 0.058,-0.632 0.322,-1.165 0.809,-1.629 0.63,-0.598 1.433,-0.888 2.528,-0.908 0.429,-0.01 0.857,-0.011 1.286,-0.011 L 0,0 Z m 5.49,-4.776 0,0 c -0.65,0 -1.064,0.383 -1.199,0.507 -1.015,0.933 -2.246,1.393 -3.76,1.4 L 0,-2.864 -1.673,-2.871 c -0.448,0 -0.896,0.002 -1.344,0.013 -1.803,0.036 -3.299,0.608 -4.444,1.697 -1,0.951 -1.569,2.112 -1.69,3.451 -0.037,0.425 -0.055,0.887 -0.055,1.458 -0.002,6.451 -0.002,12.903 -0.002,19.356 l 0,4.459 c 0,1.287 0.65,1.938 1.932,1.938 l 26.004,0 c 0.792,0 1.432,-0.64 1.432,-1.432 l 0,-5.917 c -0.001,-6.21 -0.002,-12.421 0.006,-18.631 0,-0.995 -0.072,-2.058 -0.594,-3.104 -0.752,-1.501 -1.98,-2.502 -3.652,-2.978 -0.921,-0.261 -1.817,-0.303 -2.575,-0.31 l -0.46,-0.003 C 11.765,-2.883 10.606,-2.891 9.491,-2.96 8.476,-3.024 7.558,-3.451 6.683,-4.271 6.325,-4.607 5.922,-4.776 5.49,-4.776"
             style="fill:#ffffff;fill-opacity:1;fill-rule:nonzero;stroke:none"
             id="path22"
             inkscape:connector-curvature="0" /></g><g
           id="g24"
           transform="translate(14.0889,12.7906)"
           style="fill:#ffffff"><path
             d="m 0,0 c 0.885,0 1.377,-0.551 1.377,-1.278 0,-0.749 -0.492,-1.26 -1.377,-1.26 -0.885,0 -1.358,0.511 -1.358,1.26 C -1.358,-0.551 -0.885,0 0,0 M 4.153,8.223 C 4.153,6.669 3.267,5.783 2.323,4.879 1.496,4.093 0.983,3.561 0.983,2.497 0.983,1.869 0.687,1.396 -0.02,1.396 c -0.688,0 -0.983,0.473 -0.983,1.101 0,1.378 0.629,2.264 1.495,3.128 0.827,0.828 1.358,1.378 1.358,2.361 0,0.71 -0.513,1.358 -1.555,1.358 -0.551,0 -1.18,-0.216 -1.811,-0.492 -0.57,-0.255 -1.082,-0.235 -1.338,0.236 -0.217,0.414 -0.118,0.985 0.571,1.398 0.846,0.511 1.869,0.746 2.834,0.746 2.519,0 3.602,-1.513 3.602,-3.009"
             style="fill:#ffffff;fill-opacity:1;fill-rule:nonzero;stroke:none"
             id="path26"
             inkscape:connector-curvature="0" /></g></g></g></g></svg>