<svg baseProfile="tiny" xmlns="http://www.w3.org/2000/svg" viewBox="0 0 26 26">
	<path fill="none" d="M0 0h26v26H0z"/>
	<path fill="#b2b2b2" d="M22.7 11l-3.2 8.7c-.4 1-2.6 4.4-3.6 4-1.1-.4-.5-4.6-.2-5.4l3.2-8.7 3.8 1.4zM19.4 8.1l2.3-6.3c.4-1 1.6-1.8 2.7-1.4 1.1.4 1.5 2 1.2 2.8l-2.3 6.3-3.9-1.4z"/>
	<path fill="none" stroke="#b2b2b2" stroke-width=".94" stroke-linecap="round" stroke-linejoin="round" stroke-miterlimit="10" d="M19.9 12.7l-4.2 11.5"/>
	<path fill="none" stroke="#b2b2b2" stroke-width="1.881" stroke-linecap="round" stroke-linejoin="round" stroke-miterlimit="10" d="M20.2 1.8l-2.4 6.6"/>
	<path fill="none" stroke="#b2b2b2" stroke-width="2" stroke-linecap="round" stroke-linejoin="round" stroke-miterlimit="10" d="M8.6 11.5c-.2-2.7-2.1-5-4.7-2.6C2.3 10.3 1.7 13 1.3 15c-.3 1.3-.6 4.3 1.1 4.9 1.9.7 3.4-1.9 5.2-1.8.2.8-.7 2.3-.2 3 .7 1.1 1.5-.5 2.4-.3.7.1.3.7.7.9.4.2 1 0 1.5.2.6.2.8.6 1.3 1"/>
</svg>
