<?xml version="1.0" encoding="utf-8"?>
<!-- Generator: Adobe Illustrator 16.0.0, SVG Export Plug-In . SVG Version: 6.00 Build 0)  -->
<!DOCTYPE svg PUBLIC "-//W3C//DTD SVG 1.1//EN" "http://www.w3.org/Graphics/SVG/1.1/DTD/svg11.dtd">
<svg version="1.1" id="Layer_1" xmlns="http://www.w3.org/2000/svg" xmlns:xlink="http://www.w3.org/1999/xlink" x="0px" y="0px"
	 width="5.29px" height="4.425px" viewBox="0 0 5.29 4.425" enable-background="new 0 0 5.29 4.425" xml:space="preserve">
<g>
	<defs>
		<rect id="SVGID_1_" y="0" width="5.29" height="4.426"/>
	</defs>
	<clipPath id="SVGID_2_">
		<use xlink:href="#SVGID_1_"  overflow="visible"/>
	</clipPath>
	<path clip-path="url(#SVGID_2_)" d="M0.125,1.791l4.911-1.779c0.099-0.036,0.208,0.015,0.242,0.113
		C5.296,0.171,5.293,0.22,5.274,0.262L3.716,4.304C3.678,4.402,3.567,4.451,3.471,4.413C3.455,4.407,3.438,4.397,3.425,4.386
		C1.464,3.059,2.352,3.661,0.083,2.125c-0.086-0.058-0.109-0.177-0.05-0.263C0.056,1.827,0.088,1.803,0.125,1.791z M1.846,2.861
		L1.846,2.861l2.634-2.246L0.602,2.02L1.846,2.861z M4.687,0.737L4.687,0.737L2.042,2.994l1.406,0.953L4.687,0.737z"/>
</g>
</svg>
