<?xml version="1.0" encoding="utf-8"?>
<!-- Generator: Adobe Illustrator 16.0.0, SVG Export Plug-In . SVG Version: 6.00 Build 0)  -->
<!DOCTYPE svg PUBLIC "-//W3C//DTD SVG 1.0//EN" "http://www.w3.org/TR/2001/REC-SVG-20010904/DTD/svg10.dtd">
<svg version="1.0" id="Слой_1" xmlns="http://www.w3.org/2000/svg" xmlns:xlink="http://www.w3.org/1999/xlink" x="0px" y="0px"
	 width="32.019px" height="29.524px" viewBox="0 0 32.019 29.524" enable-background="new 0 0 32.019 29.524" xml:space="preserve">
<path fill="#FFFFFF" d="M21.532,15.171l1.348-1.341c0.6,0.235,1.24,0.393,1.895,0.452c0.811,0.071,1.648,0.012,2.471-0.21
	c1.1-0.294,2.066-0.83,2.863-1.543c0.824-0.738,1.465-1.653,1.857-2.667c0.156-0.392-0.039-0.837-0.433-0.993
	c-0.156-0.059-0.313-0.059-0.47-0.026l-2.026,0.542l-1.661,0.438L26.172,8.62l-1.201-1.209l0.443-1.648l0.432-1.647l1.66-0.445
	l2.026-0.542c0.405-0.112,0.653-0.53,0.536-0.935c-0.039-0.163-0.145-0.3-0.262-0.399c-0.85-0.679-1.869-1.157-2.955-1.386
	C25.82,0.2,24.708,0.213,23.61,0.501c-1.869,0.504-3.359,1.719-4.262,3.282c-0.902,1.555-1.203,3.458-0.707,5.327l0.027,0.066
	l0.014,0.019l-1.57,1.556l-4.497-4.504c0.131-0.235,0.249-0.47,0.353-0.706l0.026-0.039c0.17-0.393,0.301-0.784,0.393-1.144
	c0.274-0.471,0.614-0.791,1.019-0.98c0.458-0.217,1.033-0.282,1.753-0.223c0.234,0.026,0.47-0.046,0.64-0.222
	c0.287-0.301,0.287-0.778-0.013-1.079c-1.125-1.098-2.419-1.765-3.74-1.843c-1.215-0.085-2.444,0.327-3.581,1.307
	C9.203,1.416,8.941,1.534,8.667,1.671C8.536,1.743,8.392,1.815,8.262,1.894L7.869,1.508c-0.301-0.288-0.784-0.295-1.072,0
	L3.45,4.855c-0.301,0.287-0.301,0.778,0,1.072l0.38,0.385L3.75,6.476L3.724,6.515C3.633,6.692,3.542,6.875,3.45,7.064
	C3.384,7.11,3.292,7.149,3.175,7.175C2.979,7.228,2.744,7.247,2.469,7.228C2.247,7.208,2.025,7.28,1.868,7.444l-1.647,1.64v0.007
	c-0.301,0.294-0.288,0.778,0,1.072l1.922,1.909l0.026,0.045l0.065,0.053l0.013,0.013l0.026,0.033l1.975,1.967
	c0.287,0.301,0.784,0.301,1.072,0l1.647-1.634v-0.007c0.144-0.15,0.236-0.359,0.21-0.588c-0.014-0.229,0.012-0.418,0.064-0.582
	c0.04-0.111,0.105-0.215,0.17-0.307c0.184-0.085,0.38-0.177,0.563-0.281v-0.007l0.209-0.111l4.511,4.505L3.241,24.61
	c-0.288,0.307-0.288,0.784,0,1.079l3.36,3.347c0.288,0.294,0.772,0.294,1.072,0l9.439-9.439l9.701,9.707
	c0.302,0.295,0.785,0.295,1.086,0l3.347-3.347c0.287-0.294,0.287-0.778,0-1.079L21.532,15.171z M8.837,9.163L8.837,9.163
	C8.562,8.895,8.13,8.875,7.843,9.104c-0.196,0.124-0.392,0.235-0.575,0.34H7.255c-0.21,0.111-0.406,0.209-0.602,0.294
	C6.521,9.791,6.417,9.876,6.34,9.973c-0.223,0.268-0.419,0.556-0.524,0.889c-0.104,0.262-0.156,0.536-0.156,0.83l-0.877,0.877
	l-1.411-1.412l-0.066-0.066L3.28,11.072l-0.013-0.014l-0.013-0.019l-0.039-0.04L1.842,9.627l0.863-0.869
	c0.314,0,0.601-0.04,0.863-0.111c0.418-0.106,0.771-0.308,1.033-0.57c0.091-0.078,0.156-0.182,0.196-0.293
	c0.065-0.17,0.156-0.354,0.274-0.556l0.014-0.033C5.176,7.019,5.292,6.829,5.437,6.62c0.197-0.327,0.144-0.746-0.144-0.987
	L5.058,5.391l2.275-2.268L7.595,3.39c0.261,0.269,0.679,0.295,0.967,0.099c0.288-0.184,0.549-0.34,0.797-0.458
	c0.262-0.131,0.51-0.242,0.746-0.327c0.105-0.033,0.196-0.085,0.275-0.15c0.836-0.765,1.712-1.086,2.575-1.027
	c0.392,0.027,0.798,0.131,1.203,0.308c-0.144,0.039-0.261,0.097-0.393,0.156C13.02,2.331,12.458,2.906,12,3.724
	c-0.026,0.059-0.053,0.13-0.066,0.203h-0.013c-0.052,0.287-0.17,0.607-0.313,0.947l-0.027,0.04c-0.157,0.333-0.34,0.679-0.575,1.032
	c-0.196,0.307-0.144,0.706,0.104,0.955l4.93,4.929l-2.276,2.268L8.837,9.163z M7.137,27.42L7.137,27.42l-2.275-2.268l9.44-9.439
	l3.347-3.342l2.432-2.425V9.94c0.196-0.196,0.273-0.49,0.17-0.777l-0.066-0.235l-0.051-0.177l-0.015-0.033
	c-0.392-1.471-0.155-2.967,0.55-4.184c0.706-1.215,1.87-2.163,3.334-2.555c0.862-0.236,1.739-0.249,2.549-0.079
	c0.275,0.058,0.537,0.138,0.799,0.235l-0.235,0.066l-2.08,0.555c-0.261,0.066-0.47,0.268-0.536,0.543l-0.561,2.072l-0.551,2.073
	c-0.064,0.255,0,0.536,0.196,0.732L25.1,9.692v0.007l1.478,1.477c0.183,0.216,0.483,0.314,0.772,0.236l2.078-0.556l0.248-0.065
	c-0.183,0.222-0.379,0.418-0.588,0.607c-0.615,0.556-1.373,0.974-2.236,1.203c-0.652,0.17-1.307,0.223-1.935,0.17
	c-0.641-0.065-1.268-0.235-1.843-0.51c-0.288-0.163-0.668-0.118-0.916,0.125L7.137,27.42z M27.363,27.689L27.363,27.689
	l-9.165-9.173l2.261-2.268l9.166,9.172L27.363,27.689z"/>
</svg>
