<?xml version="1.0" encoding="UTF-8" standalone="no"?>
<svg
   xmlns:dc="http://purl.org/dc/elements/1.1/"
   xmlns:cc="http://creativecommons.org/ns#"
   xmlns:rdf="http://www.w3.org/1999/02/22-rdf-syntax-ns#"
   xmlns:svg="http://www.w3.org/2000/svg"
   xmlns="http://www.w3.org/2000/svg"
   xmlns:sodipodi="http://sodipodi.sourceforge.net/DTD/sodipodi-0.dtd"
   xmlns:inkscape="http://www.inkscape.org/namespaces/inkscape"
   width="23.200001pt"
   height="21.6pt"
   viewBox="0 0 23.2 21.600001"
   version="1.1"
   id="svg2"
   inkscape:version="0.91 r13725"
   sodipodi:docname="structure.svg">
  <metadata
     id="metadata16">
    <rdf:RDF>
      <cc:Work
         rdf:about="">
        <dc:format>image/svg+xml</dc:format>
        <dc:type
           rdf:resource="http://purl.org/dc/dcmitype/StillImage" />
        <dc:title></dc:title>
      </cc:Work>
    </rdf:RDF>
  </metadata>
  <sodipodi:namedview
     pagecolor="#ffffff"
     bordercolor="#666666"
     borderopacity="1"
     objecttolerance="10"
     gridtolerance="10"
     guidetolerance="10"
     inkscape:pageopacity="0"
     inkscape:pageshadow="2"
     inkscape:window-width="1366"
     inkscape:window-height="705"
     id="namedview14"
     showgrid="false"
     fit-margin-top="0"
     fit-margin-left="0"
     fit-margin-right="0"
     fit-margin-bottom="0"
     inkscape:zoom="7.1858745"
     inkscape:cx="13.3664"
     inkscape:cy="12.78936"
     inkscape:window-x="-8"
     inkscape:window-y="-8"
     inkscape:window-maximized="1"
     inkscape:current-layer="svg2" />
  <defs
     id="defs4">
    <clipPath
       id="clip1">
      <path
         d="m 0,0 4.9375,0 0,4.644531 -4.9375,0 z m 0,0"
         id="path7"
         inkscape:connector-curvature="0" />
    </clipPath>
  </defs>
  <g
     id="surface46"
     style="fill:#000000;fill-opacity:1"
     transform="scale(4.6987346,4.650631)">
    <g
       clip-path="url(#clip1)"
       id="g10"
       style="clip-rule:nonzero;fill:#000000;fill-opacity:1">
      <path
         style="fill:#000000;fill-opacity:1;fill-rule:nonzero;stroke:none"
         d="m 3.046875,0.378906 -1.15625,0 0,1.15625 1.15625,0 z m -0.300781,3.332032 -0.554688,0 0,0.554687 0.554688,0 z m -1.8125,0 -0.554688,0 0,0.554687 0.554688,0 z m 3.625,0 -0.554688,0 0,0.554687 0.554688,0 z m -0.351563,-0.378907 0,-0.394531 -1.625,0 0,0.394531 0.351563,0 c 0.105469,0 0.191406,0.082032 0.191406,0.1875 l 0,0.933594 c 0,0.105469 -0.085937,0.191406 -0.191406,0.191406 L 2,4.644531 c -0.101562,0 -0.1875,-0.085937 -0.1875,-0.191406 l 0,-0.933594 c 0,-0.105468 0.085938,-0.1875 0.1875,-0.1875 l 0.355469,0 0,-0.394531 -1.585938,0 0,0.394531 0.351563,0 c 0.105469,0 0.191406,0.082032 0.191406,0.1875 l 0,0.933594 c 0,0.105469 -0.085937,0.191406 -0.191406,0.191406 l -0.929688,0 C 0.0859375,4.644531 0,4.558594 0,4.453125 L 0,3.519531 c 0,-0.105468 0.0859375,-0.1875 0.191406,-0.1875 l 0.351563,0 0,-0.507812 c 0,-0.0625 0.050781,-0.113281 0.113281,-0.113281 l 1.699219,0 0,-0.796875 -0.65625,0 c -0.101563,0 -0.1875,-0.085938 -0.1875,-0.191407 l 0,-1.53125 C 1.511719,0.0859375 1.597656,0 1.699219,0 l 1.535156,0 c 0.105469,0 0.191406,0.0859375 0.191406,0.191406 l 0,1.53125 c 0,0.105469 -0.085937,0.191407 -0.191406,0.191407 l -0.652344,0 0,0.796875 1.738282,0 c 0.0625,0 0.113281,0.050781 0.113281,0.113281 l 0,0.507812 0.3125,0 c 0.105469,0 0.191406,0.082032 0.191406,0.1875 l 0,0.933594 c 0,0.105469 -0.085937,0.191406 -0.191406,0.191406 l -0.933594,0 c -0.105469,0 -0.1875,-0.085937 -0.1875,-0.191406 l 0,-0.933594 c 0,-0.105468 0.082031,-0.1875 0.1875,-0.1875 z m 0,0"
         id="path12"
         inkscape:connector-curvature="0" />
    </g>
  </g>
</svg>
