<svg version="1.1" xmlns="http://www.w3.org/2000/svg" xmlns:xlink="http://www.w3.org/1999/xlink" x="0px" y="0px" viewBox="24.1 21.8 61.6 61.6" enable-background="new 24.1 21.8 61.6 61.6" xml:space="preserve"><path id="t" fill-rule="evenodd" clip-rule="evenodd" fill="#FFFFFF" stroke="#000000" stroke-width="2" stroke-miterlimit="10" d=" M75.6,22.8H34.3c-5.1,0-9.2,4.1-9.2,9.2v41.2c0,5.1,4.1,9.2,9.2,9.2h41.2c5.1,0,9.2-4.1,9.2-9.2V31.9 C84.8,26.9,80.6,22.8,75.6,22.8z M72.7,43.4c0,0.4,0,0.8,0,1.2c0,12.1-9.2,26.1-26.1,26.1c-5.2,0-10-1.5-14-4.1 c0.7,0.1,1.4,0.1,2.2,0.1c4.3,0,8.2-1.5,11.4-3.9c-4-0.1-7.4-2.7-8.6-6.4c0.6,0.1,1.1,0.2,1.7,0.2c0.8,0,1.6-0.1,2.4-0.3 c-4.2-0.8-7.3-4.5-7.3-9c0,0,0-0.1,0-0.1c1.2,0.7,2.6,1.1,4.1,1.1c-2.5-1.6-4.1-4.4-4.1-7.6c0-1.7,0.5-3.3,1.2-4.6 c4.5,5.5,11.3,9.2,18.9,9.6c-0.2-0.7-0.2-1.4-0.2-2.1c0-5.1,4.1-9.2,9.2-9.2c2.6,0,5,1.1,6.7,2.9c2.1-0.4,4-1.2,5.8-2.2 c-0.7,2.1-2.1,3.9-4,5.1c1.9-0.2,3.6-0.7,5.3-1.4C76,40.5,74.5,42.1,72.7,43.4z"/></svg>
