<svg id="Ebene_1" data-name="Ebene 1" xmlns="http://www.w3.org/2000/svg" viewBox="0 0 37.82 28.72"><defs><style>.cls-1{fill:#999;}.cls-2{fill:#989999;}</style></defs><title>unmute_grey</title><path class="cls-1" d="M279.31,273.64V281A3.68,3.68,0,1,0,279.31,273.64Z" transform="translate(-258.59 -263.14)"/><path class="cls-1" d="M265.29,273.14v8.72c0.76,0.79,6.3,6.5,8.74,8.11V265C271.59,266.64,266,272.36,265.29,273.14Z" transform="translate(-258.59 -263.14)"/><path class="cls-1" d="M275.69,264.72v25.56a2.73,2.73,0,0,0,2-2.42V267.14A2.73,2.73,0,0,0,275.69,264.72Z" transform="translate(-258.59 -263.14)"/><path class="cls-1" d="M260,277.5c0,2.87,0,4.27,2.33,4.27h1.31v-8.53h-1.31C260,273.23,260,274.63,260,277.5Z" transform="translate(-258.59 -263.14)"/><path class="cls-1" d="M288.5,265.22a1.2,1.2,0,0,0-1.17,2.1,11.9,11.9,0,0,1,5.27,10.31,12.94,12.94,0,0,1-2.46,7.89,10,10,0,0,1-2.5,2.43,1.2,1.2,0,0,0,.62,2.23,1.19,1.19,0,0,0,.61-0.17c0.25-.15,6.13-3.73,6.13-12.39A14.2,14.2,0,0,0,288.5,265.22Z" transform="translate(-258.59 -263.14)"/><path class="cls-1" d="M289.41,277.63a7.81,7.81,0,0,0-3.11-6.62,1.2,1.2,0,0,0-1.29,2,6.27,6.27,0,0,1,0,9.19,1.2,1.2,0,0,0,1.29,2A7.79,7.79,0,0,0,289.41,277.63Z" transform="translate(-258.59 -263.14)"/><path class="cls-2" d="M259.24,266l35,25.56c1.56,1.14,3.06-1.46,1.51-2.59l-35-25.56c-1.56-1.14-3.06,1.46-1.51,2.59h0Z" transform="translate(-258.59 -263.14)"/><path class="cls-2" d="M260.76,291.26l35-25.24c1.55-1.12.06-3.72-1.51-2.59l-35,25.24c-1.55,1.12-.06,3.72,1.51,2.59h0Z" transform="translate(-258.59 -263.14)"/></svg>