<?xml version="1.0" encoding="utf-8"?>
<!-- Generator: Adobe Illustrator 16.0.0, SVG Export Plug-In . SVG Version: 6.00 Build 0)  -->
<!DOCTYPE svg PUBLIC "-//W3C//DTD SVG 1.1//EN" "http://www.w3.org/Graphics/SVG/1.1/DTD/svg11.dtd">
<svg version="1.1" id="Layer_1" xmlns="http://www.w3.org/2000/svg" xmlns:xlink="http://www.w3.org/1999/xlink" x="0px" y="0px"
	 width="21.83px" height="22.293px" viewBox="0 0 21.83 22.293" enable-background="new 0 0 21.83 22.293" xml:space="preserve">
<g>
	<defs>
		<rect id="SVGID_1_" width="21.83" height="22.293"/>
	</defs>
	<clipPath id="SVGID_2_">
		<use xlink:href="#SVGID_1_"  overflow="visible"/>
	</clipPath>
	<path clip-path="url(#SVGID_2_)" fill="#ACACAB" d="M11.047,3.093c1.519,0,3.004,0.417,4.295,1.208l0.545,0.333l-0.454,0.449
		c-1.007,0.994-2.165,2.158-2.165,2.158C13.215,7.308,13.032,7.55,13.103,7.7c0.057,0.122,0.253,0.213,0.354,0.213l7.551-0.001
		l0.02-7.492c0.007-0.138-0.037-0.258-0.113-0.338c-0.138-0.144-0.319-0.092-0.529,0.113c-0.001,0.002-1.28,1.25-2.162,2.123
		l-0.302,0.3l-0.345-0.251c-1.906-1.392-4.166-2.127-6.536-2.127c-2.951,0-5.725,1.148-7.812,3.233
		C1.131,5.568-0.004,8.331,0,11.295h2.858c0-2.173,0.855-4.263,2.392-5.799C6.797,3.946,8.856,3.093,11.047,3.093"/>
	<path clip-path="url(#SVGID_2_)" fill="#ACACAB" d="M10.78,19.2c-1.518,0-3.001-0.417-4.292-1.205l-0.545-0.333l0.454-0.449
		c1.007-0.995,2.165-2.158,2.166-2.158c0.05-0.063,0.232-0.308,0.161-0.459c-0.056-0.121-0.252-0.211-0.351-0.211h-7.55L0.8,21.873
		c-0.006,0.138,0.039,0.259,0.116,0.34c0.137,0.142,0.317,0.09,0.525-0.115c0.003-0.002,1.281-1.246,2.167-2.124l0.302-0.299
		l0.345,0.252c1.906,1.393,4.166,2.128,6.535,2.128c2.951,0,5.724-1.147,7.809-3.234c2.066-2.063,3.229-4.892,3.231-7.822h-2.858
		c0,2.176-0.856,4.266-2.393,5.803C15.029,18.347,12.97,19.2,10.78,19.2"/>
</g>
</svg>
