<?xml version="1.0" encoding="utf-8"?>
<!-- Generator: Adobe Illustrator 16.0.0, SVG Export Plug-In . SVG Version: 6.00 Build 0)  -->
<!DOCTYPE svg PUBLIC "-//W3C//DTD SVG 1.1//EN" "http://www.w3.org/Graphics/SVG/1.1/DTD/svg11.dtd">
<svg version="1.1" id="Layer_1" xmlns="http://www.w3.org/2000/svg" xmlns:xlink="http://www.w3.org/1999/xlink" x="0px" y="0px"
	 width="23.2px" height="13.8px" viewBox="0 0 23.2 13.8" enable-background="new 0 0 23.2 13.8" xml:space="preserve">
<path d="M18.926,5.25c-0.473,0-0.946,0.081-1.407,0.242l-0.095,0.034l-1.548-2.812V1.492h1.854c0.357,0,0.647-0.29,0.647-0.646
	c0-0.357-0.29-0.647-0.647-0.647h-2.458c-0.355,0-0.646,0.29-0.646,0.647c0,0.052,0.007,0.106,0.021,0.161l0.004,0.015v1.237H9.012
	L8.548,1.225h1.343c0.337,0,0.612-0.275,0.612-0.612C10.503,0.275,10.228,0,9.891,0H5.312C4.975,0,4.699,0.275,4.699,0.613
	c0,0.337,0.275,0.612,0.612,0.612h1.895l0.408,0.926L5.777,5.527L5.681,5.493C5.221,5.332,4.748,5.25,4.274,5.25
	C1.918,5.25,0,7.168,0,9.525C0,11.882,1.918,13.8,4.274,13.8c2.092,0,3.862-1.498,4.21-3.562l0.018-0.102h1.818l0.036,0.033
	c0.277,0.264,0.643,0.41,1.024,0.41c0.822,0,1.49-0.67,1.49-1.49c0-0.143-0.021-0.283-0.062-0.42l-0.014-0.049l2.467-4.481
	l1.088,1.977L16.271,6.18c-1.03,0.819-1.621,2.038-1.621,3.346c0,2.356,1.918,4.274,4.275,4.274c2.356,0,4.274-1.918,4.274-4.274
	C23.2,7.167,21.282,5.25,18.926,5.25 M6.252,7.202l0.112,0.107c0.419,0.395,0.718,0.896,0.86,1.453l0.04,0.15H5.311L6.252,7.202z
	 M7.225,10.287c-0.349,1.348-1.562,2.287-2.95,2.287c-1.682,0-3.051-1.369-3.051-3.051s1.369-3.05,3.051-3.05
	c0.246,0,0.5,0.033,0.755,0.098L5.18,6.61L3.738,9.23C3.735,9.24,3.731,9.248,3.727,9.258C3.716,9.279,3.709,9.297,3.703,9.314
	C3.694,9.337,3.688,9.355,3.685,9.371C3.68,9.39,3.677,9.406,3.673,9.43S3.667,9.474,3.667,9.492v0.006
	C3.666,9.506,3.665,9.514,3.664,9.523L3.663,9.525l0.001,0.002c0.001,0.006,0.001,0.014,0.002,0.021
	C3.667,9.572,3.67,9.595,3.673,9.617c0.002,0.017,0.005,0.035,0.01,0.054s0.01,0.037,0.017,0.056
	c0.008,0.021,0.015,0.039,0.023,0.057C3.729,9.8,3.738,9.814,3.749,9.833l0.003,0.004c0.01,0.019,0.019,0.032,0.028,0.046
	C3.792,9.898,3.804,9.912,3.819,9.93c0.014,0.014,0.026,0.029,0.04,0.042c0.016,0.013,0.031,0.026,0.047,0.039
	c0.016,0.011,0.032,0.024,0.051,0.034l0.007,0.004c0.004,0.003,0.009,0.007,0.014,0.01l0.004,0.004
	c0.01,0.004,0.021,0.008,0.029,0.012c0.017,0.009,0.036,0.017,0.053,0.022c0.023,0.009,0.042,0.015,0.062,0.019
	c0.015,0.004,0.03,0.008,0.054,0.012c0.024,0.004,0.046,0.007,0.069,0.007c0.006,0,0.016,0.001,0.026,0.003h2.989L7.225,10.287z
	 M10.234,8.14c-0.161,0.194-0.271,0.427-0.316,0.675l-0.02,0.098H8.502L8.484,8.812C8.31,7.773,7.758,6.838,6.929,6.18L6.85,6.116
	l1.405-2.553l2.026,4.52L10.234,8.14z M11.908,7.693l-0.093-0.029c-0.107-0.033-0.221-0.053-0.336-0.061L11.407,7.6L9.562,3.483
	h4.666L11.908,7.693z M18.926,12.574c-1.682,0-3.05-1.369-3.05-3.051c0-0.844,0.34-1.631,0.96-2.216l0.112-0.106L18.39,9.82
	c0.107,0.194,0.313,0.315,0.537,0.315c0.104,0,0.204-0.024,0.295-0.075c0.143-0.078,0.247-0.209,0.292-0.365
	c0.046-0.158,0.027-0.324-0.052-0.467L18.021,6.61l0.151-0.038c0.255-0.065,0.508-0.098,0.755-0.098c1.682,0,3.05,1.368,3.05,3.05
	S20.607,12.574,18.926,12.574"/>
</svg>
