<svg version="1.1" xmlns="http://www.w3.org/2000/svg" xmlns:xlink="http://www.w3.org/1999/xlink" x="0px" y="0px" viewBox="4 22 62 62" enable-background="new 4 22 62 62" xml:space="preserve"><path fill-rule="evenodd" clip-rule="evenodd" fill="#FFFFFF" stroke="#000000" stroke-width="2" stroke-miterlimit="10" d="M65,32.2c0-5.1-4.1-9.2-9.2-9.2H14.2C9.1,23,5,27.1,5,32.2v41.6c0,5.1,4.1,9.2,9.2,9.2h41.6c5.1,0,9.2-4.1,9.2-9.2V32.2z M53.9,64.9l-5.5,0.1c0,0-1.2,0.2-2.7-0.8c-2-1.4-4-5-5.5-4.6c-1.5,0.5-1.5,3.8-1.5,3.8s0,0.8-0.3,1.1C38,64.9,37.3,65,37.3,65 h-2.4c0,0-5.4,0.3-10.1-4.7C19.5,54.9,15,44.2,15,44.2s-0.3-0.7,0-1.1c0.3-0.4,1.2-0.4,1.2-0.4l5.8,0c0,0,0.6,0.1,0.9,0.4 c0.3,0.2,0.5,0.7,0.5,0.7s0.9,2.4,2.2,4.5c2.4,4.2,3.6,5.1,4.4,4.7c1.2-0.7,0.8-6,0.8-6s0-1.9-0.6-2.8c-0.5-0.7-1.4-0.9-1.8-0.9 c-0.3,0,0.2-0.8,0.9-1.1c1.1-0.5,2.9-0.5,5.1-0.5c1.7,0,2.2,0.1,2.9,0.3c2,0.5,1.3,2.4,1.3,6.9c0,1.4-0.3,3.5,0.8,4.1 c0.4,0.3,1.5,0,4.3-4.6c1.3-2.2,2.3-4.8,2.3-4.8s0.2-0.5,0.5-0.7c0.3-0.2,0.8-0.1,0.8-0.1l6.1,0c0,0,1.8-0.2,2.1,0.6 c0.3,0.9-0.7,2.9-3.2,6.3c-4.1,5.5-4.6,5-1.2,8.2c3.3,3,3.9,4.5,4.1,4.7C56.7,64.7,53.9,64.9,53.9,64.9z"/></svg>
