<?xml version="1.0" encoding="utf-8"?>
<!-- Generator: Adobe Illustrator 16.0.0, SVG Export Plug-In . SVG Version: 6.00 Build 0)  -->
<!DOCTYPE svg PUBLIC "-//W3C//DTD SVG 1.1//EN" "http://www.w3.org/Graphics/SVG/1.1/DTD/svg11.dtd">
<svg version="1.1"
	 id="Layer_1" xmlns:cc="http://creativecommons.org/ns#" xmlns:rdf="http://www.w3.org/1999/02/22-rdf-syntax-ns#" xmlns:inkscape="http://www.inkscape.org/namespaces/inkscape" xmlns:svg="http://www.w3.org/2000/svg" xmlns:sodipodi="http://sodipodi.sourceforge.net/DTD/sodipodi-0.dtd" xmlns:dc="http://purl.org/dc/elements/1.1/" inkscape:version="0.91 r13725" sodipodi:docname="vk_white.svg"
	 xmlns="http://www.w3.org/2000/svg" xmlns:xlink="http://www.w3.org/1999/xlink" x="0px" y="0px" width="22.342px"
	 height="12.998px" viewBox="0 0 22.342 12.998" enable-background="new 0 0 22.342 12.998" xml:space="preserve">
<sodipodi:namedview  id="namedview3397" fit-margin-left="0" gridtolerance="10" fit-margin-top="0" borderopacity="1" guidetolerance="10" inkscape:zoom="31.05613" bordercolor="#666666" showgrid="false" inkscape:cy="7.3162078" inkscape:cx="12.78004" pagecolor="#ffffff" objecttolerance="10" inkscape:pageshadow="2" inkscape:pageopacity="0" inkscape:window-width="1366" inkscape:window-height="705" fit-margin-right="0" fit-margin-bottom="0" inkscape:window-x="-8" inkscape:window-maximized="1" inkscape:window-y="-8" inkscape:current-layer="Layer_1">
	</sodipodi:namedview>
<g id="g3393" transform="matrix(0.01905633,0,0,0.01905633,-0.01829408,0.0132872)">
	<path id="path3395" inkscape:connector-curvature="0" fill="#B1AEAE" d="M0.973,48.103c0.564-0.512,1.435-0.922,1.64-1.537
		c1.179-4.202,4.305-6.56,7.943-8.456c6.918-3.485,14.195-5.842,21.78-7.226c6.765-1.23,13.632-1.999,20.499-1.999
		c12.812-0.051,25.624,0,38.384-0.051c27.878,0,55.705-0.051,83.533-0.154c5.74,0,11.531-0.205,17.27-0.41
		c8.558-0.307,16.911,0.82,25.214,2.562c11.992,2.511,21.063,9.122,26.751,19.986c7.123,13.785,14.298,27.52,20.499,41.766
		c27.981,64.828,62.47,126.016,102.802,183.977c6.303,9.02,12.812,17.988,19.32,26.905c2.409,3.331,5.125,6.508,7.841,9.686
		c6.047,7.021,13.478,12.197,21.831,16.092c3.075,1.384,6.303,2.204,9.737,2.255c5.688,0.103,10.352-1.999,13.939-6.252
		c1.64-1.947,3.075-4.151,4.151-6.457c4.868-10.301,8.763-20.96,10.454-32.234c1.025-6.508,1.691-13.017,2.409-19.525
		c1.742-15.118,2.819-30.287,3.434-45.456c0.769-18.859,0.871-37.769-0.103-56.628c-0.41-7.482-0.82-15.015-1.435-22.497
		c-0.871-10.813-1.64-21.677-3.792-32.388c-0.922-4.715-1.947-9.378-3.177-13.99c-4.715-17.168-15.272-29.262-31.517-36.437
		c-10.096-4.458-20.191-8.917-30.287-13.375c-1.127-0.512-2.255-1.076-3.69-1.794c0.41-0.974,0.615-1.896,1.025-2.665
		c6.303-11.377,15.272-20.037,26.7-26.187c8.353-4.51,17.321-7.431,26.546-9.634c14.657-3.536,29.569-5.432,44.636-5.842
		c36.437-1.076,72.924-1.076,109.412-0.154c5.893,0.154,11.787,0.41,17.731,0.82c10.403,0.718,20.499,3.024,30.594,5.535
		c3.126,0.769,6.252,1.537,9.276,2.511c13.939,4.612,24.086,13.529,30.39,26.802c3.382,7.175,5.33,14.759,6.56,22.497
		c1.384,9.019,1.999,18.141,2.101,27.263c0.154,14.554-0.82,29.108-1.537,43.611c-0.461,8.148-0.974,16.297-1.435,24.445
		c-0.769,14.554-1.589,29.057-2.306,43.611c-0.974,19.32-1.947,38.64-2.767,58.012c-0.461,9.429,0.051,18.859,2.05,28.135
		c2.255,10.301,6.15,19.833,12.504,28.288c2.921,3.844,6.098,7.431,9.019,11.223c2.409,3.126,5.586,4.202,9.276,4.1
		c1.742-0.103,3.485-0.41,5.176-0.871c6.611-1.794,12.402-5.022,17.731-9.224c5.842-4.612,10.864-9.993,15.323-15.886
		c9.583-12.607,19.269-25.111,28.391-38.025c36.847-52.067,66.724-107.926,90.707-167.014c5.125-12.556,10.659-25.009,16.092-37.462
		c1.025-2.357,2.204-4.612,3.536-6.816c8.148-13.427,20.294-21.011,35.668-23.471c4.356-0.717,8.866-1.025,13.324-1.025
		c11.223,0.051,22.395,0.41,33.618,0.564c14.708,0.205,29.416,0.41,44.124,0.461c27.878,0.103,55.706,0,83.533,0.205
		c11.172,0.051,22.395,0.41,33.515,1.742c5.381,0.666,10.813,1.384,16.04,2.767c13.068,3.485,20.294,12.146,19.935,27.263
		c-0.102,4.817-1.025,9.532-2.204,14.195c-4.202,16.655-10.557,32.542-18.295,47.865c-9.583,19.013-20.806,37.052-32.747,54.681
		c-14.964,22.139-31.312,43.304-47.865,64.264c-23.369,29.672-46.583,59.447-69.132,89.682c-6.56,8.763-11.838,18.244-16.143,28.288
		c-2.204,5.176-3.741,10.506-4.664,16.092c-1.896,11.326,0.205,21.934,5.74,31.927c3.639,6.611,8.353,12.453,13.785,17.731
		c11.479,11.172,22.959,22.292,34.592,33.259c18.961,17.936,37.718,36.027,55.5,55.091c23.42,25.111,45.046,51.554,63.956,80.201
		c6.662,10.096,12.094,20.704,15.989,32.132c1.179,3.536,1.896,7.123,1.999,10.813c0.256,8.046-2.204,15.118-7.175,21.37
		c-2.716,3.382-5.996,6.201-9.634,8.558c-9.942,6.508-20.96,10.198-32.696,11.582c-5.74,0.666-11.479,1.025-17.27,0.974
		c-19.013-0.051-38.025-0.359-57.089-0.564c-15.682-0.154-31.363-0.359-47.045-0.256c-7.636,0.103-15.323,0.871-22.959,1.435
		c-8.456,0.615-16.911,1.486-25.367,1.999c-5.637,0.359-11.121-0.82-16.604-2.101c-28.955-6.97-54.219-20.858-75.999-40.946
		c-7.636-7.072-14.913-14.554-21.831-22.292c-14.349-15.887-28.34-32.183-42.586-48.172c-6.918-7.79-13.99-15.425-21.216-22.856
		c-3.895-4.049-8.148-7.687-12.504-11.172c-7.687-6.15-16.45-9.788-26.187-11.069c-12.094-1.537-26.905,3.024-33.618,19.218
		c-2.716,6.713-4.356,13.734-5.637,20.806c-2.921,15.886-5.073,31.876-6.047,48.018c-0.564,10.096-1.384,20.14-3.639,29.979
		c-0.717,3.126-1.64,6.201-2.665,9.224c-3.28,9.583-9.686,16.399-18.808,20.704c-6.303,2.921-12.914,4.766-19.679,6.098
		c-17.322,3.382-34.899,4.407-52.528,3.382c-11.479-0.717-22.959-1.435-34.438-2.409c-38.077-3.177-75.487-9.737-111.667-22.292
		c-42.125-14.657-80.253-36.488-114.691-64.776c-16.604-13.632-32.081-28.442-46.532-44.329
		c-32.234-35.412-61.855-72.976-89.426-112.077c-31.671-44.892-60.523-91.527-87.581-139.289
		c-33.874-59.703-64.469-121.045-92.706-183.618C10.71,96.121,6.251,80.132,3.791,63.579c-0.41-2.665-0.717-5.381-1.127-8.046
		c-0.154-1.179-0.41-2.204-1.691-2.614C0.973,51.28,0.973,49.691,0.973,48.103z"/>
</g>
</svg>
