<svg xmlns="http://www.w3.org/2000/svg" width="31.887" height="23.896" viewBox="0 0 31.887 23.896"><path d="M14.77 4.828h-2.168c-.3 0-.542-.242-.542-.542s.243-.542.542-.542h2.17c.298 0 .54.242.54.542s-.242.542-.54.542z"/><path fill="#231F20" d="M24.53 6.996H13.686c-.3 0-.542-.242-.542-.542 0-.3.243-.542.542-.542H24.53c.3 0 .542.242.542.542 0 .3-.243.542-.543.542zm-.543 2.17H12.06c-.3 0-.542-.243-.542-.543s.243-.542.542-.542h11.927c.3 0 .542.25.542.55s-.25.54-.55.54zm.543 2.168H12.06c-.3 0-.542-.242-.542-.542s.243-.542.542-.542h12.47c.298 0 .54.242.54.542.002.3-.24.542-.54.542zm-1.085 2.168H12.06c-.3 0-.542-.242-.542-.542s.243-.542.542-.542h11.385c.3 0 .542.242.542.542 0 .3-.243.542-.542.542zm8.44-7.934l-4.125-.03.01-1.214 2.902.02V2.39c0-.648-.528-1.176-1.176-1.176V0c1.317 0 2.39 1.072 2.39 2.39v3.178zm-5.7 13.852h-6.22v-1.63c0-.427.11-.83.31-1.176H7.962V2.39c0-1.317 1.073-2.39 2.39-2.39H29.75v1.214c-.648 0-1.176.528-1.176 1.176v14.64c0 1.318-1.072 2.39-2.39 2.39zm-5.008-1.213h5.007c.648 0 1.176-.528 1.176-1.176V2.39c0-.427.112-.83.31-1.176H10.354c-.648 0-1.176.528-1.176 1.176V15.4H22.35v1.214c-.647 0-1.175.528-1.175 1.176v.417zm-2.39 5.69H0V22.68c.648 0 1.176-.528 1.176-1.176V17.79c0-1.317 1.072-2.39 2.39-2.39h18.788v1.214c-.648 0-1.176.528-1.176 1.176v3.717c0 1.317-1.073 2.39-2.39 2.39zM2.08 22.68h16.708c.648 0 1.176-.528 1.176-1.176V17.79c0-.427.112-.83.31-1.176H3.564c-.648 0-1.176.528-1.176 1.176v3.717c0 .427-.113.828-.31 1.175z"/></svg>