<?xml version="1.0" encoding="utf-8"?>
<!-- Generator: Adobe Illustrator 16.0.0, SVG Export Plug-In . SVG Version: 6.00 Build 0)  -->
<!DOCTYPE svg PUBLIC "-//W3C//DTD SVG 1.0//EN" "http://www.w3.org/TR/2001/REC-SVG-20010904/DTD/svg10.dtd">
<svg version="1.0" id="Слой_1" xmlns="http://www.w3.org/2000/svg" xmlns:xlink="http://www.w3.org/1999/xlink" x="0px" y="0px"
	 width="30.285px" height="28.881px" viewBox="0 0 30.285 28.881" enable-background="new 0 0 30.285 28.881" xml:space="preserve">
<g>
	<path fill="none" stroke="#333333" stroke-width="2" stroke-linejoin="round" stroke-miterlimit="10" d="M25.15,8.092l-0.029,0.002
		C24.82,4.127,21.514,1,17.47,1c-2.647,0-4.97,1.348-6.35,3.385C10.546,4.047,9.886,3.84,9.172,3.84
		c-2.13,0-3.858,1.727-3.858,3.857c0,0.142,0.027,0.274,0.042,0.412c-0.074-0.01-0.146-0.02-0.222-0.02C2.85,8.09,1,9.94,1,12.22
		c0,2.28,1.85,4.135,4.134,4.135H25.15c2.283,0,4.135-1.85,4.135-4.135c0-2.285-1.851-4.13-4.135-4.13V8.092z"/>
</g>
</svg>
