<svg xmlns="http://www.w3.org/2000/svg" width="30.284" height="28.881" viewBox="0 0 30.284 28.881"><g fill="none" stroke="#333" stroke-width="2" stroke-linejoin="round" stroke-miterlimit="10"><path d="M25.15 8.092l-.03.002C24.82 4.127 21.514 1 17.47 1c-2.647 0-4.97 1.348-6.35 3.385-.574-.338-1.234-.545-1.948-.545-2.13 0-3.858 1.727-3.858 3.857 0 .142.027.274.042.412-.074-.01-.146-.02-.222-.02C2.85 8.09 1 9.94 1 12.22s1.85 4.135 4.134 4.135H25.15c2.283 0 4.134-1.85 4.134-4.135s-1.85-4.13-4.134-4.13z"/><path d="M20.9 20.682v7.2m-3.116-1.802l6.237-3.6m0 3.6l-6.23-3.6m-8.4-1.798v7.2M6.27 26.08l6.236-3.6m0 3.6l-6.234-3.6" stroke-linecap="round"/></g></svg>