<svg xmlns="http://www.w3.org/2000/svg" width="28.25" height="28.25" viewBox="0 0 28.25 28.25"><path stroke="#fff" stroke-width=".25" stroke-miterlimit="10" d="M14.762.14V.124H13.49V.14C6.05.47.124 6.605.124 14.124c0 7.732 6.268 14 14 14s14-6.268 14-14C28.124 6.604 22.197.47 14.76.138zM10.33 1.972c-.568.597-1.09 1.325-1.555 2.16-.465.837-.87 1.78-1.207 2.81-.95-.288-1.828-.642-2.61-1.05l-.36-.207C6.115 3.972 8.09 2.672 10.33 1.973zM3.786 6.7c.992.58 2.148 1.076 3.427 1.466-.37 1.444-.612 3.023-.693 4.686H1.46c.227-2.28 1.056-4.386 2.326-6.152zm-2.39 7.425H6.49c0 1.71.167 3.347.473 4.86-1.42.455-2.68 1.042-3.726 1.73-1.165-1.922-1.837-4.178-1.837-6.59zm2.578 7.68c.64-.46 1.183-.727 1.183-.727.642-.32 1.344-.605 2.094-.848.68 2.538 1.75 4.65 3.08 6.048-2.56-.8-4.77-2.385-6.35-4.474zm9.515 4.985c-2.21-.438-4.08-3.13-5.04-6.906 1.54-.39 3.25-.623 5.04-.662v7.568zm0-8.84c-1.9.038-3.69.282-5.32.69-.27-1.402-.41-2.924-.41-4.515h5.72v3.824zm0-5.098h-5.7c.07-1.552.29-3.022.62-4.36 1.56.373 3.27.596 5.07.632v3.728zm0-5c-1.67-.037-3.27-.24-4.73-.586 1.02-3.193 2.74-5.412 4.72-5.806v6.39zM24.4 6.62c1.303 1.782 2.155 3.916 2.385 6.232h-5.06c-.084-1.684-.33-3.282-.71-4.74 1.268-.4 2.41-.905 3.384-1.492zm-.82-1.01l-.257.162c-.792.434-1.688.81-2.664 1.118-.67-2.036-1.62-3.732-2.75-4.917 2.2.688 4.15 1.96 5.66 3.636zm-8.82-4.15c1.976.393 3.686 2.593 4.71 5.763-1.454.357-3.048.574-4.71.623V1.46zm0 7.66c1.797-.05 3.505-.286 5.06-.673.338 1.35.558 2.835.636 4.404H14.76V9.12zm0 5.005h5.727c0 1.608-.15 3.146-.422 4.563-1.62-.423-3.414-.68-5.306-.734v-3.83zm0 12.665v-7.563c1.783.053 3.488.3 5.028.704-.964 3.76-2.832 6.43-5.028 6.86zm3.158-.513c.66-.694 1.257-1.563 1.774-2.573.517-1.01.954-2.16 1.29-3.417.775.262 1.496.567 2.15.91 0 0 .587.328 1.088.677-1.58 2.055-3.772 3.614-6.302 4.403zm3.357-7.232c.313-1.53.485-3.19.485-4.92h5.09c0 2.45-.692 4.74-1.892 6.682-1.027-.698-2.274-1.296-3.683-1.762z"/></svg>