<?xml version="1.0" encoding="utf-8"?>
<!-- Generator: Adobe Illustrator 16.0.0, SVG Export Plug-In . SVG Version: 6.00 Build 0)  -->
<!DOCTYPE svg PUBLIC "-//W3C//DTD SVG 1.1//EN" "http://www.w3.org/Graphics/SVG/1.1/DTD/svg11.dtd">
<svg version="1.1" id="Layer_1" xmlns="http://www.w3.org/2000/svg" xmlns:xlink="http://www.w3.org/1999/xlink" x="0px" y="0px"
	 width="18.825px" height="13.752px" viewBox="0 0 18.825 13.752" enable-background="new 0 0 18.825 13.752" xml:space="preserve">
<path fill-rule="evenodd" clip-rule="evenodd" d="M9.413,10.313c-0.949,0-1.718,0.773-1.718,1.722s0.769,1.718,1.718,1.718
	c0.948,0,1.718-0.77,1.718-1.718S10.361,10.313,9.413,10.313 M18.624,4.304C16.324,1.569,12.967,0,9.413,0
	C5.858,0,2.5,1.569,0.201,4.304C-0.104,4.667-0.057,5.21,0.308,5.515C0.467,5.65,0.663,5.716,0.858,5.716
	c0.246,0,0.49-0.103,0.657-0.304c1.973-2.348,4.85-3.694,7.897-3.694c3.044,0,5.923,1.346,7.896,3.691
	c0.166,0.204,0.41,0.307,0.656,0.307c0.196,0,0.393-0.066,0.553-0.201C18.88,5.21,18.928,4.667,18.624,4.304 M9.413,3.439
	c-2.538,0-4.936,1.119-6.579,3.072c-0.305,0.364-0.26,0.906,0.104,1.212C3.1,7.857,3.295,7.924,3.492,7.924
	c0.244,0,0.487-0.104,0.658-0.306c1.315-1.564,3.232-2.462,5.263-2.462s3.948,0.898,5.264,2.462c0.17,0.202,0.413,0.306,0.656,0.306
	c0.197,0,0.393-0.064,0.555-0.202c0.364-0.306,0.411-0.848,0.104-1.212C14.348,4.558,11.951,3.439,9.413,3.439 M9.413,6.878
	c-1.525,0-2.963,0.671-3.948,1.843C5.16,9.083,5.208,9.625,5.571,9.93c0.159,0.138,0.355,0.201,0.551,0.201
	c0.247,0,0.49-0.104,0.661-0.305c0.654-0.783,1.614-1.23,2.63-1.23c1.016,0,1.975,0.447,2.63,1.23
	c0.171,0.201,0.414,0.305,0.66,0.305c0.196,0,0.392-0.063,0.552-0.201c0.363-0.305,0.411-0.848,0.106-1.209
	C12.375,7.549,10.938,6.878,9.413,6.878"/>
</svg>
