<?xml version="1.0" encoding="utf-8"?>
<!-- Generator: Adobe Illustrator 16.0.0, SVG Export Plug-In . SVG Version: 6.00 Build 0)  -->
<!DOCTYPE svg PUBLIC "-//W3C//DTD SVG 1.1//EN" "http://www.w3.org/Graphics/SVG/1.1/DTD/svg11.dtd">
<svg version="1.1" id="Layer_1" xmlns="http://www.w3.org/2000/svg" xmlns:xlink="http://www.w3.org/1999/xlink" x="0px" y="0px"
	 width="60px" height="60px" viewBox="0 0 60 60" enable-background="new 0 0 60 60" xml:space="preserve">
<path fill="none" stroke="#B7B7B7" stroke-miterlimit="10" d="M30.199,2.5C14.723,2.5,2.5,14.823,2.5,29.98
	c0,15.166,12.8,27.52,28.276,27.52c5.671,0,11.249-1.643,15.914-4.775c1.427-0.924,1.824-2.834,0.85-4.239
	c-0.943-1.398-2.863-1.727-4.298-0.803c-3.628,2.414-7.862,3.698-12.278,3.698c-12.036,0-21.817-9.611-21.817-21.4
	c0-11.788,9.017-21.399,21.053-21.399c12.067,0,21.053,9.611,21.053,21.399v1.521c0,2.537-2.066,4.6-4.656,4.6
	s-4.696-2.063-4.696-4.6V20.82c0-1.703-0.608-3.04-2.349-3.04c-1.279,0-1.973,0.741-2.465,1.817
	c-1.887-1.138-3.899-1.817-6.279-1.817c-6.911,0-12.402,5.454-12.402,12.2c0,6.747,5.64,12.24,12.527,12.24
	c3.534,0,6.701-1.437,8.986-3.729c1.981,2.261,4.15,3.729,7.434,3.729c6.037,0,10.148-4.807,10.148-10.72V29.98
	C57.5,14.823,45.683,2.5,30.199,2.5L30.199,2.5z M30.995,36.101c-3.448,0-6.248-2.743-6.248-6.12c0-3.369,2.8-6.119,6.248-6.119
	c3.44,0,6.248,2.75,6.248,6.119C37.242,33.357,34.435,36.101,30.995,36.101L30.995,36.101z M30.995,36.101"/>
</svg>
