<?xml version="1.0" encoding="utf-8"?>
<!-- Generator: Adobe Illustrator 16.0.0, SVG Export Plug-In . SVG Version: 6.00 Build 0)  -->
<!DOCTYPE svg PUBLIC "-//W3C//DTD SVG 1.1//EN" "http://www.w3.org/Graphics/SVG/1.1/DTD/svg11.dtd">
<svg version="1.1" id="Layer_1" xmlns="http://www.w3.org/2000/svg" xmlns:xlink="http://www.w3.org/1999/xlink" x="0px" y="0px"
	 width="20px" height="22px" viewBox="0 0 20 22" enable-background="new 0 0 20 22" xml:space="preserve">
<rect x="4.801" y="8" fill="#3B87C8" width="10.399" height="0.801"/>
<rect x="4.801" y="5.602" fill="#3B87C8" width="10.399" height="0.797"/>
<g>
	<defs>
		<rect id="SVGID_1_" width="19.92" height="22"/>
	</defs>
	<clipPath id="SVGID_2_">
		<use xlink:href="#SVGID_1_"  overflow="visible"/>
	</clipPath>
	<path clip-path="url(#SVGID_2_)" fill="#3B87C8" d="M17.602,6.719V4c0-0.879-0.723-1.602-1.602-1.602h-3.281L10,0L7.281,2.398H4
		C3.121,2.398,2.398,3.121,2.398,4v2.719L0,8.801V20c0,0.879,0.719,1.602,1.602,1.602h16.796C19.281,21.602,20,20.879,20,20V8.801
		L17.602,6.719z M17.602,7.762l1.199,1.039L17.602,9.84V7.762z M10,1.039l1.52,1.359H8.398L10,1.039z M3.199,4
		C3.199,3.52,3.52,3.199,4,3.199h12c0.398,0,0.801,0.403,0.801,0.801v6.48l-2.563,2.321H5.762l-2.563-2.242V4z M11.602,15.199H8.879
		h1.359h-1.84l-1.757-1.598h6.64L11.602,15.199z M2.398,7.762v2.16L1.199,8.801L2.398,7.762z M1.039,20.559
		c-0.16-0.16-0.238-0.32-0.238-0.559V9.602l6.398,5.597L1.039,20.559z M2,20.801L7.602,16h4.796L18,20.801H2z M19.199,14.801V20
		c0,0.238-0.078,0.398-0.238,0.559l-6.16-5.359l6.398-5.597V14.801z"/>
</g>
<rect x="4.801" y="10.398" fill="#3B87C8" width="10.399" height="0.801"/>
</svg>
