<?xml version="1.0" encoding="utf-8"?>
<!-- Generator: Adobe Illustrator 16.0.0, SVG Export Plug-In . SVG Version: 6.00 Build 0)  -->
<!DOCTYPE svg PUBLIC "-//W3C//DTD SVG 1.1//EN" "http://www.w3.org/Graphics/SVG/1.1/DTD/svg11.dtd">
<svg version="1.1" id="Layer_1" xmlns="http://www.w3.org/2000/svg" xmlns:xlink="http://www.w3.org/1999/xlink" x="0px" y="0px"
	 width="76.619px" height="61.79px" viewBox="0 0 76.619 61.79" enable-background="new 0 0 76.619 61.79" xml:space="preserve">
<g>
	<defs>
		<rect id="SVGID_1_" width="76.619" height="61.79"/>
	</defs>
	<clipPath id="SVGID_2_">
		<use xlink:href="#SVGID_1_"  overflow="visible"/>
	</clipPath>
	<path clip-path="url(#SVGID_2_)" fill="#B7B7B7" d="M23.986,16.512c0-1.118,0.142-2.201,0.385-3.245
		c-0.58-0.53-1.216-0.999-1.903-1.391c-0.432,1.473-0.674,3.026-0.674,4.636c0,4.1,1.511,7.847,3.994,10.737
		c0.46-0.631,0.859-1.309,1.172-2.035C25.104,22.798,23.986,19.787,23.986,16.512"/>
	<path clip-path="url(#SVGID_2_)" fill="#B7B7B7" d="M49.653,25.212c0.313,0.726,0.713,1.404,1.173,2.036
		c2.481-2.89,3.992-6.637,3.992-10.737c0-1.61-0.241-3.162-0.674-4.635c-0.687,0.392-1.322,0.861-1.901,1.391
		c0.241,1.044,0.384,2.127,0.384,3.244C52.627,19.786,51.51,22.797,49.653,25.212"/>
	<path clip-path="url(#SVGID_2_)" fill="#B7B7B7" d="M29.394,28.285l0.632,2.489c2.438,1.421,5.261,2.249,8.281,2.249
		c3.078,0,5.953-0.863,8.423-2.336c-0.092-0.032-0.146-0.047-0.153-0.049l0.651-2.549c0.123,0.031,0.868,0.239,1.947,0.821
		c0.032-0.029,0.063-0.058,0.096-0.086c-0.452-0.585-0.858-1.205-1.205-1.863c-2.561,2.392-5.986,3.87-9.759,3.87
		c-3.773,0-7.199-1.477-9.759-3.87c-0.347,0.659-0.753,1.279-1.205,1.863c0.078,0.069,0.152,0.142,0.231,0.21
		C28.584,28.506,29.276,28.315,29.394,28.285"/>
	<path clip-path="url(#SVGID_2_)" fill="#B7B7B7" d="M38.308,2.192c5.945,0,11.054,3.644,13.216,8.816
		c0.582-0.454,1.198-0.864,1.853-1.214C50.798,4.031,45.02,0,38.308,0c-6.712,0-12.49,4.031-15.07,9.794
		c0.655,0.349,1.272,0.759,1.853,1.213C27.252,5.836,32.36,2.192,38.308,2.192"/>
	<path clip-path="url(#SVGID_2_)" fill="#B7B7B7" d="M25.887,33.618c-1.061-0.9-1.936-1.341-2.286-1.472
		c-0.03,0.017-0.059,0.113-0.089,0.13c-3.226,3.361-6.718,8.994-7.47,20.719h2.643C19.458,41.271,22.969,36.428,25.887,33.618"/>
	<path clip-path="url(#SVGID_2_)" fill="#B7B7B7" d="M25.971,30.335c0.596,0.352,1.29,0.839,2.021,1.506
		c1.193-0.764,2.019-0.998,2.05-1.006l-0.016-0.061c-0.87-0.507-1.691-1.087-2.452-1.74c-0.237,0.124-0.493,0.27-0.762,0.434
		C26.545,29.77,26.265,30.059,25.971,30.335"/>
	<path clip-path="url(#SVGID_2_)" fill="#B7B7B7" d="M46.73,30.687c0.316,0.11,1.096,0.422,2.109,1.108
		c0.69-0.602,1.344-1.049,1.903-1.371c-0.462-0.424-0.898-0.875-1.294-1.362c-0.093-0.053-0.185-0.105-0.272-0.152
		C48.418,29.574,47.601,30.168,46.73,30.687"/>
	<path clip-path="url(#SVGID_2_)" fill="#B7B7B7" d="M53.172,32.19c-0.098,0.028-1.043,0.427-2.276,1.422
		c2.894,2.889,6.303,7.658,7.047,19.383h2.642c-0.71-11.725-3.989-17.088-7.123-20.55C53.364,32.396,53.267,32.243,53.172,32.19"/>
	<path clip-path="url(#SVGID_2_)" fill="#B7B7B7" d="M58.095,56.95c0,0.91-0.73,1.908-1.563,1.908H20.086
		c-0.847,0-1.562-0.938-1.562-1.811c0-0.649,0.012-2.098,0.029-2.098h-2.629c-0.017,0-0.031,1.599-0.031,2.248
		c0,2.339,1.881,4.592,4.193,4.592h36.446c2.272,0,4.193-2.338,4.193-4.689c0-0.616-0.016-2.15-0.029-2.15h-2.63
		C58.082,54.95,58.095,56.334,58.095,56.95"/>
	<path clip-path="url(#SVGID_2_)" fill="#B7B7B7" d="M27.574,29.034c0.76,0.653,1.582,1.233,2.452,1.74l-0.632-2.489
		C29.276,28.315,28.584,28.506,27.574,29.034"/>
	<path clip-path="url(#SVGID_2_)" fill="#B7B7B7" d="M47.228,28.089l-0.65,2.549c0.007,0.002,0.061,0.017,0.152,0.049
		c0.871-0.519,1.689-1.112,2.447-1.777C48.097,28.328,47.351,28.121,47.228,28.089"/>
	<path clip-path="url(#SVGID_2_)" fill="#B7B7B7" d="M59.353,10.492c5.82,0,10.556,4.736,10.556,10.556
		c0,5.821-4.735,10.557-10.556,10.557c-3.504,0-6.605-1.722-8.527-4.357c-0.48,0.561-1.003,1.084-1.554,1.576
		c0.06,0.078,0.115,0.161,0.178,0.238c0.514,0.293,1.09,0.663,1.707,1.138c0.765-0.395,1.289-0.54,1.379-0.563l0.602,2.359
		c0.107,0.114,0.216,0.229,0.324,0.347c1.765,0.925,3.766,1.454,5.892,1.454c2.307,0,4.468-0.626,6.337-1.702
		c-0.101-0.036-0.162-0.056-0.169-0.058l0.655-2.548c0.108,0.028,0.848,0.234,1.884,0.846c2.48-2.328,4.042-5.625,4.042-9.287
		c0-7.029-5.72-12.748-12.749-12.748c-2.159,0-4.192,0.543-5.977,1.494c0.302,0.673,0.56,1.367,0.77,2.083
		C55.684,11,57.458,10.492,59.353,10.492"/>
	<path clip-path="url(#SVGID_2_)" fill="#B7B7B7" d="M52.242,13.268c0.58-0.53,1.216-0.999,1.903-1.391
		c-0.211-0.716-0.468-1.41-0.77-2.082c-0.654,0.349-1.271,0.759-1.853,1.213C51.826,11.732,52.061,12.49,52.242,13.268"/>
	<path clip-path="url(#SVGID_2_)" fill="#B7B7B7" d="M48.066,26.961c0.347,0.658,0.752,1.279,1.204,1.863
		c0.552-0.492,1.073-1.015,1.556-1.576c-0.461-0.631-0.859-1.309-1.173-2.035C49.173,25.839,48.643,26.423,48.066,26.961"/>
	<path clip-path="url(#SVGID_2_)" fill="#B7B7B7" d="M53.172,32.19c0.095,0.053,0.192,0.102,0.289,0.153
		c-0.108-0.12-0.217-0.234-0.324-0.348l0.048,0.19C53.184,32.187,53.176,32.189,53.172,32.19"/>
	<path clip-path="url(#SVGID_2_)" fill="#B7B7B7" d="M50.743,30.425c0.145-0.083,0.281-0.157,0.413-0.224
		c-0.617-0.475-1.193-0.846-1.707-1.139C49.844,29.55,50.281,30,50.743,30.425"/>
	<path clip-path="url(#SVGID_2_)" fill="#B7B7B7" d="M68.06,30.335c-0.718,0.674-1.512,1.266-2.37,1.76
		c1.177,0.44,8.299,3.867,8.299,19.829c0,0.507-0.41,1.072-0.859,1.072H60.584c0.055,0.977,0.09,1.954,0.112,1.954h12.433
		c1.892,0,3.49-1.413,3.49-3.364C76.619,37.118,71.073,32.114,68.06,30.335"/>
	<path clip-path="url(#SVGID_2_)" fill="#B7B7B7" d="M48.84,31.796c0.616,0.418,1.319,0.979,2.056,1.714
		c1.233-0.995,2.179-1.291,2.276-1.319c-0.882-0.491-1.691-1.089-2.429-1.766C50.184,30.747,49.53,31.194,48.84,31.796"/>
	<path clip-path="url(#SVGID_2_)" fill="#B7B7B7" d="M57.942,52.996c0.06,0.977,0.101,1.954,0.124,1.954h2.629
		c-0.022,0-0.057-0.978-0.112-1.954H57.942z"/>
	<path clip-path="url(#SVGID_2_)" fill="#B7B7B7" d="M65.521,32.037c0.007,0.002,0.069,0.021,0.169,0.058
		c0.858-0.495,1.651-1.086,2.37-1.76c-1.037-0.612-1.776-0.818-1.885-0.846L65.521,32.037z"/>
	<path clip-path="url(#SVGID_2_)" fill="#B7B7B7" d="M53.137,31.996l-0.602-2.359c-0.09,0.023-0.613,0.168-1.379,0.563
		C51.785,30.686,52.455,31.281,53.137,31.996"/>
	<path clip-path="url(#SVGID_2_)" fill="#B7B7B7" d="M53.172,32.19c0.004-0.001,0.012-0.004,0.013-0.004l-0.048-0.19
		c-0.682-0.715-1.352-1.311-1.98-1.796c-0.132,0.068-0.268,0.141-0.413,0.224C51.48,31.103,52.29,31.699,53.172,32.19"/>
	<path clip-path="url(#SVGID_2_)" fill="#B7B7B7" d="M11.096,32.187c-0.001,0-0.009,0.003-0.013,0.004
		c1.832,1.021,3.938,1.607,6.18,1.607c2.271,0,4.401-0.604,6.249-1.649c0.02-0.021,0.041-0.043,0.06-0.063
		c-0.083-0.03-0.134-0.047-0.14-0.048l0.654-2.547c0.101,0.025,0.735,0.203,1.642,0.706c0.38-0.279,0.743-0.521,1.084-0.728
		c0.184-0.209,0.361-0.423,0.531-0.643c-0.551-0.492-1.073-1.015-1.555-1.576c-1.921,2.635-5.022,4.357-8.525,4.357
		c-5.821,0-10.557-4.736-10.557-10.557c0-5.821,4.736-10.556,10.557-10.556c1.894,0,3.668,0.507,5.206,1.383
		c0.209-0.716,0.467-1.41,0.768-2.082c-1.783-0.95-3.815-1.493-5.974-1.493c-7.03,0-12.749,5.718-12.749,12.748
		c0,3.71,1.603,7.044,4.14,9.376c0.989-0.568,1.687-0.76,1.793-0.787L11.096,32.187z"/>
	<path clip-path="url(#SVGID_2_)" fill="#B7B7B7" d="M24.371,13.267c0.182-0.778,0.416-1.536,0.719-2.26
		c-0.581-0.454-1.198-0.864-1.853-1.213c-0.301,0.672-0.559,1.367-0.769,2.082C23.155,12.268,23.791,12.736,24.371,13.267"/>
	<path clip-path="url(#SVGID_2_)" fill="#B7B7B7" d="M26.96,25.213c-0.313,0.726-0.712,1.404-1.172,2.036
		c0.482,0.56,1.004,1.083,1.555,1.575c0.452-0.584,0.858-1.205,1.205-1.863C27.971,26.423,27.441,25.839,26.96,25.213"/>
	<path clip-path="url(#SVGID_2_)" fill="#B7B7B7" d="M26.812,29.468c-0.341,0.207-0.704,0.449-1.084,0.728
		c0.08,0.044,0.159,0.09,0.243,0.139C26.265,30.059,26.544,29.77,26.812,29.468"/>
	<path clip-path="url(#SVGID_2_)" fill="#B7B7B7" d="M23.572,32.085c-0.02,0.021-0.04,0.043-0.06,0.063
		c0.03-0.017,0.058-0.036,0.088-0.054C23.591,32.092,23.581,32.088,23.572,32.085"/>
	<path clip-path="url(#SVGID_2_)" fill="#B7B7B7" d="M3.49,52.996c-0.466,0-0.86-0.513-0.86-0.998
		c0-17.071,8.159-19.672,8.452-19.756c-0.88-0.491-1.691-1.114-2.428-1.792C5.661,32.172,0,37.104,0,51.673
		c0,1.944,1.565,3.277,3.49,3.277h12.434c0.024,0,0.061-0.978,0.118-1.954H3.49z"/>
	<path clip-path="url(#SVGID_2_)" fill="#B7B7B7" d="M18.685,52.996h-2.643c-0.056,0.977-0.093,1.954-0.117,1.954h2.629
		C18.58,54.95,18.625,53.973,18.685,52.996"/>
	<path clip-path="url(#SVGID_2_)" fill="#B7B7B7" d="M23.601,32.095c0.351,0.132,1.225,0.521,2.286,1.422
		c0.764-0.735,1.483-1.277,2.106-1.676c-0.732-0.667-1.426-1.154-2.022-1.506C25.252,31.008,24.458,31.6,23.601,32.095"/>
	<path clip-path="url(#SVGID_2_)" fill="#B7B7B7" d="M11.096,32.187l-0.649-2.549c-0.106,0.027-0.804,0.219-1.793,0.787
		c0.738,0.677,1.548,1.275,2.429,1.766C11.087,32.189,11.095,32.187,11.096,32.187"/>
	<path clip-path="url(#SVGID_2_)" fill="#B7B7B7" d="M25.728,30.196c-0.906-0.503-1.541-0.681-1.642-0.707l-0.654,2.548
		c0.006,0.002,0.058,0.017,0.141,0.048C24.319,31.314,25.048,30.695,25.728,30.196"/>
	<path clip-path="url(#SVGID_2_)" fill="#B7B7B7" d="M25.971,30.335c-0.084-0.049-0.164-0.095-0.243-0.139
		c-0.679,0.499-1.408,1.118-2.155,1.889c0.008,0.003,0.018,0.007,0.028,0.01C24.458,31.601,25.253,31.009,25.971,30.335"/>
</g>
</svg>
