<?xml version="1.0" encoding="utf-8"?>
<!-- Generator: Adobe Illustrator 16.0.0, SVG Export Plug-In . SVG Version: 6.00 Build 0)  -->
<!DOCTYPE svg PUBLIC "-//W3C//DTD SVG 1.1//EN" "http://www.w3.org/Graphics/SVG/1.1/DTD/svg11.dtd">
<svg version="1.1" id="Layer_1" xmlns="http://www.w3.org/2000/svg" xmlns:xlink="http://www.w3.org/1999/xlink" x="0px" y="0px"
	 width="115.102px" height="47.017px" viewBox="0 0 115.102 47.017" enable-background="new 0 0 115.102 47.017"
	 xml:space="preserve">
<path fill="#C92723" d="M0,0v37.789c0,1.56,1.263,2.824,2.822,2.824h11.793v6.404c2.862-2.82,6.333-6.404,12.211-6.404h7.727
	c1.558,0,2.822-1.264,2.822-2.824V0H0z M34.668,37.993h-8.692c-3.145,0-5.671,0.771-8.833,3.098l0.005-3.098H2.708V2.686h31.961
	V37.993z"/>
<path fill="#C92723" d="M66.984,12.118V5.552c0-1.083-0.479-1.813-1.647-1.813c-0.979,0-1.896,0.688-2.333,1.334v7.044h-2.188V5.552
	c0-1.083-0.479-1.813-1.668-1.813c-0.959,0-1.854,0.688-2.313,1.355v7.023h-2.188V2.051h2.188v1.376
	c0.417-0.625,1.751-1.626,3.271-1.626c1.502,0,2.418,0.751,2.752,1.855c0.582-0.917,1.916-1.855,3.418-1.855
	c1.854,0,2.896,1.001,2.896,3.043v7.273H66.984z"/>
<path fill="#C92723" d="M71.38,7.074c0-2.876,1.98-5.273,5.169-5.273c3.229,0,5.188,2.397,5.188,5.273
	c0,2.897-1.959,5.293-5.188,5.293C73.361,12.368,71.38,9.971,71.38,7.074 M79.466,7.074c0-1.771-1.042-3.335-2.917-3.335
	c-1.854,0-2.896,1.564-2.896,3.335c0,1.792,1.042,3.355,2.896,3.355C78.424,10.429,79.466,8.866,79.466,7.074"/>
<path fill="#C92723" d="M83.072,10.804l1-1.584c0.709,0.73,2.105,1.417,3.418,1.417c1.313,0,1.98-0.562,1.98-1.354
	c0-0.833-1.063-1.062-2.293-1.333c-1.729-0.375-3.793-0.833-3.793-3.084c0-1.647,1.418-3.064,3.96-3.064
	c1.709,0,3.001,0.604,3.918,1.417l-0.917,1.542c-0.604-0.687-1.73-1.208-2.98-1.208c-1.146,0-1.876,0.521-1.876,1.229
	c0,0.729,1.001,0.938,2.189,1.209c1.75,0.375,3.896,0.875,3.896,3.251c0,1.771-1.479,3.126-4.188,3.126
	C85.677,12.368,84.114,11.826,83.072,10.804"/>
<path fill="#C92723" d="M93.45,10.888c0-0.792,0.667-1.459,1.459-1.459s1.459,0.667,1.459,1.459s-0.667,1.459-1.459,1.459
	S93.45,11.68,93.45,10.888"/>
<path fill="#C92723" d="M98.889,12.118V2.051h2.188v1.48c0.752-0.958,1.96-1.709,3.272-1.709V3.99
	c-0.188-0.042-0.417-0.063-0.688-0.063c-0.917,0-2.146,0.625-2.585,1.334v6.856H98.889z"/>
<path fill="#C92723" d="M112.914,12.118v-1.334c-0.729,0.813-1.979,1.584-3.563,1.584c-2.167,0-3.23-1.125-3.23-3.188V2.051h2.188
	v6.336c0,1.563,0.793,2.042,2.021,2.042c1.104,0,2.063-0.625,2.584-1.313V2.051h2.188v10.066H112.914z"/>
</svg>
