<?xml version="1.0" encoding="utf-8"?>
<!-- Generator: Adobe Illustrator 16.0.0, SVG Export Plug-In . SVG Version: 6.00 Build 0)  -->
<!DOCTYPE svg PUBLIC "-//W3C//DTD SVG 1.1//EN" "http://www.w3.org/Graphics/SVG/1.1/DTD/svg11.dtd">
<svg version="1.1" id="Layer_1" xmlns="http://www.w3.org/2000/svg" xmlns:xlink="http://www.w3.org/1999/xlink" x="0px" y="0px"
	 width="60px" height="60px" viewBox="0 0 60 60" enable-background="new 0 0 60 60" xml:space="preserve">
<path fill="none" stroke="#B7B7B7" stroke-miterlimit="10" d="M52.923,42.944c0.096,0.735-0.128,1.376-0.674,1.92l-6.399,6.339
	c-0.289,0.32-0.666,0.592-1.131,0.816s-0.923,0.368-1.371,0.433c-0.032,0-0.129,0.008-0.289,0.023
	c-0.16,0.017-0.369,0.024-0.626,0.024c-0.609,0-1.596-0.104-2.959-0.313c-1.363-0.207-3.031-0.72-5.004-1.536
	c-1.974-0.816-4.211-2.041-6.713-3.674s-5.165-3.874-7.988-6.723c-2.245-2.21-4.105-4.322-5.581-6.34
	c-1.477-2.017-2.663-3.881-3.562-5.595c-0.897-1.713-1.571-3.265-2.021-4.658c-0.449-1.393-0.754-2.593-0.914-3.602
	c-0.161-1.009-0.225-1.801-0.192-2.377c0.031-0.576,0.048-0.896,0.048-0.961c0.063-0.447,0.208-0.904,0.433-1.368
	s0.497-0.84,0.818-1.129l6.399-6.387c0.449-0.448,0.963-0.672,1.54-0.672c0.417,0,0.786,0.119,1.106,0.359
	c0.321,0.24,0.594,0.537,0.818,0.889l5.148,9.749c0.289,0.512,0.369,1.072,0.241,1.681c-0.129,0.608-0.401,1.121-0.818,1.536
	l-2.357,2.354c-0.064,0.064-0.121,0.168-0.169,0.313c-0.048,0.144-0.072,0.264-0.072,0.359c0.129,0.673,0.417,1.441,0.866,2.305
	c0.386,0.77,0.979,1.706,1.781,2.811c0.802,1.104,1.94,2.377,3.416,3.817c1.443,1.473,2.727,2.617,3.85,3.434
	c1.122,0.816,2.061,1.417,2.814,1.801s1.332,0.616,1.732,0.696l0.602,0.12c0.063,0,0.168-0.024,0.313-0.072s0.249-0.104,0.313-0.168
	l2.742-2.785c0.578-0.513,1.251-0.769,2.021-0.769c0.546,0,0.979,0.096,1.3,0.288h0.048l9.287,5.475
	C52.394,41.775,52.795,42.303,52.923,42.944L52.923,42.944z M52.923,42.944"/>
<g>
	<g>
		<path fill-rule="evenodd" clip-rule="evenodd" fill="#B7B7B7" d="M56.377,11.174H32.582l7.282-7.247
			c0.209-0.208,0.209-0.546,0-0.754l-0.379-0.377c-0.21-0.208-0.549-0.208-0.758,0l-8.738,8.695
			c-0.166,0.166-0.194,0.41-0.097,0.609c-0.008,0.145,0.039,0.291,0.15,0.401l8.645,8.602c0.207,0.207,0.542,0.207,0.749,0
			l0.375-0.372c0.207-0.206,0.207-0.54,0-0.746l-7.251-7.217h23.817c0.437,0,0.79-0.354,0.79-0.79v-0.014
			C57.167,11.528,56.813,11.174,56.377,11.174z"/>
	</g>
</g>
</svg>
